<svg width="320" height="459" viewBox="0 0 320 459" fill="none" xmlns="http://www.w3.org/2000/svg">
<g clip-path="url(#clip0_172_532)">
<path fill-rule="evenodd" clip-rule="evenodd" d="M108.02 284.834C108.157 289.785 108.959 294.721 109.562 299.644C110.045 304.51 110.956 309.422 111.688 314.198C111.717 315.033 112.868 315.439 113.424 314.818C113.41 303.96 110.502 292.819 111.532 281.734C110.701 281.271 109.856 280.76 109.049 280.249C107.962 281.68 107.841 283.333 108.02 284.834M150.991 220.818C152.235 225.327 154.871 229.214 156.025 233.73L157.244 233.609C157.844 223.647 156.158 213.86 154.188 204.233L152.963 204.305C152.531 209.853 149.689 215.108 150.991 220.818M16.7728 184.125C16.8391 183.94 16.9063 183.751 16.9693 183.559L17.683 183.711C16.3535 181.197 17.5933 180.37 19.0977 178.291L19.2615 178.669L19.8403 177.406C19.9552 177.085 20.0726 176.813 20.39 176.693C20.7001 175.122 21.623 173.683 22.8522 172.901L23.0876 173.165C23.5748 172.74 24.162 172.579 24.7211 172.382C23.521 170.573 22.749 168.227 21.9398 166.288C21.2809 164.252 20.2507 162.275 20.0571 160.21C20.2129 158.226 22.092 159.515 23.0085 160.505C25.808 162.955 28.219 166.836 30.0258 171.55C33.1284 170.744 34.9083 171.594 35.7701 175.826C36.5635 178.7 37.3745 181.649 37.4817 184.629C37.8982 184.486 38.6372 183.95 39.0364 184.371C45.9321 191.902 54.0742 197.704 61.9484 204.054C67.899 199.684 70.9955 191.04 74.2682 184.551C79.9775 173.413 85.6868 157.107 100.372 157.164C102.318 156.962 104.219 156.729 106.056 156.165C106.768 155.972 107.647 155.74 107.888 155.309C108.324 153.919 108.406 152.416 109.171 151.142C111.271 147.736 115.819 147.468 119.383 148.208C125.435 149.327 125.282 148.674 125.719 155.027C125.85 156.535 127.021 156.751 128.271 157.063C129.691 157.51 131.137 157.875 132.596 158.169C132.444 158.126 132.293 158.084 132.141 158.042C155.825 158.416 171.55 185.838 174.67 205.237C178.293 225.085 173.607 247.173 166.198 263.843C166.516 269.914 165.323 276.012 164.567 281.996C164.093 283.493 162.452 283.638 161.982 281.904L161.404 279.622L160.784 281.894C160.392 283.299 159.761 283.466 159.193 283.476C158.489 283.476 158.102 283.13 158.079 281.302L156.913 281.022C156.463 281.877 156.017 282.633 155.31 283.158C153.89 293.465 152.998 304.181 149.551 314.154C148.176 317.855 146.065 321.215 144.514 324.846C151.825 341.316 153.05 359.567 154.806 377.202C154.664 377.213 153.939 377.276 153.784 377.289L154.184 378.351C154.731 378.582 155.052 379.069 155.218 379.607C155.587 379.577 157.125 379.588 157.04 379.94C156.862 382.012 156.28 383.49 155.177 384.569C155.162 384.901 155.141 385.24 155.115 385.554C157.303 393.174 158.907 401.298 159.881 409.674C161.119 410.863 161.429 414.776 159.582 415.819C154.483 419.324 147.633 420.988 141.184 420.356C134.204 419.697 125.88 416.921 129.22 408.976C129.263 408.729 129.602 408.717 129.87 408.771C130.461 408.198 131.103 407.765 131.797 407.521C133.175 404.085 134.415 400.481 135.497 396.884C136.024 395.231 136.569 393.523 136.524 391.711C136.263 387.261 135.804 385.422 132.706 381.917C130.788 382.838 127.133 376.173 126.296 374.774C124.534 370.635 122.288 366.873 120.407 362.813C120.116 362.127 119.101 362.112 118.703 362.707C118.524 362.957 118.479 363.266 118.58 363.556C120.219 368.275 122.45 372.781 124.602 377.182C123.869 379.739 123.579 384.01 121.745 385.912C120.748 392.537 127.574 395.572 123.175 402.918C124.664 403.02 124.803 403.614 124.777 405.419C124.782 406.714 124.815 408.074 124.571 409.285C124.274 410.773 122.898 411.172 120.833 411.611C119.159 411.98 117.547 412.402 115.886 412.801C114.206 413.358 112.437 413.313 111.746 411.617C103.428 414.431 79.4476 414.109 71.5163 410.38C69.326 409.505 67.7812 409.011 69.7926 406.547C70.8999 399.516 88.9778 404.543 91.5314 396.832C91.8957 395.83 92.4221 395.304 93.4465 395.121C93.2903 394.326 93.4988 393.442 94.386 393.213C94.653 393.133 94.9376 393.112 95.2125 392.862C95.8951 391.458 97.0145 390.607 98.3186 389.861C97.786 389.096 98.2164 388.74 98.4562 387.884C98.6994 386.247 98.1404 384.678 98.169 383.087C97.8693 382.585 97.6379 381.882 97.1583 381.534C96.7138 381.221 96.9902 381.085 97.1634 380.74C97.0311 380.623 96.7321 380.358 96.597 380.252C96.0775 379.682 96.622 378.85 97.2881 378.786C97.37 378.511 97.4674 378.192 97.5297 377.92C95.6878 372.394 93.5144 365.219 92.7928 357.617C92.0945 345.458 92.7494 335.207 89.0371 322.85C83.8479 303.284 73.7669 284.923 73.6309 264.218C73.8041 260.786 72.8507 257.132 73.7151 253.764L72.6416 253.206C72.487 253.384 72.2078 253.379 72.152 253.137C71.4478 251.997 72.2372 250.629 72.3992 249.38C72.0307 248.987 72.2147 248.628 72.6594 248.413C77.428 231.614 85.404 229.16 83.2084 208.162C79.6259 215.737 71.6901 223.405 62.9425 222.278C54.1305 223.592 33.5743 202.17 29.6042 195.245C28.8766 195.302 28.8677 194.781 28.757 194.291C25.1309 194.716 21.7368 191.876 21.6692 188.402C18.4873 190.37 15.0868 187.559 16.7728 184.125" fill="white"/>
<path fill-rule="evenodd" clip-rule="evenodd" d="M42.1349 206.915L42.4765 207.219C48.0624 212.175 53.9877 217.121 60.981 219.922C61.9283 220.267 62.9157 220.359 63.8888 220.565C72.0225 220.645 77.5459 214.361 82.6966 208.943C82.2652 199.672 82.622 190.098 86.2943 181.434L86.382 181.211C87.2804 178.945 88.3788 176.698 90.1353 174.966C90.1787 174.924 90.2381 174.987 90.201 175.031C88.702 176.863 87.8292 179.1 87.2024 181.357L87.1707 181.472C85.0334 189.115 84.6618 197.136 84.9429 205.03L84.9516 205.269C85.1436 210.604 85.6055 215.967 84.9615 221.29C84.492 226.784 82.0546 231.752 79.4001 236.497C77.0861 240.88 75.3566 245.565 74.3081 250.407C74.6453 251.836 75.8668 252.883 77.1365 253.679C79.4311 255.092 82.0898 255.866 84.6866 256.514C95.312 259.234 106.379 260.496 117.311 259.179C128.974 257.669 140.356 254.545 151.651 251.363C152.813 251.008 154.102 250.686 155.211 250.133C155.286 250.052 155.373 249.983 155.469 249.926C155.661 247.223 155.915 244.545 156.104 241.849C155.848 236.627 154.394 231.549 152.165 226.833C148.092 219.101 149.437 214.399 151.92 206.522C152.491 204.517 152.898 202.42 152.847 200.353C152.587 199.052 152.336 197.749 152.104 196.443C152.008 196.192 151.902 195.944 151.785 195.697C151.762 195.651 151.826 195.614 151.855 195.657C151.907 195.731 151.957 195.806 152.006 195.883C151.834 194.886 151.675 193.888 151.535 192.887C151.516 192.755 151.687 192.703 151.736 192.832C156.199 204.802 158.79 217.634 158.684 230.425C158.62 234.192 158.36 237.957 158.083 241.714L158.109 242.077C158.207 243.499 158.259 244.948 157.76 246.303C157.653 248.627 157.258 250.923 157.381 253.254C157.669 255.382 158.313 256.888 159.916 258.36C161.503 259.968 163.32 261.298 165.39 262.221C173.996 237.137 179.038 211.081 166.593 186.279C160.817 174.203 150.874 163.353 137.53 159.903C139.432 161.997 137.95 165.13 136.582 167.127L136.499 167.248C129.95 176.918 115.53 179.222 104.716 177.119C99.4767 176.223 94.5645 172.843 94.1464 167.19C93.8217 163.404 95.9842 159.669 99.2532 157.804L98.8551 157.847C95.6735 158.2 92.5837 158.708 90.1415 160.977C81.1407 169.277 76.9651 181.098 71.6483 191.799L71.4367 192.189C69.1595 196.397 66.959 200.943 63.1755 203.995L63.8826 204.596V204.596C63.9717 204.672 63.8764 204.845 63.7637 204.799C63.3996 204.653 63.038 204.498 62.6777 204.342C62.1693 204.748 61.5856 204.337 61.5248 203.821C52.969 199.739 45.7377 193.265 39.0254 186.698C37.3306 190.609 34.4727 194.876 29.8976 195.515C34.2169 199.047 38.0397 203.13 42.1349 206.915ZM110.906 281.913C110.351 281.598 109.802 281.271 109.261 280.932C108.368 282.356 108.596 283.607 108.692 285.18C108.896 287.804 108.85 290.473 109.384 293.055C110.309 299.644 110.856 306.53 112.23 312.952C112.261 313.311 112.293 313.669 112.321 314.028C112.358 314.501 113.101 314.503 113.064 314.028C112.159 303.369 110.239 292.647 110.906 281.913ZM105.87 410.325C98.8992 411.478 91.7838 410.66 84.8105 409.919L83.7869 409.787C80.4863 409.359 77.1662 408.91 73.9243 408.192C73.6511 407.967 73.2302 407.867 73.0661 407.534L72.866 407.548C72.697 407.453 72.5246 407.363 72.3495 407.279C71.8403 407.188 71.4252 407.077 70.8993 406.934C70.1856 407.175 70.1113 407.801 70.5956 408.244C70.5472 408.47 70.8184 408.599 70.9956 408.699C71.024 408.756 71.0682 408.81 71.1345 408.856C71.4523 409.057 71.7734 409.296 72.1375 409.395C73.0271 410.317 74.9375 410.667 75.9899 410.854L76.0939 410.872C84.839 412.432 93.7856 412.852 102.641 412.147C104.168 412.025 105.694 411.869 107.214 411.68L107.628 411.628C108.941 411.458 110.388 411.393 111.398 410.436C111.9 409.96 112.907 410.26 112.879 411.017L112.877 411.046C112.789 412.29 115.706 411.261 116.283 411.1L116.3 411.096C117.915 410.659 119.52 410.177 121.14 409.761L121.537 409.684C122.944 409.406 123.053 409.265 123.069 407.527L123.121 407.054C123.192 406.424 123.268 405.797 123.37 405.172L123.409 404.937C123.455 404.675 123.904 403.049 123.157 403.264C123.063 403.292 122.971 403.216 122.966 403.125C117.719 406.456 112.042 409.243 105.87 410.325ZM133.582 414.517L133.137 414.251C132.391 413.801 131.642 413.313 131.113 412.629C130.24 412.662 129.881 411.843 129.914 411.112C129.182 413.488 130.09 415.389 132.238 416.592C139.718 420.55 149.288 419.967 156.734 416.204C157.449 415.836 158.147 415.437 158.825 415.007L158.977 414.91C159.231 414.748 159.477 414.573 159.612 414.295C159.938 413.343 159.934 412.404 159.969 411.343C159.405 412.101 158.468 412.627 157.69 413.149C156.206 414.139 154.597 414.925 152.929 415.556C146.752 417.843 139.416 417.704 133.582 414.517ZM156.206 219.428C155.609 214.266 154.587 209.176 153.596 204.079C153.194 209.556 150.342 214.89 151.61 220.431C152.85 224.892 155.506 228.848 156.641 233.348C156.862 228.701 156.726 224.052 156.206 219.428ZM148.855 264.218C149.526 264.34 150.216 264.337 150.894 264.289C153.645 263.957 154.08 265.618 154.071 267.94C154.154 269.441 154.246 270.942 154.325 272.443L154.37 273.345C154.427 274.545 154.579 275.887 154.427 277.142C154.926 278.281 155.195 279.469 155.274 280.714C155.503 280.653 155.749 280.682 155.924 280.802C156.934 279.008 157.175 276.819 157.383 274.799C157.485 273.806 158.949 273.76 158.971 274.799C158.999 276.212 159.02 277.625 159.045 279.038L159.083 281.218V281.218L159.083 281.25C159.077 281.561 158.936 282.345 159.319 282.315L159.341 282.312C160.053 282.259 160.086 279.731 160.24 279.101L160.835 274.873V274.873C160.968 273.927 162.332 274.236 162.426 275.061L162.428 275.088C162.595 277.02 162.764 278.952 162.907 280.886C162.953 281.22 162.959 281.826 163.325 281.971C163.648 281.682 163.709 281.195 163.778 280.79C164.387 275.211 165.53 269.703 166.235 264.138C165.778 264.072 165.359 263.789 165.226 263.352C161.558 262.605 157.71 260.546 155.868 257.201C155.5 257.524 155.212 257.947 154.856 258.279C154.292 258.806 153.673 259.281 153.081 259.773C151.422 261.174 149.757 262.496 148.132 263.94C148.369 264.018 148.586 264.17 148.855 264.218ZM108.956 150.014C108.937 149.941 108.835 149.962 108.831 150.031C108.729 151.437 108.391 152.921 107.876 154.3C107.691 154.33 107.514 154.434 107.385 154.635C107.212 154.905 106.383 155.094 105.95 155.221L105.888 155.239C104.092 155.792 102.217 156.016 100.354 156.213C91.5919 156.696 88.4028 159.435 83.4596 166.355C77.5918 174.15 74.2995 183.402 69.8761 192.006C68.7876 194.099 67.6124 196.142 66.3209 198.117L66.1977 198.304C65.044 200.055 63.7676 201.829 62.0052 203.011C57.7406 199.445 53.18 196.261 48.9613 192.639L48.5668 192.299C45.4016 189.57 42.3788 186.678 39.5022 183.648C39.1629 183.29 38.5264 183.197 38.0558 183.406C37.8719 180.679 37.0997 178.004 36.3876 175.369C35.64 171.975 34.3414 169.681 30.4239 170.521C28.847 166.561 26.7355 162.696 23.5385 159.805L23.3333 159.621C22.6527 159.004 21.7594 158.12 20.8033 158.2C19.9352 158.272 19.4894 159.055 19.4547 159.852C19.415 160.797 19.8282 161.76 20.1244 162.646L20.1494 162.722C20.5309 163.885 20.942 165.038 21.3766 166.183C21.7952 167.285 22.2435 168.375 22.7128 169.456C23.1912 170.36 23.543 171.857 24.4143 172.403C24.864 172.67 25.3273 172.311 25.3752 171.853C25.4433 171.252 25.0966 170.724 24.8415 170.201C24.6062 169.72 24.3759 169.237 24.1517 168.75C23.251 166.794 22.4427 164.796 21.7481 162.759C21.5418 162.073 20.6973 160.29 20.9903 159.673C21.2836 159.676 21.8876 160.294 22.1011 160.477C25.4594 163.252 27.6421 167.085 30.1391 170.582C28.5721 171.029 26.8713 171.239 25.5696 172.287C22.8926 174.617 25.0424 179.229 28.6308 178.371C27.6292 180.493 26.7679 183.922 28.5429 185.839C29.0766 186.338 30.1131 186.178 30.2753 185.384C30.4487 184.54 30.2407 183.817 30.0499 182.999C29.7045 181.334 29.4949 179.629 29.7305 177.934L29.8045 177.89C30.4128 177.522 30.7953 177.108 30.7769 176.347C30.8561 175.797 30.2679 175.056 29.6772 175.506C29.4853 175.652 29.2512 175.663 29.0494 175.809C28.707 176.134 28.2816 176.39 27.7963 176.386L27.7491 176.384C27.125 176.379 26.6643 176.004 26.4736 175.422C25.951 173.825 27.7603 173.288 28.9367 172.981L29.2406 172.887C32.4517 171.908 33.6156 171.893 34.4225 175.655C35.2964 178.463 36.0667 181.353 37.5444 183.918L37.3605 184.356C35.8749 187.885 34.0098 191.947 30.0153 193.029C29.8739 191.85 28.5953 191.808 27.6699 191.837C26.4754 191.773 25.2765 191.169 24.4328 190.3C23.6958 189.56 23.325 188.529 22.5097 187.869C22.8787 187.032 22.0453 186.109 21.1748 186.59C20.5878 186.914 20.2336 187.375 19.5253 187.469C18.8975 187.553 18.3192 187.334 17.8424 186.933C16.5979 185.885 17.1898 184.344 16.8852 182.971C17.2864 183.663 17.9526 184.193 18.6659 184.56C23.4288 187.276 23.381 181.95 20.7488 182.825C17.8895 182.177 17.9378 181.146 19.0064 178.727L19.0255 178.67C19.1993 178.162 19.5876 177.265 19.2269 176.718C19.2071 176.69 19.1712 176.682 19.1452 176.706C18.8182 177.027 18.6894 177.565 18.4134 177.942L18.0843 178.334C17.0848 179.535 16.039 180.962 16.6883 182.565C16.6189 182.55 16.5434 182.58 16.5199 182.664C16.2128 183.778 15.6023 184.872 15.7286 186.064C15.9927 188.675 18.8321 190.109 21.1835 189.021C21.6357 192.378 24.9562 194.795 28.2841 194.645C28.3893 195.105 28.7311 195.51 29.2599 195.552C34.1575 203.375 53.4097 223.5 62.851 222.659C63.7538 223.068 64.903 222.863 65.859 222.74C73.1914 221.786 79.3193 216.439 82.7375 210.102C83.994 230.861 76.8935 230.609 72.1423 247.806C71.6668 248.104 71.3894 248.753 71.7584 249.301C71.5544 250.342 71.137 251.408 71.2977 252.476C71.377 252.78 71.5367 253.058 71.6816 253.337C71.9798 253.906 72.766 253.837 73.1342 253.395C72.5098 255.647 72.7761 258.011 72.9361 260.307C73.0339 261.656 73.0264 262.985 73.0278 264.335C73.2141 284.881 83.2801 303.405 88.4549 322.897C89.9186 328.361 91.043 333.929 91.4851 339.573C91.9544 345.577 91.6275 351.614 92.1922 357.611C92.8467 364.557 94.7073 371.307 96.902 377.909C96.7706 378.444 96.4979 379.053 96.6663 379.514C99.8015 380.041 102.827 380.999 105.872 381.888C105.991 381.922 106.066 381.996 106.103 382.084L106.799 382.314V382.314C107.251 382.464 107.057 383.179 106.602 383.028L105.841 382.776C103.239 381.918 100.607 381.098 97.9007 380.713L97.8176 380.679C97.2765 380.463 96.6399 380.305 96.3548 380.899C96.2101 381.2 96.3247 381.504 96.5313 381.742C96.7059 381.944 96.9281 382.068 97.0808 382.296C97.2516 382.596 97.3962 382.912 97.5657 383.217C97.5641 384.725 98.0618 386.218 97.8687 387.723C97.7235 388.347 97.2159 388.946 97.5381 389.614L97.3914 389.707C96.5376 390.254 95.7216 390.854 95.1605 391.699C95.0379 391.884 94.945 392.265 94.8051 392.396C94.659 392.531 94.3865 392.548 94.207 392.612C93.2977 392.887 92.7256 393.706 92.8039 394.656C90.6746 395.267 91.408 397.423 89.2103 398.923C86.954 400.553 83.8991 400.732 81.2342 401.155L76.6932 401.877V401.877L76.4291 401.909C73.5549 402.262 69.8062 402.928 69.2279 406.275L69.1815 406.329C68.4869 407.155 67.819 408.725 68.6764 409.622C69.3735 410.239 70.3254 410.529 71.1696 410.888C72.34 411.731 74.0269 412.124 75.3112 412.361C86.4139 414.411 97.8513 414.649 109.029 413.058L109.216 413.031C109.997 412.915 110.803 412.757 111.516 412.423C112.514 414.097 114.434 413.886 116.051 413.411C117.321 413.098 118.59 412.79 119.859 412.481L119.978 412.45C121.939 411.948 124.719 411.796 125.194 409.412C125.439 408.184 125.423 406.819 125.411 405.571L125.413 405.162C125.415 404.111 125.332 402.687 124.139 402.465C125.796 399.403 125.435 395.639 123.891 392.604L123.809 392.455C122.673 390.378 121.964 388.644 122.341 386.19C123.097 385.48 123.45 384.46 123.73 383.457C124.318 381.345 124.832 379.212 125.266 377.063L124.592 375.683C122.615 371.631 120.659 367.562 119.181 363.3C119.046 362.908 119.683 362.632 119.86 363.014C121.729 367.056 124.013 370.897 125.753 375C126.906 377.145 128.29 379.163 129.843 381.041L129.911 381.137C130.514 381.96 131.019 382.234 132.008 382.573C132.167 382.64 132.328 382.641 132.479 382.598C133.424 383.874 134.57 384.885 135.066 386.409C135.607 388.094 135.814 389.947 135.921 391.709C135.977 394.004 135.018 396.171 134.416 398.351C133.495 401.287 132.469 404.191 131.334 407.053C130.728 407.298 130.178 407.674 129.67 408.137C129.248 408.096 128.802 408.288 128.644 408.801L128.578 409.016C128.019 410.864 127.545 412.999 128.271 414.85C130.277 419.335 136.723 420.454 141.133 420.991C147.662 421.609 154.512 420.053 159.948 416.344C160.716 415.807 161.239 415.197 161.367 414.245L161.38 414.127C161.556 412.536 161.597 410.648 160.489 409.415C159.542 401.347 157.991 393.282 155.757 385.466C155.775 385.245 155.788 385.025 155.799 384.803C157.046 383.508 157.534 381.686 157.674 379.936C157.69 379.201 156.944 379.047 156.366 378.957L156.152 378.955C154.267 378.942 152.321 379.034 150.638 379.736L150.721 379.739C150.806 379.744 150.895 379.753 150.96 379.798C150.117 380.067 149.197 380.187 148.391 380.541C147.794 380.57 147.274 380.853 146.669 380.904L146.573 380.91C146.466 380.919 146.384 380.887 146.325 380.834C144.701 381.123 143.086 381.511 141.465 381.749C140.997 381.818 140.795 381.105 141.267 381.035C143.436 380.717 145.596 380.134 147.78 379.864C148.263 379.677 148.73 379.437 149.214 379.245C149.242 379.181 149.295 379.123 149.381 379.083C149.912 378.834 150.464 378.63 151.028 378.459C152.475 378.012 153.994 377.824 155.5 377.735L155.394 376.661C153.661 359.107 152.396 341.084 145.205 324.737C146.733 321.217 148.811 317.865 150.148 314.244C150.702 312.797 151.039 311.322 151.479 309.845C151.765 309.138 152.001 308.421 152.115 307.663C153.876 299.631 154.871 291.461 155.91 283.314C156.609 282.737 157.071 281.907 157.476 281.142L157.478 281.259C157.502 282.516 157.68 283.965 159.268 283.928C160.55 283.897 161.111 282.944 161.398 281.889C161.956 284.094 164.437 284.215 165.164 282.043C165.488 281.167 165.475 280.168 165.571 279.249C166.089 274.205 167.171 269.164 166.86 264.085C167.187 263.973 167.472 263.724 167.611 263.309C173.803 244.602 179.313 224.583 175.293 204.844C171.274 185.504 160.39 163.854 139.82 158.37C135.656 157.321 131.425 156.965 127.157 156.694C126.541 155.505 126.143 154.153 126.062 152.808C126.037 152.419 126.056 152.034 126.057 151.646C126.058 151.287 125.905 150.859 125.977 150.523C125.994 150.442 125.882 150.414 125.853 150.49C125.762 150.725 125.578 150.844 125.453 151.042C125.142 151.604 125.059 152.27 124.977 152.898C124.669 155.347 125.371 157.867 126.856 159.834L126.908 159.901C127.368 160.516 128.245 161.628 129.152 161.096C129.942 160.63 129.436 159.682 128.964 159.174L128.929 159.136C128.291 158.475 127.756 157.768 127.321 156.997C129.253 157.511 131.169 158.076 133.094 158.611L133.186 158.661C134.694 159.48 136.935 160.357 136.737 162.387C132.727 174.456 114.987 177.557 104.023 174.676L103.848 174.628C101.751 174.052 99.6501 173.124 98.2227 171.434L98.1636 171.363C95.6293 168.371 95.8235 163.427 98.9969 160.97C100.882 159.43 103.486 158.612 105.837 158.079C105.154 159.212 103.641 160.012 103.366 161.353C103.295 161.814 103.55 162.251 104.059 162.261C105.352 162.286 106.306 160.909 106.984 159.984C108.4 158.048 109.204 155.708 109.375 153.325C109.461 152.165 109.247 151.12 108.956 150.014ZM23.4137 171.786C23.4823 171.74 23.4444 171.601 23.3518 171.639C19.8374 173.091 18.4028 178.294 21.0485 181.159C21.9265 182.083 23.2428 182.617 24.4415 182.132C25.9148 181.884 26.7754 180.4 26.964 179.033C26.9768 178.969 26.9052 178.94 26.8647 178.98L26.8575 178.989C26.3009 179.673 25.4234 180.131 24.6236 180.481C24.3994 180.36 24.1542 180.264 23.9078 180.207C23.5573 180.129 23.1982 180.402 23.2317 180.759C21.5774 180.457 20.9143 178.494 20.8641 177.004L20.8627 176.959C20.7959 174.898 21.7308 172.992 23.4137 171.786Z" fill="black"/>
<path fill-rule="evenodd" clip-rule="evenodd" d="M129.058 97.4777C121.254 97.0533 114.341 94.8691 108.848 99.7575C108.848 99.7575 99.962 93.1466 98.4794 95.6645C97.4859 97.3516 98.8636 99.6164 98.4942 101.698C96.0854 105.789 96.2216 112.714 96.0854 114.336C95.7421 118.426 93.5799 133.817 93.5799 137.472C93.5799 139.337 95.1239 144.223 96.0854 146.942C98.2255 152.994 102.311 156.079 109.01 156.079C115.71 156.079 126.645 150.5 130.152 145.547C130.459 145.113 132.447 146.38 134.526 144.183C136.778 141.803 138.027 137.264 138.027 134.559C138.027 131.125 140.254 128.744 139.995 124.35C139.417 114.535 137.408 97.9318 129.058 97.4777Z" fill="white"/>
<path fill-rule="evenodd" clip-rule="evenodd" d="M129.929 86.0665C129.828 86.0604 129.725 86.0653 129.622 86.0753C129.51 86.0802 129.397 86.0912 129.284 86.1135C128.711 86.2232 128.2 86.5255 127.803 86.9511C127.792 86.9622 127.783 86.9746 127.774 86.9856C127.588 87.125 127.416 87.283 127.261 87.4507C127.234 87.4248 127.208 87.399 127.179 87.3731C127.097 87.3014 127.012 87.2336 126.923 87.1696C126.55 86.8508 126.112 86.6191 125.641 86.4873L125.577 86.4699C125.564 86.4662 125.552 86.4638 125.54 86.4613C125.205 86.3504 124.854 86.2936 124.499 86.2948C124.076 86.2812 123.651 86.3504 123.255 86.5131C122.786 86.7069 122.377 87.0128 122.034 87.3805C121.808 87.5631 121.612 87.7641 121.404 87.985C120.974 88.4426 120.635 88.978 120.42 89.5678C120.391 89.6505 120.365 89.7355 120.341 89.8206C119.817 89.7603 119.291 89.7171 118.765 89.696C118.174 89.6603 117.583 89.6479 116.991 89.6677C115.36 89.7207 113.765 90.007 112.221 90.5313C111.912 90.6225 111.611 90.7384 111.321 90.8815C110.867 91.0616 110.437 91.2911 110.032 91.5687L109.687 91.7725C109.514 91.8751 109.34 91.979 109.172 92.0856C108.772 92.3411 108.394 92.6272 108.034 92.9356C107.656 93.2404 107.298 93.5723 106.957 93.9201C106.865 94.0142 106.775 94.1095 106.687 94.2055C105.902 94.6276 105.205 95.1679 104.555 95.8124C104.039 95.5168 103.505 95.2488 102.954 95.0106C102.385 94.7651 101.663 94.5122 101.068 94.3458C100.533 94.1965 100.004 94.0941 99.4676 94.0187C99.2237 93.9768 98.9785 93.9435 98.732 93.9151L98.7419 93.9189V93.9189C98.5686 93.9003 98.3965 93.8843 98.2218 93.8695L98.2268 93.8682V93.8682C98.1525 93.8622 98.077 93.8559 98.0027 93.851L97.8219 93.8363V93.8363C97.7674 93.8314 97.6881 93.9583 97.6832 94.0027L97.677 94.0484V94.0484C97.6361 94.0941 97.599 94.1447 97.573 94.1755C97.5408 94.173 97.5086 94.1706 97.4764 94.1693C97.3798 94.1607 97.2683 94.3321 97.2114 94.3975L97.1599 94.4578C97.1012 94.5281 97.0426 94.609 97.033 94.6973C96.9699 95.2094 96.9104 95.7224 96.856 96.2356C96.8349 96.6243 96.856 97.0092 96.9204 97.3904C96.9686 97.7605 97.0182 98.1306 97.0677 98.4994C97.147 98.7586 97.225 99.0177 97.303 99.2766C97.334 99.3755 97.3686 99.4728 97.4021 99.5703C97.6001 100.221 97.8323 100.855 98.1088 101.469C97.9071 101.691 97.719 101.921 97.544 102.159C97.5021 102.202 97.46 102.245 97.4206 102.289C97.4095 102.272 97.3934 102.256 97.3761 102.247C97.3166 102.221 97.2733 102.252 97.2361 102.303C96.8461 102.674 96.5625 103.107 96.3866 103.602L96.2771 103.86C96.2589 103.903 96.2409 103.946 96.2232 103.989C96.0832 104.364 95.9755 104.749 95.8863 105.139C95.8066 105.446 95.7494 105.757 95.7125 106.071C95.445 106.966 95.2335 107.881 95.034 108.784C95.0025 108.926 95.0174 109.053 95.0631 109.161L94.9464 109.274V109.274L94.7471 109.472C94.4123 109.805 94.0707 110.154 93.822 110.55C93.5645 110.961 93.375 111.4 93.1645 111.835L93.1191 111.928V111.928L93.0264 112.114C92.9262 112.316 92.8781 112.428 92.7893 112.673C92.6419 113.081 92.5626 113.492 92.5255 113.925C92.471 114.556 92.4784 115.243 92.7558 115.829C92.7571 115.834 92.7595 115.838 92.762 115.841C92.8883 116.407 93.2004 116.933 93.6747 117.268C93.7762 117.364 93.8852 117.449 94.0016 117.516C94.281 117.68 94.5375 117.694 94.8424 117.619L94.8808 117.609C94.9192 117.599 94.9539 117.59 94.9873 117.583C94.9378 117.624 94.913 117.672 94.9873 117.706C95.0591 117.741 95.1235 117.761 95.1842 117.768C95.1582 117.801 95.1557 117.837 95.2102 117.867C95.3291 117.93 95.4257 117.95 95.5247 117.932L95.5039 118.104C95.3415 119.401 95.1961 119.658 95.069 121.052C94.9848 122.479 94.8511 123.903 94.6666 125.321L94.603 125.836C94.3993 127.468 94.1702 129.113 93.8196 130.719C93.6425 131.421 93.4902 132.128 93.3614 132.84C93.1793 133.381 93.0518 133.935 92.9812 134.5C92.8784 135.075 92.8078 135.655 92.767 136.24C92.6246 136.614 92.5552 136.994 92.5589 137.381C92.5404 137.902 92.5577 138.421 92.6134 138.938C92.6444 139.476 92.7187 140.009 92.8363 140.537C92.9416 141.261 93.1335 141.96 93.4084 142.639C93.6288 143.396 93.8988 144.139 94.2059 144.866C94.6827 145.991 95.2585 147.036 95.9136 148.066C96.5278 149.032 97.1866 149.962 97.9395 150.827C98.9128 151.944 100.022 152.968 101.238 153.832C101.932 154.343 102.664 154.802 103.429 155.194C104.365 155.675 105.316 156.108 106.33 156.4C106.963 156.583 107.607 156.709 108.259 156.805C109.538 156.994 110.863 156.965 112.149 156.745C112.979 156.634 113.795 156.441 114.567 156.166C115.201 155.939 115.805 155.679 116.409 155.385C116.72 155.236 117.02 155.063 117.307 154.869C117.79 154.557 118.242 154.205 118.663 153.815C118.801 153.697 118.934 153.578 119.066 153.452C119.129 153.396 119.094 153.314 119.021 153.294L118.999 153.292V153.292C119.027 153.266 119.057 153.24 119.085 153.213C119.092 153.208 119.097 153.202 119.101 153.195C119.115 153.183 119.13 153.171 119.142 153.158C119.191 153.116 119.142 153.023 119.1 153C119.084 152.992 119.063 152.991 119.04 152.993C119.044 152.988 119.048 152.984 119.053 152.981C119.058 152.977 119.059 152.967 119.058 152.957L119.077 152.943V152.943C119.14 152.887 119.108 152.806 119.033 152.784C118.997 152.774 118.937 152.779 118.875 152.793L118.851 152.798L118.893 152.759C118.968 152.694 118.944 152.623 118.853 152.601C118.784 152.605 118.717 152.614 118.65 152.63L118.6 152.644C118.575 152.65 118.552 152.657 118.527 152.665C118.569 152.627 118.611 152.59 118.652 152.551C118.693 152.516 118.649 152.413 118.612 152.392C118.562 152.364 118.462 152.403 118.417 152.437C118.304 152.449 118.155 152.498 118.101 152.545C117.951 152.688 117.796 152.825 117.639 152.958C117.544 152.988 117.453 153.028 117.384 153.087C117.206 153.257 117.02 153.417 116.83 153.573L116.686 153.672C116.662 153.688 116.638 153.704 116.614 153.72C116.341 153.879 116.069 154.037 115.798 154.196C114.803 154.531 113.809 154.867 112.816 155.201L112.684 155.241V155.241L111.72 155.359V155.359C111.086 155.426 110.45 155.422 109.816 155.349C109.341 155.356 108.869 155.309 108.405 155.212C107.616 155.079 106.842 154.883 106.089 154.609C105.222 154.294 104.396 153.88 103.59 153.434C103.3 153.272 103.015 153.1 102.736 152.919C102.645 152.855 102.555 152.789 102.464 152.723C101.869 152.277 101.299 151.802 100.751 151.3C100.493 151.065 100.245 150.819 100.006 150.565C99.9716 150.528 99.9382 150.492 99.9047 150.455C99.6757 150.206 99.454 149.948 99.2422 149.682L99.0404 149.455V149.455C98.2256 148.445 97.5011 147.358 96.8498 146.239C96.2034 145.13 95.6709 143.963 95.2474 142.755C95.1111 142.324 94.9923 141.888 94.8932 141.446C94.7099 140.915 94.5898 140.371 94.5341 139.816C94.5155 139.708 94.5006 139.599 94.4858 139.49L94.4773 139.319C94.476 139.291 94.475 139.262 94.4746 139.234C94.4499 139.061 94.4288 138.888 94.4127 138.716C94.4028 138.542 94.3966 138.368 94.3954 138.194L94.409 137.127V137.127C94.4127 137.093 94.4164 137.059 94.4189 137.024L94.4462 136.789C94.5056 136.303 94.5514 135.815 94.6109 135.329C94.6109 135.327 94.6109 135.323 94.6121 135.319C94.6344 135.138 94.6579 134.956 94.6852 134.773C94.6988 134.664 94.7161 134.556 94.7322 134.447L94.7632 134.257V134.257C94.8206 133.927 94.8904 133.6 94.9749 133.275L95.0121 133.136L95.2275 132.056L95.4703 130.994C95.6275 130.282 95.7588 129.566 95.8628 128.843C96.051 127.691 96.212 126.537 96.352 125.379C96.3594 125.323 96.3668 125.266 96.373 125.211C96.5154 124.136 96.6182 123.058 96.6851 121.976C96.7755 120.91 96.8275 119.842 96.8411 118.772C96.8423 118.724 96.8101 118.685 96.7718 118.662L96.7752 118.457C96.7798 118.275 96.783 118.493 96.7846 118.286L96.787 117.715C96.7868 117.668 96.7864 117.635 96.7854 117.632C97.447 117.678 97.892 117.641 98.5308 117.607L98.6392 117.602C99.2249 117.575 99.8069 117.51 100.385 117.414C100.388 117.444 100.408 117.465 100.441 117.471C100.5 117.473 100.556 117.473 100.613 117.475L100.592 117.555V117.555C100.591 117.595 100.609 117.621 100.649 117.632L100.814 117.64C101.035 117.649 101.256 117.653 101.475 117.624C101.672 117.598 101.864 117.552 102.055 117.498C102.172 117.478 102.292 117.451 102.415 117.416C102.729 117.326 103.041 117.206 103.357 117.109C103.679 117.041 104.006 117.019 104.348 117.101C104.71 117.186 105.015 117.34 105.394 117.246C105.47 117.228 105.543 117.199 105.616 117.17L105.684 117.165C105.695 117.164 105.707 117.163 105.719 117.161C106.114 117.104 106.465 116.855 106.842 116.722C106.973 116.69 107.104 116.698 107.231 116.751L107.263 116.765L107.388 116.858C107.438 116.917 107.488 116.977 107.537 117.037L107.611 117.127C107.746 117.293 107.89 117.442 108.064 117.551C108.275 117.745 108.525 117.858 108.823 117.866C108.993 117.87 109.161 117.835 109.325 117.783C109.941 117.973 110.602 118.011 111.217 117.826C111.461 117.789 111.7 117.724 111.929 117.621C112.037 117.573 112.144 117.516 112.248 117.453C112.683 117.636 113.094 117.879 113.514 118.089L113.609 118.136C114.038 118.349 114.512 118.557 114.998 118.526C115.609 118.486 116.21 118.405 116.809 118.302C116.814 118.302 116.82 118.301 116.825 118.3L116.908 118.286V118.286L117.208 118.234V118.234L117.45 118.189V118.189L117.573 118.236C118.566 118.61 119.653 118.902 120.651 118.64C121.085 118.587 121.493 118.442 121.86 118.194C121.873 118.185 121.885 118.176 121.898 118.167C121.956 118.137 122.01 118.104 122.059 118.068L122.069 118.06V118.06L122.078 118.052L122.083 118.049C122.627 117.8 122.939 117.27 122.885 116.675C122.918 116.486 122.917 116.301 122.88 116.104C123.057 116.312 123.238 116.518 123.421 116.723C124.091 117.527 124.748 118.348 125.356 119.201L125.495 119.399C125.829 119.869 126.14 120.355 126.427 120.856C126.718 121.351 127.017 121.841 127.325 122.324C127.726 122.766 128.114 123.217 128.487 123.681L128.647 123.88L129.184 124.584C129.564 125.033 129.88 125.524 130.129 126.057C130.333 126.436 130.521 126.822 130.691 127.218C130.746 127.338 130.798 127.459 130.848 127.579C131.023 128.052 131.17 128.533 131.285 129.03C131.378 129.39 131.444 129.755 131.484 130.125L131.496 130.248C131.511 130.393 131.522 130.539 131.528 130.685C131.492 130.706 131.463 130.727 131.44 130.747L131.35 130.78V130.78L131.277 130.801C131.163 130.837 130.966 130.909 131.013 130.999L131.252 131.453V131.453C131.227 131.479 131.216 131.506 131.232 131.536C131.392 131.841 131.553 132.145 131.714 132.45C131.719 132.461 131.728 132.47 131.736 132.476C131.599 132.539 131.465 132.608 131.337 132.683C131.089 132.831 130.905 133.003 130.736 133.202C130.557 133.309 130.389 133.425 130.23 133.558C130.035 133.763 129.864 133.987 129.719 134.23C129.585 134.46 129.476 134.699 129.392 134.949C129.355 135.081 129.338 135.218 129.339 135.358C129.489 136.411 130.698 135.69 130.722 135.597C130.888 134.96 131.079 134.558 131.507 134.085L131.518 134.077V134.077C131.766 133.969 132.011 133.861 132.267 133.777C132.306 133.785 132.345 133.79 132.385 133.796C132.341 133.859 132.363 133.921 132.453 133.932C132.843 134.008 133.237 134.029 133.633 133.996L134.235 133.911V133.911C134.485 134.006 134.723 134.129 134.948 134.274L135.023 134.324L135.036 134.334C135.617 134.799 136.065 135.417 136.373 136.091C136.4 136.151 136.426 136.211 136.451 136.272L136.488 136.364L136.49 136.369C136.891 137.94 136.534 139.664 135.8 141.089C135.4 141.727 134.983 142.353 134.547 142.966L134.124 143.517V143.517C133.874 143.752 133.628 143.992 133.389 144.239C133.352 144.276 133.313 144.313 133.273 144.349C133.147 144.431 133.018 144.504 132.887 144.566C132.836 144.583 132.784 144.599 132.732 144.613C132.479 144.734 132.214 144.798 131.936 144.805C131.568 144.83 131.21 144.786 130.865 144.677L130.796 144.655L130.746 144.636C130.557 144.516 130.383 144.367 130.217 144.192C130.18 144.154 130.11 144.154 130.031 144.175C129.988 144.13 129.944 144.083 129.903 144.033C129.875 144.002 129.83 144.001 129.796 144.024C129.678 144.011 129.36 144.191 129.443 144.286C129.456 144.308 129.474 144.328 129.489 144.349C129.433 144.377 129.377 144.409 129.328 144.443C129.068 144.514 128.683 144.773 128.715 144.851L128.718 144.857C128.779 144.97 128.857 145.065 128.953 145.141L128.986 145.165L129.059 145.216C128.956 145.28 128.869 145.354 128.913 145.406C128.933 145.444 128.954 145.481 128.978 145.515C128.768 145.774 128.559 146.035 128.351 146.297C128.143 146.746 127.885 147.165 127.578 147.554C127.322 147.976 127.013 148.355 126.653 148.692C126.623 148.722 126.592 148.751 126.562 148.779C126.297 148.974 126.019 149.157 125.73 149.333L125.605 149.408C125.54 149.447 125.429 149.497 125.481 149.592C125.488 149.604 125.495 149.614 125.504 149.621C125.322 149.74 125.133 149.852 124.939 149.956L124.921 149.967C124.847 150.014 124.747 150.099 124.852 150.168C124.941 150.227 125.178 150.067 125.289 149.993C125.31 149.993 125.335 149.987 125.36 149.979C125.323 149.999 125.286 150.02 125.249 150.041L125.193 150.072C125.15 150.098 124.937 150.238 125.085 150.298C125.158 150.304 125.225 150.285 125.287 150.243C125.36 150.207 125.432 150.169 125.502 150.13C125.478 150.168 125.478 150.206 125.54 150.231C125.561 150.232 125.582 150.231 125.603 150.228C125.457 150.321 125.307 150.407 125.152 150.489L125.127 150.504C125.062 150.546 124.957 150.627 125.033 150.696C125.119 150.772 125.354 150.61 125.415 150.573L125.595 150.465V150.465C125.609 150.471 125.624 150.474 125.64 150.475C125.585 150.508 125.535 150.544 125.479 150.576L125.403 150.617C125.308 150.67 125.174 150.756 125.223 150.841C125.271 150.926 125.416 150.856 125.509 150.801L125.609 150.739C125.614 150.737 125.618 150.734 125.623 150.732L125.626 150.746C125.627 150.749 125.628 150.751 125.63 150.754C125.676 150.834 125.793 150.782 125.874 150.735L125.938 150.696C126.048 150.63 126.157 150.565 126.265 150.499L126.426 150.4H126.429C126.987 150.065 127.504 149.733 127.99 149.303C128.281 149.046 128.552 148.775 128.81 148.485C129.328 147.904 129.713 147.239 130.084 146.561C130.09 146.55 130.082 146.521 130.067 146.49C130.108 146.407 130.147 146.321 130.187 146.234C130.568 146.34 130.994 146.371 131.387 146.345C131.598 146.331 131.806 146.294 132.012 146.239C132.672 146.147 133.309 145.848 133.859 145.489C133.893 145.466 133.924 145.442 133.957 145.42C134.183 145.292 134.399 145.145 134.603 144.975C135.002 144.647 135.382 144.282 135.727 143.901C135.978 143.605 136.214 143.298 136.436 142.979C136.661 142.665 136.889 142.35 137.117 142.036C137.75 141.049 138.155 139.912 138.312 138.752C138.389 138.324 138.428 137.89 138.42 137.459C138.413 137.147 138.379 136.831 138.318 136.516C138.354 136.482 138.39 136.447 138.426 136.411C138.446 136.446 138.465 136.471 138.478 136.458L138.762 136.175C138.963 135.973 139.098 135.824 139.33 135.497C139.699 134.975 139.974 134.402 140.178 133.797C140.325 133.365 140.423 132.874 140.462 132.399C140.474 132.32 140.486 132.24 140.496 132.159C140.575 131.516 140.502 130.9 140.405 130.266C140.398 130.225 140.377 130.199 140.349 130.185C140.342 130.135 140.333 130.083 140.325 130.032C141.145 129.167 141.735 128.124 141.687 126.865C141.672 126.468 141.59 126.077 141.434 125.712L141.415 125.671V125.671C142.1 125.566 142.643 125.087 143.051 124.493C143.087 124.464 143.122 124.436 143.156 124.407C143.886 123.786 144.392 122.907 144.738 121.979C144.986 121.44 145.15 120.864 145.22 120.266C145.225 120.223 145.228 120.181 145.232 120.139C145.401 119.194 145.444 118.239 145.366 117.299C145.536 116.717 145.674 116.125 145.769 115.519C145.814 115.231 145.845 114.942 145.868 114.653L145.871 114.637L145.874 114.585L145.885 114.456C145.886 114.434 145.888 114.413 145.889 114.392C146.098 111.749 145.505 109.148 144.525 106.701C144.439 106.481 144.351 106.261 144.26 106.043L144.163 105.816V105.816C143.179 104.234 141.701 102.955 140.448 101.604C140.016 101.138 140.715 100.438 141.149 100.906C141.981 101.804 142.873 102.664 143.679 103.586C143.821 103.597 143.964 103.6 144.106 103.593C144.354 103.581 144.594 103.542 144.827 103.479C145.407 103.393 145.936 103.16 146.417 102.817C147.059 102.519 147.608 101.956 147.662 101.222C147.669 101.148 147.667 101.075 147.662 101.003C147.722 100.644 147.669 100.267 147.518 99.9206C147.492 99.8256 147.458 99.7319 147.416 99.6393C147.293 99.3642 147.092 99.1003 146.845 98.9213C146.839 98.9176 146.834 98.9153 146.829 98.9115C146.803 98.8845 146.778 98.8572 146.75 98.8326C146.708 98.7943 146.663 98.7586 146.616 98.7253C146.783 98.4513 146.934 98.1702 147.063 97.8703C147.203 97.5446 147.275 97.2141 147.315 96.8648C147.331 96.7266 147.337 96.5897 147.339 96.4529C147.347 96.3899 147.352 96.3257 147.357 96.2616C147.388 95.773 147.331 95.2661 147.147 94.8095C147.134 94.7751 147.116 94.7404 147.1 94.7047C147.066 94.601 147.027 94.4975 146.98 94.3963C146.797 94.0076 146.537 93.6783 146.216 93.4081C146.043 93.2341 145.848 93.0799 145.637 92.9492C145.511 92.8714 145.369 92.8024 145.219 92.7456C144.952 92.605 144.609 92.4767 144.33 92.4669C144.297 92.4656 144.267 92.4694 144.235 92.4694C144.209 91.7611 144.117 90.9901 143.836 90.3486C143.673 89.8836 143.427 89.4703 143.058 89.1729C142.844 88.9504 142.581 88.7696 142.252 88.6515L142.193 88.6313L142.17 88.6252C141.874 88.482 141.555 88.4253 141.227 88.4267C140.844 88.4068 140.454 88.4785 140.121 88.6535C140.052 88.6905 139.977 88.7362 139.907 88.7855C139.854 88.6794 139.794 88.5721 139.726 88.4649C139.487 88.0836 139.198 87.7517 138.864 87.4495C138.824 87.4137 138.781 87.3816 138.739 87.3472C138.577 87.2004 138.405 87.0647 138.226 86.9413C137.841 86.6747 137.419 86.4762 136.976 86.3478C136.464 86.1594 135.924 86.0719 135.384 86.0903L135.272 86.095V86.095C135.247 86.0974 135.222 86.0986 135.199 86.0998C134.662 86.1345 134.134 86.2653 133.628 86.4625C133.105 86.6687 132.661 86.9807 132.249 87.3384C132.152 87.2053 132.042 87.0794 131.907 86.9609C131.869 86.9278 131.828 86.898 131.789 86.8672C131.76 86.8376 131.729 86.8092 131.697 86.7808C131.549 86.6513 131.393 86.539 131.222 86.4391C131.03 86.327 130.824 86.2492 130.609 86.2011C130.391 86.127 130.162 86.0813 129.929 86.0665ZM132.474 136.924C132.452 136.923 131.305 137.352 130.734 137.629L130.706 137.642C130.047 137.968 129.73 138.203 129.138 138.621C129.099 138.649 129.058 138.692 129.058 138.734C129.058 139.343 129.206 140.088 129.72 139.758C129.794 139.711 129.869 139.664 129.945 139.618L130.058 139.55L130.062 139.551C130.061 139.551 130.059 139.55 130.058 139.549C131.178 138.869 132.36 138.336 133.609 137.955C133.694 137.924 133.061 136.971 132.887 137.024C132.987 136.985 132.491 136.925 132.474 136.924ZM120.712 110.02C121.457 110.099 122.201 110.177 122.945 110.254C123.42 110.308 123.895 110.356 124.371 110.397C125.085 110.45 125.8 110.459 126.512 110.361C126.764 110.327 127.012 110.277 127.257 110.217C127.424 110.339 127.598 110.454 127.775 110.564L129.741 112.062V112.062C131.06 113.095 132.35 114.189 133.512 115.397C135.541 117.507 137.193 119.976 138.232 122.71C138.326 122.765 138.399 122.862 138.423 123.01C138.607 124.131 139.143 125.153 139.337 126.269C139.528 127.369 139.274 128.303 138.581 129.175C138.433 129.361 138.13 129.351 137.944 129.226C137.901 129.31 137.713 129.307 137.648 128.933C137.339 128.6 137.076 128.252 136.897 127.82C136.766 127.502 136.987 127.282 137.255 127.239C137.144 126.839 137.018 126.443 136.877 126.051C136.458 124.886 135.926 123.774 135.256 122.73C134.666 121.812 133.984 121.013 133.251 120.211C133.242 120.2 133.227 120.196 133.211 120.194L133.059 120.026V120.026C133.038 120.002 132.994 120.005 132.946 120.017C132.9 119.969 132.856 119.92 132.809 119.871C132.763 119.822 132.712 119.837 132.684 119.876C132.606 119.859 132.463 119.943 132.42 119.97C132.345 120.02 132.322 120.075 132.385 120.145C132.396 120.158 132.407 120.17 132.419 120.181C132.333 120.217 132.249 120.265 132.183 120.312C131.954 120.362 131.632 120.575 131.688 120.638C131.806 120.76 131.919 120.884 132.032 121.011C131.933 121.081 131.869 121.148 131.895 121.178C132.378 121.685 132.823 122.222 133.232 122.79C133.543 123.215 133.824 123.656 134.075 124.117C134.449 124.768 134.766 125.438 135.048 126.126C135.087 126.231 135.126 126.336 135.163 126.441C135.574 127.587 135.881 128.776 136.011 129.988L136.016 130.069C136.041 130.506 136.05 131.674 136.095 131.953C135.821 132.087 135.537 132.202 135.241 132.296C135.185 132.312 135.128 132.327 135.071 132.34C135.039 132.327 135.005 132.316 134.972 132.306C134.7 132.196 134.415 132.117 134.124 132.079C133.928 132.053 133.732 132.044 133.537 132.049L133.454 132.053C133.367 132.055 133.282 132.061 133.195 132.07C133.2 132.021 133.202 131.973 133.206 131.923C133.231 131.907 133.249 131.885 133.251 131.855C133.309 131.3 133.31 130.745 133.254 130.19C133.217 129.9 133.174 129.611 133.127 129.323C133.079 129.086 133.023 128.853 132.962 128.619C132.801 127.966 132.587 127.328 132.327 126.704C131.586 124.923 130.525 123.318 129.458 121.722C128.679 120.556 127.942 119.364 127.136 118.218C126.45 117.243 125.729 116.282 124.96 115.369C124.192 114.457 123.381 113.58 122.506 112.768C122.364 112.638 122.222 112.513 122.077 112.388C121.247 111.648 120.346 111.04 119.407 110.443C119.371 110.419 119.307 110.445 119.254 110.489L119.102 110.397C119.077 110.381 119.052 110.366 119.026 110.351C119.002 110.337 118.976 110.361 118.963 110.382C118.898 110.349 118.834 110.317 118.77 110.285C118.723 110.247 118.674 110.211 118.627 110.174C119.323 110.139 120.018 110.087 120.712 110.02ZM111.982 101.796C112.544 101.684 113.109 101.667 113.676 101.751C113.914 101.786 114.15 101.828 114.385 101.878C113.852 102.341 113.424 102.933 113.146 103.614C112.846 104.351 114.044 104.668 114.34 103.942C114.626 103.242 115.167 102.705 115.82 102.383C115.961 102.461 116.098 102.547 116.229 102.641C116.399 102.779 116.56 102.928 116.711 103.092C117.041 103.449 117.343 103.925 117.541 104.396C117.618 104.653 117.675 104.917 117.711 105.188C117.718 105.25 117.726 105.313 117.732 105.376C117.854 106.653 117.488 107.895 116.857 108.994L116.832 108.994V108.994C116.27 108.69 115.681 108.434 115.074 108.226C114.589 107.9 114.085 107.599 113.566 107.326C112.463 106.747 111.298 106.3 110.097 105.994L109.959 105.959C109.676 105.887 109.391 105.824 109.104 105.769L108.932 105.736H108.93L108.948 105.552V105.552C109.045 104.831 109.328 104.161 109.695 103.542C109.97 103.074 110.385 102.595 110.845 102.213L110.848 102.212C111.057 102.093 111.277 101.995 111.503 101.914L111.588 101.885L111.982 101.796ZM127.078 100.699C128.247 100.589 129.416 100.6 130.585 100.695C131.349 100.771 132.108 100.875 132.863 101.009C133.375 101.096 133.876 101.22 134.369 101.373L134.087 101.941C133.616 102.887 133.133 103.826 132.565 104.72C132.271 105.18 131.953 105.618 131.606 106.038C131.372 106.339 131.115 106.618 130.832 106.875C130.758 106.965 130.679 107.05 130.598 107.133C130.341 107.352 130.063 107.545 129.76 107.704C129.517 107.88 129.263 108.035 128.998 108.17L128.898 108.22L127.969 108.575C127.92 108.589 127.87 108.603 127.819 108.616L127.744 108.635L127.603 108.665L127.497 108.608C127.479 108.598 127.461 108.589 127.443 108.58C127.413 108.564 127.392 108.595 127.386 108.617C127.383 108.625 127.387 108.638 127.393 108.65L127.258 108.577V108.577C127.025 108.671 126.778 108.747 126.514 108.796C126.394 108.818 126.274 108.836 126.153 108.85L126.137 108.861C126.135 108.863 126.132 108.865 126.129 108.867H125.998V108.867C125.072 108.956 124.133 108.839 123.209 108.673C121.901 108.542 120.593 108.398 119.286 108.263C119.261 108.26 119.251 108.271 119.251 108.289L119.171 108.281V108.281C119.054 108.269 118.918 108.463 119.006 108.533C118.936 108.575 118.867 108.635 118.817 108.682L118.787 108.68C118.966 108.329 119.105 107.963 119.204 107.582L119.331 106.943V106.943C119.365 106.705 119.385 106.451 119.389 106.2C119.397 106.085 119.404 105.978 119.404 105.884C119.404 105.795 119.402 105.707 119.399 105.618C119.645 105.517 119.895 105.428 120.15 105.352C120.875 105.264 121.598 105.175 122.322 105.087C122.757 105.103 123.192 105.134 123.625 105.182C124.117 105.225 124.607 105.281 125.096 105.348C125.142 105.352 125.224 105.291 125.273 105.219L125.483 105.248V105.248C125.592 105.261 125.706 105.044 125.562 105C125.51 104.979 125.458 104.96 125.406 104.941L125.328 104.913L125.372 104.918C125.387 104.92 125.406 104.916 125.427 104.908C125.542 104.923 125.657 104.938 125.771 104.952C125.916 104.969 125.883 104.78 125.781 104.735L125.733 104.717C125.818 104.664 125.894 104.518 125.788 104.471L125.774 104.465C125.724 104.446 125.676 104.43 125.626 104.411C125.63 104.395 125.63 104.38 125.625 104.367L125.829 104.393V104.393C125.848 104.395 125.759 104.265 125.717 104.24L125.709 104.236L125.611 104.206C125.597 104.164 125.517 104.072 125.49 104.063C125.131 103.951 124.797 103.85 124.447 103.772C124.43 103.751 124.41 103.735 124.388 103.73C124.17 103.678 123.95 103.638 123.729 103.603C123.714 103.581 123.699 103.565 123.682 103.564C123.136 103.495 122.589 103.479 122.039 103.516C121.934 103.525 121.828 103.537 121.723 103.55C121.521 103.572 121.319 103.601 121.119 103.639C120.616 103.725 120.125 103.856 119.647 104.032L119.537 104.073C119.417 104.118 119.298 104.164 119.181 104.215C119.121 104.004 119.047 103.797 118.959 103.593C118.945 103.554 118.931 103.516 118.914 103.477L119.035 103.406V103.406C119.061 103.455 119.114 103.493 119.149 103.472C120.009 102.894 120.919 102.411 121.879 102.026C122.416 101.79 122.966 101.589 123.53 101.421C123.811 101.331 124.094 101.249 124.379 101.172C124.522 101.142 124.664 101.112 124.809 101.088C125.553 100.888 126.31 100.758 127.078 100.699ZM98.718 102.657C98.8225 102.837 98.9313 103.015 99.0466 103.191C99.6064 104.045 100.278 104.846 101.039 105.544C100.84 105.544 100.642 105.551 100.447 105.569C100.109 105.601 99.7792 105.657 99.4572 105.735C99.4311 105.714 99.4018 105.704 99.3784 105.72L99.2945 105.778V105.778C98.6038 105.964 97.9554 106.255 97.3681 106.647L97.3786 106.569C97.3804 106.556 97.3824 106.544 97.3847 106.531C97.3748 106.379 97.3723 106.227 97.3773 106.077C97.4986 105.187 97.802 104.368 98.1488 103.539C98.1553 103.523 98.1506 103.502 98.1406 103.481C98.3156 103.196 98.5071 102.921 98.718 102.657ZM98.5587 95.6645C98.8175 95.7113 99.0738 95.7718 99.3289 95.847C99.8081 95.9187 100.273 96.0446 100.721 96.2233C101.339 96.4417 101.938 96.6958 102.535 96.9649C103.694 97.4878 104.781 98.1492 105.771 98.9461C105.834 98.9941 105.895 99.0436 105.955 99.0929C106.177 99.284 106.392 99.4839 106.597 99.6949C106.811 99.9268 107.026 100.159 107.241 100.392C107.503 100.666 107.805 100.914 108.043 101.21C108.091 101.27 108.133 101.337 108.172 101.404L108.032 101.452V101.452C107.914 101.491 107.934 101.711 108.051 101.679C108.09 101.667 108.127 101.654 108.164 101.639C108.148 101.66 108.137 101.681 108.135 101.7C108.127 101.759 108.173 101.84 108.246 101.819C108.28 101.811 108.313 101.798 108.346 101.785C108.356 101.823 108.364 101.861 108.364 101.898C108.358 101.901 108.351 101.903 108.344 101.904C108.262 101.933 108.109 102.06 108.086 102.146C108.069 102.213 108.126 102.284 108.199 102.265C108.254 102.25 108.307 102.228 108.359 102.203C108.324 102.236 108.297 102.272 108.294 102.303C108.29 102.36 108.339 102.44 108.407 102.421C108.533 102.387 108.635 102.334 108.719 102.267C108.742 102.297 108.774 102.32 108.8 102.313L108.848 102.298V102.298C108.835 102.31 108.823 102.323 108.811 102.336L108.794 102.355C108.452 102.722 108.153 103.129 107.914 103.567C107.903 103.555 107.89 103.544 107.872 103.53C107.761 103.437 107.646 103.345 107.53 103.257L107.496 103.226V103.226L107.46 103.196L107.719 103.281L107.713 103.274C107.695 103.251 107.638 103.173 107.611 103.147L107.605 103.142C107.249 102.825 106.862 102.556 106.443 102.336C106.172 102.161 105.887 102.013 105.589 101.891C104.877 101.561 104.151 101.311 103.406 101.079C103.294 101.043 103.183 101.005 103.071 100.97C103.039 100.959 103.033 100.973 103.038 100.995L102.98 100.978V100.978C102.876 100.945 102.698 101.127 102.769 101.212C102.726 101.247 102.685 101.285 102.648 101.321L102.622 101.348L102.592 101.339C102.503 101.312 102.354 101.45 102.259 101.547L102.189 101.621C102.136 101.677 102.032 101.795 102.16 101.84L102.319 101.894V101.894C102.315 101.927 102.328 101.954 102.378 101.972C102.433 101.991 102.488 102.01 102.542 102.03C102.509 102.059 102.477 102.089 102.445 102.119L102.398 102.165C102.341 102.222 102.208 102.347 102.326 102.403L102.341 102.409L102.493 102.463C102.473 102.508 102.478 102.55 102.545 102.574C103.434 102.875 104.302 103.228 105.15 103.629C105.786 103.979 106.457 104.241 107.164 104.412C107.222 104.431 107.348 104.343 107.4 104.256L107.506 104.287C107.524 104.292 107.541 104.297 107.559 104.301L107.576 104.305V104.305C107.444 104.657 107.346 105.038 107.291 105.407C107.285 105.44 107.28 105.475 107.277 105.508C107.138 105.497 107 105.487 106.862 105.48C105.902 105.429 104.931 105.46 103.969 105.573C103.58 105.343 103.206 105.09 102.848 104.816C102.739 104.732 102.632 104.646 102.525 104.558C101.886 104.005 101.308 103.385 100.795 102.715C100.321 102.094 99.9085 101.428 99.5617 100.73C99.2546 100.075 99.0008 99.3938 98.8088 98.6906C98.633 98.0479 98.5723 97.4224 98.5277 96.7575C98.5128 96.6489 98.5029 96.5405 98.4943 96.4318L98.4953 96.3853V96.3853L98.4967 96.3627C98.5091 96.1297 98.5327 95.8964 98.5587 95.6645ZM107.632 103.926C107.66 103.936 107.69 103.946 107.72 103.955C107.703 103.993 107.686 104.03 107.67 104.068L107.669 104.067V104.067L107.551 103.976V103.976C107.576 103.965 107.605 103.947 107.632 103.926ZM98.732 93.9152C98.5091 93.8325 98.3407 93.8165 98.2268 93.8683C98.3952 93.8806 98.5636 93.8967 98.732 93.9152Z" fill="black"/>
<path fill-rule="evenodd" clip-rule="evenodd" d="M100.681 144.271C101.09 144.803 101.83 145.211 102.658 145.406C103.448 145.592 104.321 145.584 105.074 145.298L105.139 145.273C105.702 145.04 106.242 144.569 106.447 144.078C106.529 143.883 106.557 143.685 106.501 143.5C106.451 143.333 106.333 143.18 106.137 143.048C106.075 143.007 105.992 143.004 105.914 143.018C105.816 143.035 105.72 143.08 105.662 143.142C105.34 143.483 104.872 143.816 104.319 143.81C103.892 143.806 103.543 143.638 103.205 143.448L102.968 143.313C102.738 143.182 102.506 143.06 102.243 143.004C101.772 142.904 101.201 143.087 100.853 143.389C100.701 143.52 100.591 143.675 100.561 143.842C100.536 143.982 100.571 144.128 100.681 144.271ZM103.129 134.962C102.194 135.529 100.769 136.849 101.775 138.253C102.959 139.491 104.664 138.071 105.504 137.43C106.283 136.932 107.158 138.212 106.436 138.792C100.365 143.27 97.9012 135.11 102.656 134.297C103.18 134.207 103.374 134.787 103.129 134.962ZM113.679 126.259L113.41 126.186L113.136 126.112L112.951 126.063C111.678 125.732 110.275 125.44 109.013 125.582C108.553 125.634 108.18 125.892 108.115 126.373C108.06 126.778 108.323 127.301 108.77 127.373C110.252 127.612 111.769 127.534 113.258 127.78C113.999 127.903 114.735 128.055 115.473 128.192C116.035 128.296 116.615 128.333 117.182 128.417L117.051 128.435C117.006 128.442 117.017 128.518 117.062 128.515C117.249 128.496 117.436 128.493 117.623 128.506L117.703 128.513C117.826 128.53 117.898 128.385 117.789 128.311C117.099 127.845 116.513 127.339 115.74 126.995C115.072 126.698 114.384 126.453 113.679 126.259ZM102.095 125.544C101.117 124.559 99.0366 124.937 97.8728 125.388C97.2086 125.645 96.577 125.971 96.051 126.457L95.9997 126.505L95.9207 126.581C95.5656 126.927 95.1696 127.404 95.226 127.903C95.2345 127.979 95.2761 128.066 95.3625 128.081C95.8286 128.164 96.2864 127.919 96.7168 127.771L97.0019 127.674C97.43 127.529 97.8608 127.39 98.3022 127.29C98.851 127.165 99.4108 127.093 99.9743 127.1C100.544 127.108 101.156 127.268 101.698 127.043C102.303 126.792 102.617 126.069 102.095 125.544ZM111.76 133.49C112.01 133.744 112.339 133.887 112.761 133.802C113.091 133.735 113.719 133.405 114.22 132.896C114.563 132.548 114.85 132.114 114.928 131.61C114.946 131.493 115.008 131.418 115.09 131.371C115.155 131.334 115.24 131.315 115.333 131.324C115.411 131.332 115.495 131.361 115.56 131.398C115.683 131.47 115.733 131.572 115.743 131.648C115.842 132.381 115.558 133.108 115.114 133.722C114.516 134.55 113.638 135.156 113.122 135.298C112.238 135.542 111.308 135.348 110.621 134.735C110.072 134.246 109.791 133.608 109.53 132.951L109.48 132.824C109.421 132.675 109.363 132.528 109.301 132.381C109.177 132.088 109.217 131.835 109.337 131.638C109.47 131.419 109.715 131.265 109.988 131.218C110.241 131.174 110.511 131.222 110.724 131.376C110.904 131.505 111.049 131.711 111.101 132.015C111.185 132.509 111.379 133.076 111.723 133.45L111.76 133.49ZM96.6121 130.629C96.8179 130.522 96.979 130.49 97.2073 130.558C97.3336 130.596 97.4584 130.668 97.5561 130.766C97.6529 130.862 97.7228 130.982 97.7499 131.115C97.8167 131.443 97.9971 131.751 98.2542 131.951C98.4739 132.123 98.7512 132.213 99.0588 132.162C99.3907 132.107 99.707 131.895 99.9248 131.645C99.9854 131.575 100.035 131.498 100.083 131.419L100.112 131.372C100.219 131.195 100.324 131.031 100.472 130.902C100.528 130.852 100.612 130.818 100.694 130.818C100.727 130.818 100.761 130.824 100.793 130.834C101.124 131.164 101.187 131.414 101.177 131.663C101.165 131.924 101.062 132.188 100.896 132.434C100.505 133.011 99.7622 133.485 99.2612 133.592C98.5751 133.739 97.8937 133.563 97.3474 133.181C96.7853 132.788 96.3688 132.178 96.2389 131.491C96.2077 131.326 96.221 131.147 96.2843 130.992C96.3461 130.841 96.4538 130.711 96.6121 130.629Z" fill="black"/>
<path fill-rule="evenodd" clip-rule="evenodd" d="M262.735 309.662C262.347 313.079 261.096 320.149 260.481 323.621C260.302 324.63 260.177 325.338 260.141 325.57C256.664 343.804 255.241 362.332 254.581 380.857C254.387 383.268 254.483 385.672 254.901 388.054C254.923 388.177 254.945 388.299 254.968 388.421C255.085 388.397 255.203 388.375 255.324 388.355C260.214 387.558 263.508 391.14 266.691 394.518C267.936 395.839 269.163 397.139 270.451 398.177C273.542 400.944 276.889 403.406 280.395 405.617C281.828 406.463 283.454 407.464 284.551 408.791C285.299 409.694 285.798 410.752 285.785 412.023L285.78 412.459L286.21 412.393C286.338 412.373 286.446 412.38 286.532 412.421C286.625 412.465 286.688 412.546 286.739 412.64C286.968 413.06 286.967 413.728 286.98 414.234C286.983 414.364 286.986 414.484 286.991 414.591C287.03 416.11 286.346 417.112 285.315 417.797C283.711 418.865 281.317 419.201 279.377 419.485C279.018 419.537 278.674 419.588 278.35 419.64C266.415 420.923 254.333 417.682 243.29 413.293C243.259 413.28 243.228 413.268 243.197 413.256C243.167 413.261 243.136 413.266 243.106 413.27C242.226 413.386 241.469 412.916 240.87 412.235C240.043 411.295 239.505 409.935 239.376 408.88C239.263 408.37 239.334 407.894 239.397 407.424C239.48 406.798 239.55 406.179 239.356 405.573C237.833 402.098 237.632 398.32 237.851 394.618C237.791 390.036 238.84 388.743 239.694 387.718C240.411 386.858 240.99 386.159 240.803 384.206C240.78 383.918 240.689 382.062 240.729 381.14L241.014 381.099C240.561 374.546 238.918 368.055 237.274 361.57C234.596 351.008 231.907 340.458 234.487 329.661C235.301 326.333 236.912 323.386 238.528 320.422C239.553 318.54 240.582 316.652 241.42 314.659C241.435 314.623 241.45 314.588 241.465 314.552C241.457 314.516 241.45 314.481 241.443 314.445C241.284 313.619 241.48 312.778 241.667 311.932C241.838 311.158 242.005 310.379 241.965 309.601C241.95 308.138 241.663 306.738 241.361 305.32C241.346 305.247 241.33 305.175 241.315 305.102C241.244 305.082 241.174 305.062 241.103 305.042C239.722 304.641 238.372 304.149 237.076 303.506L236.729 303.334L236.574 303.69C236.525 303.803 236.453 303.89 236.367 303.949C236.272 304.014 236.16 304.047 236.048 304.051C235.926 304.056 235.803 304.028 235.697 303.969C235.613 303.922 235.54 303.856 235.487 303.77C235.339 303.163 235.504 302.522 235.652 301.887C235.749 301.468 235.845 301.051 235.877 300.644C235.925 300.411 235.966 300.139 236.009 299.849C236.131 299.04 236.257 298.063 236.694 297.481C236.818 297.316 236.969 297.187 237.164 297.123C237.351 297.062 237.573 297.061 237.837 297.122C237.992 297.158 238.124 297.207 238.236 297.269C238.253 297.113 238.27 296.956 238.287 296.8C238.984 290.193 239.117 283.53 238.73 276.898C238.7 276.383 238.667 275.87 238.63 275.356C238.423 275.829 238.219 276.302 238.021 276.776C236.833 279.616 235.79 282.562 234.748 285.507C233.29 289.629 231.833 293.749 229.974 297.569C229.944 297.631 229.914 297.693 229.883 297.755C229.919 297.794 229.949 297.841 229.973 297.891C230.017 297.983 230.04 298.079 230.022 298.175C230.005 298.268 229.95 298.356 229.864 298.441C229.174 299.112 228.815 300.011 228.467 300.911C228.449 300.956 228.432 301.002 228.414 301.047C228.153 301.875 227.724 302.626 227.142 303.201C226.624 303.713 225.986 304.084 225.242 304.225C225.164 304.24 225.086 304.252 225.008 304.262C224.989 304.343 224.97 304.424 224.951 304.504C224.858 304.9 224.762 305.316 224.661 305.751C223.483 310.843 221.721 318.479 218.545 324.1C216.512 327.697 213.903 330.479 210.453 331.132C210.201 331.179 209.95 331.215 209.699 331.239C209.909 331.345 210.084 331.488 210.206 331.688C210.603 332.341 210.207 333.23 209.907 334.045C209.73 334.526 209.562 334.994 209.495 335.408C209.173 336.332 208.903 337.281 208.633 338.231C208.139 339.974 207.646 341.72 206.808 343.315C206.776 343.375 206.744 343.435 206.712 343.494C206.746 343.534 206.772 343.576 206.792 343.626C206.825 343.709 206.831 343.79 206.822 343.89C206.814 343.979 206.796 344.051 206.758 344.12C206.839 344.152 206.918 344.192 206.996 344.24C207.37 344.47 207.598 344.819 207.712 345.218C207.849 345.702 207.822 346.255 207.675 346.78C207.521 347.326 207.237 347.844 206.854 348.22C206.534 348.535 206.143 348.75 205.703 348.776C205.673 348.778 205.644 348.779 205.614 348.779C205.591 348.795 205.567 348.81 205.543 348.823C205.348 348.934 205.078 348.993 204.824 348.998L204.737 349.725C204.792 349.787 204.8 349.819 204.796 349.852C204.423 354.356 203.356 358.747 202.294 363.122C202.097 363.934 201.9 364.745 201.708 365.556C201.333 366.849 201.057 368.181 200.78 369.514C200.326 371.702 199.874 373.894 198.968 375.911C198.946 375.961 198.923 376.011 198.9 376.061C198.923 376.108 198.944 376.157 198.964 376.205C199.416 377.293 199.324 378.55 199.099 379.683C198.734 380.103 198.047 380.067 197.476 380.084C197.257 380.091 197.047 380.098 196.857 380.117C196.736 380.13 196.608 380.15 196.475 380.172C196.494 380.294 196.513 380.416 196.53 380.538C196.807 382.49 196.797 384.478 196.787 386.459C196.782 387.578 196.777 388.695 196.822 389.803C196.827 389.933 196.833 390.064 196.84 390.195C196.959 390.177 197.083 390.164 197.211 390.157C198.46 390.089 199.327 390.604 199.958 391.411C200.934 392.658 201.375 394.557 201.762 396.175C201.867 396.615 201.968 397.037 202.073 397.421C202.868 400.095 203.886 402.67 204.905 405.245C206.262 408.676 207.62 412.106 208.431 415.747L208.554 416.302L209.01 415.964C209.051 415.933 209.099 415.912 209.152 415.91C209.205 415.908 209.261 415.925 209.318 415.958C210.947 416.94 210.965 418.964 211.034 420.67C211.04 420.82 211.046 420.968 211.052 421.114C211.036 421.474 211.063 421.862 211.09 422.256C211.157 423.2 211.294 424.232 210.498 424.836C204.872 428.682 197.265 428.572 190.763 427.562C188.17 427.088 185.64 426.296 183.237 425.211C182.329 424.902 181.649 424.575 181.234 424.039C180.881 423.583 180.735 422.977 180.792 422.136C180.632 420.607 180.77 419.151 180.905 417.694C181.022 416.43 181.137 415.166 181.075 413.893C181.266 409.004 182.381 404.171 183.477 399.41C183.521 399.219 183.565 399.029 183.609 398.838C183.673 398.637 183.738 398.431 183.803 398.221C184.648 395.53 185.644 392.232 188.07 390.725C188.137 390.709 188.245 390.706 188.365 390.696C188.685 390.669 189.063 390.626 189.288 390.517C189.294 390.514 189.3 390.511 189.306 390.508L189.168 390.976L189.89 390.666C190.057 390.594 190.231 390.541 190.41 390.507C190.469 390.496 190.528 390.487 190.588 390.48C190.617 390.422 190.646 390.363 190.674 390.304C191.656 388.268 192.112 386.048 192.564 383.829C192.844 382.457 193.123 381.086 193.532 379.761C193.568 379.647 193.604 379.534 193.641 379.42C193.53 379.386 193.42 379.348 193.313 379.306C192.172 378.865 191.136 377.984 190.815 376.793C190.893 376.456 191.053 376.088 191.295 375.812C191.474 375.608 191.701 375.453 191.982 375.435L192.489 375.403L192.302 374.93C192.117 374.46 192.09 373.926 192.147 373.422C193.102 367.515 194.375 361.659 195.746 355.834C196.267 353.668 196.826 351.509 197.456 349.372C197.548 349.114 197.621 348.824 197.696 348.526C197.85 347.908 197.99 347.231 198.439 346.842C198.546 346.75 198.666 346.677 198.795 346.619C198.68 346.515 198.567 346.408 198.457 346.299C197.499 345.351 196.686 344.2 196.663 342.907C196.618 342.364 196.875 341.804 197.271 341.456C197.401 341.342 197.547 341.25 197.705 341.194L198.312 341.569C198.457 341.659 198.596 341.761 198.736 341.863C198.853 341.949 198.97 342.034 199.09 342.114L200.542 343.076L199.605 341.606C198.867 340.449 199.233 339.04 199.53 337.746C199.61 337.397 199.688 337.054 199.748 336.723C199.826 336.371 199.903 336.017 199.98 335.662C200.445 333.516 200.915 331.342 201.734 329.322C201.767 329.239 201.801 329.157 201.835 329.075C201.768 329.019 201.701 328.961 201.634 328.903C198.447 326.128 197.201 322.703 197.039 319.031C196.807 313.737 198.806 307.935 200.577 302.77C201.027 301.456 201.463 300.184 201.846 298.97C201.872 298.887 201.898 298.804 201.924 298.72C201.852 298.664 201.781 298.61 201.709 298.558C201.276 298.245 200.755 297.955 200.219 297.657C198.887 296.917 197.374 296.148 197.173 294.644C197.195 293.836 197.511 293.057 197.813 292.29C197.935 291.978 198.057 291.669 198.161 291.361C198.241 290.999 198.487 290.529 198.801 290.316C198.868 290.27 198.94 290.233 199.016 290.241C199.084 290.249 199.147 290.294 199.211 290.363L199.645 290.822L199.832 290.218C199.927 289.909 200.024 289.6 200.12 289.29C201.954 283.387 203.815 277.375 203.647 271.139C203.645 271.048 203.642 270.957 203.639 270.867C203.548 270.837 203.456 270.811 203.362 270.789C202.724 270.64 202.075 270.698 201.435 270.763C200.63 270.844 199.83 270.955 199.108 270.413C192.531 265.367 193.247 252.503 193.81 244.994C193.817 244.896 193.825 244.798 193.832 244.699C193.741 244.674 193.65 244.645 193.559 244.615C193.254 244.512 192.962 244.387 192.696 244.228L192.478 244.098L192.279 244.256C192.182 244.26 192.126 244.203 192.063 244.136C191.806 243.862 191.552 243.365 191.299 242.754C190.404 240.594 189.603 237.059 189.367 236.017C189.361 235.991 189.355 235.966 189.349 235.939C184.563 214.18 186.394 191.744 188.188 169.698C188.316 168.122 188.444 166.549 188.57 164.978C188.956 162.074 189.104 159.102 189.252 156.122C189.554 150.027 189.85 143.902 192.248 138.301C193.849 134.209 198.362 133.259 202.195 132.399C202.301 132.375 202.405 132.352 202.51 132.328C204.506 131.732 206.513 131.271 208.518 130.811C211.59 130.106 214.655 129.401 217.582 128.244C217.74 128.181 217.898 128.117 218.055 128.052C217.943 127.937 217.839 127.814 217.746 127.684C217.232 126.966 217.031 126.027 217.084 125.095C217.139 124.128 217.467 123.164 218.031 122.45C218.252 122.287 218.512 122.269 218.776 122.312C219.292 122.397 219.831 122.704 220.27 122.947C220.313 122.971 220.355 122.994 220.397 123.017L220.726 123.198L220.9 122.865C221.59 121.55 222.068 120.1 222.536 118.678C222.806 117.857 223.073 117.045 223.378 116.275C224.312 114.294 225.915 113.344 227.764 112.979C230.55 112.428 233.883 113.172 236.461 113.817C236.553 113.841 236.646 113.865 236.74 113.888C238.04 114.219 239.435 114.564 240.516 115.378C242.316 116.82 242.698 119.063 243.105 121.262C243.311 122.376 243.517 123.484 243.88 124.495C243.921 124.608 243.964 124.722 244.009 124.834C244.111 124.788 244.212 124.753 244.309 124.73C245.735 124.403 248.864 126.262 249.942 127.252C250.224 127.44 250.353 127.626 250.42 127.836C250.532 128.186 250.496 128.587 250.47 128.983C250.458 129.162 250.447 129.341 250.445 129.516C250.443 129.618 250.445 129.722 250.449 129.826C250.547 129.846 250.645 129.865 250.743 129.884C251.378 130.008 252.026 130.129 252.682 130.251C257.377 131.128 262.497 132.07 266.15 134.663C268.703 136.476 270.524 139.107 270.95 143.107C272.299 148.887 273.015 154.727 273.679 160.57C273.768 161.342 273.856 162.115 273.944 162.887C275.013 172.26 276.09 181.686 278.994 190.697C279.279 191.397 279.555 192.071 279.832 192.746C284.173 203.333 288.579 214.064 289.621 225.577C290.187 231.078 290.101 236.637 289.162 242.09C289.107 242.384 288.875 242.59 288.61 242.699C288.32 242.817 287.971 242.828 287.711 242.663L286.321 241.784L287.202 243.175C289.057 246.102 287.504 251.249 286.453 254.884C286.297 255.423 286.151 255.929 286.024 256.393C285.217 259.078 283.912 262 281.862 263.551C281.086 264.138 280.201 264.523 279.195 264.609C278.27 264.688 277.245 264.514 276.109 264.028C275.967 263.966 275.829 263.903 275.696 263.839C275.665 263.991 275.634 264.142 275.603 264.293C273.372 275.167 270.883 285.946 267.928 296.649L267.516 298.141L268.556 296.997C268.722 296.815 268.912 296.708 269.111 296.668C269.333 296.624 269.562 296.663 269.773 296.759C270.014 296.868 270.231 297.05 270.393 297.279C270.541 297.488 270.643 297.736 270.671 298.005C270.586 299.468 270.116 300.873 269.651 302.276C269.402 303.025 269.155 303.772 268.962 304.526C268.746 305.304 268.29 305.782 267.706 306.083C266.812 306.545 265.643 306.619 264.54 306.701C263.965 306.743 263.405 306.785 262.903 306.871C262.828 306.884 262.752 306.898 262.675 306.914C262.653 306.987 262.632 307.06 262.611 307.133C262.462 307.649 262.332 308.17 262.202 308.691C262.098 309.107 261.994 309.524 261.88 309.938L262.589 310.144C262.641 309.972 262.69 309.811 262.735 309.662V309.662ZM207.695 244.899C207.72 241.776 208.83 238.831 209.929 235.891C210.388 234.666 210.845 233.441 211.228 232.206C211.25 232.133 211.273 232.059 211.295 231.986C211.237 231.928 211.179 231.872 211.12 231.82C210.84 231.57 210.493 231.342 210.14 231.112C209.647 230.79 209.132 230.467 208.826 230.031C208.638 229.763 208.54 229.447 208.606 229.017C208.783 225.798 209.002 222.581 209.264 219.368C209.326 218.683 209.388 217.997 209.45 217.31C210.543 205.213 211.644 192.976 209.479 180.938C209.383 180.39 209.272 179.847 209.161 179.305C209.086 178.94 209.011 178.575 208.941 178.209C208.931 178.156 208.92 178.084 208.907 178.001C208.845 177.606 208.74 176.977 208.53 176.518C208.34 176.103 208.061 175.838 207.727 175.78C207.61 175.759 207.49 175.765 207.37 175.796C207.348 175.882 207.327 175.969 207.306 176.057C203.679 191.04 204.589 206.325 205.503 221.581C205.923 228.599 206.343 235.612 206.317 242.585C206.317 242.653 206.317 242.722 206.317 242.79C206.36 242.804 206.401 242.827 206.439 242.86C206.533 242.946 206.559 243.066 206.54 243.177C206.517 243.312 206.432 243.441 206.303 243.51C206.257 243.534 206.209 243.549 206.16 243.556C206.146 243.622 206.131 243.687 206.116 243.753C206.046 244.051 205.968 244.347 205.88 244.641C205.859 244.713 205.837 244.785 205.814 244.857C205.869 244.909 205.924 244.962 205.98 245.015C206.35 245.368 206.723 245.718 207.1 246.065L207.772 246.684L207.718 245.771C207.7 245.478 207.693 245.188 207.695 244.899Z" fill="white"/>
<path fill-rule="evenodd" clip-rule="evenodd" d="M223.099 116.24C224.057 117.019 223.058 122.632 222.286 123.778C227.506 127.15 232.78 130.446 238.165 133.534L238.723 133.853H238.72C238.945 133.955 239.31 134.036 239.53 133.994L239.693 133.94C239.717 133.932 239.73 133.93 239.723 133.936C239.808 133.89 239.89 133.842 239.971 133.789L240.054 133.712C241.624 132.215 242.634 129.986 243.842 128.14C241.794 126.328 242.814 122.796 242.897 120.383C243.284 120.373 243.33 121.606 243.441 121.963L243.482 122.19C243.635 123.025 243.804 123.881 244.123 124.659C245.009 123.533 249.493 126.193 250.333 127.048C251.248 127.634 250.967 128.675 250.955 129.59C259.464 131.251 270.315 132.419 271.458 143.137C272.803 148.886 273.522 154.737 274.187 160.597L274.259 161.22C275.436 171.404 276.455 181.722 279.771 191.475L280.899 194.175C283.655 200.781 286.356 207.438 288.115 214.39C289.458 217.311 293.034 245.196 287.655 243.045C289.494 246.056 288.118 250.018 287.479 253.238C286.153 258.613 283.314 267.539 276.106 264.437C273.874 275.316 271.382 286.107 268.425 296.817C269.411 295.733 271.061 296.692 271.183 298.067C271.169 299.835 270.325 301.508 269.912 303.211L269.877 303.363C269.303 305.813 268.41 306.927 265.731 307.011C258.197 308.016 250.478 307.677 243.07 305.968C245.669 315.046 237.42 322.088 235.682 330.481C232.046 347.547 241.265 363.875 242.46 380.752C242.634 382.221 242.783 383.693 242.909 385.166C242.942 386.685 243.522 388.553 242.703 389.89C243.472 391.676 245.188 393.193 247.103 393.596C250.709 394.06 251.187 389.237 254.274 388.385C253.102 382.753 252.609 377.038 253.045 371.296L253.125 370.014C254.44 349.065 256.291 327.713 263.179 307.784C263.241 307.597 263.497 307.676 263.468 307.863C260.204 329.532 255.891 351.096 255.441 373.091C255.449 378.078 254.507 383.118 255.406 388.059C262.307 386.936 266.155 394.198 270.825 397.958C273.904 400.716 277.239 403.17 280.732 405.372L280.959 405.507C283.414 406.967 286.329 408.922 286.295 412.096C287.935 411.817 287.543 415.414 287.252 416.364C286.911 417.429 285.921 418.042 284.972 418.517C271.317 423.108 256.277 418.636 243.295 413.706C241.02 414.007 239.394 410.987 239.151 408.994C238.903 407.894 239.485 406.827 239.146 405.755C237.615 402.27 237.401 398.422 237.624 394.666C237.503 386.773 240.652 388.444 240.597 384.837L240.566 384.186C240.497 382.688 240.373 379.377 240.788 381.194C239.587 363.622 229.692 346.377 234.541 328.668C236.009 323.607 239.192 319.441 241.222 314.584C240.915 312.986 241.825 311.333 241.737 309.682C241.726 308.24 241.438 306.863 241.142 305.466C239.74 305.059 238.37 304.56 237.054 303.907C236.614 304.921 234.971 304.555 235.194 303.273L235.652 300.661V300.661L235.669 300.575C235.947 299.144 235.996 296.35 238.061 296.831C238.758 290.244 238.888 283.6 238.503 276.988C235.649 283.809 233.638 291.245 230.447 297.8C230.596 298.098 230.581 298.466 230.265 298.774C228.461 300.832 228.775 304.007 225.452 304.658C223.15 313.429 220.745 328.937 210.662 331.564C211.334 332.63 210.173 334.382 209.996 335.567C209.063 338.23 208.604 341.011 207.275 343.557C207.326 343.679 207.348 343.826 207.331 343.994C209.295 345.198 208.049 349.089 205.866 349.215C205.624 349.352 205.288 349.431 204.972 349.437C205.175 349.503 205.327 349.68 205.304 349.965C204.861 355.31 203.44 360.516 202.206 365.719C201.214 369.137 200.907 372.894 199.446 376.132C199.932 377.262 199.826 378.65 199.609 379.832C199.184 380.672 197.838 380.457 197.037 380.555C197.041 380.561 197.044 380.568 197.047 380.576C197.048 380.576 197.048 380.576 197.048 380.574C197.472 383.623 197.207 386.778 197.332 389.857C201.231 389.643 201.793 394.537 202.57 397.393C204.423 403.618 207.511 409.354 208.932 415.735C209.121 415.595 209.379 415.551 209.646 415.708C211.97 417.195 211.422 420.376 211.612 422.759C212.18 426.978 204.224 427.941 201.194 428.382C194.396 429.062 187.061 428.024 181.148 424.491C180.028 423.026 180.56 417.7 180.929 415.762C180.585 410.221 182.141 404.731 183.252 399.344L183.364 398.972C184.263 395.958 185.317 392.162 188.058 390.454C188.346 390.354 189.585 390.438 189.424 389.963L189.415 389.942C189.343 389.765 189.615 389.617 189.733 389.757C189.982 390.049 189.97 390.405 189.721 390.704C189.379 391.112 188.831 391.03 188.403 391.275C186.78 392.945 186.154 395.476 185.399 397.643C185.963 397.195 186.53 396.768 187.124 396.365C187.009 396.27 186.931 396.121 186.91 395.969C186.288 395.338 187.948 393.231 188.218 392.456C188.465 391.988 188.959 392.039 189.248 392.32C191.938 388.651 192.052 383.947 193.322 379.721L193.249 379.691C192.047 379.196 190.351 377.858 190.679 376.497C190.914 375.878 191.36 375.168 192.1 375.135C191.895 374.613 191.857 374.024 191.922 373.444C192.879 367.524 194.154 361.656 195.528 355.818C196.057 353.615 196.626 351.418 197.269 349.245L197.398 348.811C197.568 348.247 197.766 347.061 198.339 346.631C196.866 345.25 195.409 342.556 197.376 341.086C198.081 340.441 199.828 341.305 198.647 341.323C198.918 341.49 199.169 341.698 199.435 341.874C198.452 340.359 199.231 338.353 199.527 336.72L199.608 336.353C200.129 333.966 200.619 331.508 201.533 329.251C192.479 321.392 198.653 308.347 201.635 298.928C199.635 297.616 195.821 296.258 197.25 293.222C197.675 292.375 198.214 289.084 199.621 290.177L200.254 288.136C201.96 282.62 203.577 277.021 203.42 271.218C202.09 270.904 200.882 271.56 199.601 271.099C192.274 266.559 193.028 252.649 193.583 245.035C193.253 244.924 192.937 244.787 192.649 244.616C192.394 244.806 192.008 244.817 191.859 244.466C191.484 243.582 191.002 242.718 190.676 241.819C182.187 212.533 187.608 181.672 189.317 151.819C189.983 145.686 189.988 137.359 196.06 133.979C198.098 133.011 200.398 132.595 202.57 132.036C207.554 130.545 212.76 129.877 217.588 127.969C216.465 126.403 216.732 124.12 217.668 122.545C218.41 121.412 219.835 122.279 220.715 122.761C221.732 120.677 222.429 118.455 223.099 116.24ZM209.199 417.08L209.278 417.58C209.443 418.619 209.59 419.651 209.531 420.709C209.829 420.899 210.011 421.245 210.032 421.593C210.058 422.032 209.839 422.456 209.296 422.603C201.007 424.745 191.734 425.203 183.854 421.397C182.582 421.021 181.939 419.95 181.573 418.747C181.677 420.095 181.405 422.656 182.18 423.71C187.972 426.732 194.711 427.928 201.194 427.183C204.165 426.837 207.18 426.032 209.666 424.308C210.463 423.953 210.131 423.078 210.147 422.391C209.937 420.664 210.484 418.457 209.199 417.08ZM197.353 395.967C193.318 393.935 188.689 396.5 185.154 398.522C184.047 404.454 181.279 413.658 183.977 419.166C190.999 422.949 199.383 422.656 206.977 421.004C207.075 420.905 207.181 420.824 207.31 420.765C207.298 420.78 207.353 420.739 207.36 420.733C207.362 420.729 207.363 420.725 207.363 420.723L207.384 420.704C207.387 420.701 207.39 420.698 207.394 420.696C207.382 420.703 207.374 420.709 207.365 420.717L207.366 420.709V420.709C207.368 420.712 207.408 420.676 207.421 420.687L207.466 420.653C207.533 420.6 207.445 420.653 207.368 420.707C207.39 420.611 207.423 420.517 207.437 420.419C207.434 420.426 207.434 420.43 207.433 420.434C207.576 416.538 206.097 412.619 204.912 408.925C204.516 407.803 204.1 406.687 203.687 405.571C202.712 404.463 202.182 402.905 201.55 401.593L201.506 401.502C200.492 399.43 199.335 397.257 197.353 395.967ZM240.3 407.813C239.922 411.718 243.715 413.274 246.786 414.212C250.24 415.444 253.78 416.466 257.339 417.351C264.631 419.236 272.233 420.061 279.707 418.88L279.903 418.845C282.072 418.466 285.861 417.992 286.347 415.513L286.35 415.477C286.383 415.103 286.452 413.507 286.295 413.105C286.238 413.104 286.183 413.091 286.13 413.065C285.505 415.07 283.229 416.289 281.035 416.604C280 417.646 278.094 417.259 276.714 417.319C267.609 417.228 258.856 414.4 250.228 411.772C247.479 410.813 242.015 410.129 240.3 407.813ZM241.228 386.317C241.157 386.693 240.979 387.05 240.762 387.358C240.927 387.296 241.598 387.809 241.136 387.758C239.58 386.909 239.167 391.676 239.001 392.678C238.491 397.262 238.504 404.415 242.203 407.666C246.064 409.325 250.231 410.086 254.213 411.391L255.155 411.669C262.703 413.886 270.462 415.96 278.383 415.633C279.023 414.418 282.743 415.444 284.222 413.293C286.154 409.894 281.273 407.717 278.943 406.266C274.49 403.397 270.33 400.063 266.579 396.317C264.816 394.557 263.202 392.541 261.131 391.126L261.023 391.053C259.248 389.873 256.971 389.141 254.887 389.916C252.858 390.67 252.112 392.995 250.41 394.197C246.701 396.726 242.193 392.5 241.555 388.979C241.341 388.113 241.274 387.211 241.228 386.317ZM197.338 390.365C197.348 391.078 197.368 391.791 197.396 392.504C198.435 392.667 198.883 393.93 199.3 394.808C199.978 395.698 200.378 396.755 201.154 397.596C200.89 396.328 200.697 395.048 200.41 393.78C200.035 392.11 199.104 390.584 197.338 390.365ZM190.192 394.725C189.915 394.755 189.638 394.78 189.361 394.794L189.273 394.906V394.906L189.229 394.961C189.145 395.066 189.059 395.17 188.973 395.272C189.37 395.07 189.778 394.89 190.192 394.725ZM193.847 379.926C193.503 382.84 193.26 385.781 192.585 388.64C192.227 390.064 191.672 391.413 190.9 392.655C192.44 393.181 194.132 393.032 195.703 392.764L195.694 391.72C195.666 387.977 195.711 384.11 196.882 380.551C195.837 380.523 194.841 380.279 193.847 379.926ZM198.298 377.14C198.226 377.173 198.152 377.203 198.076 377.23C198.409 377.785 198.23 378.612 198.043 379.206C198.167 379.187 198.29 379.164 198.413 379.137C198.483 378.453 198.407 377.81 198.298 377.14ZM198.909 347.151C197.833 351.489 197.033 355.964 196.049 360.352C195.278 364.122 194.524 367.894 193.843 371.68L193.698 372.491C193.582 373.148 193.228 374.244 193.75 374.807C194.207 375.299 195.163 375.531 195.787 375.694C197.307 376.218 198.568 375.614 198.772 373.958C200.56 366.069 203.159 358.323 204.104 350.271L204.139 349.965C204.164 349.694 204.332 349.522 204.534 349.448C202.452 349.409 200.467 348.477 198.909 347.151ZM205.651 344.967L205.658 344.912L205.572 344.942V344.942L205.611 344.955V344.955L205.651 344.967ZM201.854 329.499C201.514 331.755 201.051 333.992 200.672 336.242L200.567 336.881C200.235 338.826 199.426 341.05 201.483 342.3C204.384 344.843 206.336 344.322 207.146 340.439C207.929 338.008 208.665 335.561 209.356 333.102L209.515 332.534C209.61 332.194 209.709 331.907 209.938 331.685C207.077 332.062 204.166 331.218 201.854 329.499ZM202.109 299.192C201.253 304.413 199.492 309.419 198.562 314.617C196.267 323.466 203.954 334.15 213.255 328.82C218.768 324.718 220.165 317.076 222.265 310.903C222.818 308.896 223.265 306.881 223.636 304.84C216.143 304.767 208.68 302.798 202.109 299.192ZM242.03 305.712C242.368 306.284 242.618 306.908 242.795 307.555C242.871 307.034 242.592 306.364 242.785 305.901C242.533 305.84 242.281 305.778 242.03 305.712ZM238.029 297.146C237.839 297.186 237.668 297.287 237.507 297.432C237.902 299.374 237.296 301.395 237.171 303.355C246.806 305.565 256.755 307.029 266.601 305.311C268.384 305.263 268.325 302.165 268.929 300.825C269.111 299.914 269.655 298.971 269.558 298.043C269.469 297.909 269.359 297.963 269.425 297.903L269.443 297.887L269.423 297.903C268.902 298.319 268.047 297.867 268.158 297.273L268.163 297.25C268.066 297.324 267.952 297.366 267.832 297.382C268.537 298.023 267.865 299.186 266.965 298.901C258.409 302.276 246.466 301.526 238.222 297.894C238.013 297.758 237.976 297.421 238.029 297.146ZM199.52 290.502C199.112 290.145 198.988 292.068 198.88 292.373C198.804 293.144 198.436 293.923 198.515 294.698C205.04 300.358 215.526 302.949 224.096 303.066C224.327 302.853 224.682 302.831 224.989 302.956C226.304 302.777 226.926 301.522 227.318 300.393L227.411 300.16C227.611 299.655 227.82 299.153 228.086 298.686C218.459 298.99 208.53 297.138 200.128 292.276C198.94 292.389 199.209 291.267 199.52 290.502ZM204.922 244.61C201.412 245.829 197.583 246.079 193.968 245.152C194.761 251.115 195.558 265.238 200.61 268.682C201.463 268.559 202.32 268.498 203.182 268.585C203.695 268.636 204.203 268.719 204.711 268.798C204.902 268.825 205.283 268.845 205.526 268.827L205.567 268.824C205.485 268.83 205.426 268.827 205.604 268.819L205.624 268.818L205.677 268.814C207.429 268.656 209.009 266.173 210.742 267.365C210.997 266.978 211.382 266.73 211.677 266.386C212.992 264.075 211.595 261.1 212.474 258.663C212.142 258.208 212.251 257.526 212.773 257.136C213.585 256.387 215.303 256.945 215.771 255.869C215.739 255.928 215.737 255.86 215.749 255.825L215.752 255.818L215.67 255.749C212.08 252.766 208.609 249.433 206.256 245.296L206.177 245.156C205.727 245.594 204.988 245.259 204.922 244.61ZM286.893 242.586C284.316 244 281.534 245.009 278.649 245.564C278.14 250.99 277.51 256.408 276.598 261.782C278.014 261.904 279.464 262.514 280.698 261.514C284.205 258.094 285.469 251.216 286.846 246.571L286.9 246.36C287.19 245.22 287.522 243.644 286.893 242.586ZM250.948 129.971C250.579 131.82 252.611 151.956 248.906 148.512C246.399 144.561 243.531 140.863 240.967 136.953C240.614 138.351 241.648 140.012 241.159 141.197C247.683 174.001 252.416 207.311 254.17 240.728C257.053 242.76 259.582 245.224 262.061 247.72C262.833 248.379 263.394 249.456 264.353 249.835C268.348 245.302 272.979 241.389 277.156 237.031C277.126 236.819 277.096 236.607 277.065 236.394C276.947 235.577 278.024 235.169 278.383 235.712C279.87 233.754 279.994 227.689 279.688 225.145C279.084 219.439 276.963 213.987 275.447 208.489C271.079 191.668 268.056 174.022 269.487 156.608C269.507 156.447 269.721 156.444 269.74 156.608C270.927 175.005 272.777 193.453 278.29 211.135L278.421 211.572C280.575 218.719 283.239 226.295 281.395 233.79C281.548 234.799 281.066 235.805 280.336 236.53C279.93 237.517 279.467 238.492 278.884 239.379C279.017 240.921 278.956 242.483 278.789 244.03C281.753 243.434 284.518 242.241 287.151 240.775C287.301 239.919 287.433 239.06 287.535 238.198C289.497 222.206 283.513 206.654 277.526 192.137C271.822 175.219 272.936 156.858 268.168 139.744C265.152 133.07 256.914 132.545 250.948 129.971ZM218.612 128.731C217.174 129.231 215.735 129.846 214.197 129.89C209.589 131.428 204.863 132.61 200.179 133.894L199.725 134.018C197.726 134.57 195.706 135.2 194.357 136.886C193.063 138.502 192.522 140.583 192.099 142.57C190.118 159.936 188.995 177.478 187.989 194.948C187.495 209.494 187.776 224.283 191.482 238.437C192.005 240.377 192.641 242.322 192.866 244.315C193.136 244.318 193.406 244.337 193.678 244.364C193.682 244.234 193.879 244.255 193.865 244.382C197.465 244.952 201.207 244.615 204.586 243.214C203.751 217.733 198.327 190.077 210.613 166.438C210.664 166.348 210.816 166.41 210.782 166.51L210.479 167.386C209.504 170.211 208.552 173.041 207.867 175.955C208.844 175.809 209.556 178.104 209.74 178.666C215.065 194.889 211.786 212.199 211.108 228.859C212.934 230.184 214.752 231.52 216.584 232.835C223.972 238.136 231.425 243.359 239.062 248.292C243.39 245.47 247.266 241.77 251.713 239.211C250.442 204.792 243.442 170.737 239.638 136.744C238.227 138.503 236.79 140.242 235.354 141.982C233.508 144.256 231.724 146.588 229.904 148.884C229.527 149.36 228.707 149.175 228.439 148.695C224.854 142.195 222.575 135.016 218.612 128.731ZM207.806 176.214C202.517 198.061 206.911 220.559 206.828 242.655C207.221 243.004 207.075 243.667 206.616 243.906C206.549 244.211 206.469 244.513 206.375 244.815C206.744 245.167 207.116 245.516 207.491 245.862C207.205 241.052 209.618 236.682 211.017 232.165C210.315 231.634 209.575 231.153 208.891 230.601C208.406 230.176 208.348 229.712 208.376 229.108L208.379 229.065C209.04 214.826 211.592 200.589 209.981 186.326C209.73 183.642 209.273 180.984 208.721 178.348L208.708 178.279C208.62 177.75 208.452 176.327 207.806 176.214ZM287.13 242.457L287.087 242.48L287.183 242.562C287.163 242.528 287.146 242.493 287.13 242.457ZM255.493 235.013C254.267 233.808 256.16 231.896 257.37 233.13C258.595 234.338 256.701 236.249 255.493 235.013ZM254.685 220.679C254.414 219.966 255.168 218.835 255.964 219.309L255.989 219.324L256 219.309C256.754 219.756 256.476 220.681 256.033 221.233C255.542 221.74 254.932 221.138 254.685 220.679ZM253.534 204.176C251.402 201.374 255.882 200.224 255.148 203.674C254.991 204.319 253.701 205.26 253.534 204.176ZM250.381 188.562C249.249 187.174 251.682 185.98 252.191 187.636C252.483 188.741 251.108 189.423 250.381 188.562ZM261.704 154.138C262.374 154.243 265.763 153.548 264.891 154.964C266.254 161.797 270.087 170.133 264.614 176.104L264.565 176.152C263.758 176.961 262.467 178.884 261.231 178.091C258.489 175.771 254.957 174.113 252.861 171.143C251.98 168.814 252.73 166.21 252.497 163.773C252.398 160.69 251.886 157.636 251.776 154.558C251.772 154.409 251.933 154.361 252.034 154.423C255.249 154.167 258.481 154.224 261.704 154.138ZM252.143 154.639C253.598 159.39 253.631 164.469 253.592 169.393C253.615 169.9 253.704 170.394 253.968 170.782C256.047 173.242 259.01 174.784 261.479 176.827C262.478 176.172 263.27 175.335 263.978 174.385C268.316 168.691 264.385 161.523 264.39 155.182L263.834 155.183C259.94 155.188 256.01 155.137 252.143 154.639ZM248.87 172.282L248.907 172.282C250.399 172.286 250.057 174.822 248.649 174.474C247.462 174.192 247.644 172.297 248.87 172.282V172.282ZM245.943 159.336C244.91 157.569 248.321 156.885 247.962 158.926L247.969 158.843C247.971 158.826 247.972 158.812 247.974 158.799L247.948 158.99V158.99C247.824 159.893 246.047 160.54 245.943 159.336ZM243.612 144.712L243.653 144.702C244.601 144.45 245.301 145.785 244.487 146.385C243.291 147.291 242.259 145.066 243.612 144.712V144.712ZM220.41 124.005L220.295 123.898C219.058 122.758 218.13 122.188 217.856 124.511C217.665 125.643 217.829 127.072 218.911 127.742C224.093 132.881 226.057 140.22 229.396 146.542C232.411 142.878 235.217 139.065 238.133 135.328C234.115 132.872 230.059 130.435 226.096 127.872C224.202 126.609 222.164 125.459 220.41 124.005ZM246.496 127.035C244.937 129.587 243.498 132.347 241.511 134.606C241.258 134.861 240.994 135.064 240.723 135.218C241.111 135.105 241.626 135.397 241.577 135.825C244.47 138.718 246.835 142.083 249.094 145.488C249.526 139.855 248.703 134.199 249.022 128.557C248.287 127.88 247.413 127.416 246.496 127.035Z" fill="black"/>
<path fill-rule="evenodd" clip-rule="evenodd" d="M247.92 80.3061C239.832 73.7115 226.869 71.5702 218.211 78.2235C211.483 84.4674 208.699 102.211 209.889 111.127C210.22 116.845 214.576 123.327 220.97 121.519C222.055 121.411 223.11 120.994 224.205 120.906C225.516 120.755 226.837 120.752 228.145 120.938C230.995 121.342 233.522 122.86 236.288 123.57C241.421 124.887 247.149 124.001 251.568 121.035C266.169 111.405 259.555 89.6265 247.92 80.3061V80.3061Z" fill="white"/>
<path fill-rule="evenodd" clip-rule="evenodd" d="M246.843 123.728C246.993 123.677 247.143 123.622 247.292 123.567C247.302 123.601 247.318 123.635 247.336 123.667C247.357 123.719 247.378 123.769 247.401 123.82C247.215 123.821 247.028 123.788 246.843 123.728M246.543 59.8219C246.477 59.6728 246.4 59.5296 246.314 59.3914C246.523 59.4593 246.733 59.5531 246.922 59.674C246.794 59.7172 246.668 59.7665 246.543 59.8219M214.593 79.3337C214.584 79.3322 214.576 79.331 214.567 79.3295C214.677 79.0365 214.872 78.7599 215.088 78.5602C215.127 78.5243 215.169 78.4911 215.209 78.4568C214.98 78.7306 214.772 79.0226 214.593 79.3337M273.054 109.972C272.946 108.943 272.808 107.918 272.63 106.899C272.459 105.923 272.315 104.879 271.819 104.013C271.327 103.151 270.834 102.313 270.249 101.555C270.332 101.167 270.443 100.803 270.539 100.51C271.092 98.8195 271.637 96.6729 270.487 95.1025C270.22 94.7385 269.894 94.4597 269.522 94.2081C269.363 94.1007 269.1 94.0033 268.978 93.8552C268.892 93.7504 268.922 93.8071 268.918 93.7553C268.897 93.4765 269.549 92.888 269.701 92.6672C269.987 92.2587 270.199 91.7987 270.362 91.3287C271.004 89.4683 270.567 87.4192 270.181 85.555C269.977 84.5669 269.752 83.5763 269.678 82.5672C269.609 81.6197 269.738 80.6945 269.814 79.7519C269.888 78.8216 269.869 77.862 269.471 77.0007C269.277 76.5813 268.983 76.2112 268.625 75.9225C268.276 75.6401 267.84 75.476 267.5 75.1948C267.16 74.9146 267.258 74.536 267.346 74.1486C267.468 73.6231 267.622 73.1012 267.636 72.5584C267.663 71.6122 267.278 70.6905 266.677 69.9751C266.057 69.2361 265.172 68.7364 264.215 68.6241C263.777 68.5723 263.347 68.66 262.911 68.6292C262.481 68.5996 262.387 68.3837 262.306 67.9889C262.119 67.0846 262.195 66.1915 261.752 65.3476C261.358 64.5976 260.658 64.0892 259.885 63.7895C258.467 63.2393 256.817 63.3528 255.322 63.6771C254.439 61.0717 251.683 59.3631 248.971 59.3421C248.548 58.6217 247.831 58.0838 247.013 57.7678C245.66 57.2435 244.227 57.5496 242.818 57.5496H242.812C242.67 57.5409 242.529 57.5373 242.387 57.5385C242.255 57.531 242.122 57.5199 241.989 57.5052C240.385 57.3151 238.799 56.6563 237.21 57.3016C236.501 57.5891 235.938 58.032 235.581 58.597C235.044 58.7437 234.514 58.9116 233.994 59.1065C231.739 59.1656 229.506 60.3783 228.366 62.3436C226.761 62.1611 225.019 62.4707 223.958 63.7858C223.681 64.128 223.467 64.5301 223.325 64.9569C222.243 65.308 221.242 65.9336 220.586 66.8759C219.988 67.7358 219.873 68.8475 220.278 69.7706C219.312 70.4727 218.557 71.4777 218.193 72.6645C217.972 73.3856 217.939 74.1306 218.081 74.8403C217.092 75.0604 216.146 75.4684 215.308 76.0807C214.429 76.722 213.332 77.7429 213.274 78.9178C213.27 79.0041 213.273 79.0903 213.28 79.1763C211.346 79.04 209.374 79.3686 208.067 80.9239C207.086 82.0908 206.659 83.5936 206.921 84.9617C204.62 85.4305 202.444 86.637 200.926 88.4209C199.823 89.7175 198.843 91.3657 198.902 93.1309C198.921 93.6628 199.045 94.1982 199.26 94.6929V94.694C199.168 94.8681 199.073 95.0617 198.982 95.2678C197.557 96.2682 196.521 97.8363 195.938 99.5646C195.467 100.965 195.171 102.783 195.674 104.208C195.75 104.425 195.847 104.63 195.96 104.82C195.866 104.921 195.776 105.022 195.689 105.125C194.728 106.251 193.755 107.67 193.822 109.22C193.849 109.845 194.08 110.473 194.457 110.988C193.129 112.339 192.059 114.044 192.165 115.948C192.256 117.605 193.162 119.287 194.583 120.083C194.346 121.36 194.663 122.707 195.654 123.704C196.149 124.202 196.731 124.53 197.349 124.706C197.487 126.209 198.817 127.42 200.23 127.767C200.494 127.833 200.757 127.872 201.019 127.891C202.29 128.516 203.807 128.445 205.104 127.871C205.487 128.358 205.985 128.756 206.565 129.041C206.8 129.157 207.049 129.253 207.308 129.33C209.141 129.874 211.02 129.137 212.622 128.276C212.674 128.249 212.769 128.214 212.852 128.176C213.074 128.424 213.477 128.669 213.687 128.79C214.401 129.201 215.273 129.392 216.092 129.338C217.052 129.274 217.9 128.956 218.684 128.503C218.799 128.523 218.914 128.534 219.03 128.54C219.768 128.579 220.426 128.345 221.017 127.975C221.408 128.027 221.809 128.022 222.215 127.95C223.109 128.178 223.98 127.816 224.68 127.24C224.99 126.984 225.252 126.684 225.532 126.398C225.824 126.101 226.045 126.032 226.386 125.832C227.191 125.359 227.288 124.162 226.939 123.295C227.006 123.144 227.044 122.975 227.044 122.787C227.041 121.151 226.29 119.651 225.367 118.342C224.955 117.759 224.508 117.187 224.017 116.669C223.622 116.254 223.068 115.579 222.483 115.41C222.448 115.384 222.411 115.358 222.374 115.333C222.487 114.936 222.553 114.531 222.525 114.118C222.496 113.694 222.359 113.292 222.14 112.949C222.874 111.521 223.184 109.956 223.037 108.322C223.634 107.472 224.087 106.534 224.321 105.505C224.465 104.868 224.547 104.198 224.536 103.546C224.531 103.232 224.417 102.836 224.414 102.512C224.432 102.614 224.564 102.232 224.616 102.137C225.209 101.033 225.97 100.172 226.097 98.8701C226.17 98.1088 225.991 97.2675 225.536 96.6433C225.827 95.4911 225.824 94.2536 225.365 93.1545C225.242 92.8609 225.101 92.5734 224.938 92.3008C225.013 92.0713 225.082 91.8394 225.171 91.6308C225.205 91.5481 225.239 91.4644 225.274 91.3805C225.607 91.0855 225.917 90.7636 226.178 90.4477C226.756 89.7483 227.198 88.9465 227.253 88.0223C227.28 87.5597 227.172 87.1168 227.038 86.6777C226.978 86.4791 226.943 86.2583 226.873 86.0646C226.833 85.9572 226.739 85.8475 226.706 85.7463C226.698 85.7241 226.692 85.7056 226.687 85.6908C226.692 85.676 226.696 85.6452 226.696 85.5871C226.697 85.1442 226.755 84.7112 226.757 84.2844C227.162 84.694 227.649 84.9998 228.202 85.1788C229.318 85.5378 230.481 85.375 231.469 84.8211C232.531 85.5514 233.725 86.2125 234.978 86.4779C235.722 86.6357 236.467 86.5704 237.213 86.6679C237.955 86.7653 238.672 87.0898 239.371 87.3427C240.925 87.9065 242.476 88.4849 244.035 89.034C245.295 89.4769 246.657 89.8285 247.976 89.5793C248.346 90.1516 248.827 90.6353 249.443 90.9906C249.885 91.2435 250.369 91.4149 250.87 91.5001C251.312 91.5754 251.832 91.5458 252.191 91.8505C252.541 92.1466 252.76 92.5881 253.075 92.9213C253.425 93.2939 253.858 93.6171 254.312 93.8491C254.676 94.0353 255.048 94.1697 255.425 94.2574C255.392 95.1 255.36 95.9414 255.35 96.7852C255.332 98.6184 255.339 100.452 255.314 102.285C255.29 104.112 255.232 105.939 255.136 107.764C255.045 109.476 254.917 111.194 254.51 112.865C253.16 118.408 248.101 122.376 242.439 122.579C240.758 122.639 239.094 122.402 237.486 121.906C235.821 121.392 234.334 120.333 232.627 120.008C232.181 119.924 231.76 120.374 232.016 120.807C232.456 121.551 232.991 122.005 233.723 122.453C234.489 122.92 235.343 123.267 236.185 123.571C237.735 124.128 239.374 124.451 241.019 124.541C242.273 124.61 243.532 124.524 244.761 124.287C244.847 124.553 245 124.81 245.115 125.056C245.132 125.092 245.19 125.067 245.179 125.03C245.161 124.968 245.148 124.914 245.144 124.87C245.557 125.41 246.195 125.784 246.851 125.965C247.313 126.093 247.804 126.133 248.28 126.079C248.433 126.061 248.58 126.035 248.725 126.003C249.209 126.429 249.829 126.713 250.452 126.855C250.345 127.506 250.666 128.217 251.41 128.402C251.722 128.479 252.022 128.481 252.322 128.452C252.565 128.566 252.825 128.655 253.102 128.715C253.462 128.794 253.893 128.693 254.164 128.431C254.313 128.536 254.452 128.609 254.59 128.775C255.157 129.461 256.379 128.915 256.434 128.122C256.613 128.122 256.794 128.124 256.975 128.13C257.018 128.15 257.061 128.17 257.105 128.191C257.896 128.559 258.715 128.882 259.589 128.592C259.75 128.538 259.898 128.471 260.032 128.392C260.648 128.447 261.256 128.449 261.881 128.246C262.25 128.126 262.596 127.937 262.885 127.687C263.85 127.971 264.867 128.099 265.826 127.748C266.544 127.485 267.122 127.07 267.529 126.524C268.152 126.546 268.784 126.396 269.353 126.098C270.327 125.593 271.01 124.631 271.486 123.668C272.534 121.542 273.154 119.259 273.397 116.904C273.637 114.585 273.295 112.278 273.054 109.972" fill="black"/>
<path fill-rule="evenodd" clip-rule="evenodd" d="M236.221 111.712C237.727 109.956 240.264 109.834 242.365 110.273C243.713 110.555 245.026 111.024 246.396 111.198C247.035 111.279 247.682 111.304 248.326 111.292C248.959 111.28 249.593 111.152 250.224 111.176C250.321 111.179 250.357 111.307 250.273 111.359C249.408 111.892 248.243 112.063 247.221 112.167C247.224 112.243 247.228 112.317 247.239 112.38C247.267 112.547 247.292 112.714 247.313 112.882C247.359 113.262 247.411 113.641 247.463 114.021C247.565 114.767 247.597 115.537 247.776 116.271L247.808 116.393C247.849 116.547 247.859 116.686 247.845 116.811L247.886 116.793L248.018 116.729L248.104 116.688C248.418 116.542 248.718 116.436 249.087 116.471C249.368 116.498 249.604 116.69 249.606 116.991C249.613 118.343 247.797 118.778 246.758 119.036L246.454 119.111C245.132 119.435 243.782 119.718 242.422 119.786C240.24 119.895 237.788 119.291 236.361 117.516C235.029 115.859 234.785 113.386 236.221 111.712ZM246.13 117.39C245.901 115.355 243.408 115.244 242.691 116.534C242.373 114.735 237.666 116.378 238.034 116.736C239.429 118.091 241.546 118.213 243.366 117.963C244.293 117.835 245.221 117.627 246.13 117.39ZM243.364 112.057L242.737 111.967L242.49 111.932C240.937 111.724 239.189 111.616 237.912 112.615C237.446 112.98 237.183 113.455 237.085 113.966C238.294 113.787 239.507 113.65 240.724 113.536L241.056 113.505C241.817 113.436 242.578 113.364 243.338 113.287L243.879 113.233L244.419 113.176C244.609 113.156 245.891 113.091 246.132 113.135C246.157 112.918 246.191 112.448 246.245 112.236C245.335 112.267 244.428 112.2 243.523 112.079L243.364 112.057ZM246.249 102.962C247.177 103.529 248.592 104.849 247.593 106.253C246.417 107.491 244.724 106.071 243.89 105.43C243.116 104.932 242.247 106.211 242.965 106.792C248.994 111.27 251.441 103.11 246.718 102.297C246.198 102.207 246.005 102.787 246.249 102.962ZM247.911 105.348L247.955 105.324L247.97 105.314C247.996 105.297 247.98 105.299 247.92 105.32L247.876 105.336V105.367C247.887 105.36 247.899 105.355 247.911 105.348ZM236.016 100.317L236.016 100.289C236.018 99.5025 236.475 97.7063 237.604 97.7063C238.309 97.7063 238.737 98.9287 238.812 100.189L238.814 100.24C238.847 101.024 238.632 102.736 237.604 102.736C236.564 102.736 236.027 101.114 236.016 100.317V100.317ZM252.639 100.07L252.639 100.042C252.637 99.2557 252.18 97.4596 251.051 97.4596C250.364 97.4596 249.939 98.6216 249.85 99.8477L249.844 99.9421C249.799 100.699 250 102.489 251.051 102.489C252.091 102.489 252.628 100.868 252.639 100.07V100.07ZM236.661 92.3426C237.582 92.2021 238.802 92.4691 239.232 93.4089C239.423 93.8276 239.196 94.2906 238.714 94.3138C237.548 94.3698 236.502 94.1095 235.479 94.8701C235.038 95.1974 234.668 95.6507 234.357 96.1028L234.24 96.2749L234.142 96.4166C233.931 96.7278 233.731 97.0659 233.763 97.4414C233.772 97.5525 233.659 97.658 233.551 97.6536C232.88 97.6259 232.808 96.7824 232.896 96.2757C233.06 95.3354 233.514 94.4527 234.143 93.7417C234.803 92.9951 235.675 92.493 236.661 92.3426ZM249.351 93.4838C249.987 93.0741 250.799 92.9167 251.544 92.9771C253.011 93.0956 255.473 94.347 255.149 96.1451C255.049 96.6996 254.28 96.9923 253.827 96.6846C253.34 96.3538 253.222 95.8398 252.859 95.4075C252.57 95.0622 252.203 94.8124 251.811 94.5996C251.424 94.3897 250.976 94.2625 250.537 94.2161L250.464 94.2091C250.2 94.1865 248.865 94.1926 249.061 94.6923C249.099 94.7902 248.954 94.8676 248.887 94.7936C248.478 94.3396 248.942 93.7481 249.351 93.4838Z" fill="black"/>
</g>
<defs>
<clipPath id="clip0_172_532">
<rect width="320" height="459" fill="white"/>
</clipPath>
</defs>
</svg>
