<svg width="286" height="293" viewBox="0 0 286 293" fill="none" xmlns="http://www.w3.org/2000/svg">
<path fill-rule="evenodd" clip-rule="evenodd" d="M194.871 160.389C194.624 162.969 195.13 165.433 196.335 167.516L196.728 168.193L195.981 168.454C194.623 168.929 193.112 169.16 191.362 169.16C189.562 169.16 187.69 168.909 186.185 168.708L185.222 168.579L185.695 167.743C186.076 167.071 186.146 166.257 186.221 165.395C186.241 165.164 186.262 164.924 186.289 164.688C187.714 151.958 189.516 139.062 191.259 126.591C191.717 123.309 192.191 119.915 192.651 116.577L193.971 116.628C194.326 122.807 194.67 129.09 195.003 135.166C195.15 137.838 195.296 140.51 195.444 143.182C195.97 149.936 195.789 155.405 194.871 160.389M194.333 236.725C196.271 236.725 198.212 236.523 200.103 236.126C206.021 234.885 211.397 231.956 215.972 229.309C216.205 229.177 216.442 229.045 216.685 228.909C218.476 227.907 220.705 226.662 222.102 225.142C223.634 223.475 223.898 221.814 222.932 219.915L222.779 219.614L222.939 219.317C223.939 217.456 223.865 215.154 222.758 213.719L221.828 212.513L223.357 212.675C224.899 212.839 226.454 213.06 227.957 213.275C229.625 213.512 231.35 213.758 233.049 213.923L233.521 213.968L233.63 214.423C233.69 214.676 233.765 214.83 234.289 214.83C234.743 214.83 235.354 214.697 236 214.556C236.802 214.381 237.712 214.183 238.589 214.183C238.974 214.183 239.321 214.22 239.649 214.296L239.84 214.34L239.976 214.479C240.063 214.568 240.211 214.623 240.362 214.623C240.476 214.623 240.582 214.591 240.653 214.536L240.867 214.368L241.139 214.398C245.875 214.918 249.959 215.829 253.623 217.185L253.64 217.192L253.719 217.226C255.044 217.797 256.414 218.388 257.662 218.388C258.574 218.388 259.315 218.078 259.993 217.412L260.185 217.224L260.455 217.222C263.198 217.197 264.452 214 264.625 211.858L264.647 211.588L264.856 211.413C269.637 207.404 272.46 201.899 273.485 194.581C274.42 187.916 273.702 180.889 272.878 174.894C270.97 159.357 268.98 145.429 263.922 132.219L263.685 131.601L264.315 131.375C266.5 130.591 268.169 129.655 269.42 128.514L269.506 128.435L269.615 128.39C271.407 127.655 272.284 124.94 272.51 124.126L272.529 124.06L272.56 124C272.926 123.299 273.01 122.324 272.791 121.326L272.768 121.218L272.782 121.109C272.9 120.16 272.508 119.169 272.093 118.119C271.903 117.64 271.707 117.144 271.564 116.65C271.072 115.24 270.581 113.804 270.105 112.415C269.038 109.3 267.935 106.078 266.76 102.944L266.599 102.515L266.953 102.22C267.558 101.715 267.356 101.122 266.484 99.7018C266.278 99.3665 266.083 99.0492 265.935 98.7366C264.818 96.8077 263.621 94.9561 262.376 93.2326L262.35 93.1972L262.33 93.1589C255.942 81.2389 244.61 74.6743 230.423 74.6743L230.134 74.6748L229.974 74.5787C227.315 72.9812 225.417 70.2401 224.172 66.1989L224.132 66.0701L224.147 65.9363C224.19 65.5638 224.237 65.0755 224.221 64.6016C224.18 63.4015 223.709 62.3306 222.929 61.6634C221.449 60.3975 219.202 60.2916 217.027 60.2916L216.714 60.2921C213.934 60.3001 211.971 60.7824 210.536 61.8103C208.87 63.0046 207.949 64.9325 207.721 67.7041C207.652 68.5334 207.655 69.3926 207.657 70.2234L207.657 70.4553L207.629 70.5474C207.429 71.2061 207.195 71.839 206.934 72.4288L206.664 73.0355L206.052 72.762C205.656 72.5851 205.154 72.4942 204.517 72.484C204.333 72.4797 204.154 72.4778 203.973 72.4778C202.494 72.4778 200.911 72.6127 199.381 72.7431C198.227 72.8415 197.035 72.9432 195.881 72.9884L195.865 72.989C195.865 72.989 195.705 72.9881 195.634 72.9881C192.828 72.9881 190.795 73.4289 189.234 74.3754C187.553 75.3944 186.344 77.0299 185.431 79.5224C180.529 93.8094 178.514 109.198 176.736 122.775C175.728 129.875 175.421 137.154 175.125 144.193C174.812 151.623 174.488 159.305 173.342 166.815L173.251 167.409L172.643 167.37C169.964 167.197 167.07 166.825 164.005 166.431C159.349 165.833 154.535 165.214 149.88 165.214C143.373 165.214 138.439 166.493 134.798 169.125C132.261 171.514 130.948 174.749 131.002 178.482C131.078 183.757 133.871 189.589 138.116 193.34L138.132 193.355C143.499 198.42 153.294 202.813 167.247 206.412C180.078 209.722 193.349 211.521 200.118 212.298L201.794 212.491L200.434 213.473C199.884 213.871 199.381 214.221 198.899 214.544L198.587 214.751L198.246 214.595C197.273 214.15 196.656 214.056 196.308 214.056C196 214.056 195.629 214.123 195.608 214.441C195.595 214.65 195.743 214.96 196.057 214.999L197.722 215.206L196.363 216.175C195.454 216.822 194.099 217.602 192.53 218.506C187.397 221.461 179.639 225.927 180.973 229.849L181.061 230.106L180.937 230.349C180.578 231.051 180.548 231.703 180.843 232.342C181.477 233.71 183.458 234.749 185.141 235.172L185.17 235.179L185.198 235.189C188.126 236.208 191.2 236.725 194.333 236.725" fill="white"/>
<path fill-rule="evenodd" clip-rule="evenodd" d="M199.966 211.53C199.764 211.325 199.678 211.055 199.868 210.738C200.598 209.806 202.114 210.444 203.057 210.659C203.413 210.363 203.766 210.066 204.107 209.753C203.988 209.019 204.871 208.532 205.233 207.966C205.589 207.55 205.924 207.076 206.351 206.727C207.391 205.917 208.832 206.465 210.04 206.428C210.969 205.247 211.926 204.102 212.811 202.881C211.792 201.17 211.72 199.165 212.058 197.258C196.424 191.331 182.892 180.109 165.983 177.516C165.402 177.419 165.076 176.713 165.221 176.195C166.4 173.383 183.349 180.639 185.883 181.953C193.356 185.528 200.355 189.984 207.618 193.916C209.132 194.72 210.798 195.152 212.454 195.57C214.998 187.225 219.303 179.576 222.604 171.531C222.389 171.16 222.207 170.771 222.052 170.37C222.161 174.795 217.855 174.733 217.26 170.536C217.505 172.723 215.85 177.409 213.46 174.335C212.899 173.562 212.7 172.573 212.605 171.576C212.482 172.265 212.343 172.952 212.188 173.636C211.575 174.992 209.9 173.344 209.511 172.636C209.287 172.596 209.077 172.494 208.923 172.369C204.697 172.955 199.719 172.921 196.619 169.588C191.359 171.604 185.538 169.798 180.219 168.993C169.395 167.75 158.527 165.854 147.606 165.999C142.73 166.282 136.977 167.069 133.893 171.225C129.937 177.218 132.173 185.311 136.537 190.498C147.035 203.778 183.071 209.552 199.966 211.53M199.671 216.314C199.48 216.263 199.287 216.216 199.096 216.171C196.032 218.72 181.601 225.339 182.698 229.293C183.086 229.785 184.015 229.896 184.602 230.055C185.624 230.332 186.657 230.571 187.699 230.76C191.069 231.373 194.558 231.479 197.923 230.781C199.161 230.593 200.279 230.065 201.406 229.555C205.05 227.954 209.062 226.184 212.688 224.596C217.294 222.772 225.374 219.176 222.051 213.109C218.903 216.647 214.907 216.338 212.894 211.941C212.199 210.606 211.594 208.806 209.963 208.267C209.103 207.686 208.003 207.565 207.285 208.212C207.233 208.132 207.186 208.019 207.161 207.919C206.351 209.071 205.652 210.284 204.703 211.337C205.029 211.354 208.422 213.864 207.421 213.865C206.216 213.245 205.019 212.728 203.718 212.394C202.775 213.342 201.738 214.223 200.663 215.038C201.707 215.726 202.644 216.57 203.398 217.484C203.463 217.565 203.384 217.669 203.287 217.626C202.116 217.105 200.912 216.647 199.671 216.314M184.137 233.409C195.858 238.67 208.267 232.812 218.262 226.568C220.569 225.281 223.603 223.456 223.136 220.426C221.437 222.91 218.636 224.324 215.948 225.55C211.431 227.59 206.885 229.565 202.357 231.58C201.929 232.997 199.884 233.051 198.648 233.366C193.147 234.432 187.233 233.902 182.055 231.777C182.355 232.663 183.335 233.07 184.137 233.409M230.901 212.927C231.19 212.964 231.48 212.998 231.77 213.031C231.74 212.648 231.971 212.265 232.342 212.146C232.175 211.335 232.113 210.496 232.203 209.672C231.719 210.922 230.156 210.543 229.163 210.182C227.745 209.797 226.335 209.383 224.934 208.941C224.381 209.967 223.795 210.978 223.076 211.907C225.696 212.14 228.291 212.602 230.901 212.927M232.054 208.995C232.123 209.142 232.223 209.298 232.225 209.474C232.296 208.866 232.434 208.265 232.644 207.69C232.447 208.125 232.251 208.56 232.054 208.995M233.707 205.735C234.996 204.057 237.379 202.685 239.581 203.152C239.722 203.183 239.725 203.41 239.581 203.439C236.622 203.84 234.025 206.184 233.922 209.215C233.689 210.587 234.644 211.934 234.322 213.25C234.386 213.255 234.45 213.258 234.513 213.262C234.537 213.35 234.558 213.429 234.585 213.497C234.266 213.551 234.172 214.064 234.549 214.156C234.772 214.21 235.005 214.238 235.243 214.25C236.449 213.925 237.721 213.85 238.874 213.369C240.015 212.865 239.73 211.45 240.132 210.47C240.427 209.339 240.767 208.213 241.194 207.129C241.225 207.042 241.344 207.061 241.354 207.149C241.655 209.313 241.645 211.514 241.572 213.695C241.968 213.736 242.362 213.78 242.756 213.829C242.731 213.22 244.56 205.797 245.524 207.702C245.039 209.796 244.98 211.984 244.928 214.139C247.79 214.61 250.61 215.312 253.354 216.267C255.287 216.853 257.587 218.584 259.464 217.019C260.917 215.818 261.407 213.722 261.27 211.94C259.38 201.39 244.45 200.157 235.636 200.938C234.804 202.857 233.956 204.769 233.097 206.677C233.275 206.349 233.479 206.033 233.707 205.735M263.767 211.734C263.928 209.338 263.525 206.356 261.748 204.571C257.683 201.136 251.99 200.056 246.909 198.813C244.543 198.346 242.144 198.036 239.735 197.881C238.881 197.814 237.795 198.008 237.192 197.309C236.881 198.045 236.566 198.779 236.251 199.513C246.366 198.189 267.468 202.789 261.558 216.633C262.81 215.278 263.639 213.629 263.767 211.734M213.516 203.815C213.051 204.977 212.481 206.083 211.737 207.095C212.583 207.648 213.273 208.465 213.759 209.343C216.876 217.491 220.21 213.126 224.352 208.754C220.847 207.432 216.204 206.442 213.516 203.815M265.403 210.076C273.509 202.075 275.082 188.747 272.087 178.271C271.821 174.386 270.461 170.684 269.243 167.005C265.364 155.848 260.263 145.113 254.144 134.978C246.553 137.062 238.976 139.2 231.367 141.215C230.319 141.443 229.27 141.892 228.195 141.957C227.81 142.202 227.424 142.472 227.024 142.709C227.607 145.56 227.069 148.472 226.934 151.341C226.81 153.599 227.054 155.811 227.354 158.045C227.689 161.296 229.067 171.869 226.305 173.805C225.368 174.256 224.531 172.919 224.128 173.287C223.764 173.034 223.425 172.704 223.149 172.341C222.082 175.787 220.339 178.984 219.262 182.434C217.829 187.504 213.125 195.71 214.169 200.546C214.977 203.532 218.512 204.176 221.064 205.152C224.012 206.177 226.993 207.118 230.023 207.882C231.502 204.745 232.916 201.579 234.303 198.401C240.644 183.74 246.259 168.772 251.278 153.626C251.372 153.29 252.526 149.648 252.737 150.664C252.755 150.559 252.886 150.29 252.936 150.52C252.085 154.077 251.222 157.632 250.288 161.169C252.582 160.848 255.05 160.723 257.15 161.847C257.258 161.904 257.179 162.047 257.072 162.029C254.584 161.598 252.186 162.412 249.797 162.996C246.442 174.406 242.113 185.527 237.531 196.509C238.948 196.057 240.593 196.556 242.072 196.592C246.73 197.073 251.335 198.091 255.736 199.675C261.268 201.467 265.179 203.804 265.403 210.076M269.866 126.812C271.227 125.347 272.297 123.476 272.091 121.49C271.273 120.4 271.002 118.978 270.525 117.718C268.663 112.446 266.934 107.134 264.907 101.919C260.594 103.244 256.352 104.833 252.35 106.921C251.614 107.296 250.886 107.686 250.166 108.089C249.412 108.512 248.59 109.245 247.685 109.035C248.674 110.433 250.709 111.887 251.052 113.503C251.127 114.014 250.764 114.489 250.207 114.374C241.486 120.563 232.48 126.622 224.237 133.516C218.065 138.399 213.326 142.359 211.209 150.281C209.782 155.413 209.778 160.776 209.988 166.052C210.028 167.078 210.03 168.128 210.112 169.161C209.989 169.933 210.224 171.505 211.093 171.533C211.073 171.72 211.011 171.893 210.913 172.046C210.94 172.083 210.969 172.118 210.999 172.153C211.042 171.942 211.084 171.732 211.124 171.521C211.8 168.527 211.891 165.054 211.778 161.866C211.731 160.952 213.134 160.974 213.212 161.866C213.423 164.276 213.634 166.686 213.845 169.094C214.099 170.655 213.7 172.697 214.949 173.884C216.219 172.712 215.799 170.399 215.737 168.885C215.637 166.417 215.53 163.949 215.438 161.481C215.41 160.699 216.706 160.498 216.853 161.293C217.27 163.56 217.721 165.821 218.206 168.075C218.499 168.946 218.7 172.856 220.164 172.177C221.036 171.582 220.407 168.093 220.522 166.938C220.468 164.651 220.436 162.368 220.268 160.086C220.199 159.166 221.699 158.97 221.905 159.869C222.239 161.323 222.558 162.778 222.848 164.242C223.484 166.711 223.252 170.057 225.547 171.698C226.446 165.285 225.153 158.918 224.971 152.529C225.08 150.458 225.436 148.409 225.75 146.363C226.097 144.102 226.299 141.64 225.487 139.458C225.709 138.481 226.582 141.124 226.664 141.344C227.322 140.049 228.923 139.949 230.19 139.545C233.006 138.635 235.89 137.948 238.738 137.139C246.293 135.043 253.856 132.979 261.421 130.919C264.443 130.084 267.625 129.095 269.866 126.812M194.217 160.92C195.259 155.274 195.23 149.554 194.785 143.847C194.295 134.996 193.82 126.142 193.311 117.292C191.104 133.311 188.75 149.31 186.951 165.38C186.823 166.498 186.842 167.682 186.278 168.68C189.399 169.097 192.727 169.518 195.762 168.458C194.43 166.157 193.96 163.537 194.217 160.92M178.444 121.157C176.083 136.339 177.43 151.788 175.141 166.952C178.316 167.308 181.468 167.834 184.611 168.413C184.267 166.54 184.919 164.605 185.032 162.719C186.739 149.264 188.623 135.817 191.12 122.479C191.733 119.287 192.352 116.108 193.061 112.934C192.954 111.012 192.86 109.089 192.798 107.166C189.333 104.989 185.425 103.58 181.384 102.87C180.292 108.949 179.201 115.024 178.444 121.157M205.764 73.4503C205.902 73.2142 206.033 72.9727 206.159 72.7279C205.733 72.7443 205.317 72.7595 204.897 72.8291C204.916 73.5047 204.878 74.1857 204.871 74.8668C205.081 74.3685 205.492 73.9138 205.764 73.4503M134.485 168.589C144.565 161.266 161.122 165.932 172.799 166.684C175.026 152.099 174.117 137.275 176.192 122.665C178.103 108.07 180.118 93.271 184.918 79.287C186.899 73.8799 190.326 72.2743 195.968 72.3178C198.831 72.2057 201.858 71.7477 204.641 71.8129C205.251 71.8228 205.889 71.9033 206.439 72.1492C207.213 70.4063 207.633 68.5351 207.845 66.6498C207.859 66.5301 208.011 66.5083 208.056 66.6226C208.711 68.2642 208.78 70.056 208.425 71.7749C208.167 73.0064 206.634 77.8531 204.853 75.9569C204.712 79.9332 205.586 84.6819 209.485 86.7457C216.297 89.7135 225.714 87.0111 229.661 80.7121C230.423 79.4534 231.081 78.1141 231.926 76.9055C226.041 75.241 222.739 68.1968 224.125 62.8323C224.981 67.0044 226.543 71.6661 230.433 74.003C244.598 73.9714 256.375 80.4173 263.03 92.8325C264.332 94.6352 265.536 96.5085 266.639 98.4146C267.233 99.6897 268.971 101.463 267.495 102.694C269.2 107.24 270.712 111.848 272.311 116.429C272.75 117.956 273.753 119.557 273.553 121.162C273.77 122.151 273.76 123.32 273.264 124.271C272.793 125.966 271.736 128.246 269.984 128.965C268.497 130.322 266.617 131.257 264.656 131.96C269.885 145.616 271.876 160.343 273.648 174.771C275.385 187.393 276.281 202.747 265.4 211.869C265.188 214.479 263.639 217.804 260.574 217.833C258.452 219.915 255.865 218.773 253.503 217.754C249.516 216.279 245.334 215.461 241.179 215.005C240.733 215.353 240.008 215.296 239.611 214.89C237.094 214.31 233.606 216.658 233.097 214.531C229.852 214.216 226.642 213.627 223.4 213.283C224.766 215.054 224.667 217.666 223.638 219.58C226.259 224.731 220.154 227.714 216.421 229.828C211.382 232.744 206.119 235.51 200.355 236.719C195.288 237.784 189.98 237.461 185.09 235.759C182.521 235.114 178.933 232.996 180.458 230.012C178.525 224.333 192.095 218.448 196.087 215.605C194.455 215.401 194.396 212.018 198.639 213.962C199.152 213.619 199.656 213.266 200.155 212.906C182.99 210.934 150.209 205.511 137.787 193.788C130.962 187.76 127.024 175.566 134.485 168.589" fill="black"/>
<path fill-rule="evenodd" clip-rule="evenodd" d="M218.597 28.3686C202.216 27.5636 194.824 39.0891 194.345 44.237C194.014 47.8105 196.126 51.9293 196.126 55.1225C196.126 56.7524 194.129 60.2516 195.059 62.6272C197.128 67.9148 201.51 73.783 207.093 73.783C212.676 73.783 219.942 75.326 226.111 66.4989C226.69 65.6707 234.012 60.9635 234.723 56.4905C236.495 45.3487 230.285 28.943 218.597 28.3686Z" fill="white"/>
<path fill-rule="evenodd" clip-rule="evenodd" d="M219.369 21.1958C218.783 20.5262 217.794 20.2583 216.916 20.3102C215.639 20.3858 214.529 21.1731 213.259 21.2314C211.928 21.293 210.643 20.8318 209.308 21.0456C208.49 21.1774 207.679 21.5565 207.155 22.1958C205.34 21.6764 203.368 22.3643 202.212 23.8666C200.785 23.6452 199.233 24.5892 198.797 25.9629C196.984 26.0212 195.273 27.476 195.071 29.299C194.347 29.4902 193.718 29.9892 193.332 30.649C192.884 31.4136 192.809 32.2906 192.89 33.1524C192.038 33.5877 191.604 34.5229 191.491 35.5122C190.712 36.0933 190.373 37.1376 190.532 38.1237C189.936 38.4595 189.628 39.2415 189.631 39.9391C189.634 40.5904 189.807 41.1672 189.564 41.7957C189.347 42.3554 189.269 42.8219 189.389 43.4082L189.401 43.4653C189.422 43.5609 189.439 43.6526 189.455 43.743C189.294 43.8845 189.157 44.0618 189.055 44.2681C188.681 45.0219 188.737 45.8817 189.022 46.6463C188.897 47.1331 188.913 47.6474 189.098 48.1154C188.752 48.6127 188.57 49.2227 188.624 49.8556C188.684 50.5642 189.007 51.1987 189.498 51.6678C189.368 52.6357 189.761 53.6815 190.474 54.363C190.372 54.9424 190.46 55.5497 190.777 56.099C191.003 56.4905 191.307 56.7821 191.658 56.9853C191.647 57.3086 191.691 57.6391 191.798 57.9704C191.948 58.43 192.201 58.8535 192.534 59.1946C192.335 60.4644 193.096 61.8735 194.435 62.2298C194.548 62.2597 194.655 62.2734 194.758 62.2756C194.891 63.497 195.181 64.7014 195.631 65.8452C196.775 68.7579 198.854 71.3045 201.566 72.8932C202.907 73.6783 204.413 74.2162 205.951 74.4408C207.058 74.6028 208.123 74.5628 209.233 74.4527C210.628 74.3134 212.028 74.1049 213.384 73.7464L213.602 73.6885C214.163 73.5381 214.756 73.3645 215.243 73.0616C215.787 72.7225 216.07 72.1998 216.196 71.5842C216.266 71.2416 216.048 70.8731 215.673 70.866L215.649 70.866C215.567 70.8677 215.485 70.8646 215.403 70.8594L215.341 70.8552H215.338C215.333 70.8541 215.331 70.8541 215.327 70.8541C215.29 70.8487 215.254 70.8379 215.219 70.8325C214.806 70.7631 214.445 70.8319 214.057 70.9608L214.008 70.9772C213.356 71.2019 212.708 71.4103 212.034 71.5648C211.337 71.7235 210.631 71.8499 209.923 71.9492L209.853 71.9579L209.831 71.9611L209.82 71.9622V71.9622C209.818 71.9622 209.816 71.9622 209.814 71.9633L209.605 71.9892V71.9892C209.441 72.0087 209.277 72.0259 209.113 72.0432C208.81 72.0735 208.507 72.0972 208.205 72.1145C202.981 72.4082 198.595 68.2989 197.271 63.3719C196.791 61.5888 196.76 59.8101 196.901 58.0302C196.946 57.9006 196.973 57.757 196.972 57.5993C196.972 57.5172 196.968 57.4362 196.963 57.3541C197.139 55.6326 197.445 53.91 197.636 52.182C197.86 50.1635 197.984 48.1332 197.939 46.1016C197.916 45.0983 197.809 44.1047 197.668 43.1112L197.618 42.7543V42.7543C198.253 42.6304 198.843 42.3295 199.313 41.8939C200.333 42.4825 201.653 42.5347 202.66 41.9132C203.788 42.6202 205.365 42.6844 206.501 41.9931C207.187 42.483 208.053 42.6943 208.902 42.5084C209.284 42.4248 209.664 42.2439 209.989 41.9934C210.222 42.0343 210.457 42.0502 210.691 42.038L210.739 42.065V42.065C211.278 42.3491 211.876 42.536 212.491 42.5152C212.946 42.4998 213.415 42.4101 213.849 42.2403C214.313 42.52 214.82 42.711 215.363 42.7794C216.156 42.8793 217.012 42.7041 217.671 42.2546C218.877 42.9406 220.359 43.0462 221.66 42.5853C221.926 43.0362 222.295 43.425 222.726 43.7247C222.649 44.0013 222.625 44.2964 222.651 44.5801C222.695 45.0471 222.812 45.4658 223.004 45.8419C222.802 46.2618 222.741 46.7774 222.854 47.2949C223.015 48.033 223.445 48.675 224.001 49.1751C224.05 50.3529 224.697 51.4573 225.749 52.0709C225.802 52.1019 225.855 52.1272 225.908 52.1499C225.954 52.2134 226.01 52.2693 226.073 52.3164C226.742 52.934 227.801 52.8849 228.639 52.5359C228.656 52.5367 228.672 52.5381 228.688 52.5384C228.988 52.546 229.192 52.4293 229.313 52.2576C229.435 52.2642 229.556 52.2771 229.678 52.2997C230.123 52.3829 230.612 52.5427 231.015 52.7502C232.061 53.2879 232.545 54.2383 232.69 55.381C232.848 56.6273 232.489 57.8974 231.524 58.7409C231.055 59.1513 230.455 59.4083 229.846 59.5163C229.172 59.6362 228.453 59.3413 227.955 59.9191C227.856 60.0336 227.788 60.1935 227.842 60.3479C228.011 60.8296 228.288 61.0143 228.723 61.0812C228.095 61.8253 227.451 62.5446 226.737 63.2131C225.966 63.9378 225.168 64.6398 224.472 65.439C223.736 66.2847 223.072 67.1811 222.61 68.2071C222.346 68.7967 222.135 69.4048 221.906 70.0085L221.866 70.1137C221.611 70.7551 221.273 71.3734 221.664 72.0432C221.82 72.3067 222.172 72.5616 222.497 72.5195C223.41 72.4028 223.716 71.7862 223.997 70.9826C224.208 70.3757 224.371 69.7515 224.599 69.1499C224.641 69.0385 224.688 68.9283 224.736 68.8187C225.263 68.9653 225.842 68.8489 226.312 68.5489C226.814 68.7712 227.37 68.8822 227.907 68.8728C228.627 68.8601 229.284 68.6604 229.849 68.3003C229.894 68.2884 229.939 68.2769 229.984 68.2641C230.844 68.593 231.85 68.5343 232.628 68.0011C233.132 67.6558 233.477 67.195 233.673 66.6819C234.324 66.6695 234.968 66.4388 235.435 65.9772C235.863 65.5534 236.113 65.0066 236.188 64.4384C236.748 64.3275 237.274 64.0567 237.686 63.6006C238.03 63.2197 238.239 62.7346 238.31 62.2309C238.992 62.0363 239.608 61.5909 239.944 60.9699C240.257 60.3917 240.302 59.7646 240.149 59.1941L240.189 59.1371V59.1371C240.892 58.7694 241.429 58.1674 241.484 57.3075C241.499 57.0626 241.473 56.8177 241.406 56.5859C241.43 56.3268 241.415 56.0679 241.347 55.8173C242.293 54.8982 242.635 53.4219 242.122 52.2015C243.046 51.2079 243.29 49.6365 242.613 48.4572C243.077 47.8955 243.316 47.1795 243.276 46.4148C243.226 45.4602 242.789 44.6263 242.265 43.8541C242.654 43.4243 242.861 42.8249 242.846 42.246C242.824 41.4069 242.378 40.6843 241.819 40.086C242.307 38.6086 241.762 37.0059 240.566 36.0706C240.808 35.6721 240.897 35.1785 240.818 34.6785C240.68 33.8047 240.024 33.2097 239.316 32.7388C239.464 32.2572 239.425 31.7376 239.19 31.2398C238.875 30.5756 238.282 30.1544 237.663 29.798C237.503 28.3248 235.856 27.0666 234.475 27.827C234.817 26.7308 233.83 25.5471 232.696 25.4218C232.14 23.7392 230.224 22.6786 228.501 23.0966C227.62 21.8934 225.981 21.4302 224.589 21.9464C223.058 20.7746 221.16 20.6007 219.369 21.1958ZM230.27 54.2341C229.195 54.1758 228.389 55.0527 227.822 55.8552C227.291 56.6079 228.655 57.4028 229.052 56.5734C229.195 56.2775 229.357 55.9643 229.574 55.7051C229.611 55.7561 229.643 55.8089 229.675 55.8632L229.707 55.9178C229.731 55.9578 229.756 55.9988 229.777 56.0409C229.774 56.0485 229.807 56.1479 229.808 56.1522C229.896 56.4211 230.09 56.5939 230.354 56.6868C230.694 56.8056 231.016 56.5496 231.125 56.2494C231.299 55.7699 230.895 55.3519 230.475 55.1618C230.888 55.0949 231.294 55.2353 231.592 55.5528C231.633 55.5971 231.702 55.5614 231.704 55.5063C231.739 54.7536 230.951 54.2708 230.27 54.2341Z" fill="black"/>
<path fill-rule="evenodd" clip-rule="evenodd" d="M204.045 65.4651C204.841 65.6956 205.695 65.7162 206.507 65.4782C207.243 65.2623 207.999 64.7873 208.541 64.1587C209.022 63.6003 209.334 62.9216 209.321 62.1973C209.32 62.1145 209.29 62.0455 209.245 61.9919C209.196 61.9342 209.127 61.8946 209.054 61.8774C208.979 61.8597 208.899 61.8659 208.831 61.8968C208.769 61.9247 208.717 61.9721 208.684 62.0413C208.601 62.1506 208.518 62.2583 208.434 62.363C207.765 63.189 207.117 63.8063 206.11 64.0277C205.564 64.1479 205.018 64.0946 204.518 63.9113C203.982 63.715 203.498 63.37 203.118 62.9285C202.947 62.7289 202.744 62.6475 202.546 62.6461C202.322 62.6446 202.1 62.7488 201.933 62.9153C201.769 63.079 201.659 63.3014 201.649 63.5341C201.64 63.7383 201.707 63.9516 201.884 64.1419C202.469 64.7688 203.226 65.228 204.045 65.4651ZM204.069 55.1196C203.253 55.6153 202.01 56.7713 202.888 58.0002C203.921 59.0839 205.409 57.8414 206.142 57.2795C206.822 56.844 207.586 57.9641 206.955 58.4725C201.657 62.3924 199.507 55.2493 203.657 54.5368C204.113 54.4583 204.283 54.9663 204.069 55.1196ZM211.704 52.9383C211.966 52.7707 212.275 52.7132 212.617 52.8686C212.884 52.9901 213.352 53.3949 213.679 53.9271C213.902 54.2912 214.06 54.7183 214.027 55.1632C214.019 55.2666 214.058 55.3427 214.118 55.3991C214.166 55.4436 214.234 55.4763 214.315 55.4865C214.384 55.4952 214.46 55.4873 214.523 55.4679C214.641 55.4309 214.704 55.3539 214.728 55.2911C214.956 54.685 214.858 54.0086 214.602 53.3984C214.256 52.5749 213.629 51.8851 213.218 51.6627C212.515 51.282 211.685 51.2645 210.981 51.6523C210.381 51.9824 210.006 52.5153 209.634 53.0586C209.554 53.1741 209.476 53.2887 209.394 53.4013C209.231 53.627 209.215 53.8508 209.278 54.0427C209.348 54.2553 209.526 54.4347 209.749 54.5286C209.955 54.6154 210.194 54.6276 210.406 54.5385C210.585 54.4631 210.749 54.3163 210.852 54.0671C211.027 53.6475 211.319 53.1845 211.704 52.9383V52.9383ZM198.382 53.8719C198.561 53.9655 198.702 53.9937 198.901 53.934C199.011 53.9009 199.12 53.8375 199.206 53.7523C199.29 53.6679 199.351 53.5628 199.375 53.4463C199.433 53.1588 199.59 52.8897 199.815 52.7142C200.007 52.5642 200.249 52.4847 200.517 52.5296C200.807 52.5779 201.083 52.7636 201.273 52.9825C201.336 53.0557 201.386 53.1389 201.436 53.2215C201.53 53.376 201.621 53.5197 201.75 53.6331C201.799 53.6763 201.873 53.7062 201.944 53.7062C201.973 53.7062 202.003 53.7015 202.031 53.6927C202.319 53.4035 202.375 53.1842 202.365 52.9666C202.356 52.7384 202.266 52.5073 202.12 52.2918C201.779 51.7861 201.131 51.3716 200.694 51.2776C200.095 51.1491 199.5 51.3034 199.023 51.6376C198.533 51.9815 198.169 52.5154 198.056 53.1171C198.029 53.262 198.04 53.4184 198.096 53.554C198.15 53.6865 198.244 53.8 198.382 53.8719ZM210.383 47.5473C210.742 47.8971 211.168 47.9513 211.598 47.9995C211.837 48.0265 212.028 48.0483 212.216 48.0907C212.732 48.2071 213.242 48.3825 213.708 48.6351C214.194 48.8991 214.725 49.2175 215.106 49.6255C215.197 49.7225 215.282 49.8244 215.368 49.9265C215.446 50.0196 215.521 50.1092 215.601 50.1956C215.692 50.2948 215.778 50.3988 215.864 50.5026C215.917 50.5901 215.928 50.6117 215.939 50.6341C215.955 50.6677 215.973 50.7054 215.995 50.7459C216.024 50.8013 216.059 50.8619 216.095 50.9168C216.154 51.0173 216.186 51.045 216.214 51.0573C216.26 51.0778 216.304 51.0879 216.346 51.0825C216.386 51.0773 216.423 51.0583 216.46 51.0271C216.645 50.8713 216.699 50.6157 216.694 50.3443C216.685 49.9325 216.533 49.4766 216.393 49.1963C216.067 48.5451 215.616 47.8682 215.072 47.3821C214.452 46.8273 213.774 46.4073 212.995 46.1179C212.511 45.938 211.951 45.7729 211.423 45.7937C211.043 45.8087 210.681 45.9215 210.382 46.2031C210.198 46.376 210.11 46.6219 210.11 46.8676C210.11 47.1182 210.201 47.3703 210.383 47.5473ZM197.651 50.7511C197.674 50.7885 197.705 50.8143 197.741 50.8298C197.777 50.846 197.819 50.8507 197.858 50.844C197.898 50.8374 197.935 50.8196 197.965 50.7923C197.993 50.7662 198.015 50.7316 198.024 50.6892C198.263 49.6421 198.726 48.863 199.715 48.3606C200.201 48.1135 200.761 47.9564 201.29 47.8312C201.444 47.7949 201.607 47.7713 201.77 47.7474C202.283 47.6725 202.8 47.5868 203.135 47.1723C203.336 46.9226 203.421 46.6033 203.373 46.3113C203.328 46.0364 203.167 45.7843 202.875 45.6332C202.147 45.2573 201.243 45.6261 200.508 45.9404C200.454 45.9637 200.4 45.9866 200.348 46.0087C199.63 46.3118 198.974 46.7118 198.435 47.284C198.008 47.7379 197.612 48.4089 197.452 49.0992C197.32 49.6735 197.351 50.2598 197.651 50.7511Z" fill="black"/>
<path fill-rule="evenodd" clip-rule="evenodd" d="M167.869 246.94C164.57 242.274 157.616 241.502 153.148 238.233C150.794 236.44 148.304 235.253 146.475 232.838C149.387 229.438 145.785 221.468 145.044 216.865C142.107 204.815 139.391 192.572 135.898 180.535C141.951 182.408 140.374 171.196 139.51 168.603C139.45 168.246 139.006 168.175 138.734 168.063C138.81 167.554 139.02 167.442 138.384 167.302C138.171 164.251 139.039 160.835 137.47 158.14C135.7 155.199 131.471 152.738 127.977 152.697C125.522 143.01 125.072 138.441 113.443 142.547C113.7 141.604 113.78 140.738 113.332 139.785C111.583 134.534 109.386 128.789 107.475 123.468C105.272 117.344 102.994 111.011 100.049 105.127C97.9969 101.39 91.5783 100.391 87.2277 101.01C86.1898 99.1905 83.5737 94.1575 80.2645 95.3212C80.2396 93.8032 80.2159 92.2853 80.1961 90.7672C80.179 89.4477 80.3187 88.0946 79.8081 86.8417C79.2672 85.5145 78.1659 84.8141 76.8724 84.3061C72.9573 83.0209 68.4594 80.9563 64.3279 82.2338C60.7182 83.8709 61.1387 90.0268 59.3919 93.3732C56.9438 89.7662 52.7692 92.1847 51.886 96.0531C41.8297 100.036 33.186 95.5113 32.5425 111.148C33.097 113.998 33.5684 116.672 33.3057 119.551L33.0014 119.581C30.4276 133.437 29.4378 148.289 30.0599 163.729C29.9353 169.808 27.706 175.482 25.5501 180.968C23.9644 185.002 22.3269 189.173 21.5507 193.452C20.69 197.017 17.526 214.157 24.5615 208.467C24.8311 227.967 42.3176 230.463 58.0643 226.156C74.7809 222.703 93.5996 223.696 104.033 206.989C107.572 213.007 108.793 216.723 109.681 223.017C110.656 227.628 112.072 232.864 114.675 235.914C112.434 239.922 111.336 244.805 111.444 247.987C111.487 249.237 110.912 249.816 111.738 250.593C115.705 254.321 124.555 254.363 131.284 256.022C135.898 256.606 152.583 258.838 155.133 257.383C156.911 257.877 154.843 253.278 156.621 253.18C157.229 253.185 157.311 252.415 157.935 252.443C161.924 252.624 170.522 253.789 168.443 250.593L167.869 246.94Z" fill="white"/>
<path fill-rule="evenodd" clip-rule="evenodd" d="M166.879 251.455C163.939 252.087 160.915 251.91 157.936 252.157C158.032 251.909 158.112 251.656 158.176 251.398C161.254 251.027 164.482 250.851 167.417 249.84C167.487 250.169 167.539 250.502 167.559 250.837C167.562 250.882 167.556 251.385 167.628 251.292C167.539 251.407 167.013 251.43 166.879 251.455M152.024 243.871C146.673 242.121 140.997 240.619 136.872 236.56C136.881 236.537 136.889 236.515 136.896 236.492C137.745 236.253 138.679 235.743 139.496 236.298C142.113 236.208 144.846 235.296 146.678 233.37C146.803 233.396 146.924 233.434 147.042 233.48C150.568 239.442 158.08 240.578 163.582 244.033C165.812 245.323 169.966 248.798 164.652 248.876C162.554 249.192 160.444 249.426 158.329 249.587C158.165 246.23 154.82 244.759 152.024 243.871M155.765 252.47C154.7 253.913 152.779 254.483 151.041 254.342C149.763 254.169 148.635 253.722 147.305 253.818C137.226 253.438 127.314 251.362 117.485 249.243C108.682 247.601 115.408 241.141 114.675 235.914C115.917 236.667 117.326 237.217 118.776 237.62C120.644 242.79 125.751 241.439 129.367 238.963C130.762 238.918 132.46 239.131 133.601 238.21C133.668 238.264 133.738 238.31 133.811 238.349C134.716 237.819 135.545 237.264 136.494 236.855C139.703 242.249 146.52 243.48 151.989 245.562C155.336 246.458 158.076 249.029 155.765 252.47M155.582 257.091C152.753 257.931 149.76 257.786 146.841 257.549C137.253 256.723 127.729 255.098 118.427 252.64C116.221 252.057 111.942 251.38 111.739 248.628C113.702 251.188 117.208 251.49 120.153 252.15C129.82 254.034 139.722 256.466 149.608 255.997C151.696 256.588 153.972 256.122 155.738 254.972C155.682 255.678 155.631 256.384 155.582 257.091M103.308 167.179C104.739 163.403 106.292 159.677 107.794 155.924C110.581 157.477 113.727 158.045 116.939 158.407C117.015 158.445 117.095 158.478 117.182 158.504C117.334 158.535 117.462 158.521 117.564 158.475C121.848 158.925 126.218 159.102 129.986 160.844C131.445 161.517 132.813 162.425 134.052 163.675C135.407 164.965 136.498 166.523 137.231 168.241C137.46 168.771 137.581 169.322 137.942 169.759C138.051 170.345 138.175 170.927 138.258 171.519C138.469 173.833 138.757 176.27 137.859 178.49C137.302 179.85 136.16 178.757 135.403 178.224C134.172 177.369 133.038 176.389 131.907 175.408C128.435 172.162 124.376 169.402 119.505 168.946C114.246 168.219 108.548 167.311 103.308 167.179M101.2 167.186C100.911 167.92 100.627 168.655 100.348 169.392C98.9666 169.157 96.0253 168.602 94.8213 167.971C95.2504 167.985 95.6752 167.763 95.7841 167.254C95.8319 167.028 95.9074 166.818 95.9664 166.598C96.6923 164.246 97.3114 161.848 98.3364 159.593C99.3391 157.213 100.532 154.901 101.443 152.485C102.989 152.388 105.43 154.294 106.533 155.072C104.565 159.018 102.816 163.066 101.206 167.169C101.176 167.169 101.145 167.169 101.115 167.17C101.143 167.175 101.172 167.181 101.2 167.186M92.0968 166.908C84.1709 166.415 76.1384 166.935 68.3037 165.537C66.8186 165.287 65.4346 164.834 64.1494 164.217C60.4099 162.421 57.5043 159.232 55.3644 155.582C47.6342 144.013 39.1281 132.521 35.323 118.967C33.0685 112.406 32.6295 102.6 40.5097 99.777C44.0046 98.4804 48.2255 98.5599 51.2336 96.2075C50.8934 97.4511 50.7022 98.7521 50.5266 99.904C50.2309 101.783 49.9396 103.726 50.1798 105.626C50.182 105.643 50.1842 105.659 50.1875 105.675C49.793 106.744 51.0345 107.753 52.2529 107.648C54.823 107.59 56.0835 104.519 58.6591 104.426C59.5996 104.391 60.1611 104.949 60.7369 105.613C62.1307 107.222 63.4959 108.862 65.1799 110.181C65.3001 110.275 65.4601 110.161 65.3923 110.017C64.5418 108.212 63.3492 106.612 62.1664 105.008C59.7142 101.114 56.4138 102.906 53.6236 105.273C53.0799 105.665 52.5275 105.983 51.9683 105.844C52.005 105.71 52.015 105.555 51.9916 105.383C51.7839 103.859 51.9872 102.252 52.1984 100.74C52.681 97.9182 52.5376 94.2383 55.2754 92.5297C56.4704 91.8582 57.9155 91.7731 59.0782 92.5352C58.8648 93.0554 58.6102 93.6408 58.5735 94.1908C58.3401 94.0273 58.1823 94.0781 58.14 94.4326C59.046 97.0877 60.529 99.5274 61.7872 102.031C62.7699 103.91 63.7581 105.786 64.7665 107.652C65.0643 108.229 65.3155 108.841 65.8958 109.161C65.897 109.167 65.898 109.172 65.8991 109.178C66.2915 110.465 66.2915 111.847 66.5939 113.156C66.7796 113.956 66.9931 114.76 67.2208 115.559C67.4365 116.309 67.6645 117.056 67.8957 117.79C70.648 127.268 73.2548 136.789 75.9383 146.287C72.7613 144.655 71.1504 141.603 69.6964 138.484C65.8613 130.447 61.844 121.675 57.552 114.26C61.5439 122.69 67.0196 142.438 73.8384 147.347C74.8788 148.032 76.0128 148.548 77.1966 148.957C77.6912 149.402 78.2093 149.498 78.5572 149.38C80.7005 149.977 82.9448 150.321 85.0513 150.759C88.7042 151.521 92.3581 152.278 96.0131 153.031C97.2492 153.285 98.4909 153.625 99.7537 153.685C99.8169 153.688 99.8782 153.686 99.9348 153.678C97.1525 156.857 95.2794 161.196 94.2089 165.264C93.3373 165.014 92.3492 165.938 92.0968 166.908M60.7257 167.258C54.5439 176.477 44.8561 182.196 36.878 189.637C32.0981 194.642 28.2863 200.452 23.9267 205.806C23.7922 205.972 23.6564 206.138 23.5209 206.302C23.1851 206.713 22.7183 207.165 22.4481 207.564C22.4404 207.576 22.4326 207.587 22.426 207.596C21.7945 206.285 22.1402 204.608 22.1168 203.114C22.2135 200.554 22.5504 198.016 23.0563 195.506C24.708 185.432 30.3952 176.465 31.6323 166.333C31.5912 155.557 31.0521 144.75 31.9658 133.977C32.2993 129.06 32.6494 124.141 33.1452 119.236C36.5691 131.876 46.567 145.512 52.243 154.241C54.5328 157.578 56.5827 161.218 59.8074 163.77C60.5868 164.382 61.4094 164.908 62.2653 165.361C61.6861 165.932 61.1903 166.582 60.7257 167.258M80.974 117.962C81.8255 117.74 83.7051 117.518 84.6823 116.879C85.1878 118.602 85.7346 120.311 86.3116 122.01C84.9114 121.599 83.3959 121.791 81.9536 121.948C80.0742 122.152 78.1975 122.374 76.3215 122.606C74.6032 122.818 72.8858 123.039 71.1693 123.266C70.557 121.084 69.9404 118.904 69.3141 116.726C72.8946 118.375 77.1411 118.604 80.974 117.962M82.9225 101.547C82.9193 101.403 82.8849 101.251 82.8092 101.096C82.7982 101.074 82.788 101.052 82.7769 101.029C82.4846 99.9924 82.1879 98.9564 81.8855 97.9216C81.8399 97.7471 81.562 97.7813 81.5675 97.9646C81.5653 98.0927 81.5643 98.2198 81.563 98.3479C81.5431 98.2949 81.5242 98.2418 81.5052 98.1877C81.1307 97.1087 80.8562 95.9976 80.675 94.8689C83.8831 95.526 86.5254 102.484 88.0183 107.458C86.7911 107.078 85.1815 106.992 84.7046 108.003C84.1131 105.85 83.5263 103.697 82.9225 101.547M77.9452 142.749C78.7447 142.697 79.5446 142.647 80.3439 142.592C81.9797 142.479 83.615 142.362 85.2505 142.247C85.6428 142.219 86.0351 142.191 86.4274 142.162C87.5381 142.101 88.6489 142.04 89.7598 141.981C90.9879 141.916 92.2304 141.805 93.4677 141.76C93.7006 141.755 93.9336 141.751 94.1665 141.749C94.2124 141.842 94.2599 141.933 94.3112 142.02C92.6805 142.468 91.1909 142.987 89.997 143.511C87.2847 144.691 84.6768 146.245 82.4491 148.199C82.0367 148.114 81.6243 148.028 81.2118 147.94C80.0802 147.697 78.9342 147.438 77.8302 147.068C77.5479 146.38 77.4557 145.571 77.2156 144.893C77.0252 144.214 76.8348 143.534 76.6443 142.854C77.0793 142.847 77.5242 142.776 77.9452 142.749M75.2461 137.191C75.2608 137.189 75.2754 137.187 75.2899 137.186C75.2917 137.186 75.2936 137.186 75.2954 137.186C75.4739 137.18 75.6523 137.173 75.8307 137.165C76.1874 137.148 76.5441 137.127 76.9003 137.102C77.6138 137.052 78.3258 136.984 79.0368 136.907C80.4611 136.753 81.8808 136.559 83.302 136.379C84.1394 136.273 84.9739 136.182 85.8078 136.105C87.7573 135.976 89.7128 135.877 91.6602 135.85C92.2835 137.325 92.9161 138.795 93.5542 140.261C93.6143 140.398 93.6728 140.547 93.7322 140.702C90.8693 140.647 87.9942 140.917 85.1414 141.087C83.5423 141.182 81.9429 141.274 80.3439 141.372C79.5441 141.421 78.7446 141.475 77.9451 141.527C77.4113 141.561 76.8376 141.539 76.3038 141.639C76.1909 141.236 76.078 140.832 75.965 140.429C75.6691 139.384 75.3765 138.339 75.0833 137.293C75.1405 137.266 75.1954 137.232 75.2461 137.191M72.8099 129.145C72.351 127.496 71.8918 125.847 71.4301 124.198C71.5168 124.186 71.6035 124.174 71.6901 124.162C72.0143 124.118 72.3385 124.074 72.6628 124.03C73.3771 123.933 74.0916 123.838 74.8062 123.743C75.3601 123.671 75.9142 123.599 76.4683 123.527C77.0802 123.476 77.6922 123.427 78.3045 123.382C81.0732 123.179 83.8637 122.991 86.6416 122.976C87.2249 124.655 87.8391 126.324 88.4757 127.984C86.1132 128.127 83.7531 128.317 81.3938 128.505C80.0366 128.613 78.6798 128.726 77.3234 128.842C76.6634 128.899 76.0037 128.956 75.3439 129.015C74.9774 129.047 74.6109 129.08 74.2444 129.113C74.0328 129.132 73.7564 129.204 73.5183 129.205C73.4874 129.181 73.4552 129.158 73.4209 129.134C73.2473 129.015 72.9914 129.036 72.8099 129.145M73.3623 130.538C74.9205 130.349 76.4752 130.146 78.0323 129.957C78.8959 129.874 79.7596 129.792 80.6236 129.712C83.3688 129.457 86.1172 129.237 88.8626 128.985C89.6075 130.898 90.3812 132.799 91.1731 134.692C87.8112 134.472 84.3879 135.033 81.0637 135.421C79.2892 135.629 77.5099 135.816 75.7237 135.882C75.4409 135.892 75.0456 135.878 74.7064 135.952C74.2449 134.302 73.7851 132.651 73.3259 131C73.3327 130.847 73.3447 130.693 73.3623 130.538M100.963 152.598C100.845 152.709 100.73 152.824 100.615 152.942C100.617 152.905 100.618 152.868 100.617 152.831C100.62 152.83 100.622 152.829 100.623 152.828C100.725 152.728 100.839 152.652 100.963 152.598M98.8832 105.351C102.339 113.681 105.324 122.246 108.561 130.677C109.599 133.54 110.622 136.408 111.589 139.296C111.956 140.25 112.091 141.322 112.844 142.072C112.875 142.102 112.91 142.131 112.946 142.155C111.934 142.578 111.019 143.047 110.282 143.522C110.621 144.664 111.03 145.784 111.519 146.865C111.694 147.252 111.119 147.588 110.943 147.2C110.322 145.826 109.821 144.396 109.428 142.938C108.939 142.283 108.373 141.695 107.64 141.328C106.224 140.817 104.44 140.64 102.517 140.698C102.486 140.642 102.445 140.589 102.395 140.54C101.758 139.93 101.506 138.96 101.189 138.153C100.267 135.797 99.4835 133.386 98.8399 130.94C98.2064 128.518 97.8138 126.038 97.1558 123.622C97.0225 123.199 96.6077 121.156 96.221 121.268C96.2288 121.315 96.2355 121.36 96.2421 121.406C96.2221 121.393 96.1998 121.388 96.1776 121.389C96.022 126.387 97.3371 131.423 98.8433 136.173C99.2602 137.755 100.207 139.236 100.511 140.833C99.1913 140.969 97.8461 141.192 96.5421 141.474C96.5234 141.369 96.4966 141.265 96.4654 141.16C96.4478 141.015 96.4032 140.9 96.3387 140.812C96.1742 140.413 95.9563 140.023 95.7952 139.663C95.464 138.918 95.1348 138.174 94.8092 137.426C93.0361 133.338 91.3576 129.205 89.8769 125.001C88.0506 119.904 86.5577 114.709 85.117 109.499C86.0819 110.013 87.9371 108.987 89.0744 111.332C89.32 111.923 89.8657 112.344 90.5428 112.16C91.1364 111.998 91.5855 111.31 91.3765 110.701C91.3465 110.602 91.3143 110.503 91.2776 110.407C90.1692 107.141 89.2722 103.789 87.6737 100.716C91.7766 101.128 96.63 101.42 98.8832 105.351M137.101 159.942C137.455 161.609 137.228 163.362 137.132 165.058C135.51 162.917 133.455 161.089 131.05 159.872C130.89 158.8 130.211 157.867 129.897 156.827C129.318 155.359 128.849 153.859 128.427 152.345C132.348 153.157 136.164 155.986 137.101 159.942M122.886 172.709C124.217 179.846 126.331 186.804 127.88 193.893C127.971 194.309 127.328 194.486 127.237 194.069C125.688 186.98 123.574 180.022 122.243 172.885C122.165 172.467 122.808 172.29 122.886 172.709M122.203 238.327C123.265 238.475 124.325 238.604 125.394 238.717C123.266 239.601 121.282 239.385 119.551 237.822C120.437 238.036 121.33 238.2 122.203 238.327M169.084 248.844C169.024 248.561 168.866 248.377 168.668 248.278C168.698 242.338 156.132 240.407 152.324 236.625C150.582 235.401 149.315 233.38 147.291 232.622C148.436 230.862 148.129 228.597 147.875 226.62C147.319 223.011 145.923 218.979 145.558 216.748C142.803 205.283 140.132 193.79 137.015 182.416C136.952 182.198 136.834 181.767 136.686 181.291C137.022 181.372 137.343 181.398 137.644 181.36C142.016 180.397 141.035 171.61 140.008 168.426C139.898 168.05 139.641 167.813 139.34 167.701C139.378 167.507 139.343 167.3 139.204 167.102C139.13 166.996 139.015 166.92 138.89 166.882C138.758 163.86 139.517 160.612 137.917 157.851C136.118 154.831 131.827 152.333 128.375 152.157C127.88 150.377 127.446 148.579 126.968 146.795C126.444 144.928 125.697 142.921 124.126 141.668C122.094 139.873 117.756 140.42 114.158 141.689C114.355 140.754 113.907 139.908 113.632 139.031C112.737 136.407 111.816 133.792 110.875 131.184C107.499 122.393 104.727 113.28 100.504 104.851C98.7554 101.994 95.3928 100.706 92.1646 100.441C90.6505 100.289 89.0399 100.231 87.5114 100.409C87.4625 100.316 87.4125 100.224 87.3613 100.133C86.1085 97.9757 83.5661 93.9599 80.6405 94.6491C80.3313 92.5982 80.3269 90.4964 80.5814 88.4444C80.5993 88.2986 80.3591 88.2356 80.2991 88.3682C78.3604 92.6887 78.7207 98.0055 81.0861 102.096C81.2595 102.38 81.4953 102.527 81.7397 102.569C82.1166 106.864 83.0582 111.103 84.2199 115.263C84.0454 115.27 83.8775 115.307 83.7373 115.368C80.0313 116.717 75.956 116.937 72.0988 116.149C71.0126 115.922 69.961 115.616 68.9038 115.304C68.7039 114.615 68.5037 113.928 68.3025 113.24C67.7978 111.067 67.6689 108.978 66.3884 107.228C66.3127 107.098 66.235 106.97 66.1604 106.842C65.1321 104.989 64.0872 103.146 63.0346 101.307C62.7788 101.005 61.0693 97.6576 59.7385 95.6332C59.9053 95.6287 60.0777 95.5868 60.2454 95.5028C61.1836 95.0379 61.1736 93.6894 61.3448 92.7848C61.8695 89.974 62.4766 87.1588 62.6433 84.2994C62.6521 84.1536 62.4277 84.0918 62.362 84.2243C61.0826 86.7446 60.1955 89.4417 59.2484 92.0979C59.2294 92.1509 59.2095 92.205 59.1884 92.2602C58.3102 91.1602 56.7684 90.8984 55.4254 91.1944C53.1812 91.7765 52.0494 93.5888 51.3969 95.6497C44.944 98.7101 37.2649 95.5846 33.3486 103.681C31.5846 107.912 31.618 112.71 32.7606 117.703C29.7848 132.839 28.8532 148.324 29.4725 163.725C29.2523 174.143 22.8205 183.182 20.9774 193.321C20.0581 197.317 19.4812 201.413 19.5524 205.518C19.4112 207.687 20.3739 210.89 23.1706 210.046C23.4897 209.933 23.7788 209.758 24.0455 209.547C25.2138 227.112 38.8379 230.509 54.5407 227.484C55.1764 227.495 55.8012 227.35 56.4694 227.163C56.794 227.067 57.1162 226.966 57.4386 226.86C57.681 226.803 57.9244 226.744 58.1678 226.684C58.3482 226.647 58.5291 226.612 58.7098 226.577C63.187 223.636 67.8375 220.957 72.2609 217.932C72.5728 217.719 72.9547 218.215 72.665 218.453C69.7101 220.881 66.8176 223.415 63.7429 225.697C72.5027 224.314 81.4166 224.549 89.5957 220.964C95.335 218.469 100.736 213.469 103.989 208.075C104.038 208.161 104.086 208.247 104.135 208.333C103.977 207.886 103.819 207.44 103.663 206.993C100.89 199.06 98.3812 191.033 95.3503 183.191C95.196 182.792 95.8411 182.621 95.9934 183.015C96.8431 185.213 97.6532 187.427 98.4381 189.65C101.247 197.603 103.758 205.66 106.75 213.55C106.768 213.595 106.773 213.637 106.772 213.676C107.397 215.208 107.908 216.767 108.262 218.366C108.629 220.039 109.166 223.612 109.697 226.62C110.163 229.1 110.501 231.976 112.235 233.88C112.233 233.884 112.231 233.888 112.229 233.892H112.229C112.168 234.01 112.109 234.128 112.052 234.245C112.175 234.366 112.331 234.446 112.475 234.537C112.498 234.432 112.519 234.329 112.544 234.223C112.966 234.667 113.434 235.067 113.936 235.427C113.369 239.592 109.147 243.627 111.333 247.987C110.291 250.371 112.849 252.31 114.954 252.802C118.181 253.827 121.512 254.598 124.817 255.33C131.36 256.542 151.839 261.022 156.741 257.535C156.671 256.79 157.592 254.372 156.505 254.336C156.987 253.863 157.386 253.31 157.689 252.71C160.689 253.681 164.024 253.333 167.078 252.975C169.549 253.028 169.458 250.637 169.084 248.844" fill="black"/>
<path fill-rule="evenodd" clip-rule="evenodd" d="M72.801 46.5681C78.972 46.5681 86.9378 50.4148 87.617 54.3545C88.4175 58.9975 92.704 76.8129 91.7361 82.526C90.7681 88.2391 85.5521 92.3518 77.2054 92.3518C68.8588 92.3518 62.6289 87.8287 61.1985 86.2756C59.7681 84.7225 57.1172 79.1777 57.1172 79.1777C57.1172 79.1777 52.6482 78.5871 52.627 74.9671C52.6058 71.3471 55.5326 70.03 55.5326 70.03C55.5326 70.03 54.489 55.7438 57.1172 52.0244C59.7453 48.305 66.6299 46.5681 72.801 46.5681Z" fill="white"/>
<path fill-rule="evenodd" clip-rule="evenodd" d="M87.2395 53.7188C87.235 53.6358 87.3567 53.6261 87.3796 53.6995C88.7109 58.0703 89.5316 61.4765 90.3955 65.9575L90.6506 67.2757C91.3324 70.7914 92.0213 74.3123 92.6029 77.8451L92.6371 78.056C92.9285 79.8847 93.0964 81.7312 92.7312 83.5637C92.3899 85.2766 91.4574 86.8469 90.2467 88.0975C87.9068 90.5147 84.6549 92.0244 81.3836 92.6994C79.7295 93.0407 78.0232 93.1724 76.3375 93.0536C75.4973 92.9952 74.6584 92.8775 73.8356 92.7037L73.7448 92.6844C72.9155 92.5065 72.1795 92.2943 71.7391 91.5188C71.6283 91.3235 71.6729 90.9887 71.9054 90.8882C72.3445 90.7002 72.6673 90.6215 73.1465 90.6755C73.604 90.7272 74.0508 90.8645 74.503 90.9498C75.367 91.1129 76.2451 91.1948 77.1244 91.2144C78.8513 91.2522 80.5827 91.0373 82.2335 90.5254C85.0701 89.6452 87.9524 87.9614 89.6098 85.4429C91.5595 82.4801 90.7832 78.8844 90.2665 75.6124L90.2509 75.5133C89.7279 72.169 89.2108 68.8246 88.7088 65.4781L88.4946 64.0437C87.9318 60.254 87.4003 57.5486 87.2395 53.7188ZM58.4397 44.4428C59.8554 43.5156 61.6146 43.2877 63.2775 43.3005L63.4857 43.3031C65.615 43.3353 76.3329 43.5888 79.9213 43.6668L80.775 43.6847C81.9049 43.7058 84.1837 43.728 85.3578 43.7493L85.4255 43.7505C86.0015 43.7613 86.5776 43.7657 87.1536 43.784L87.238 43.787C87.6695 43.8054 88.0285 43.8695 88.3665 44.1717C88.5383 44.3249 88.6054 44.5585 88.5896 44.7811L88.5871 44.81L89.4424 44.8845C90.0232 44.9356 90.3303 45.4532 90.0996 45.977L90.088 46.0023C89.6783 46.8707 89.3653 49.3979 89.1457 50.3321C89.0305 50.8235 88.938 51.3224 88.8837 51.8246C88.8403 52.22 88.836 52.6163 88.6143 52.964C88.1414 53.706 86.8112 53.6995 86.7873 52.6487C86.7862 52.6152 86.7873 52.5828 86.7906 52.5515C83.4432 52.4057 78.8731 52.4197 75.53 52.6184C72.4075 52.8042 69.2992 53.2254 66.2398 53.8701C65.4649 54.0332 64.6922 54.2114 63.9249 54.4047C63.2956 54.5624 62.5229 54.6564 61.9599 54.9944C61.3295 55.3746 61.3415 56.0561 61.41 56.7051C61.4834 57.3931 61.606 57.0386 61.7797 57.6656L61.7903 57.7052C61.9697 58.3856 62.1914 59.0585 62.4848 59.6978C62.6522 60.0629 62.9218 60.4139 62.8196 60.834C62.762 61.0705 62.5738 61.3232 62.4011 61.4885C61.6142 62.2391 60.284 61.7606 59.7493 62.7888C59.1897 63.8639 59.1758 65.3203 59.1283 66.5099L59.1255 66.5796C59.0908 67.3993 59.1005 68.2212 59.1548 69.0387C59.2037 69.7838 59.4036 70.5216 59.1472 71.2376C58.9601 71.7582 58.3495 71.8068 58.0299 71.3834C57.9933 71.3348 57.9596 71.285 57.9281 71.2349L57.8973 71.1847L57.8953 71.1858C57.9256 71.2333 57.9539 71.282 57.981 71.3316C58.0104 71.3867 57.9376 71.4471 57.893 71.3996C57.1409 70.5864 56.0421 70.7484 55.1911 71.3175C54.3293 71.8964 53.9891 72.9959 53.9446 73.982C53.8946 75.0758 53.9924 76.358 54.451 77.3688C54.6445 77.7965 54.9204 78.1896 55.3781 78.3527C55.5858 78.4261 55.7835 78.4164 55.9997 78.4337C56.2246 78.4508 56.4953 78.5633 56.7137 78.5481C56.9976 78.5281 57.2524 78.8501 57.1718 79.1199L57.1659 79.1378C57.1617 79.1508 57.1572 79.1637 57.153 79.1756C57.1637 79.1853 57.1746 79.1972 57.1822 79.2145C58.0082 80.8917 59.1407 82.3843 60.3927 83.7688C61.0199 84.4611 61.7154 85.0972 62.4424 85.6858C62.8011 85.9764 63.1793 86.267 63.5782 86.5012C63.7108 86.5778 63.8324 86.6298 63.9815 86.672C64.0509 86.6913 64.1303 86.701 64.1977 86.7237L64.2676 86.7475C64.2724 86.7491 64.277 86.7505 64.2813 86.7518C64.4813 86.7745 64.6498 86.9062 64.7161 87.1125C64.8889 87.6504 64.5748 88.1256 64.0379 88.2735C63.4562 88.4352 62.908 88.1514 62.447 87.8255L62.4164 87.8037C61.4763 87.131 60.6101 86.376 59.8601 85.4947C58.3766 83.7548 57.4473 81.7406 57.0171 79.5126C56.9105 79.7405 56.767 79.9392 56.5182 80.0774C56.1313 80.2934 55.6693 80.2934 55.2455 80.221C54.3923 80.0774 53.6652 79.5601 53.1794 78.8602C52.675 78.1345 52.4871 77.2532 52.373 76.3946C52.26 75.5348 52.2046 74.672 52.3176 73.8102C52.4796 72.5725 53.0023 71.3489 54.0185 70.6706C53.2577 69.0236 53.124 67.1768 53.1783 65.3732C53.2446 63.1527 53.6305 60.9074 53.9272 58.7075L54.7707 52.4532V52.4532L54.8052 52.201C55.0087 50.7297 55.2565 49.2506 55.8106 47.8643C56.3573 46.4981 57.1876 45.2625 58.4397 44.4428ZM54.8901 74.0305C56.2834 73.3587 57.7887 73.9776 58.5386 75.2811C59.1906 76.4145 57.252 77.1636 56.9285 75.9953L56.9192 75.9593C56.7062 75.0748 55.8388 74.3102 54.9336 74.1914C54.8586 74.1807 54.8031 74.0727 54.8901 74.0305Z" fill="black"/>
<path fill-rule="evenodd" clip-rule="evenodd" d="M79.7073 84.548C78.9768 84.2518 78.3249 83.7578 77.8483 83.1267C77.6826 82.9073 77.6396 82.6756 77.6744 82.4637C77.7135 82.2255 77.8553 82.0095 78.0488 81.8647C78.2428 81.7194 78.4856 81.6477 78.7203 81.6842C78.9242 81.716 79.1272 81.8269 79.2878 82.057L79.3214 82.103C79.6047 82.484 79.9739 82.7965 80.3946 82.9979C80.8001 83.1921 81.2536 83.2827 81.7229 83.23C82.6167 83.1297 83.2327 82.6494 83.8875 81.9971C83.9687 81.9147 84.0499 81.8298 84.1315 81.7435C84.183 81.6653 84.2546 81.615 84.334 81.5886C84.4221 81.5593 84.5219 81.561 84.6132 81.5926C84.7013 81.6232 84.7801 81.6811 84.8329 81.7582C84.8831 81.8314 84.9116 81.9219 84.9023 82.026C84.8424 82.7019 84.4868 83.3052 83.9816 83.7789C83.4205 84.3051 82.6768 84.669 81.9766 84.7967C81.2052 84.9373 80.4191 84.8366 79.7073 84.548V84.548ZM82.3405 74.1196C83.1612 74.6153 84.4117 75.7713 83.5288 77.0002C82.4895 78.0838 80.9933 76.8414 80.2559 76.2795C79.5722 75.844 78.8041 76.964 79.4384 77.4725C84.7664 81.3924 86.9287 74.2492 82.7556 73.5368C82.2961 73.4582 82.1255 73.9662 82.3405 74.1196ZM72.7926 69.5598C72.8833 68.4413 74.5975 68.1873 74.768 69.2941C74.9207 70.2855 74.741 71.1963 74.2916 72.0889C73.8622 72.9417 72.7829 72.5438 72.7013 71.7673C72.5918 70.7264 72.7362 70.2555 72.7926 69.5598ZM85.8414 69.0646C86.0804 68.7536 86.4255 68.5412 86.8389 68.6612C88.1306 69.0363 87.7499 70.8586 87.2963 71.7456C87.0498 72.2273 86.253 72.3494 85.8929 71.9253C85.3061 71.2337 85.025 69.8525 85.7711 69.1712C85.7913 69.136 85.8138 69.1005 85.8414 69.0646ZM74.2734 64.6656L74.4774 64.6302C75.1086 64.5217 75.8934 64.4174 76.34 64.9217C76.5768 65.1891 76.6583 65.6861 76.34 65.9421C75.78 66.3925 75.161 66.2179 74.49 66.2561C73.937 66.2876 73.4055 66.3785 72.8729 66.5298C71.7043 66.8617 70.7522 67.4676 69.7541 68.1329C69.6232 68.2201 69.4895 68.0537 69.552 67.932C70.1281 66.8106 71.2446 65.8895 72.3629 65.328C72.9598 65.0283 73.613 64.7797 74.2734 64.6656ZM84.664 64.1633L84.8201 64.1951C86.5196 64.5481 88.7277 65.2533 89.5324 66.9121C89.5631 67.1466 89.5307 67.1969 89.5044 67.2298L89.4956 67.2407C89.4739 67.2687 89.4566 67.3074 89.3542 67.3393C89.3258 67.3326 89.2972 67.3255 89.2682 67.3179C88.8993 67.2219 88.6074 67.0895 88.3249 66.9522L88.0185 66.8022C87.663 66.629 87.3044 66.4621 86.9244 66.3389C86.1134 66.0761 85.2792 65.8909 84.4321 65.792C84.2485 65.7706 84.0717 65.709 83.9322 65.6035C83.7998 65.5033 83.6987 65.3646 83.6526 65.1803C83.5928 64.9417 83.61 64.7611 83.7388 64.5458C83.8357 64.3842 83.9743 64.2722 84.1334 64.2078C84.2956 64.1422 84.4804 64.1268 84.664 64.1633Z" fill="black"/>
</svg>
