<svg width="332" height="473" viewBox="0 0 332 473" fill="none" xmlns="http://www.w3.org/2000/svg">
<path fill-rule="evenodd" clip-rule="evenodd" d="M282.562 144.972C285.97 148.949 285.669 150.055 283.853 154.07C279.842 163.387 274.09 172.857 267.56 181.497C267.991 162.114 268.362 142.627 268.999 123.068C272.882 130.625 277.017 137.452 282.562 144.972M283.205 384.521C285.351 384.314 300.448 384.871 296.408 380.479C297.655 377.777 294.171 375.498 292.024 373.443C290.015 371.531 288.035 369.406 285.972 366.948C284.051 364.669 281.886 361.975 280.486 358.831C280.176 358.339 279.861 357.994 279.549 357.805L279.369 357.697L279.257 357.519C278.076 355.638 277.1 353.694 276.027 351.777C278.652 350.831 281.038 349.88 284.012 348.566C279.816 323.908 273.526 299.885 269.459 275.154C266.984 253.634 265.655 231.912 259.991 210.717L259.266 210.773L258.862 209.384C259.457 209.369 260.662 209.328 261.259 209.305L261.119 210.016C263.819 209.704 266.466 208.936 269.091 208.285C270.43 208.102 271.773 207.146 271.291 205.553C271.136 203.242 270.657 200.987 270.431 198.676C271.286 198.094 272.167 197.43 273.011 196.749C275.244 197.799 277.942 201.19 280.383 200.328C286.087 192.688 290.874 183.505 295.207 176.168C305.67 159.202 308.992 148.597 298.2 130.906C288.869 116.085 278.805 92.5294 260.1 88.8099C258 88.4188 255.799 88.4023 253.781 87.4477C253.678 86.0788 252.992 85.2925 252.49 85.2813C251.272 85.0144 249.933 84.5848 248.743 84.5739C248.324 84.3991 247.811 84.5427 247.408 84.6217C246.209 82.2194 246.316 79.1525 245.001 76.9005C244.954 75.1943 244.432 73.3091 239.162 72.9661C235.574 72.6673 230.493 72.3794 227.625 73.9435C225.619 75.5554 225.598 79.1663 225.849 81.7107C226.126 83.5793 226.002 85.7524 224.536 87.947C220.356 86.6596 217.441 89.381 214.824 94.4581C203.87 95.9461 201.508 96.7911 197.258 107.617C195.231 112.312 193.121 117.327 191.541 122.467C189.425 128.75 189.239 135.326 187.182 141.654C181.596 155.599 175.914 164.599 174.125 180.833C173.252 188.001 173.754 191.556 174.584 192.633C176.945 191.952 179.991 191.43 182.47 191.14L179.817 193.153C182.065 203.325 175.59 232.332 193.147 230.104C193.303 229.725 193.017 227.643 192.942 226.779C193.422 226.813 194.31 226.844 194.782 226.785C195.619 229.195 196.877 231.361 197.67 233.813C198.063 235.308 198.559 236.811 199.043 238.265C210.101 275.42 212.29 311.19 207.356 348.492L207.579 348.573L207.669 348.733L207.805 348.784C208.153 349.248 208.647 349.267 209.434 349.269C214.271 349.438 218.52 349.656 222.461 349.766C222.043 351.854 222.311 354.052 222.495 356.176C220.201 356.015 218.097 356.944 216.001 358.059C211.995 360.021 208.005 362.082 204.126 364.335C200.276 366.794 194.048 368.896 197.14 373.315L196.246 373.666C196.216 373.677 196.197 373.688 196.185 373.695C196.08 374.07 197.291 375.624 197.649 375.607C206.118 376.001 213.34 374.028 224.172 371.961C226.652 371.064 239.143 369.537 239.195 367.18C239.155 366.446 238.395 366.496 237.864 366.404C239.455 358.386 234.076 357.738 233.306 350.463C234.371 350.665 235.522 350.839 236.613 350.54C237.57 335.014 236.032 319.121 237.733 303.442L239.462 303.252C245.273 320.311 251.299 337.767 255.927 355.487C256.015 355.872 256.447 355.609 256.645 355.468C259.67 355.397 262.696 355.074 265.662 354.566C265.733 356.309 265.808 358.084 265.881 359.826L265.424 360.071C265.13 360.48 265.254 362.397 265.307 363.222C265.361 364.065 265.405 364.675 265.331 365.247C264.377 367.124 267.638 371.191 269.364 373.452C273.122 378.306 276.236 385.494 283.205 384.521" fill="white"/>
<path fill-rule="evenodd" clip-rule="evenodd" d="M245.89 76.9544C244.866 76.2629 246.324 82.2641 246.326 82.8415L246.352 82.9672C246.607 84.1895 247.056 85.6116 248.091 86.3955C247.614 90.2859 247.02 94.1638 246.289 98.0136L245.859 98.0699C239.483 98.9121 233.064 100.07 226.581 99.4667C223.088 99.4942 220.775 97.1122 219.367 94.1578C219.462 93.8093 219.558 93.4622 219.656 93.1138C224.092 90.4064 227.451 84.912 225.452 79.7257C225.367 79.504 225.102 79.4888 224.966 79.6041C224.944 79.6061 224.924 79.6241 224.925 79.6483L224.996 80.7452C225.132 82.9269 225.177 85.182 223.993 87.1445C219.166 86.0476 216.165 90.0582 214.147 93.8538L212.697 94.0675C207.15 94.8887 201.801 95.8607 199.063 101.523L198.687 102.319C194.86 110.456 191.294 118.823 189.207 127.585C188.156 132.247 187.775 137.05 186.234 141.597C183.032 150.039 178.521 157.973 176.076 166.713C174.558 169.866 170.287 193.605 174.5 193.786C176.016 193.333 177.559 192.967 179.119 192.707C178.878 192.89 178.791 193.2 178.836 193.517C179.381 197.322 179.422 201.176 179.419 205.013C179.131 214.306 179.389 234.297 193.432 231.089C194.457 230.713 193.791 229.074 193.832 227.93C193.913 227.934 193.994 227.932 194.075 227.927C194.882 230.095 196.012 232.096 196.72 234.299C197.321 236.193 197.741 238.229 198.578 240.042C207.444 271.465 211.104 304.515 207.638 337.039C207.443 338.987 207.224 340.932 206.98 342.873C207.014 344.116 205.56 349.122 206.863 349.51C206.913 349.608 207.088 349.721 207.192 349.756C207.979 350.602 209.287 350.288 210.326 350.401C213.997 350.563 217.666 350.714 221.339 350.835C221.119 352.388 221.297 353.964 221.427 355.515C218.749 355.537 216.287 357.161 213.919 358.264C210.401 359.994 206.941 361.842 203.546 363.803C200.412 365.988 193.409 368.099 195.819 373.056C194.022 373.783 196.519 376.821 197.883 376.855C206.768 376.811 215.597 374.802 224.279 373.039C229.212 371.74 234.595 371.246 239.159 369.005C240.455 368.421 240.184 366.093 238.759 365.877C239.817 358.116 235.523 358.223 234.313 351.756C235.016 351.871 235.793 351.806 236.498 351.664C238.13 353.169 237.53 341.325 237.752 340.169C237.797 328.025 237.219 315.855 238.517 303.753L240.723 310.226C245.866 325.334 250.932 340.481 254.964 355.926C255.205 356.859 256.187 356.97 256.815 356.564C259.462 356.486 262.1 356.238 264.712 355.817C264.762 357.053 264.815 358.288 264.867 359.524C263.74 360.128 264.503 363.941 264.359 365.231C263.133 368.017 268.098 373.443 269.708 375.73C272.605 379.764 275.483 385.41 281.087 385.598L281.257 385.602C285.44 385.704 289.661 385.46 293.803 384.864L294.307 384.782C295.489 384.585 296.796 384.298 297.476 383.25C298.059 382.353 297.988 381.195 297.28 380.509C298.214 377.131 294.578 375.084 292.547 373.027C288.754 369.379 285.305 365.366 282.323 361.033L282.152 360.628C281.599 359.329 280.939 357.886 279.91 357.263C278.929 355.71 278.09 354.075 277.204 352.47C279.624 351.584 282.007 350.594 284.363 349.553C284.832 349.345 284.981 348.737 284.899 348.285L284.893 348.254C280.293 324.44 274.778 300.797 270.488 276.928C267.749 254.931 266.625 232.654 260.865 211.141C263.66 210.851 266.441 210.051 269.183 209.367C271.382 208.9 272.494 207.787 272.06 205.466C271.911 203.402 271.497 201.372 271.273 199.318C271.858 198.91 272.429 198.48 272.985 198.039C274.016 198.806 275.079 199.528 276.172 200.202C278.789 202.081 280.809 202.373 282.425 199.294C287.107 191.92 291.622 184.439 295.883 176.815C299.836 169.502 304.734 162.204 305.738 153.784C307.195 138.631 289.361 114.382 280.427 102.067C275.5 96.135 269.499 90.0301 261.696 88.3052C259.296 87.9505 256.766 87.9022 254.477 87.0343C254.292 85.9253 253.769 84.9043 252.589 84.6329C251.348 84.3592 250.018 83.9365 248.768 83.9057C248.485 83.8263 248.151 83.7761 247.853 83.831C246.997 81.6157 246.871 79.1197 245.89 76.9544ZM293.693 382.26C293.479 382.366 293.257 382.457 293.031 382.538C292.752 382.576 292.475 382.611 292.198 382.643C292.7 382.53 293.199 382.404 293.693 382.26ZM265.927 360.725C270.025 362.208 271.152 355.245 279.213 358.063C282.363 363.894 286.442 369.191 291.104 373.9C292.761 375.954 297.665 378.286 295.022 381.297L294.617 381.371C290.027 382.204 285.368 382.865 280.691 382.488C277.157 381.516 274.506 378.692 272.364 375.844C270.814 373.105 269.001 370.527 267.151 367.985C266.133 366.722 266.03 365.113 266.035 363.558C266 362.613 265.965 361.669 265.927 360.725ZM219.885 357.306C221.625 356.67 223.41 357.268 224.993 358.049C227.697 359.255 233.553 360.701 236.055 358.777C237.282 360.8 237.693 363.049 237.357 365.383L237.354 365.491C237.328 366.45 237.207 367.227 236.044 367.295L232.783 368.113C221.783 370.866 210.674 373.528 199.352 374.294C196.33 372.413 196.245 369.94 199.457 368.217L200.279 367.715C206.585 363.868 213.039 360.087 219.885 357.306ZM195.953 373.307C195.984 373.359 196.013 373.411 196.044 373.462C195.997 373.484 195.953 373.517 195.913 373.553C195.913 373.468 195.925 373.384 195.953 373.307ZM276.593 352.69C276.551 353.546 276.972 354.511 277.269 355.279C277.443 355.732 277.622 356.38 277.9 356.899C271.008 354.872 268.911 360.812 266.426 359.577L266.35 359.538V359.536C266.858 358.381 266.304 356.754 265.963 355.602C269.583 354.949 273.136 353.934 276.593 352.69ZM222.134 350.862L224.121 350.923C227.212 351.016 230.303 351.098 233.396 351.094C233.072 353.31 233.706 356.966 235.144 358.689C235.147 358.69 235.149 358.69 235.15 358.691C231.079 359.306 227.223 357.446 223.597 355.882C223.444 354.183 222.776 352.45 222.134 350.862ZM235.429 357.614C235.552 357.845 235.677 358.075 235.802 358.306C235.747 358.366 235.686 358.42 235.621 358.467C235.659 358.179 235.556 357.894 235.429 357.614ZM229.706 169.103C227.437 180.539 225.645 192.117 225.023 203.778L225.018 203.893C224.957 205.073 224.781 206.389 225.572 207.374C226.392 208.396 227.671 208.526 228.883 208.712C239.053 210.255 249.365 210.776 259.645 210.466C263.44 229.198 265.761 248.164 267.177 267.212C270.253 294.43 277.234 321.036 282.464 347.889C274.354 351.427 265.943 353.937 257.055 354.286C244.475 307.919 220.922 258.986 219.667 212.603C219.6 212.528 219.438 212.546 219.42 212.659C219.006 215.197 219.182 217.845 219.274 220.403C219.622 228.276 220.5 236.144 221.796 243.913C225.084 263.207 231.158 281.875 237.38 300.393C237.588 301.225 237.273 302.15 237.262 302.999C235.963 317.161 235.83 331.396 235.411 345.602C235.499 347.173 235.004 348.951 235.55 350.426C230.851 349.798 226.128 349.459 221.405 349.066L221.37 349.043C221.174 348.92 220.862 348.789 220.682 349.009C216.692 348.696 212.698 348.41 208.705 348.143C214.367 307.714 210.454 265.571 195.135 227.592C196.105 226.705 195.683 224.73 195.905 223.496C196.11 218.459 196.099 213.307 195.106 208.348L195.358 208.363C198.408 208.537 211.828 209.074 212.196 206.802C212.707 202.954 211.474 199.139 211.222 195.319C210.769 186.687 210.879 178.021 210.938 169.378C213.594 169.732 216.141 169.246 218.766 169.146C222.417 169.114 226.061 169.207 229.706 169.103ZM277.037 352.532C277.106 352.83 277.186 353.127 277.271 353.425C277.153 353.159 277.021 352.904 276.863 352.678L276.815 352.612L277.037 352.532ZM233.61 351.095L233.827 351.097V351.097L233.829 351.222V351.222C233.778 351.307 233.769 351.41 233.833 351.494C233.84 351.877 233.857 352.261 233.886 352.644C233.802 352.128 233.718 351.611 233.61 351.095ZM236.374 350.968L236.363 351.161V351.161C236.084 351.151 235.803 351.162 235.526 351.148C235.38 351.14 235.229 351.115 235.078 351.088C235.514 351.075 235.949 351.04 236.374 350.968ZM186.859 192.162C186.997 192.323 187.147 192.421 187.299 192.47C187.298 196.128 188.039 199.726 190.068 202.893C190.912 204.01 191.389 205.28 191.797 206.605C193.943 212.666 194.341 219.177 193.559 225.524C191.45 222.439 190.612 218.758 190.023 215.128C189.992 214.946 189.689 214.948 189.656 215.128C188.943 219.013 190.168 222.829 191.633 226.42C192.548 227.072 192.33 228.78 192.439 229.785C176.893 232.044 182.3 202.279 180.308 193.113C180.271 192.86 180.056 192.677 179.812 192.599C182.144 192.245 184.507 192.219 186.859 192.162ZM260.068 210.448C260.049 210.545 260.032 210.643 260.02 210.74C259.991 210.645 259.963 210.549 259.936 210.453C259.979 210.451 260.023 210.45 260.068 210.448ZM249.562 84.5481L249.834 84.6192C252.706 85.3581 253.636 85.2566 253.798 88.7156C254.504 93.4097 257.111 97.504 258.283 102.043C258.751 103.646 258.256 106.6 256.034 106.166C255.313 105.946 254.752 106.914 255.297 107.427C256.906 108.945 258.469 110.51 260.04 112.064C253.73 133.301 245.534 153.986 235.55 173.776C235.154 174.561 236.341 175.252 236.734 174.466C246.66 154.613 254.915 133.935 261.322 112.693L261.516 112.049C261.799 111.267 258.181 108.464 257.522 107.55C264.128 104.375 254.905 93.2582 254.654 87.9048C256.545 88.7337 258.689 88.4362 260.686 88.7701C264.518 89.4404 267.882 91.6478 270.871 94.0307C283.015 104.724 290.775 119.528 298.538 133.482C303.825 142.586 306.373 153.716 301.068 163.401C294.912 175.818 287.771 187.786 280.222 199.405C279.393 200.48 278.117 199.244 277.243 198.793C272.222 195.784 267.868 191.69 264.52 186.904C272.638 176.971 279.709 166.115 284.71 154.288L284.779 154.151C285.901 151.902 286.788 149.181 284.916 147.063C278.27 138.573 272.359 129.56 266.796 120.337C266.738 120.245 266.61 120.326 266.652 120.422C267.223 121.712 267.825 122.992 268.452 124.26C267.185 143.013 267.399 162.132 266.851 181.004C265.375 182.954 263.854 184.871 262.298 186.758C257.251 183.29 251.313 181.027 245.215 180.326L244.821 180.287C242.231 180.021 237.953 179.52 237.613 182.874C238.033 186.999 246.583 184.68 249.316 187.019C244.835 188.82 239.701 189.327 235.587 192.042C234.267 192.81 231.681 195.256 234.208 196.192C235.311 196.286 236.449 195.859 237.551 195.765C236.311 196.181 235.171 196.887 234.444 197.994C233.922 198.752 233.54 200.328 234.789 200.652C237.637 200.732 240.474 199.806 243.279 199.346L243.03 199.446C240.985 200.281 237.806 201.781 240.56 203.992C243.318 205.416 246.656 202.994 249.402 202.348C256.8 200.632 262.273 205.336 269.857 200.243C270.072 201.945 270.395 203.635 270.524 205.346L270.541 205.443C270.804 207.005 270.579 207.569 268.89 207.868C266.853 208.481 264.72 208.674 262.603 208.788C252.418 209.325 242.166 208.944 232.05 207.643C230.594 207.253 227.175 207.62 226.567 206.023C227.707 164.91 244.886 126.224 249.616 85.6456C249.694 85.2552 249.699 84.8574 249.562 84.5481ZM220.848 88.0619C221.66 88.0951 222.416 88.2707 223.224 88.3521C222.777 89.3014 220.415 90.6442 220.63 91.1155C220.46 91.2474 220.287 91.3741 220.111 91.4969C220.355 90.6403 220.602 89.785 220.85 88.9283C211.875 110.738 210.642 136.543 209.449 160.336C209.057 172.332 208.843 184.366 209.424 196.355C209.747 199.539 210.602 202.758 210.369 205.974C205.102 206.73 199.759 206.795 194.47 206.235C194.313 205.825 194.137 205.423 193.936 205.027C186.019 195.397 190.218 183.329 194.03 172.897C196.335 172.995 198.654 172.849 200.961 172.877C200.248 175.079 200.064 177.408 199.685 179.684C199.426 181.306 199.097 182.916 198.718 184.513L198.616 184.939C198.473 185.528 198.284 186.164 198.491 186.748C198.695 187.325 199.397 187.558 199.863 187.109C200.703 186.154 200.612 184.731 200.883 183.547L200.933 183.175C201.395 179.775 202.004 176.249 201.159 172.876C201.988 172.698 204.255 173.35 204.374 172.238C204.339 170.402 205.674 166.423 204.188 165.214C203.303 164.541 201.783 164.754 200.746 164.712C199.547 164.664 198.35 164.619 197.153 164.627C206.774 141.429 204.099 134.288 203.122 111.2L203.093 110.496C203.096 110.344 202.85 110.306 202.824 110.459C201.353 119.916 203.313 129.491 202.384 138.977C200.735 157.002 189.287 172.478 187.373 190.416C183.246 189.939 179.07 190.525 175.069 191.558C174.985 190.829 174.92 190.098 174.875 189.367C174.115 175.978 178.824 162.974 184.318 150.965C187.611 144.591 189.646 137.788 190.498 130.674C192.152 121.409 195.863 112.681 199.563 104.075C201.902 97.6391 206.957 96.1216 213.227 95.3743C211.112 98.8713 209.011 102.376 206.913 105.884C206.444 106.944 207.879 107.701 208.505 108.354C200.804 112.545 205.301 125.486 205.142 132.737C205.713 139.4 205.929 146.101 206.937 152.718C207.011 153.176 207.715 153.042 207.722 152.613C207.629 142.698 206.444 132.824 205.924 122.926L205.861 122.204C205.456 117.518 205.059 110.757 210.706 109.471C211.469 109.346 211.527 108.216 210.915 107.877C210.101 107.424 209.387 106.872 208.749 106.214C210.906 102.602 213.06 98.9868 215.195 95.359L215.295 95.1903C216.812 92.6235 218.22 89.6365 220.848 88.0619ZM239.175 182.622C239.798 180.791 245.844 181.984 247.458 182.183C253.41 183.304 259.4 185.932 263.933 189.979C264.213 190.229 264.544 190.225 264.804 190.089C266.835 192.677 269.18 195.023 271.751 197.084C271.28 197.454 270.797 197.812 270.299 198.156C270.061 198.181 269.846 198.304 269.75 198.524C262.675 203.639 257.47 199.649 250.12 200.571C247.376 201.123 244.849 202.864 242.021 202.938C239.946 202.467 241.773 201.601 242.742 201.266C244.937 200.221 247.174 199.268 249.416 198.328L251.21 197.578C252.092 197.209 251.789 195.88 250.804 196.112C249.08 196.517 247.351 196.902 245.621 197.282C242.294 197.959 238.887 198.827 235.524 199.157C236.272 197.084 244.202 194.845 246.508 194.021C247.379 193.611 249.863 193.689 249.579 192.342C249.35 191.089 246.707 192.524 245.826 192.626C242.229 193.537 238.557 194.088 234.892 194.643C238.829 190.702 244.932 190.362 249.96 188.517L250.07 188.492C250.966 188.286 252.224 187.897 251.49 186.872C248.907 183.072 238.742 184.995 239.175 182.622ZM246.614 161.463C244.78 159.962 243.798 163.045 243.914 164.479C243.827 165.669 243.735 166.859 243.657 168.048C243.77 168.979 242.777 172.37 244.106 172.401C249.916 172.106 255.716 172.181 261.527 171.832C261.535 173.001 261.592 174.17 261.532 175.34C261.564 176.804 261.054 178.267 261.352 179.714C261.533 180.38 262.441 180.47 262.795 179.902C263.856 177.41 263.126 174.196 262.374 171.676C265.22 171.151 265.613 168.482 264.863 166.101L264.871 165.972C264.913 165.237 264.909 164.449 264.581 163.855C263.702 162.823 261.879 163.494 260.668 163.416C256.957 163.034 253.178 162.929 249.51 162.249C248.561 162.004 247.593 161.509 246.614 161.463ZM269.682 126.673C272.571 132.175 275.895 137.411 279.434 142.509C280.192 143.597 280.971 144.672 281.762 145.739L281.909 145.925C283.49 147.929 285.131 149.59 283.638 152.249C279.724 161.734 274.483 170.641 268.411 178.907C268.796 161.495 269.135 144.079 269.682 126.673ZM197.046 164.906C204.305 166.424 204.441 163.582 203.229 171.625C200.318 171.645 197.409 171.58 194.497 171.627C195.329 169.38 196.191 167.144 197.046 164.906ZM245.771 162.634C249.563 163.948 253.588 163.761 257.547 163.923C257.539 164.772 261.591 163.984 262.368 164.1L262.667 164.075C263.31 164.023 264.118 164.015 264.125 164.801C263.919 166.177 264.695 167.683 264.214 169.035C263.565 170.856 260.789 170.669 259.257 170.704C256.732 170.761 254.207 170.822 251.681 170.888C249.413 170.947 247.136 171.06 244.866 171.077C245.07 169.465 245.126 167.813 245.25 166.202C245.405 165.044 245.181 163.672 245.771 162.634ZM229.83 168.489C229.826 168.509 229.822 168.53 229.817 168.551C229.773 168.539 229.723 168.532 229.68 168.52C229.729 168.511 229.78 168.501 229.83 168.489Z" fill="black"/>
<path fill-rule="evenodd" clip-rule="evenodd" d="M209.651 57.0259C210.134 49.1443 212.701 40.2086 220.259 36.3389C236.921 29.6794 258.827 46.4501 259.987 63.5827C260.391 69.4473 257.122 75.8556 251.147 77.4861C249.819 79.2389 247.81 80.3093 245.827 81.2383C222.21 93.4413 206.955 83.5216 209.651 57.0259V57.0259Z" fill="white"/>
<path fill-rule="evenodd" clip-rule="evenodd" d="M204.271 52.1231C205.106 49.8145 205.987 47.5236 206.915 45.2504C207.818 43.0381 208.634 40.7779 209.756 38.6704C216.456 26.0831 228.639 26.0831 234.937 27.7278C238.202 26.3264 244.32 26.7217 247.72 27.9863C253.226 30.0335 259.937 38.0869 262.231 41.7052C267.297 49.6941 270.459 60.3272 267.094 69.5587C266.654 70.7652 266.093 71.8827 265.461 72.9596C265.859 73.4966 266.317 74.0052 266.824 74.5049C268.332 75.9902 269.839 77.4266 271.141 79.1018C272.435 80.7666 273.508 82.537 274.307 84.489C275.813 88.1701 275.885 92.3383 273.894 95.8509C272.162 98.9071 269.094 101.183 265.637 101.4C265.459 101.425 265.282 101.447 265.103 101.465C264.645 102.216 264.087 102.908 263.449 103.511C261.496 105.361 256.841 106.31 254.186 106.371C254.05 106.48 253.912 106.589 253.775 106.697C252.15 107.97 250.445 109.255 248.58 110.161C247.317 110.776 245.66 111.289 244.342 110.845C243.744 111.243 242.764 111.159 242.171 110.834C241.196 110.299 240.403 109.336 239.921 108.35C238.752 105.957 239.033 103.338 239.333 100.781C239.664 97.9564 239.982 95.1308 240.306 92.3064C240.559 90.0979 240.823 87.8526 241.498 85.7251C241.846 84.6228 242.303 83.5635 242.893 82.5675C242.878 82.4839 242.881 82.4003 242.905 82.3217C243.098 81.6958 243.498 81.3676 243.971 80.9419C244.032 80.8874 244.093 80.8316 244.153 80.7746C244.389 80.506 244.643 80.2564 244.914 80.0448C245.018 79.9396 245.121 79.8332 245.224 79.7267C246.08 78.8334 246.889 77.8945 247.608 76.8884C248.306 75.9128 248.935 74.894 249.535 73.8563C250.144 72.8008 250.547 71.6363 251.155 70.5885C251.208 70.4985 251.34 70.4808 251.414 70.5555C251.602 70.7494 251.723 70.9648 251.7 71.1916L251.794 71.2055C251.83 70.8634 252.146 70.5847 252.577 70.6594C253.22 70.7709 253.75 70.8127 254.307 70.5999C254.209 69.9524 254.118 69.3036 254.029 68.6536C253.867 67.4575 253.715 66.2575 253.585 65.0576C253.271 65.1324 252.959 65.2401 252.654 65.3769C252.219 65.5708 251.808 65.8318 251.457 66.1524C251.111 66.4691 250.872 66.8962 250.449 67.1166C249.963 67.3688 249.377 66.9519 249.519 66.4045C249.808 65.2983 251.443 64.6648 252.454 64.4557C252.802 64.3835 253.157 64.3531 253.512 64.3607C253.431 63.5903 253.36 62.8199 253.302 62.0483C253.274 61.6833 253.248 61.3184 253.224 60.9522C252.438 60.7153 251.596 60.6443 250.778 60.7558C250.508 60.97 250.238 61.1816 249.977 61.3957C249.149 62.0774 248.325 62.7629 247.51 63.4611C247.437 63.5232 247.364 63.5852 247.29 63.6486C246.807 64.0629 246.204 63.6524 246.285 63.0657C246.949 58.2584 243.993 54.4343 240.531 51.4718C236.699 48.1913 229.732 47.8093 225.174 42.127C223.076 42.5525 218.389 43.8161 216.456 46.885C213.748 51.1855 214.102 55.0387 213.896 59.917C213.69 64.7991 213.166 69.8916 214.279 74.7052C215.305 79.1439 218.085 82.9363 222.398 84.6798C222.505 84.7229 222.613 84.7647 222.722 84.8052C224.952 85.6428 227.386 85.8797 229.732 85.4388C232.328 84.9497 234.496 83.7662 236.657 82.3103C236.781 82.228 236.963 82.3978 236.869 82.5219C234.022 86.2801 228.429 87.5358 223.993 86.5437C223.785 86.4968 223.579 86.4461 223.374 86.3904C224.367 89.2325 224.167 92.352 222.874 95.1194C222.097 96.7843 220.911 98.225 219.467 99.3616C217.875 100.613 215.901 101.625 214.797 103.382C213.785 104.993 214.085 106.802 215.817 107.732C216.253 107.968 216.421 108.729 215.989 109.064C215.823 109.19 215.658 109.32 215.489 109.446C214.519 110.175 211.856 111.543 211.425 111.594C207.596 112.046 205.021 109.246 203.37 105.943C201.433 102.066 201.937 97.3406 204.071 93.6483C205.784 90.6858 209.157 87.7664 207.816 84.0171C207.337 82.6778 206.359 81.5361 205.409 80.5047C204.325 79.3301 203.159 78.2303 202.12 77.0139C201.087 75.8063 200.171 74.4924 199.659 72.9769C198.912 70.762 199.284 68.3672 199.845 66.1562C201.047 61.4096 202.608 56.7265 204.271 52.1231Z" fill="black"/>
<path fill-rule="evenodd" clip-rule="evenodd" d="M225.722 76.9032C226.577 76.5557 227.34 75.9761 227.898 75.2357C228.092 74.9783 228.142 74.7065 228.102 74.4579C228.056 74.1783 227.89 73.925 227.663 73.755C227.436 73.5846 227.152 73.5005 226.877 73.5434C226.639 73.5806 226.401 73.7108 226.213 73.9807L226.174 74.0347C225.842 74.4816 225.41 74.8483 224.917 75.0846C224.443 75.3124 223.912 75.4187 223.362 75.3569C222.316 75.2392 221.595 74.6757 220.829 73.9104C220.733 73.8138 220.638 73.7141 220.543 73.6129C220.483 73.5211 220.399 73.4621 220.306 73.4311C220.203 73.3968 220.086 73.3987 219.979 73.4359C219.876 73.4717 219.784 73.5397 219.722 73.6301C219.663 73.716 219.63 73.8222 219.641 73.9443C219.711 74.7374 220.127 75.4452 220.718 76.0009C221.375 76.6182 222.246 77.0452 223.066 77.195C223.969 77.36 224.889 77.2418 225.722 76.9032V76.9032ZM222.64 64.6683C221.679 65.2499 220.215 66.6061 221.248 68.0479C222.465 69.3192 224.217 67.8616 225.08 67.2023C225.88 66.6914 226.779 68.0055 226.037 68.602C219.8 73.201 217.268 64.8204 222.154 63.9845C222.691 63.8923 222.891 64.4884 222.64 64.6683ZM233.816 59.3185C233.71 58.0063 231.704 57.7083 231.504 59.0068C231.325 60.17 231.536 61.2385 232.062 62.2858C232.564 63.2863 233.828 62.8195 233.923 61.9085C234.052 60.6873 233.883 60.1348 233.816 59.3185ZM218.541 58.7376C218.261 58.3726 217.857 58.1235 217.374 58.2643C215.861 58.7044 216.307 60.8423 216.838 61.883C217.127 62.4481 218.059 62.5914 218.481 62.0938C219.168 61.2824 219.497 59.6619 218.624 58.8626C218.6 58.8213 218.574 58.7796 218.541 58.7376ZM232.083 53.5766L231.844 53.5349C231.105 53.4077 230.187 53.2854 229.664 53.877C229.387 54.1907 229.291 54.7738 229.664 55.0741C230.319 55.6025 231.044 55.3978 231.83 55.4425C232.477 55.4795 233.099 55.5862 233.723 55.7637C235.09 56.1531 236.205 56.8639 237.373 57.6444C237.527 57.7468 237.683 57.5516 237.61 57.4088C236.936 56.0931 235.629 55.0124 234.319 54.3537C233.621 54.0021 232.856 53.7104 232.083 53.5766ZM219.92 52.9872L219.737 53.0245C217.747 53.4387 215.163 54.266 214.22 56.2122C214.185 56.4874 214.222 56.5463 214.253 56.5849L214.264 56.5977C214.289 56.6306 214.309 56.676 214.429 56.7134C214.462 56.7055 214.496 56.6972 214.53 56.6883C214.962 56.5756 215.303 56.4203 215.634 56.2592L215.993 56.0833C216.409 55.8801 216.829 55.6843 217.273 55.5397C218.223 55.2313 219.199 55.0141 220.191 54.8981C220.406 54.8729 220.613 54.8007 220.776 54.6769C220.931 54.5593 221.05 54.3966 221.104 54.1803C221.173 53.9004 221.153 53.6885 221.003 53.436C220.889 53.2464 220.727 53.1149 220.541 53.0394C220.351 52.9625 220.135 52.9444 219.92 52.9872Z" fill="black"/>
<path fill-rule="evenodd" clip-rule="evenodd" d="M110.414 341.744C110.129 344.716 110.711 347.554 112.1 349.953L112.551 350.734L111.692 351.034C110.127 351.581 108.387 351.847 106.372 351.847C104.299 351.847 102.143 351.558 100.41 351.326L99.3009 351.178L99.8458 350.215C100.284 349.441 100.365 348.504 100.451 347.511C100.474 347.244 100.498 346.968 100.529 346.696C102.171 332.033 104.246 317.179 106.253 302.813C106.781 299.033 107.327 295.125 107.857 291.28L109.376 291.338C109.785 298.455 110.182 305.692 110.565 312.691C110.734 315.769 110.903 318.847 111.073 321.924C111.679 329.704 111.47 336.004 110.414 341.744M109.794 429.672C112.025 429.672 114.261 429.44 116.439 428.982C123.254 427.552 129.446 424.179 134.714 421.13C134.983 420.978 135.256 420.825 135.536 420.669C137.599 419.516 140.166 418.081 141.775 416.33C143.539 414.41 143.843 412.497 142.73 410.309L142.554 409.963L142.738 409.621C143.891 407.477 143.805 404.826 142.53 403.173L141.459 401.784L143.22 401.97C144.996 402.159 146.787 402.414 148.518 402.661C150.439 402.935 152.426 403.218 154.382 403.407L154.926 403.46L155.051 403.983C155.121 404.275 155.206 404.452 155.81 404.452C156.333 404.452 157.037 404.299 157.781 404.137C158.705 403.936 159.752 403.708 160.762 403.708C161.206 403.708 161.606 403.75 161.984 403.837L162.203 403.888L162.36 404.048C162.46 404.15 162.63 404.214 162.804 404.214C162.936 404.214 163.058 404.177 163.14 404.113L163.386 403.92L163.699 403.955C169.154 404.553 173.857 405.604 178.077 407.165L178.096 407.172L178.188 407.212C179.714 407.87 181.292 408.551 182.729 408.551C183.779 408.551 184.632 408.194 185.413 407.427L185.634 407.21L185.945 407.207C189.105 407.178 190.548 403.497 190.748 401.029L190.773 400.718L191.014 400.516C196.52 395.899 199.771 389.557 200.952 381.129C202.028 373.452 201.202 365.357 200.252 358.451C198.055 340.555 195.763 324.512 189.938 309.296L189.666 308.585L190.391 308.325C192.907 307.421 194.83 306.343 196.27 305.029L196.369 304.938L196.495 304.887C198.558 304.04 199.569 300.913 199.829 299.974L199.85 299.899L199.887 299.829C200.308 299.022 200.405 297.899 200.153 296.749L200.126 296.625L200.142 296.499C200.278 295.407 199.826 294.265 199.349 293.056C199.13 292.504 198.905 291.933 198.74 291.364C198.173 289.739 197.607 288.085 197.059 286.486C195.83 282.897 194.56 279.186 193.207 275.576L193.021 275.082L193.429 274.742C194.125 274.161 193.893 273.477 192.889 271.842C192.652 271.455 192.428 271.09 192.257 270.73C190.97 268.508 189.591 266.375 188.157 264.39L188.128 264.349L188.104 264.305C180.747 250.575 167.697 243.014 151.358 243.014L151.025 243.014L150.841 242.904C147.779 241.063 145.593 237.906 144.158 233.251L144.113 233.103L144.13 232.949C144.179 232.52 144.233 231.957 144.215 231.411C144.168 230.029 143.626 228.796 142.727 228.027C141.022 226.569 138.434 226.447 135.93 226.447L135.57 226.448C132.368 226.457 130.107 227.012 128.455 228.196C126.535 229.572 125.475 231.793 125.212 234.985C125.133 235.94 125.136 236.93 125.138 237.887L125.139 238.154L125.107 238.26C124.877 239.019 124.607 239.748 124.305 240.427L123.995 241.126L123.29 240.811C122.834 240.607 122.256 240.503 121.522 240.491C121.31 240.486 121.104 240.484 120.896 240.484C119.192 240.484 117.369 240.639 115.607 240.789C114.279 240.903 112.905 241.02 111.576 241.072L111.558 241.073C111.558 241.073 111.374 241.071 111.292 241.071C108.061 241.071 105.719 241.579 103.921 242.669C101.985 243.843 100.593 245.727 99.5407 248.598C93.8956 265.054 91.5748 282.78 89.5277 298.419C88.3665 306.597 88.0133 314.981 87.6718 323.089C87.3111 331.647 86.9383 340.496 85.6183 349.146L85.514 349.83L84.813 349.785C81.7282 349.586 78.3946 349.158 74.8654 348.704C69.5032 348.015 63.9583 347.302 58.5981 347.302C51.1035 347.302 45.4209 348.776 41.2285 351.806C38.3058 354.559 36.7937 358.285 36.8559 362.585C36.9437 368.661 40.1599 375.379 45.0495 379.699L45.0679 379.716C51.2484 385.55 62.53 390.611 78.5992 394.757C93.3759 398.569 108.661 400.641 116.457 401.536L118.386 401.758L116.82 402.889C116.186 403.348 115.608 403.751 115.052 404.122L114.693 404.362L114.3 404.182C113.18 403.669 112.468 403.561 112.069 403.561C111.714 403.561 111.286 403.638 111.262 404.005C111.247 404.245 111.418 404.602 111.779 404.647L113.697 404.886L112.131 406.002C111.085 406.747 109.524 407.646 107.717 408.686C101.805 412.09 92.8707 417.234 94.4073 421.752L94.5081 422.048L94.3653 422.328C93.9524 423.137 93.9171 423.888 94.2578 424.623C94.9873 426.2 97.2693 427.396 99.2073 427.883L99.2405 427.891L99.273 427.903C102.645 429.077 106.185 429.672 109.794 429.672" fill="white"/>
<path fill-rule="evenodd" clip-rule="evenodd" d="M116.281 400.652C116.048 400.415 115.95 400.104 116.168 399.739C117.009 398.665 118.755 399.4 119.841 399.648C120.251 399.307 120.658 398.965 121.05 398.604C120.914 397.759 121.93 397.198 122.347 396.546C122.757 396.066 123.143 395.521 123.634 395.119C124.832 394.185 126.492 394.817 127.883 394.775C128.953 393.414 130.056 392.095 131.074 390.689C129.9 388.718 129.818 386.409 130.207 384.212C112.202 377.385 96.6169 364.459 77.1438 361.472C76.4742 361.36 76.0986 360.547 76.2655 359.95C77.6239 356.711 97.1441 365.069 100.062 366.583C108.668 370.701 116.729 375.834 125.093 380.362C126.837 381.288 128.756 381.786 130.663 382.267C133.594 372.656 138.551 363.845 142.353 354.578C142.106 354.151 141.896 353.702 141.717 353.241C141.843 358.338 136.883 358.266 136.198 353.432C136.481 355.952 134.574 361.349 131.822 357.808C131.176 356.918 130.947 355.779 130.838 354.63C130.696 355.424 130.536 356.215 130.358 357.003C129.651 358.565 127.722 356.666 127.274 355.852C127.016 355.805 126.774 355.687 126.597 355.543C121.73 356.219 115.997 356.18 112.426 352.34C106.369 354.662 99.6647 352.582 93.5386 351.655C81.0725 350.223 68.5568 348.04 55.9787 348.206C50.3632 348.532 43.7382 349.438 40.1861 354.226C35.6297 361.128 38.2052 370.45 43.2313 376.425C55.3218 391.722 96.8232 398.373 116.281 400.652M115.941 406.162C115.721 406.103 115.499 406.049 115.279 405.997C111.75 408.933 95.13 416.557 96.3941 421.111C96.841 421.678 97.9104 421.807 98.5865 421.99C99.7641 422.308 100.953 422.584 102.154 422.802C106.034 423.507 110.053 423.63 113.928 422.825C115.354 422.609 116.641 422.001 117.94 421.413C122.136 419.569 126.757 417.531 130.933 415.702C136.238 413.6 145.543 409.458 141.716 402.47C138.09 406.545 133.488 406.189 131.17 401.124C130.37 399.586 129.673 397.514 127.795 396.892C126.804 396.223 125.538 396.084 124.71 396.83C124.65 396.737 124.597 396.607 124.568 396.491C123.634 397.818 122.83 399.216 121.736 400.429C122.112 400.449 126.02 403.339 124.867 403.341C123.479 402.627 122.1 402.031 120.602 401.646C119.516 402.738 118.322 403.753 117.084 404.692C118.286 405.485 119.366 406.456 120.234 407.51C120.309 407.603 120.217 407.723 120.105 407.673C118.757 407.072 117.371 406.545 115.941 406.162M98.0517 425.853C111.55 431.912 125.841 425.165 137.352 417.972C140.009 416.49 143.503 414.388 142.966 410.898C141.009 413.759 137.783 415.388 134.687 416.801C129.485 419.15 124.249 421.425 119.035 423.745C118.542 425.378 116.187 425.441 114.763 425.803C108.427 427.031 101.616 426.421 95.6532 423.972C95.9983 424.993 97.1274 425.462 98.0517 425.853M151.908 402.261C152.242 402.303 152.576 402.342 152.909 402.38C152.875 401.939 153.141 401.498 153.568 401.361C153.376 400.426 153.305 399.46 153.408 398.511C152.85 399.951 151.05 399.514 149.907 399.099C148.274 398.655 146.65 398.178 145.036 397.669C144.4 398.851 143.725 400.015 142.896 401.085C145.913 401.353 148.903 401.886 151.908 402.261M153.236 397.732C153.316 397.901 153.431 398.08 153.433 398.283C153.515 397.583 153.674 396.891 153.916 396.228C153.69 396.729 153.463 397.231 153.236 397.732M155.141 393.976C156.625 392.043 159.369 390.463 161.905 391.001C162.068 391.037 162.072 391.298 161.905 391.331C158.498 391.793 155.506 394.494 155.388 397.985C155.119 399.565 156.219 401.117 155.849 402.633C155.922 402.638 155.996 402.642 156.069 402.647C156.096 402.748 156.12 402.838 156.152 402.917C155.784 402.979 155.675 403.57 156.11 403.675C156.367 403.738 156.635 403.771 156.909 403.784C158.298 403.41 159.763 403.323 161.091 402.769C162.405 402.189 162.076 400.559 162.54 399.43C162.88 398.128 163.271 396.831 163.763 395.582C163.799 395.481 163.935 395.504 163.947 395.605C164.294 398.098 164.283 400.633 164.199 403.145C164.654 403.192 165.108 403.243 165.562 403.3C165.533 402.598 167.64 394.048 168.75 396.242C168.191 398.654 168.124 401.174 168.064 403.657C171.36 404.199 174.607 405.008 177.767 406.108C179.994 406.782 182.642 408.777 184.804 406.974C186.478 405.59 187.042 403.177 186.884 401.123C184.707 388.971 167.513 387.552 157.362 388.45C156.404 390.661 155.427 392.864 154.438 395.062C154.643 394.683 154.877 394.32 155.141 393.976M189.76 400.886C189.946 398.127 189.481 394.692 187.435 392.635C182.753 388.679 176.196 387.435 170.345 386.003C167.62 385.465 164.857 385.108 162.083 384.93C161.099 384.852 159.849 385.075 159.154 384.271C158.796 385.118 158.433 385.964 158.07 386.81C169.719 385.285 194.022 390.583 187.216 406.529C188.657 404.969 189.612 403.069 189.76 400.886M131.887 391.765C131.351 393.103 130.695 394.377 129.838 395.543C130.812 396.179 131.606 397.12 132.167 398.132C135.757 407.518 139.596 402.49 144.367 397.454C140.33 395.931 134.983 394.791 131.887 391.765M191.644 398.976C200.979 389.761 202.791 374.409 199.342 362.341C199.035 357.867 197.47 353.602 196.067 349.365C191.599 336.513 185.724 324.149 178.678 312.475C169.935 314.875 161.208 317.338 152.446 319.659C151.239 319.921 150.031 320.438 148.792 320.514C148.349 320.796 147.904 321.106 147.444 321.379C148.115 324.664 147.496 328.017 147.339 331.322C147.197 333.923 147.478 336.471 147.823 339.045C148.209 342.789 149.796 354.968 146.615 357.197C145.537 357.717 144.573 356.177 144.108 356.601C143.689 356.309 143.298 355.929 142.98 355.511C141.752 359.481 139.744 363.163 138.504 367.137C136.854 372.976 131.436 382.429 132.639 387.999C133.57 391.439 137.641 392.18 140.579 393.305C143.974 394.485 147.408 395.569 150.898 396.449C152.601 392.836 154.229 389.189 155.827 385.529C163.129 368.641 169.597 351.4 175.376 333.955C175.485 333.567 176.814 329.372 177.057 330.542C177.077 330.422 177.229 330.111 177.286 330.377C176.306 334.473 175.312 338.569 174.236 342.642C176.879 342.273 179.72 342.129 182.139 343.423C182.264 343.49 182.172 343.654 182.049 343.634C179.184 343.137 176.422 344.075 173.67 344.748C169.807 357.89 164.821 370.7 159.544 383.349C161.176 382.829 163.071 383.404 164.774 383.445C170.139 383.999 175.443 385.172 180.511 386.996C186.881 389.06 191.385 391.752 191.644 398.976M196.783 303.069C198.352 301.381 199.584 299.226 199.346 296.939C198.404 295.683 198.092 294.045 197.543 292.594C195.398 286.522 193.407 280.403 191.072 274.395C186.106 275.922 181.22 277.752 176.611 280.157C175.763 280.589 174.924 281.038 174.096 281.503C173.227 281.989 172.28 282.834 171.239 282.592C172.377 284.202 174.721 285.878 175.117 287.738C175.202 288.327 174.784 288.874 174.143 288.742C164.099 295.871 153.728 302.85 144.234 310.791C137.125 316.415 131.668 320.976 129.23 330.101C127.586 336.012 127.581 342.19 127.823 348.268C127.87 349.449 127.871 350.659 127.967 351.848C127.824 352.738 128.095 354.548 129.096 354.581C129.073 354.796 129.002 354.996 128.888 355.171C128.92 355.214 128.953 355.254 128.988 355.295C129.037 355.052 129.086 354.81 129.132 354.567C129.911 351.119 130.015 347.117 129.885 343.446C129.831 342.393 131.446 342.418 131.536 343.446C131.78 346.221 132.023 348.997 132.266 351.771C132.558 353.57 132.098 355.922 133.536 357.289C134.999 355.938 134.515 353.274 134.444 351.531C134.33 348.687 134.206 345.845 134.1 343.002C134.067 342.101 135.561 341.869 135.73 342.785C136.21 345.397 136.729 348.001 137.288 350.597C137.626 351.601 137.857 356.105 139.543 355.323C140.547 354.637 139.823 350.619 139.955 349.288C139.893 346.654 139.856 344.023 139.663 341.396C139.584 340.335 141.311 340.11 141.548 341.145C141.932 342.82 142.3 344.496 142.634 346.183C143.366 349.026 143.1 352.88 145.743 354.77C146.778 347.384 145.288 340.05 145.08 332.69C145.204 330.306 145.614 327.945 145.976 325.589C146.376 322.984 146.608 320.148 145.673 317.635C145.929 316.51 146.934 319.554 147.029 319.807C147.786 318.316 149.631 318.2 151.09 317.736C154.332 316.687 157.654 315.896 160.935 314.964C169.635 312.549 178.345 310.172 187.058 307.8C190.539 306.837 194.203 305.698 196.783 303.069M109.66 342.355C110.86 335.853 110.827 329.264 110.314 322.69C109.75 312.495 109.203 302.297 108.617 292.103C106.075 310.554 103.364 328.984 101.292 347.493C101.144 348.781 101.167 350.145 100.516 351.294C104.112 351.775 107.944 352.26 111.439 351.038C109.905 348.388 109.364 345.37 109.66 342.355M91.494 296.555C88.776 314.043 90.3266 331.837 87.6901 349.304C91.3476 349.714 94.9772 350.32 98.5967 350.987C98.2006 348.829 98.9518 346.601 99.0816 344.428C101.047 328.93 103.218 313.441 106.094 298.078C106.799 294.401 107.512 290.74 108.329 287.083C108.206 284.869 108.098 282.655 108.026 280.439C104.035 277.932 99.5348 276.309 94.8804 275.491C93.6228 282.493 92.3661 289.49 91.494 296.555M122.958 241.604C123.117 241.332 123.269 241.054 123.414 240.772C122.923 240.791 122.444 240.808 121.96 240.888C121.982 241.666 121.939 242.451 121.93 243.235C122.172 242.661 122.645 242.138 122.958 241.604M40.8672 351.19C52.4765 342.754 71.5449 348.129 84.9937 348.996C87.5577 332.195 86.5112 315.12 88.9009 298.292C91.1019 281.48 93.4228 264.434 98.9505 248.327C101.232 242.099 105.178 240.249 111.676 240.299C114.974 240.17 118.461 239.643 121.665 239.718C122.368 239.729 123.102 239.822 123.736 240.105C124.627 238.098 125.111 235.942 125.356 233.771C125.371 233.633 125.547 233.608 125.599 233.739C126.352 235.63 126.433 237.694 126.023 239.674C125.726 241.093 123.96 246.675 121.909 244.491C121.747 249.071 122.754 254.541 127.244 256.918C135.09 260.337 145.935 257.224 150.48 249.968C151.358 248.519 152.116 246.976 153.088 245.584C146.312 243.666 142.508 235.553 144.104 229.373C145.091 234.179 146.89 239.549 151.37 242.24C167.683 242.204 181.247 249.629 188.911 263.929C190.41 266.006 191.797 268.163 193.067 270.359C193.751 271.828 195.753 273.87 194.054 275.289C196.017 280.524 197.759 285.832 199.599 291.109C200.105 292.867 201.261 294.712 201.03 296.56C201.28 297.699 201.268 299.047 200.697 300.142C200.154 302.094 198.938 304.721 196.92 305.549C195.207 307.112 193.042 308.188 190.783 308.999C196.806 324.728 199.099 341.691 201.14 358.31C203.14 372.849 204.172 390.534 191.64 401.041C191.397 404.048 189.612 407.878 186.083 407.911C183.639 410.309 180.66 408.994 177.939 407.821C173.347 406.121 168.531 405.179 163.745 404.654C163.232 405.055 162.397 404.989 161.94 404.521C159.041 403.853 155.024 406.558 154.438 404.108C150.7 403.745 147.003 403.066 143.269 402.67C144.843 404.71 144.729 407.719 143.544 409.923C146.563 415.857 139.531 419.293 135.232 421.728C129.428 425.086 123.367 428.273 116.729 429.665C110.893 430.892 104.78 430.52 99.1492 428.56C96.1905 427.817 92.058 425.377 93.8137 421.94C91.5883 415.398 107.217 408.62 111.814 405.344C109.935 405.11 109.866 401.213 114.753 403.452C115.344 403.057 115.925 402.65 116.499 402.236C96.7304 399.965 58.9769 393.718 44.6699 380.215C36.81 373.271 32.2752 359.226 40.8672 351.19" fill="black"/>
<path fill-rule="evenodd" clip-rule="evenodd" d="M137.738 189.676C118.872 188.749 110.359 202.025 109.808 207.955C109.426 212.071 111.859 216.815 111.859 220.493C111.859 222.37 109.559 226.401 110.63 229.137C113.013 235.228 118.059 241.987 124.489 241.987C130.919 241.987 139.287 243.764 146.392 233.597C147.059 232.643 155.491 227.221 156.31 222.069C158.351 209.235 151.199 190.338 137.738 189.676Z" fill="white"/>
<path fill-rule="evenodd" clip-rule="evenodd" d="M138.627 181.414C137.952 180.643 136.814 180.335 135.802 180.394C134.332 180.481 133.053 181.388 131.591 181.455C130.057 181.526 128.577 180.995 127.04 181.242C126.098 181.393 125.165 181.83 124.561 182.566C122.47 181.968 120.199 182.76 118.868 184.491C117.225 184.236 115.437 185.323 114.934 186.905C112.847 186.973 110.877 188.648 110.644 190.748C109.81 190.968 109.086 191.543 108.641 192.303C108.125 193.184 108.039 194.194 108.132 195.187C107.15 195.688 106.651 196.765 106.52 197.905C105.623 198.574 105.233 199.777 105.416 200.913C104.729 201.3 104.374 202.2 104.378 203.004C104.382 203.754 104.581 204.419 104.301 205.142C104.051 205.787 103.962 206.325 104.099 207L104.113 207.066C104.137 207.176 104.158 207.281 104.176 207.386C103.99 207.549 103.833 207.753 103.715 207.99C103.285 208.859 103.349 209.849 103.677 210.73C103.533 211.29 103.552 211.883 103.764 212.422C103.366 212.995 103.157 213.697 103.218 214.426C103.287 215.243 103.66 215.973 104.226 216.514C104.075 217.629 104.529 218.833 105.349 219.618C105.232 220.286 105.333 220.985 105.698 221.618C105.958 222.069 106.309 222.405 106.713 222.639C106.7 223.011 106.75 223.392 106.874 223.773C107.047 224.303 107.338 224.791 107.722 225.183C107.493 226.646 108.369 228.269 109.911 228.68C110.041 228.714 110.165 228.73 110.283 228.732C110.436 230.139 110.771 231.526 111.289 232.844C112.606 236.199 115 239.132 118.123 240.962C119.668 241.867 121.403 242.486 123.174 242.745C124.449 242.931 125.675 242.885 126.954 242.759C128.56 242.598 130.173 242.358 131.734 241.945L131.985 241.878C132.632 241.705 133.314 241.505 133.875 241.156C134.502 240.766 134.828 240.164 134.973 239.454C135.053 239.06 134.803 238.635 134.371 238.627L134.343 238.627C134.248 238.629 134.154 238.626 134.059 238.62L133.988 238.615H133.984C133.979 238.614 133.977 238.614 133.972 238.614C133.93 238.607 133.889 238.595 133.847 238.589C133.372 238.509 132.956 238.588 132.509 238.736L132.453 238.755C131.702 239.014 130.956 239.254 130.179 239.432C129.377 239.615 128.564 239.76 127.748 239.875L127.668 239.885L127.643 239.889L127.63 239.89V239.89C127.628 239.89 127.625 239.89 127.623 239.891L127.383 239.921V239.921C127.193 239.943 127.004 239.963 126.815 239.983C126.466 240.018 126.118 240.045 125.769 240.065C119.754 240.404 114.702 235.67 113.177 229.995C112.624 227.941 112.588 225.892 112.751 223.842C112.804 223.693 112.835 223.528 112.833 223.346C112.833 223.251 112.828 223.158 112.822 223.064C113.025 221.081 113.377 219.096 113.598 217.106C113.855 214.781 113.998 212.442 113.946 210.102C113.92 208.947 113.797 207.802 113.635 206.658L113.576 206.247V206.247C114.308 206.104 114.988 205.757 115.529 205.256C116.704 205.934 118.224 205.994 119.384 205.278C120.683 206.092 122.499 206.166 123.807 205.37C124.598 205.934 125.594 206.178 126.573 205.963C127.013 205.867 127.45 205.659 127.825 205.37C128.092 205.417 128.363 205.436 128.633 205.422L128.688 205.453V205.453C129.309 205.78 129.998 205.995 130.706 205.971C131.23 205.954 131.77 205.85 132.27 205.655C132.804 205.977 133.389 206.197 134.014 206.276C134.927 206.391 135.913 206.189 136.672 205.671C138.06 206.461 139.767 206.583 141.265 206.052C141.572 206.571 141.997 207.019 142.494 207.364C142.405 207.683 142.377 208.023 142.407 208.35C142.457 208.888 142.592 209.37 142.813 209.803C142.58 210.287 142.51 210.881 142.641 211.477C142.826 212.327 143.321 213.067 143.962 213.642C144.018 214.999 144.763 216.271 145.974 216.978C146.036 217.014 146.097 217.043 146.158 217.069C146.211 217.142 146.275 217.207 146.348 217.261C147.119 217.972 148.338 217.916 149.304 217.514C149.322 217.515 149.341 217.516 149.36 217.517C149.705 217.525 149.94 217.391 150.079 217.193C150.22 217.201 150.359 217.215 150.5 217.242C151.013 217.337 151.576 217.522 152.04 217.76C153.245 218.38 153.802 219.475 153.969 220.791C154.151 222.226 153.738 223.689 152.626 224.661C152.086 225.134 151.395 225.43 150.693 225.554C149.918 225.692 149.089 225.352 148.516 226.018C148.402 226.15 148.323 226.334 148.385 226.512C148.58 227.067 148.899 227.279 149.4 227.357C148.677 228.214 147.935 229.042 147.113 229.812C146.225 230.647 145.306 231.456 144.504 232.376C143.657 233.35 142.891 234.383 142.36 235.564C142.056 236.244 141.812 236.944 141.549 237.639L141.503 237.761C141.21 238.499 140.82 239.212 141.271 239.983C141.45 240.287 141.856 240.58 142.229 240.532C143.281 240.397 143.633 239.687 143.957 238.762C144.201 238.062 144.387 237.343 144.65 236.651C144.699 236.522 144.753 236.395 144.809 236.269C145.415 236.438 146.082 236.304 146.623 235.958C147.201 236.214 147.842 236.342 148.461 236.331C149.289 236.317 150.046 236.087 150.697 235.672C150.749 235.658 150.801 235.645 150.852 235.63C151.842 236.009 153.002 235.941 153.898 235.327C154.478 234.93 154.875 234.399 155.101 233.808C155.851 233.793 156.592 233.528 157.13 232.996C157.623 232.508 157.912 231.878 157.997 231.224C158.643 231.096 159.248 230.784 159.722 230.259C160.119 229.82 160.36 229.261 160.441 228.681C161.227 228.457 161.936 227.944 162.323 227.228C162.684 226.562 162.736 225.84 162.559 225.183L162.605 225.117V225.117C163.415 224.694 164.033 224 164.096 223.01C164.114 222.728 164.084 222.446 164.007 222.179C164.035 221.88 164.017 221.582 163.939 221.293C165.028 220.235 165.423 218.534 164.831 217.128C165.896 215.984 166.177 214.174 165.397 212.816C165.932 212.169 166.207 211.344 166.161 210.463C166.104 209.363 165.599 208.403 164.996 207.514C165.444 207.018 165.683 206.328 165.665 205.661C165.641 204.695 165.126 203.862 164.483 203.173C165.044 201.471 164.417 199.625 163.039 198.548C163.318 198.089 163.421 197.52 163.33 196.945C163.171 195.938 162.416 195.253 161.6 194.71C161.771 194.156 161.726 193.557 161.455 192.984C161.092 192.219 160.409 191.733 159.696 191.323C159.512 189.626 157.615 188.177 156.024 189.053C156.419 187.79 155.282 186.427 153.975 186.282C153.336 184.344 151.129 183.122 149.145 183.604C148.13 182.218 146.242 181.685 144.639 182.279C142.876 180.929 140.69 180.729 138.627 181.414ZM151.182 219.47C149.944 219.403 149.015 220.413 148.363 221.337C147.751 222.204 149.321 223.12 149.779 222.164C149.944 221.823 150.13 221.463 150.381 221.164C150.423 221.223 150.46 221.284 150.497 221.346L150.534 221.409C150.561 221.455 150.59 221.502 150.613 221.551C150.611 221.56 150.648 221.674 150.65 221.679C150.752 221.989 150.974 222.188 151.278 222.295C151.67 222.432 152.041 222.137 152.167 221.791C152.367 221.239 151.902 220.757 151.417 220.538C151.893 220.461 152.361 220.623 152.704 220.989C152.752 221.04 152.831 220.999 152.834 220.935C152.874 220.068 151.966 219.512 151.182 219.47Z" fill="black"/>
<path fill-rule="evenodd" clip-rule="evenodd" d="M120.978 232.406C121.895 232.672 122.88 232.695 123.814 232.421C124.662 232.173 125.532 231.625 126.156 230.901C126.71 230.258 127.069 229.476 127.055 228.642C127.054 228.547 127.02 228.467 126.967 228.405C126.911 228.339 126.832 228.293 126.747 228.274C126.661 228.253 126.569 228.26 126.491 228.296C126.42 228.328 126.359 228.383 126.321 228.462C126.225 228.588 126.13 228.712 126.034 228.833C125.263 229.784 124.516 230.495 123.357 230.75C122.728 230.889 122.1 230.827 121.523 230.616C120.906 230.39 120.349 229.993 119.912 229.484C119.714 229.254 119.481 229.161 119.253 229.159C118.994 229.157 118.739 229.277 118.547 229.469C118.357 229.658 118.231 229.914 118.219 230.182C118.209 230.417 118.286 230.663 118.49 230.882C119.163 231.604 120.035 232.133 120.978 232.406ZM121.007 220.49C120.067 221.061 118.635 222.392 119.646 223.808C120.836 225.056 122.55 223.625 123.394 222.978C124.177 222.476 125.057 223.766 124.33 224.352C118.228 228.867 115.752 220.639 120.531 219.818C121.058 219.728 121.253 220.313 121.007 220.49ZM129.799 217.977C130.101 217.784 130.457 217.718 130.85 217.897C131.158 218.037 131.698 218.503 132.074 219.116C132.331 219.535 132.513 220.027 132.475 220.54C132.466 220.659 132.51 220.747 132.58 220.812C132.634 220.863 132.714 220.9 132.807 220.912C132.885 220.922 132.974 220.913 133.046 220.891C133.182 220.848 133.255 220.76 133.282 220.687C133.545 219.989 133.432 219.21 133.137 218.507C132.739 217.559 132.017 216.764 131.543 216.508C130.733 216.069 129.778 216.049 128.967 216.496C128.276 216.876 127.844 217.49 127.415 218.116C127.324 218.249 127.233 218.381 127.139 218.51C126.952 218.77 126.933 219.028 127.006 219.249C127.086 219.494 127.291 219.701 127.548 219.809C127.785 219.909 128.061 219.923 128.304 219.82C128.51 219.733 128.699 219.564 128.819 219.277C129.02 218.794 129.355 218.261 129.799 217.977V217.977ZM114.456 219.052C114.663 219.16 114.825 219.193 115.055 219.124C115.182 219.086 115.307 219.013 115.405 218.915C115.503 218.817 115.573 218.696 115.6 218.562C115.667 218.231 115.848 217.921 116.107 217.719C116.328 217.546 116.606 217.455 116.916 217.506C117.249 217.562 117.567 217.776 117.786 218.028C117.859 218.112 117.917 218.208 117.974 218.303C118.082 218.481 118.187 218.647 118.336 218.777C118.392 218.827 118.477 218.862 118.559 218.862C118.593 218.862 118.627 218.856 118.659 218.846C118.991 218.513 119.055 218.26 119.044 218.01C119.033 217.747 118.929 217.481 118.762 217.232C118.369 216.65 117.623 216.172 117.119 216.064C116.429 215.916 115.745 216.094 115.195 216.479C114.63 216.875 114.212 217.49 114.081 218.183C114.05 218.35 114.063 218.53 114.127 218.686C114.189 218.839 114.297 218.97 114.456 219.052ZM128.278 211.767C128.692 212.17 129.182 212.233 129.677 212.288C129.953 212.319 130.173 212.345 130.389 212.393C130.983 212.527 131.571 212.73 132.107 213.02C132.668 213.325 133.278 213.691 133.718 214.161C133.822 214.273 133.921 214.39 134.019 214.508C134.109 214.615 134.196 214.718 134.287 214.818C134.392 214.932 134.492 215.052 134.591 215.172C134.652 215.272 134.664 215.297 134.676 215.323C134.695 215.362 134.717 215.405 134.741 215.452C134.775 215.516 134.814 215.585 134.856 215.649C134.925 215.764 134.962 215.796 134.994 215.811C135.047 215.834 135.097 215.846 135.146 215.839C135.192 215.834 135.235 215.812 135.277 215.776C135.49 215.596 135.552 215.302 135.546 214.989C135.536 214.515 135.361 213.99 135.2 213.667C134.825 212.917 134.304 212.137 133.679 211.577C132.965 210.938 132.184 210.454 131.286 210.121C130.729 209.914 130.083 209.724 129.476 209.748C129.039 209.765 128.621 209.895 128.277 210.219C128.065 210.418 127.963 210.702 127.963 210.985C127.963 211.273 128.069 211.564 128.278 211.767ZM113.615 215.458C113.641 215.501 113.677 215.531 113.718 215.548C113.76 215.567 113.808 215.572 113.853 215.565C113.899 215.557 113.942 215.537 113.976 215.505C114.009 215.475 114.034 215.435 114.045 215.386C114.32 214.18 114.853 213.283 115.992 212.704C116.552 212.42 117.196 212.239 117.806 212.095C117.983 212.053 118.17 212.025 118.359 211.998C118.95 211.912 119.545 211.813 119.93 211.336C120.163 211.048 120.26 210.68 120.205 210.344C120.153 210.027 119.968 209.737 119.631 209.563C118.793 209.13 117.752 209.555 116.906 209.917C116.843 209.943 116.781 209.97 116.721 209.995C115.893 210.344 115.139 210.805 114.518 211.464C114.026 211.987 113.57 212.76 113.386 213.555C113.233 214.217 113.269 214.892 113.615 215.458Z" fill="black"/>
</svg>
