<svg width="293" height="419" viewBox="0 0 293 419" fill="none" xmlns="http://www.w3.org/2000/svg">
<path fill-rule="evenodd" clip-rule="evenodd" d="M226.136 206.947C226.253 207.528 226.43 208.157 226.614 208.722C225.697 209.604 224.4 210.786 223.468 211.641C224.39 205.953 221.587 200.703 219.872 195.323C220.519 194.493 222.772 193.644 222.699 192.725C222.525 189.318 222.269 185.516 221.899 181.251C220.647 167.932 219.4 154.042 222.356 140.682C222.558 139.23 222.865 137.703 224.813 137.669C230.567 160.564 225.905 183.615 226.031 206.654L225.864 206.804L226.136 206.947ZM234.753 394.532C239.481 394.533 243.827 393.675 248.035 391.935C249.249 391.508 250.758 390.978 250.968 390.118C251.314 387.767 251.075 385.455 250.821 383.008C250.42 378.811 250.46 375.548 249.327 371.029C248.115 366.831 247.081 363.551 248.265 359.211C248.359 357.919 247.349 356.604 246.681 355.396C245.736 353.632 245.256 351.796 244.505 349.987C245.98 349.73 247.512 349.376 248.928 348.938L249.166 349.794C249.218 349.982 249.362 350.077 249.593 350.077C249.737 350.077 250.103 350.008 250.157 349.702C249.934 346.398 249.612 343.109 249.274 339.752C245.764 307.408 240.449 280.745 231.524 254.154C229.38 247.926 227.19 241.444 227.174 234.677C228.393 234.416 229.75 234.266 230.993 234.438C239.844 232.387 238.094 213.67 237.742 208.068C238.366 207.881 239.065 207.615 239.583 207.26L239.792 207.363C248.581 185.556 244.972 149.504 242.962 125.266C241.642 116.554 243.498 100.817 235.771 96.5114C229.532 94.3027 223.321 93.0613 216.801 91.6047C215.594 90.9119 214.104 90.5164 212.757 90.068L213.453 89.0899C214.365 87.8043 214.244 85.2826 213.05 84.3965C212.316 84.4371 211.285 85.1739 210.584 85.5199C209.576 83.435 208.642 81.2541 207.972 78.7489L207.731 78.8351C207.026 71.749 197.835 70.5122 192.653 72.8802C186.996 75.9846 189.942 83.0075 187.37 88.0772L186.438 86.835C184.998 86.8083 181.953 88.695 181.22 89.4032C180.695 89.6478 181.075 91.2941 180.998 91.9564C173.409 93.6741 163.022 94.1457 160.609 102.661C156.596 118.673 157.16 135.088 152.607 151.044C147.84 163.977 140.838 179.802 140.78 191.647C140.644 193.867 140.345 206.422 142.183 205.917L143.396 207.127C141.743 209.764 143.055 213.711 143.688 216.833C145.248 223.458 148.296 230.597 154.807 227.422C161.809 266.076 179.409 305.068 173.405 344.937C173.333 345.17 173.479 345.425 173.729 345.324L174.025 345.187C174.788 345.423 175.757 345.506 176.555 345.684C175.876 348.226 175.512 350.736 175.16 353.548C174.733 353.803 174.932 354.476 174.91 354.884C168.539 354.579 164.966 361.248 160.397 364.915C157.381 367.606 153.945 370.168 150.185 372.53C147.078 374.294 144.457 376.315 144.929 379.648C144.884 379.643 143.925 379.494 143.879 379.49C142.433 384.298 147.179 385.292 152.066 385.871C164.009 387.072 174.218 384.418 188.044 379.392C189.74 379.593 191.062 377.072 191.287 375.363C191.511 374.218 190.876 373.054 191.36 371.821C193.028 368.279 193.895 358.904 191.545 354.698C190.72 353.745 189.661 352.865 189.799 351.219C189.837 349.571 189.992 347.924 189.853 346.305C192.678 346.032 195.475 345.423 197.94 344.436C198.376 344.604 198.872 344.397 198.902 343.851C199.375 336.315 199.941 328.079 200.064 320.364C200.632 303.573 196.791 287.189 193.851 270.904C193.647 265.679 192.682 260.632 192.378 255.406C192.051 250.449 191.994 245.596 191.709 240.647L193.405 240.278C207.489 276.577 218.519 312.906 226.238 348.453C226.064 348.602 225.567 348.77 225.588 349.073C225.594 349.235 225.59 349.245 225.701 349.262C227.566 349.637 229.412 349.911 231.26 350.125C230.739 354.561 233.519 359.688 231.059 363.843C230.405 364.844 230.377 365.053 230.777 365.742C227.193 372.411 224.972 377.96 223.532 383.922L222.605 383.138C221.26 384.114 221.232 385.959 221.203 387.908C221.299 389.043 220.744 390.233 221.594 391.189C223.639 393.578 230.767 394.519 234.753 394.532V394.532Z" fill="white"/>
<path fill-rule="evenodd" clip-rule="evenodd" d="M208.558 77.6809C207.58 78.4726 208.6 84.1835 209.387 85.3487C204.059 88.7794 198.675 92.1312 193.179 95.2734L192.61 95.5977L192.628 95.5926C192.4 95.695 192.013 95.7859 191.787 95.7408L191.631 95.6893C191.599 95.6792 191.581 95.6745 191.59 95.6817C191.498 95.6329 191.409 95.5815 191.322 95.5225C189.755 94.0931 188.614 91.6703 187.386 89.7862C189.476 87.9425 188.434 84.3495 188.35 81.895C187.955 81.8852 187.908 83.139 187.795 83.5027L187.731 83.8496C187.581 84.6618 187.409 85.4895 187.098 86.2446C186.194 85.0995 181.618 87.805 180.76 88.6755C179.826 89.2709 180.113 90.3298 180.125 91.2607C171.44 92.9505 160.365 94.1392 159.198 105.041C157.825 110.889 157.091 116.842 156.413 122.802L156.302 123.754C155.116 134.01 154.063 144.393 150.714 154.213L149.434 157.265C146.665 163.885 143.964 170.558 142.196 177.523C140.826 180.495 137.176 208.86 142.666 206.672C140.788 209.735 142.194 213.766 142.845 217.04C144.196 222.415 146.892 231.199 154.147 228.609C159.617 257.844 170.451 286.011 173.191 315.755C174.08 325.423 174.061 335.207 172.551 344.815C172.347 345.727 173.219 346.534 174.111 346.134C174.559 346.262 175.033 346.3 175.492 346.387C174.963 348.514 174.653 350.736 174.372 352.91L174.341 353.151L174.339 353.152C174.12 353.396 174.012 353.705 174.022 354.053C170.708 354.065 167.935 356.205 165.727 358.478C161.898 362.486 157.855 366.306 153.273 369.451C149.993 372.118 144.239 373.681 144.054 378.638C142.38 378.354 142.78 382.013 143.077 382.98C143.425 384.063 144.436 384.687 145.405 385.169C159.342 389.84 174.693 385.291 187.943 380.275C190.265 380.583 191.925 377.509 192.173 375.483C192.426 374.364 191.832 373.277 192.178 372.187L192.293 371.888C192.71 370.792 193.104 369.721 193.341 368.56L193.376 368.319C193.941 364.309 194.396 357.518 192.248 354.164C189.742 352.016 191.039 349.957 190.788 347.096C193.262 346.814 195.708 346.254 198.023 345.363C198.936 345.557 199.732 344.818 199.792 343.933L199.882 342.517C200.349 335.15 200.835 327.774 200.957 320.391C201.528 303.639 197.732 287.245 194.743 270.882C194.449 264.575 193.245 258.346 193.076 252.022C192.949 248.212 192.791 244.412 192.6 240.608C206.155 275.539 217.28 311.444 225.264 348.06C224.53 348.558 224.45 349.917 225.543 350.135C227.142 350.454 228.753 350.715 230.37 350.912C230.111 354.844 232.45 360.162 230.283 363.496L230.197 363.629C229.786 364.268 229.383 364.997 229.804 365.739C226.988 371.024 224.547 376.539 223.045 382.36C221.329 381.656 220.352 385.143 220.402 386.403C220.513 388.055 219.622 390.839 221.047 391.968C228.527 396.79 238.681 396.042 246.834 393.372C248.347 392.724 250.08 392.282 251.376 391.246C251.963 390.65 251.923 389.67 251.971 388.896L251.986 388.495C252.063 386.266 252.055 383.995 251.445 381.8C251.608 378.62 251.134 375.397 250.509 372.286C250.108 369.775 248.956 367.389 248.8 364.855C247.982 362.587 249.458 360.466 249.061 358.2C248.738 356.818 247.723 355.625 247.135 354.339L247.094 354.247C246.563 353.077 246.182 351.865 245.721 350.665C246.603 350.497 247.475 350.29 248.333 350.041C248.744 351.53 251.121 351.109 251.051 349.592C249.098 325.124 245.218 300.792 239.212 276.988C236.411 262.909 229.174 249.783 228.084 235.415C228.952 235.253 229.941 235.211 230.792 235.309L230.893 235.321C231.437 235.389 231.959 235.484 232.542 235.21C240.02 230.592 239.251 216.441 238.684 208.697C239.021 208.584 239.344 208.444 239.638 208.27C239.898 208.463 240.292 208.474 240.444 208.118C240.826 207.218 241.319 206.34 241.651 205.425C250.316 175.634 244.783 144.241 243.039 113.873C242.359 107.634 242.354 99.1638 236.155 95.7257C234.075 94.7405 231.728 94.3176 229.511 93.7494C224.424 92.2323 219.11 91.5526 214.183 89.6116C215.329 88.0191 215.056 85.6966 214.101 84.0949C213.344 82.942 211.889 83.8241 210.99 84.3145C209.953 82.1943 209.241 79.9339 208.558 77.6809ZM222.731 383.72L222.685 383.933C222.443 385.075 222.233 386.273 222.355 387.434C219.132 390.576 233.982 390.973 235.621 390.966C239.371 390.928 250.395 389.678 250.94 385.158L250.934 385.266C250.861 386.704 251.105 389.389 250.323 390.451C244.411 393.527 237.533 394.743 230.916 393.985L230.678 393.954C228.04 393.591 223.031 392.525 221.729 390.326C222.017 388.279 221.311 385.347 222.731 383.72ZM233.425 363.415C237.044 359.476 242.989 362.355 246.805 364.552C246.95 366.277 248.159 366.911 248.208 368.721C249.021 374.248 250.895 380.496 248.508 385.832C241.392 389.641 232.929 389.383 225.231 387.744C225.029 387.481 224.774 387.403 224.411 387.303C224.182 385.684 224.645 384.056 224.951 382.484C225.72 379.18 226.716 375.936 227.602 372.663C229.189 371.638 229.769 369.485 230.597 367.861C230.822 367.406 231.051 366.95 231.292 366.498C232.585 366.075 232.923 364.533 233.425 363.415ZM191 374.28C191.389 378.253 187.514 379.837 184.381 380.79C180.854 382.043 177.242 383.084 173.609 383.983C166.166 385.901 158.407 386.741 150.779 385.539L150.646 385.515C148.445 385.128 144.502 384.662 144.001 382.114L143.996 382.055C143.962 381.638 143.897 380.066 144.054 379.664C144.112 379.663 144.168 379.65 144.222 379.624C144.86 381.663 147.183 382.903 149.423 383.223C150.479 384.284 152.425 383.89 153.833 383.951C163.126 383.859 172.061 380.982 180.867 378.308C183.669 377.334 189.255 376.636 191 374.28ZM190.201 353.832C191.814 353.264 192.121 357.782 192.327 358.885C192.847 363.549 192.835 370.823 189.058 374.131C185.117 375.819 180.864 376.593 176.8 377.921L175.838 378.204C168.133 380.459 160.216 382.568 152.129 382.236C151.519 381.015 147.647 382.03 146.17 379.855C144.19 376.402 149.191 374.178 151.558 372.707C156.104 369.789 160.349 366.397 164.178 362.587C165.978 360.796 167.625 358.746 169.739 357.306L169.849 357.232C171.66 356.031 173.985 355.287 176.112 356.075C178.183 356.842 178.944 359.207 180.681 360.43C184.552 362.939 188.517 358.973 189.775 355.384L189.812 355.275C189.857 355.164 189.734 355.096 189.642 355.126C189.65 355.091 189.657 355.055 189.664 355.019C190.152 354.892 190.199 354.284 190.201 353.832ZM245.264 350.749C244.758 353.607 246.183 356.172 247.246 358.7C247.532 360.377 246.481 361.983 246.724 363.689C243.243 360.957 237.976 358.534 233.777 361.03C233.754 358.62 232.925 356.281 232.204 354.003L231.911 353.099C231.683 352.397 231.451 351.698 231.195 351.008C235.87 351.496 240.604 351.545 245.264 350.749ZM176.78 346.583C180.872 347.147 185.009 347.471 189.129 347.244L188.661 354.348V354.348C188.642 354.639 188.765 354.841 188.947 354.957C188.34 357.265 186.428 359.319 184.057 359.819C180.395 360.292 179.902 355.436 176.792 354.539C177.388 353.201 176.961 351.443 177.019 349.987C176.987 348.842 176.928 347.707 176.78 346.583ZM190.255 353.012C190.334 353.175 190.427 353.327 190.529 353.474C190.421 353.484 190.317 353.516 190.219 353.575C190.23 353.388 190.243 353.2 190.255 353.012ZM227.111 208.264C230.693 209.504 234.601 209.758 238.291 208.816C237.481 214.881 236.668 229.248 231.512 232.751C230.641 232.626 229.766 232.564 228.886 232.652C228.363 232.704 227.845 232.789 227.326 232.869C227.131 232.896 226.742 232.917 226.494 232.899L226.452 232.896C226.518 232.9 226.569 232.899 226.5 232.895L226.394 232.889L226.34 232.885C224.552 232.724 222.939 230.199 221.17 231.411C220.91 231.018 220.517 230.766 220.216 230.416C218.873 228.064 220.299 225.038 219.402 222.56C219.741 222.097 219.629 221.403 219.097 221.006C218.268 220.244 216.514 220.812 216.037 219.717C216.069 219.777 216.072 219.708 216.059 219.672L216.056 219.665L216.14 219.595C219.805 216.561 223.348 213.171 225.749 208.962L225.829 208.819C226.289 209.265 227.044 208.925 227.111 208.264ZM143.444 206.205C145.967 207.586 148.684 208.586 151.502 209.165C152.081 214.707 152.746 220.252 153.653 225.749L153.438 225.787C152.18 226.017 150.854 226.328 149.767 225.46C146.187 221.981 144.897 214.984 143.492 210.259L143.436 210.044C143.141 208.885 142.802 207.282 143.444 206.205ZM180.133 91.6485C180.509 93.5298 178.435 114.012 182.217 110.509C184.775 106.49 187.703 102.729 190.319 98.7513C190.68 100.173 189.625 101.863 190.124 103.068C183.465 136.438 178.634 170.322 176.844 204.315C173.901 206.382 171.32 208.888 168.79 211.427C168.001 212.098 167.429 213.194 166.45 213.579C162.475 209.085 157.884 205.188 153.705 200.889C153.744 200.594 153.788 200.301 153.838 200.007C154.046 198.786 152.476 198.168 151.87 198.917C150.602 195.698 150.484 191.916 150.798 188.463C151.414 182.659 153.579 177.113 155.126 171.52C159.585 154.409 162.671 136.459 161.21 118.745C161.189 118.581 160.97 118.578 160.951 118.745C159.74 137.459 157.851 156.225 152.225 174.212L152.091 174.657C149.893 181.927 147.173 189.633 149.055 197.258C148.899 198.284 149.392 199.307 150.136 200.045C150.467 200.847 150.836 201.641 151.275 202.389C151.124 204.126 151.197 205.866 151.35 207.593C148.458 206.975 145.76 205.79 143.18 204.363C143.027 203.492 142.893 202.619 142.789 201.742C140.786 185.474 146.894 169.654 153.004 154.886C158.827 137.676 157.69 118.999 162.556 101.59C165.634 94.801 174.043 94.2674 180.133 91.6485ZM213.137 90.3873L213.337 90.4572C214.739 90.9511 216.145 91.5234 217.644 91.5657C222.347 93.1309 227.17 94.3327 231.952 95.639L232.415 95.7658C234.456 96.3269 236.517 96.968 237.894 98.6824C239.215 100.326 239.767 102.443 240.199 104.465C242.221 122.131 243.367 139.975 244.394 157.746C244.898 172.543 244.611 187.587 240.829 201.985C240.295 203.958 239.645 205.937 239.415 207.964C239.141 207.967 238.864 207.986 238.587 208.014C238.583 207.881 238.381 207.903 238.396 208.032C234.722 208.612 230.902 208.269 227.454 206.844C228.306 180.923 233.842 152.791 221.301 128.744C221.25 128.653 221.094 128.716 221.129 128.817L221.439 129.709C222.433 132.583 223.405 135.461 224.105 138.425C223.108 138.277 222.381 140.611 222.193 141.183C216.757 157.685 220.105 175.294 220.797 192.242C211.439 199.046 201.989 205.738 192.264 212.009C187.847 209.139 183.89 205.375 179.352 202.772C180.649 167.759 187.793 133.118 191.676 98.538C193.117 100.328 194.583 102.097 196.049 103.867C197.933 106.179 199.754 108.552 201.612 110.888C201.996 111.372 202.833 111.184 203.107 110.696C206.766 104.084 209.093 96.7808 213.137 90.3873ZM224.167 138.689C229.566 160.913 225.08 183.799 225.165 206.276C224.764 206.631 224.913 207.304 225.381 207.548C225.45 207.858 225.532 208.166 225.627 208.473C225.251 208.831 224.872 209.186 224.489 209.537C224.78 204.644 222.317 200.199 220.89 195.605C221.916 194.69 223.838 194.123 223.582 192.451C223.384 188.817 223.13 185.185 222.823 181.56L222.633 179.53C221.437 166.662 220.42 153.585 223.233 140.859L223.25 140.763C223.342 140.206 223.518 138.802 224.167 138.689ZM143.202 206.074L143.246 206.097L143.148 206.18C143.168 206.146 143.185 206.11 143.202 206.074ZM175.493 198.501C176.745 197.275 174.813 195.331 173.577 196.586C172.327 197.815 174.26 199.759 175.493 198.501ZM176.318 183.92C176.594 183.195 175.825 182.045 175.012 182.527L174.987 182.542L174.976 182.527C174.206 182.982 174.49 183.923 174.942 184.484C175.443 184.999 176.066 184.387 176.318 183.92ZM177.493 167.133C179.669 164.282 175.096 163.113 175.846 166.622C176.006 167.278 177.322 168.236 177.493 167.133ZM180.711 151.249C181.866 149.838 179.383 148.623 178.864 150.308C178.566 151.432 179.969 152.125 180.711 151.249ZM169.154 116.233C168.47 116.339 165.012 115.633 165.901 117.072C164.51 124.023 160.597 132.503 166.184 138.577L166.234 138.626C167.058 139.449 168.375 141.405 169.636 140.599C172.435 138.238 176.041 136.552 178.18 133.531C179.079 131.161 178.313 128.513 178.551 126.034C178.653 122.898 179.175 119.79 179.287 116.659C179.292 116.507 179.127 116.459 179.024 116.523C175.742 116.262 172.443 116.319 169.154 116.233ZM178.913 116.742C177.428 121.575 177.394 126.741 177.434 131.75C177.411 132.266 177.319 132.769 177.05 133.163C174.927 135.666 171.903 137.234 169.384 139.312C168.363 138.646 167.556 137.794 166.833 136.829C162.405 131.036 166.417 123.745 166.412 117.294L166.98 117.296C170.954 117.301 174.966 117.249 178.913 116.742ZM182.253 134.689L182.215 134.689C180.692 134.693 181.042 137.273 182.479 136.919C183.69 136.632 183.505 134.705 182.253 134.689V134.689ZM185.241 121.52C186.296 119.722 182.814 119.027 183.181 121.103L183.173 121.018C183.171 121.002 183.17 120.987 183.168 120.974L183.194 121.168V121.168C183.321 122.086 185.134 122.744 185.241 121.52ZM187.578 106.634C186.61 106.378 185.896 107.737 186.727 108.345C187.96 109.276 189.023 106.957 187.578 106.634ZM211.302 85.5796L211.42 85.4705C212.682 84.3112 213.629 83.7315 213.909 86.094C214.104 87.2462 213.937 88.6993 212.832 89.3807C207.543 94.6093 205.538 102.074 202.131 108.505C199.053 104.778 196.189 100.899 193.213 97.0974C197.313 94.5993 201.454 92.1205 205.498 89.5137C207.432 88.2288 209.512 87.0591 211.302 85.5796ZM184.677 88.6617C186.268 91.2578 187.736 94.0658 189.765 96.3632C190.023 96.6229 190.292 96.8289 190.569 96.9857C190.172 96.871 189.647 97.168 189.697 97.6032C186.744 100.546 184.33 103.969 182.024 107.433C181.583 101.703 182.424 95.9492 182.098 90.2103C182.848 89.5214 183.74 89.0495 184.677 88.6617Z" fill="black"/>
<path fill-rule="evenodd" clip-rule="evenodd" d="M173.741 58.1277C173.791 55.3164 173.847 52.4489 174.265 49.6649C174.673 46.9432 175.798 44.4831 177.73 42.5067C181.834 38.3085 187.783 37.2831 193.32 36.3434L202.787 34.7367C205.676 34.2467 208.757 33.4633 211.675 34.1583C213.113 34.5008 214.334 35.2964 215.451 36.2377C216.526 37.1451 217.683 38.1194 218.412 39.3401C219.142 40.5625 219.393 41.9915 219.631 43.3741C219.898 44.9328 220.106 46.5038 220.254 48.0784C220.55 51.2334 220.591 54.412 220.376 57.5734C220.272 59.1068 220.106 60.6359 219.895 62.1581C219.79 62.9129 219.672 63.6659 219.538 64.4162C219.498 64.6375 219.468 64.8824 219.428 65.1299C219.727 65.979 219.896 66.8583 219.883 67.7339C219.842 70.3131 217.665 71.9368 215.469 72.8086C214.197 73.3141 212.866 73.6576 211.615 74.2223C210.3 74.8163 209.404 75.7792 208.504 76.8776C206.789 78.9726 204.853 80.8555 202.642 82.4265C197.955 85.7572 192.018 87.3325 186.331 86.1368C184.967 85.8499 183.59 85.4044 182.364 84.7332C181.069 84.0245 180.095 82.9976 179.277 81.7834C177.759 79.5294 176.67 76.9913 175.846 74.4085C175.006 71.7739 174.41 69.1345 174.085 66.3874C173.761 63.6491 173.692 60.883 173.741 58.1277V58.1277Z" fill="white"/>
<path fill-rule="evenodd" clip-rule="evenodd" d="M203.953 24.9436C200.035 24.4049 194.627 26.1559 192.676 29.6865C183.361 27.4912 171.613 27.4192 163.935 34.7276C155.924 43.397 165.986 54.8276 172.659 57.4047C172.173 59.7649 172.93 74.885 178.29 81.6294C182.543 87.3439 192.448 89.9811 197.032 83.1557L197.068 83.0993C197.559 82.3111 197.136 82.3364 196.632 82.9227C192.143 86.8685 186.041 86.9359 181.339 82.7718C172.525 75.1606 173.434 56.4984 177.628 45.7021C189.569 44.3909 202.355 48.0093 210.603 56.9957L210.045 60.3524C209.95 60.9243 209.842 61.4957 209.76 62.0696C209.707 62.4373 209.702 62.803 209.956 63.1006C210.798 64.0832 212.216 62.6067 213.383 62.0194C213.727 61.9709 214.072 61.9522 214.411 61.9761C220.017 62.6979 218.912 73.5694 212.751 71.6638C212.233 71.3414 211.788 71.4398 211.587 71.9077C210.119 73.2524 209.151 75.6509 206.711 77.961C205.85 78.8275 205.066 79.5525 204.098 80.2476C203.529 80.8226 201.813 81.4089 202.357 82.3929C203.386 84.632 209.453 77.5987 210.525 75.6536C213.886 76.9804 217.611 76.5297 221.094 76.2054C239.467 75.2504 237.015 55.888 221.954 43.6635C219.119 41.5771 215.991 39.875 212.74 38.5652C212.296 38.3864 212.49 37.6578 212.94 37.8391C215.091 38.7059 217.189 39.7376 219.188 40.9317L219.191 40.2178C219.194 39.0154 219.175 37.7636 218.966 36.665C218.862 35.9038 218.686 35.0907 218.416 34.479C218.081 32.6038 212.845 26.1669 203.953 24.9436ZM214.656 64.472C214.372 64.2026 213.843 64.5238 213.59 64.5158C212.944 64.6041 212.331 64.8768 211.852 65.2134C211.536 65.3904 211.315 65.5565 211.13 65.7094L211.125 65.708C211.126 65.708 211.128 65.7094 211.129 65.7097L211.112 65.7215C210.842 65.9129 209.856 66.9908 210.479 66.7009C210.526 66.6405 210.573 66.5826 210.621 66.5257C210.626 66.5335 210.634 66.5411 210.642 66.5485L210.607 66.6005C210.077 67.3969 210.992 66.5578 211.132 66.335C211.139 66.3404 211.147 66.344 211.154 66.3479L210.971 66.5708C210.945 66.6024 210.925 66.6277 210.908 66.6491L210.87 66.6864C210.257 67.2881 210.238 67.8296 210.95 66.94C210.922 66.9819 210.899 67.0263 210.896 67.0657L210.854 67.1194C210.295 67.839 210.75 67.5834 211.027 67.2761L211.05 67.2497L211.046 67.2569C210.788 67.6545 211.3 67.3755 211.39 67.1628L211.394 67.1532C211.493 67.0727 211.554 66.9824 211.574 66.9596L211.578 66.9558C212.059 66.4638 212.755 66.0476 213.346 65.8585C213.432 65.8421 213.519 65.8291 213.606 65.8198C213.962 65.7405 214.321 65.6862 214.685 65.6568C214.729 65.6515 214.774 65.6189 214.808 65.5767C215.357 65.5582 215.188 65.3331 214.96 65.2913L214.956 65.2906L215.001 65.2868C215.353 65.2524 215.594 65.126 215.238 65.0483L215.193 65.0394C215.198 65.0307 215.203 65.022 215.208 65.0134C215.513 64.9799 215.314 64.6832 215.144 64.755C215.216 64.5219 214.89 64.6383 214.849 64.6036C214.818 64.5693 214.78 64.5389 214.757 64.5373C214.659 64.468 214.707 64.4743 214.656 64.472ZM212.788 60.6989L212.859 60.7407C212.917 60.7745 212.977 60.7969 213.037 60.8101C212.952 60.846 212.869 60.8848 212.786 60.9262C212.788 60.8756 212.789 60.825 212.789 60.7746L212.788 60.6989Z" fill="black"/>
<path fill-rule="evenodd" clip-rule="evenodd" d="M187.926 76.1655C188.77 75.8213 189.522 75.2473 190.073 74.514C190.264 74.259 190.314 73.9898 190.274 73.7436C190.229 73.4667 190.065 73.2158 189.841 73.0475C189.617 72.8787 189.337 72.7954 189.066 72.8378C188.83 72.8747 188.596 73.0036 188.41 73.271L188.371 73.3245C188.044 73.7671 187.618 74.1303 187.132 74.3643C186.663 74.5899 186.14 74.6952 185.598 74.634C184.565 74.5174 183.854 73.9593 183.097 73.2013C183.004 73.1057 182.91 73.007 182.816 72.9067C182.756 72.8158 182.674 72.7574 182.582 72.7267C182.48 72.6927 182.365 72.6946 182.259 72.7314C182.158 72.7669 182.067 72.8342 182.006 72.9237C181.948 73.0088 181.915 73.114 181.925 73.2349C181.995 74.0204 182.405 74.7214 182.989 75.2718C183.637 75.8832 184.496 76.3061 185.305 76.4544C186.196 76.6178 187.104 76.5008 187.926 76.1655V76.1655ZM184.884 64.0479C183.936 64.6239 182.492 65.9671 183.512 67.3951C184.712 68.6542 186.44 67.2106 187.292 66.5576C188.082 66.0516 188.969 67.3531 188.236 67.9439C182.082 72.4987 179.585 64.1985 184.405 63.3706C184.936 63.2794 185.133 63.8697 184.884 64.0479ZM195.912 58.7494C195.808 57.4498 193.828 57.1547 193.631 58.4407C193.454 59.5928 193.662 60.6511 194.181 61.6883C194.677 62.6792 195.924 62.2169 196.018 61.3146C196.144 60.1051 195.977 59.5579 195.912 58.7494ZM180.841 58.1741C180.565 57.8126 180.166 57.5659 179.689 57.7054C178.197 58.1412 178.636 60.2587 179.16 61.2893C179.445 61.849 180.365 61.991 180.781 61.4982C181.459 60.6945 181.784 59.0895 180.922 58.2979C180.899 58.257 180.873 58.2157 180.841 58.1741ZM194.202 53.0626L193.966 53.0213C193.237 52.8953 192.331 52.7742 191.815 53.3601C191.542 53.6709 191.447 54.2484 191.815 54.5458C192.462 55.0691 193.177 54.8663 193.952 54.9106C194.591 54.9472 195.204 55.0529 195.82 55.2287C197.169 55.6144 198.269 56.3184 199.422 57.0914C199.573 57.1928 199.727 56.9994 199.655 56.858C198.99 55.555 197.7 54.4847 196.409 53.8322C195.719 53.484 194.965 53.1951 194.202 53.0626ZM182.201 52.4789L182.02 52.5158C180.057 52.926 177.507 53.7454 176.578 55.6729C176.542 55.9455 176.58 56.0039 176.61 56.042L176.62 56.0547C176.645 56.0873 176.665 56.1323 176.783 56.1693C176.816 56.1615 176.849 56.1533 176.883 56.1445C177.309 56.0329 177.646 55.8791 177.972 55.7195L178.326 55.5452C178.737 55.344 179.151 55.1501 179.59 55.0069C180.527 54.7015 181.49 54.4863 182.468 54.3714C182.681 54.3465 182.885 54.275 183.046 54.1523C183.199 54.0359 183.316 53.8748 183.369 53.6606C183.438 53.3833 183.418 53.1735 183.269 52.9234C183.157 52.7355 182.997 52.6054 182.813 52.5306C182.626 52.4544 182.413 52.4364 182.201 52.4789Z" fill="black"/>
<path fill-rule="evenodd" clip-rule="evenodd" d="M179.698 79.0263C180.136 78.883 180.566 78.7162 180.998 78.5555C183.209 77.4455 185.879 77.2442 188.197 78.179C189.335 78.6378 190.396 79.4622 191.538 80.0024C191.809 80.1036 192.082 80.1954 192.359 80.2725C192.528 80.2135 192.698 80.1507 192.866 80.088C194.077 79.6317 195.216 79.0689 196.322 78.4497C196.44 78.2836 196.562 78.1223 196.694 77.9673C195.893 77.8537 195.11 77.665 194.401 77.4702C192.224 76.8741 190.173 75.9028 188.004 75.2803C185.984 74.6993 183.792 74.3818 181.764 75.1034C180.801 75.446 179.954 76.0458 179.017 76.4499C178.533 76.6583 177.951 76.8628 177.385 76.8929C177.751 77.7676 178.213 78.5846 178.844 79.2648C179.133 79.2033 179.419 79.1167 179.698 79.0263ZM174.988 72.1754C175.181 72.3364 175.981 72.8559 176.241 73.1656C176.308 73.1402 176.374 73.1141 176.441 73.0872C176.555 72.9471 176.723 72.8857 176.894 72.8894C178.09 72.3332 179.155 71.5473 180.106 70.5618C180.781 69.8628 181.473 69.1311 182.375 68.7258C183.438 68.2464 184.484 68.4673 185.601 68.5401C186.79 68.6191 187.964 68.2815 189.151 68.4434C190.02 68.5626 190.833 68.9303 191.536 69.4486C192.971 70.5065 193.96 71.9924 195.173 73.2737C196.549 74.7269 198.241 75.6556 200.123 76.1299C200.145 76.1149 200.169 76.0998 200.193 76.086C201.58 74.8311 202.833 73.4142 203.941 71.9045C205.023 70.43 207.877 63.7926 208.566 63.2103C208.852 62.9681 209.166 62.864 209.466 62.8728C210.009 62.8853 210.512 63.263 210.736 63.8579C211.118 64.8694 210.927 66.177 210.897 67.2349C210.859 68.53 210.774 69.8239 210.638 71.1127C210.504 72.3864 210.326 73.6564 210.104 74.9177C209.992 75.5552 209.868 76.1914 209.731 76.8252C209.688 77.0247 209.634 77.2029 209.569 77.3685C209.502 77.681 209.431 77.9922 209.354 78.301C208.855 80.3227 208.066 82.3469 206.561 83.839C204.994 85.3939 202.865 86.4267 200.888 87.3503C199.005 88.23 197.032 89.0119 195.007 89.6243C193.249 90.4211 191.366 91.0511 189.475 91.3824C187.394 91.7476 185.206 91.7702 183.196 91.0474C182.208 90.6922 181.274 90.1965 180.427 89.5791C179.226 88.9554 178.145 88.0983 177.26 86.9638C175.675 84.9306 174.918 82.4633 174.587 79.9191C174.502 79.268 174.184 76.7722 174.159 76.3837C174.078 75.1288 173.997 73.874 173.916 72.6191C173.878 72.0269 174.605 71.8579 174.988 72.1754Z" fill="black"/>
<path fill-rule="evenodd" clip-rule="evenodd" d="M174.305 62.1737C174.66 63.1395 175.2 64.1449 175.861 64.9577C178.534 67.2206 181.132 65.9677 182.45 62.9008C182.951 60.7334 181.621 58.3987 180.211 56.8043C178.175 54.7642 174.852 55.8349 173.916 58.2602C173.859 58.5744 173.825 58.8879 173.808 59.2004C173.828 60.2157 173.95 61.0835 174.305 62.0482M199.999 60.2259C196.477 56.0385 189.889 55.8147 190.058 62.2594C190.814 70.417 203.552 68.4147 199.999 60.2259ZM173.198 56.7328C173.321 56.5238 173.458 56.3217 173.608 56.1283C173.663 56.0954 173.694 55.8037 173.898 55.7822C176.612 52.788 181.382 54.4868 183.105 57.4703C183.42 57.8475 183.676 58.2891 183.866 58.7557C185.564 58.4444 187.543 58.5049 189.122 59.146C190.688 55.0584 195.429 54.6935 198.553 56.44C200.496 57.3954 201.756 59.3961 203.646 60.4952C208.088 60.8148 212.856 59.8198 217.218 60.9338C220.658 61.6489 217.782 63.3903 217.205 62.2281C213.093 61.0134 208.22 62.0399 203.95 61.7662C203.506 62.517 202.655 63.1314 201.806 63.1052C200.889 71.2273 189.041 69.8805 188.633 62.6605C188.169 61.9277 187.593 61.2264 186.767 60.7699C186.451 60.7045 186.146 60.6196 185.867 60.488C185.391 60.4208 184.656 60.6228 184.217 61.0196C182.715 70.0321 174.059 68.9825 172.512 61.0872C172.481 61.0558 172.395 60.9381 172.329 60.7492C171.8 60.0493 170.504 59.7892 170.711 58.6076C170.895 57.4259 172.388 57.4399 173.198 56.7328Z" fill="black"/>
<path fill-rule="evenodd" clip-rule="evenodd" d="M140.64 181.619C139.332 169.774 137.354 157.624 132.358 146.653C130.642 132.465 133.534 112.146 120.391 102.579C120.559 100.88 117.515 99.4163 116.104 98.5096C113.811 97.0079 110.711 94.0573 107.998 95.7103C107.142 95.449 105.031 96.5184 104.059 94.1991C103.064 91.8234 103.209 87.0598 102.415 86.6249C102.765 83.192 87.3346 80.8951 83.3073 85.7475C81.395 89.4694 83.5915 90.6541 79.2796 95.5466C77.3755 95.6636 75.5592 96.1464 73.803 96.8083C72.353 97.0089 70.9107 97.2528 69.4748 97.5066C51.1617 99.2016 49.7772 112.754 48.1541 127.308C46.7643 146.858 40.7277 166.335 43.3375 186.039C41.8951 193.085 41.8002 200.603 43.5226 207.582C37.8752 215.831 41.9688 220.395 45.4912 228.238C46.0873 229.649 46.6061 231.102 46.8699 232.607C46.8003 233.774 46.808 234.941 47.013 236.099C47.6108 238.737 52.0075 238.368 52.2034 235.703C52.5473 233.952 52.4407 232.137 52.7074 230.377C52.6919 230.469 52.6649 230.645 52.6649 230.659C53.3097 226.232 54.3491 224.516 57.2201 221.139C60.9064 215.809 58.6396 209.112 59.4809 203.147C59.7115 201.154 60.0164 199.187 60.2205 197.19C61.4635 197.921 62.8147 198.531 64.2264 198.912C63.3369 205.776 64.8841 212.673 66.6043 219.312C71.2601 236.416 77.4327 253.979 74.7517 271.927C74.7529 271.918 71.8283 286.596 69.5184 293.841C66.7255 303.029 64.4768 312.233 60.5255 321.043C58.4093 327.385 53.932 333.401 54.1059 340.227C52.5601 342.513 55.3433 345.26 57.796 345.253C57.796 348.348 56.1617 354.18 56.1617 354.18C55.9049 356.342 54.799 359.095 56.471 360.932C54.198 366.72 53.3994 372.984 52.7756 379.11C52.5373 382.016 52.264 385.519 55.3754 387.167C58.2743 388.421 61.6491 387.869 64.7445 388.243C67.7393 388.247 70.8384 389.032 73.7837 388.355C77.1666 387.391 77.8476 383.728 77.2106 380.798C76.7997 377.747 76.3074 374.706 75.7686 371.674C74.1701 365.072 73.7227 357.746 71.675 351.394C72.8222 351.18 73.9734 350.602 74.7517 349.759C76.729 349.694 78.1869 348.222 78.6712 346.483C79.0209 345.361 80.5264 345.131 81.5404 344.774C81.73 345.742 82.2841 346.556 82.7352 347.437C82.3499 349.307 83.6359 351.493 85.759 351.537C86.0657 351.831 86.3506 352.132 86.6638 352.413C84.2495 355.966 82.4592 359.977 82.0057 364.208C81.4593 367.453 80.8875 372.653 85.1841 373.614C86.8062 373.828 88.5518 374.243 90.1413 373.653C91.9134 374.448 93.7975 374.829 95.7055 375.169C103.883 376.549 111.77 376.433 120.016 377.36C122.191 377.662 130.907 378.557 132.358 377.36C134.128 377.721 133.058 376.402 133.802 375.169C134.395 374.243 135.979 372.47 134.957 371.956C132.812 371.031 130.911 369.211 128.949 368.178C119.779 362.96 100.001 354.074 100.138 353.824C100.111 354.001 100.258 349.534 100.991 348.348C102.022 347.326 104.078 347.506 105.154 346.528C105.837 346.56 110.963 345.086 110.524 342.617C109.962 340.646 111.798 338.231 110.524 336.567C114.743 298.034 124.562 260.663 129.98 222.336C130.1 222.23 130.219 222.124 130.339 222.019C133.133 222.486 135.303 219.681 136.152 217.471C136.56 217.056 136.953 216.629 137.314 216.166C139.591 213.206 139.632 209.351 139.891 205.829C140.454 205.415 140.816 204.773 140.847 204.012C140.937 201.749 141.033 199.485 141.128 197.222C141.129 197.222 141.129 197.222 141.129 197.221C141.831 196.096 141.926 194.829 141.726 193.539C141.8 189.366 142.443 185.457 140.64 181.619Z" fill="white"/>
<path fill-rule="evenodd" clip-rule="evenodd" d="M83.2149 85.3361C83.2571 84.9666 83.7502 84.9722 83.7972 85.3361C84.3156 89.7329 82.579 94.7807 78.3078 96.8297C81.5104 99.6579 83.7645 103.439 87.6076 105.574C95.6711 110.826 107.324 105.912 109.117 96.6496C107.127 96.1933 103.419 96.232 102.814 93.9074C102.522 93.6081 102.372 91.0436 102.39 89.1524C102.372 88.8007 102.36 88.4487 102.348 88.0994C102.318 87.8163 102.309 87.5277 102.312 87.2376C102.319 86.6079 103.261 86.6202 103.301 87.2376C103.317 87.4907 103.328 87.747 103.338 88.0045C103.345 88.0724 103.355 88.1402 103.363 88.208C103.493 88.679 103.582 89.1712 103.688 89.6182C103.745 89.8588 103.804 90.1022 103.868 90.3451C103.959 90.982 104.121 91.6042 104.4 92.1934C105.141 93.76 106.967 95.1051 108.768 95.1196C109.154 95.1227 109.537 95.0661 109.923 95.0758C110.552 95.0918 111.066 95.3408 111.627 95.5945C112.133 95.8234 112.609 95.9782 113.097 95.9775C133.255 102.812 130.479 127.831 133.55 144.746C136.679 161.545 143.143 177.74 144.094 194.908C144.38 196.688 142.413 197.349 141.193 198.191C140.868 202.67 142.753 207.203 141.446 211.636C140.236 215.26 135.36 223.973 130.701 222.601C125.418 262.743 113.139 299.946 111.977 340.577C113.153 343.975 109.776 346.441 106.661 346.938L106.236 347.183C104.816 347.998 103.349 348.795 101.795 349.299C101.756 349.322 101.717 349.345 101.678 349.366C101.602 349.408 101.521 349.432 101.438 349.445C101.525 350.485 101.853 351.462 102.277 352.411C108.741 353.902 114.417 357.816 120.495 360.375C124.415 362.787 136.383 366.27 137.292 370.506L137.316 370.634C137.681 372.532 136.66 374.873 134.499 375.053C135.627 375.888 134.888 377.575 133.659 377.9C132.182 378.293 130.579 378.126 129.059 378.248C114.718 378.698 100.25 377.431 86.2717 374.216C85.0977 373.945 83.875 373.591 82.8856 372.89C76.8192 368.089 83.1335 357.929 84.6246 351.701C84.0831 351.615 83.5477 351.497 83.0217 351.341L82.9041 351.305C82.393 351.151 81.8645 350.965 81.4675 350.604C81.4513 350.589 81.4376 350.573 81.4221 350.557C78.8665 350.521 81.4694 344.894 81.6992 343.388C80.6606 345.6 79.8126 347.96 78.5687 350.066C77.7122 351.365 75.834 350.464 74.5725 350.373C74.9921 358.07 76.8294 365.575 78.7164 373.033C80.2489 379.226 82.8796 386.668 74.1982 388.55C68.2187 390.117 53.9699 389.518 51.4212 382.972C50.6696 377.642 52.3157 372.24 53.1298 366.987L53.2726 366.24C54.2445 361.133 55.143 356.003 56.5524 350.992C56.7463 350.176 56.9851 349.376 57.2421 348.582C57.2755 348.119 57.2999 347.655 57.2698 347.19C57.2305 346.58 57.1153 345.983 56.9931 345.386C56.9774 345.31 56.9633 345.222 56.9489 345.127C54.4311 343.966 52.5615 342.652 52.3203 341.235C52.0734 339.89 52.5724 338.526 52.9424 337.242L52.964 337.167C61.0726 308.694 76.4966 283.036 73.868 252.665C72.9012 237.726 65.8264 223.988 64.6326 209.088C63.946 206.116 63.3259 203.114 63.2262 200.05C62.8019 199.95 62.3746 199.859 61.9527 199.749C61.7051 201.074 61.3921 202.388 60.8788 203.625C60.681 206.069 60.8075 208.541 61.233 210.959C61.331 211.516 61.0597 212 60.6005 212.178C61.7039 215.617 61.9215 219.929 59.076 222.592L58.8402 222.748C56.3683 224.394 56.11 224.86 55.535 227.926L53.6423 235.674C53.405 236.633 53.1207 237.61 52.4369 238.363C50.6222 240.361 47.7337 239.057 46.7979 236.927C45.9437 234.746 45.9502 232.344 45.3266 230.097C44.8525 227.776 43.538 225.794 42.2351 223.848C39.3226 219.381 39.0901 213.161 42.3376 208.785C42.6213 208.061 42.881 207.349 43.1823 206.637C42.0585 205.319 42.7818 203.242 42.6527 201.629C42.6506 200.297 42.6261 198.966 42.5855 197.634C42.3485 189.772 41.5387 181.958 41.5093 174.095C41.1943 163.497 43.9834 153.231 45.6004 142.837C46.9907 132.573 46.9167 122.108 49.1914 111.963C53.4247 92.0499 77.1796 99.6415 81.1984 91.7945C82.4128 89.831 82.9564 87.5965 83.2149 85.3361ZM54.1982 380.531C53.8389 383.179 55.6987 383.815 57.8313 384.62C63.2689 386.614 69.5472 387.087 75.0741 385.185C76.0535 384.771 76.7542 384.151 77.1022 383.243C69.4318 383.943 61.3773 383.434 54.1982 380.531ZM83.4413 368.74C83.9226 371.118 86.987 371.398 89.0388 371.798C93.939 372.823 98.8869 373.647 103.862 374.229C113.504 375.392 123.258 375.592 132.947 375.151C133.209 375.038 133.377 374.82 133.707 374.821L133.748 374.822C133.766 374.822 133.784 374.824 133.802 374.824C133.641 374.718 133.503 374.578 133.401 374.414C116.747 372.583 99.9916 371.337 83.4413 368.74ZM99.723 348.348C95.7231 349.043 91.6403 349.409 87.6015 348.778C87.3291 352.12 86.0353 355.366 85.0174 358.564C90.5976 360.039 94.2908 353.849 99.2822 352.67C98.9994 351.191 99.0996 349.638 99.723 348.348ZM58.4953 345.793C58.5087 345.816 58.5158 345.844 58.5131 345.877C58.4937 349.772 58.0989 353.652 57.5251 357.506C61.0706 353.685 67.0046 352.717 71.8917 354.306L71.8703 354.058C71.7447 352.647 71.5569 351.202 71.787 349.804L71.563 349.741C69.0423 349.046 63.1153 347.651 58.4953 345.793ZM131.526 198.928C109.693 204.789 86.453 205.157 64.3924 200.311C65.4926 203.839 66.3188 207.432 66.9025 211.073C68.1534 220.438 71.5993 229.289 73.9205 238.414C76.5986 249.183 77.2367 258.251 75.9038 269.252L75.8628 269.585C72.9281 294.254 60.9102 316.773 55.2641 340.722C61.9086 344.756 70.1168 346.332 77.7356 348C82.5239 338.123 86.57 327.994 89.2214 317.359C98.7731 283.976 111.359 252.544 108.563 217.299C107.94 216.89 108.143 216.027 108.485 215.476C108.367 212.933 108.203 210.393 107.935 207.864C107.926 207.779 108.069 207.762 108.087 207.844C108.53 210.01 108.996 212.17 109.385 214.347C112.069 211.615 113.805 208.2 116.166 205.236C116.502 207.449 111.9 216.023 109.875 217.349C114.19 243.852 107.005 268.114 99.2454 293.32C94.0237 311.418 88.9503 329.569 83.5629 347.618C83.6282 347.619 83.6936 347.62 83.759 347.622C83.435 347.025 90.2916 347.437 90.8546 347.138C95.904 346.66 100.846 345.463 105.758 344.263L106.36 344.107C107.584 343.786 109.004 343.323 109.225 342.015L109.228 341.85C109.229 341.801 109.231 341.762 109.235 341.759L109.2 341.611C109.193 341.578 109.187 341.551 109.188 341.543L109.14 341.47C109.083 341.389 109.031 341.317 109.106 341.4C108.551 340.793 108.5 339.856 109.141 339.277C110.341 295.192 124.536 254.844 129.793 211.253C130.314 207.137 130.95 203.037 131.526 198.928ZM44.5592 207.464C42.0348 210.6 41.6012 214.976 42.5964 218.798C43.119 220.695 44.1757 222.292 45.2651 223.919C47.1754 226.631 48.0663 229.782 48.5523 233.011L48.566 233.072C48.7877 234.11 48.9252 236.974 50.3913 236.651C50.7764 236.404 50.9608 235.316 51.0963 234.747L52.7887 227.817C53.2786 225.811 53.5724 223.426 55.3083 222.037L55.5134 221.907C56.9314 220.995 58.3146 219.937 58.5371 218.159C59.0256 215.981 58.1173 213.872 57.7779 211.754C53.251 210.719 48.8313 209.257 44.5592 207.464ZM140.64 198.51L140.488 198.585C138.747 199.452 133.552 202.261 132.212 201.182C132.244 207.601 131.729 213.988 130.976 220.355C131.169 220.313 131.367 220.318 131.545 220.383C135.323 219.338 139.427 212.197 139.744 208.527C140.002 205.186 139.339 201.702 140.64 198.51ZM78.5382 100.13L78.3458 99.8754C76.3009 97.1848 75.1535 96.2239 71.6173 97.6595C72.0927 98.2477 72.3164 99.036 72.1138 99.8522L72.1002 99.9043C70.9846 104.494 65.2617 107.153 61.0728 104.656C59.6093 105.037 58.0833 103.985 58.0244 102.494C53.8793 104.934 51.9641 109.403 51.1868 113.893C53.9078 112.461 57.5668 113.827 58.6527 116.675C61.033 121.88 54.0963 127.295 49.8662 122.912C48.9497 131.692 48.5195 140.538 46.8499 149.227C48.0872 147.192 51.0374 146.713 52.7966 148.387C58.5569 153.359 51.9316 164.654 44.9684 159.269C44.1245 164.105 43.8267 169.01 43.8663 173.903C46.0976 173.043 47.3191 176.899 47.4809 178.531C47.6829 180.495 46.6686 184.613 44.2918 184.846L44.4873 187.987C44.8194 193.371 45.1145 198.749 45.0406 204.146C45.1601 204.176 45.2619 204.23 45.3471 204.301C45.3533 204.457 45.374 204.613 45.4036 204.767C45.4329 204.92 45.5301 205.001 45.6447 205.026L45.6487 205.032C45.6435 205.14 45.6223 205.248 45.5817 205.351C49.9444 207.177 54.4481 208.685 59.0352 209.872C58.9225 208.345 58.9511 206.823 59.1099 205.315C57.3755 203.666 59.5088 197.68 59.7134 195.353C60.5148 190.692 61.1247 186.002 61.6639 181.305C60.0539 181.167 59.2295 179.487 58.8062 178.119C58.2543 176.613 57.9215 175.005 58.3101 173.421C58.7043 171.536 60.817 169.734 62.8094 170.398L62.9349 169.135C63.7238 161.136 64.4131 153.124 65.5942 145.169C61.737 147.321 58.0947 142.642 59.0264 139.01C59.2991 137.468 60.2382 135.974 61.6239 135.173C62.8496 134.469 65.383 133.771 66.1866 135.32C66.5631 135.369 66.9158 135.552 67.1822 135.823C68.0155 131.509 69.029 127.162 70.6417 123.073C65.5442 119.872 66.4978 111.812 73.2068 111.801C82.254 112.576 79.8472 125.77 71.1212 123.289C68.3804 139.802 66.801 156.451 65.3992 173.116C66.4542 174.835 66.2871 177.385 64.8395 178.832C64.2099 184.861 63.4461 190.877 62.4427 196.857C69.0796 198.336 75.7982 199.559 82.5899 200.123C82.9164 198.022 85.2016 196.902 87.1764 196.733C88.4841 196.593 89.9067 197.089 91.1558 197.326C92.6652 197.904 93.9 199.231 94.4514 200.679C100.792 200.718 107.135 200.317 113.416 199.496C112.782 196.337 117.381 193.93 120.181 194.421C121.301 194.559 122.394 194.983 123.234 195.739C124.054 195.913 124.825 196.621 125.029 197.474C127.252 196.945 129.53 196.542 131.678 195.757C133.787 195.066 134.475 193.331 133.929 191.28C127.967 193.667 122.908 184.196 128.597 180.77C129.326 180.231 130.843 179.883 131.27 180.902C131.343 180.914 131.415 180.93 131.487 180.947C131.013 178.998 130.537 177.05 130.061 175.102C127.327 174.841 126.415 170.832 128.685 169.423C127.912 166.191 127.163 162.953 126.46 159.706C122.714 160.478 119.609 155.82 120.402 152.455L120.427 152.354C120.874 150.525 122.236 148.726 124.247 148.422C123.772 145.674 123.348 142.916 122.99 140.15C122.472 139.598 122.24 138.776 122.441 138.049C122.588 132.731 121.508 127.255 121.943 121.861C117.968 126.69 109.685 123.403 111.577 117.031C111.466 111.128 119.861 109.036 122.692 114.255C122.995 113.141 123.385 112.034 123.576 110.886C123.605 110.754 123.808 110.781 123.82 110.905L123.821 110.919C124.243 118.467 123.932 126.065 124.743 133.605C127.772 133.754 129.01 140.974 125.719 141.493C126.963 149.887 128.832 158.172 130.864 166.418C134.394 165.512 135.759 173.095 132.853 174.37C133.699 177.722 134.54 181.074 135.362 184.432L135.378 184.425C135.804 183.692 136.942 183.774 137.673 183.913C140.089 184.803 139.068 189.172 136.438 188.904C137.872 193.219 136.963 197.223 132.176 198.705L132.179 198.842C132.327 198.727 132.507 198.633 132.725 198.572C135.716 197.733 138.509 196.429 141.087 194.738C140.329 182.28 136.719 170.203 133.799 158.118C130.443 157.583 129.372 152.211 131.99 150.233C130.178 142.209 129.656 134.004 128.769 125.856C126.352 125.329 125.741 121.453 127.923 120.266C126.54 110.147 121.333 101.617 111.617 97.279C111.302 98.7193 110.78 100.118 110.08 101.427C110.146 101.43 110.209 101.438 110.271 101.449C110.287 101.478 110.307 101.506 110.334 101.534C110.86 102.072 111.197 102.677 111.411 103.325C111.432 103.464 111.454 103.603 111.478 103.742C111.454 103.799 111.428 103.855 111.398 103.91C112.439 107.865 107.56 109.886 104.266 109.001C103.755 108.901 103.421 108.615 103.243 108.253C97.4108 111.387 89.7989 110.726 84.5448 106.584C80.726 108.621 75.809 103.862 78.5382 100.13ZM51.1696 188.783C56.7502 187.963 58.5755 196.923 54.0777 199.411C52.6275 200.271 50.6333 200.345 49.2055 199.395C45.4035 197.095 46.461 189.255 51.1696 188.783ZM72.4116 183.421C79.514 183.391 80.1216 194.276 73.9266 196.236C69.3196 197.565 64.8067 192.466 67.1694 188.214C67.3877 185.569 69.6791 183.46 72.4116 183.421ZM94.5423 184.409C94.9117 181.597 97.8633 178.911 100.834 179.685C103.556 180.37 104.266 183.539 104.749 185.887C105.846 190.747 100.318 195.674 95.6601 192.998C92.6847 191.225 92.2497 186.885 94.5423 184.409ZM110.405 167.999C111.4 166.421 113.63 165.726 115.451 166.276C120.445 167.863 119.852 175.83 115.833 178.205C108.93 181.8 103.425 171.463 110.405 167.999ZM77.8815 172.653C77.7647 167.919 82.6732 163.609 87.2841 166.3C94.747 171.278 87.1042 182.697 79.9439 176.297C78.6677 175.477 77.9137 174.147 77.8815 172.653ZM68.5971 160.573C65.1431 155.22 71.0751 147.283 76.7362 152.413C78.6778 154.396 78.5911 158.033 77.4671 160.391C75.6387 163.541 70.5609 163.614 68.5971 160.573ZM93.6776 150.533C96.3731 147.958 101.083 147.931 103.131 151.329C105.559 155.521 102.662 162.693 97.1891 162.352C91.5031 161.951 89.9455 153.996 93.6776 150.533ZM79.5548 142.163C75.2295 137.753 79.9258 130.68 85.7918 132.383C95.3787 135.894 87.0586 149.104 79.5548 142.163ZM103.165 141.168C99.3128 134.174 108.672 127.886 113.434 134.617C117.087 140.714 107.225 147.753 103.165 141.168ZM90.5997 121.272C87.2662 115.443 93.0915 108.965 99.212 112.387C107.921 118.406 96.7731 129.983 90.5997 121.272Z" fill="black"/>
<path fill-rule="evenodd" clip-rule="evenodd" d="M97.4441 35.9561C103.064 35.9561 109.808 38.6799 110.381 38.7344L110.396 38.7352C110.698 38.7352 111.877 39.6329 113.932 41.4283L111.706 45.7696L111.886 45.9416C112.748 46.768 113.484 47.5213 114.065 48.1151C118.809 52.9634 119.662 71.9995 118.544 78.638C117.426 85.2766 115.355 91.7725 105.715 91.7725C96.0741 91.7725 85.3488 85.9775 83.6966 84.1729C82.5951 82.9698 81.3579 82.3934 79.985 82.4437C79.9285 82.3726 79.8726 82.3016 79.817 82.2308L79.615 82.2022C77.7149 81.9271 76.3534 81.5568 75.5305 81.0914C73.9234 80.1824 72.1569 75.4037 72.1569 74.351C72.1569 73.3088 69.5191 65.7275 69.4664 64.9252L69.4656 64.903C69.4656 64.2323 66.0196 61.1492 66.0196 60.1701C66.0196 59.191 65.3251 59.2504 66.0196 55.8001L66.2214 54.7865C66.9606 51.113 68.4073 45.0301 73.9234 42.3869C79.985 39.4824 91.7672 35.9561 97.4441 35.9561Z" fill="white"/>
<path fill-rule="evenodd" clip-rule="evenodd" d="M72.9875 42.2505C76.0106 39.0427 93.1733 34.0809 101.856 35.1327L102.117 35.1664C102.81 35.2542 103.493 35.3873 104.167 35.568C106.345 36.0766 108.595 36.8468 110.395 38.1332C111.898 39.1856 116.638 40.9042 115.241 43.6573C115.759 44.6385 115.953 45.8508 115.603 46.8172C115.559 47.1511 115.456 47.4585 115.324 47.7773C116.431 49.4101 117.307 51.2566 118.016 53.0129C119.256 57.4329 120.027 62.0327 120.14 66.5424C120.516 75.1101 119.577 85.3442 112.112 90.8845C107.603 94.3952 100.54 94.5132 95.4725 90.1603C95.1849 89.8201 93.8325 88.902 94.2838 88.741C94.4181 88.8828 94.5562 89.0208 94.6968 89.1563C94.6904 89.1413 94.6891 89.1262 94.6918 89.1099L94.5595 88.9902C94.3105 88.7599 93.9879 88.4259 94.3554 88.4912C94.3716 88.5101 94.3893 88.5264 94.4067 88.5452C94.4845 88.5919 94.5433 88.6323 94.5891 88.668L94.6126 88.6868L94.6053 88.6793C94.3937 88.4536 94.2668 88.2235 94.5832 88.3705L94.6251 88.3908C94.7658 88.5389 94.9088 88.6807 95.0544 88.8188C95.0521 88.8025 95.0544 88.7861 95.0634 88.7686L94.9276 88.6375C94.7951 88.5076 94.8153 88.5071 94.8801 88.4021C94.5984 88.0075 95.1242 88.2419 95.1611 88.3959C95.4902 88.318 95.779 88.9355 95.9909 89.0108C105.28 96.1501 118.76 89.8153 118.542 69.9214L118.539 69.5322C118.475 63.171 117.939 56.6328 115.307 50.8745C115.052 50.3198 114.765 49.7802 114.45 49.2581C114.233 48.8666 114.001 48.4851 113.751 48.1136C113.052 48.0571 112.361 47.9291 111.681 47.7308C111.447 47.6719 111.216 47.6066 110.986 47.53C107.611 47.714 104.312 47.9142 100.929 48.1039L99.8717 48.1697C97.0054 48.354 94.041 48.649 91.7279 50.4214C89.4583 52.035 89.448 55.2169 87.5052 56.9885C84.7347 58.8683 84.7145 60.5633 84.181 63.3335C84.2206 65.4217 85.6689 68.4558 83.0111 69.3346C83.4595 69.9737 82.8345 69.6667 82.7852 69.4425C82.7802 69.4438 82.7752 69.445 82.7714 69.445C83.171 70.1876 82.5836 69.72 82.5317 69.4814C82.5003 69.4726 82.4689 69.4501 82.4375 69.4187C82.8401 70.0692 82.1894 69.6137 82.2279 69.4952C81.45 68.2999 79.849 68.1143 78.7205 68.431C78.7066 68.4737 78.6566 68.4775 78.6252 68.4549C73.8265 69.4945 75.0646 79.4256 79.9822 78.4655C80.1927 78.4226 80.1876 78.5236 80.2295 78.5333C80.1158 78.2351 80.4361 78.3565 80.4327 78.4191L80.4522 78.4181C80.4677 78.4168 80.4613 78.4151 80.4729 78.4191C80.363 77.8093 80.9811 78.6928 80.9323 78.7291C80.9512 78.7178 80.9726 78.7115 80.9914 78.709L80.9701 78.6511C80.8676 78.3779 80.8764 78.4915 80.8771 78.335C80.8 78.1416 80.7943 78.2262 80.8124 78.1002C81.0833 77.8904 81.1633 78.5269 81.2537 78.5735C81.0987 78.3576 81.2219 78.1813 81.368 78.2985C82.4756 80.6274 83.9062 82.8156 85.7552 84.5394C85.9574 84.6988 86.162 84.8557 86.374 85.0038C87.1605 85.6886 88.3668 86.1289 89.1031 86.7356C89.1031 86.7456 89.0982 86.7582 89.0906 86.7707L89.1075 86.7859V86.7859L89.1245 86.8021L89.3806 86.9251C89.4559 86.9891 89.5237 87.0606 89.5838 87.1397C89.648 87.2137 89.7043 87.2953 89.7522 87.3819C89.776 87.4873 89.7233 87.5312 89.6229 87.486C89.5788 87.471 89.535 87.4534 89.4911 87.4371C89.4936 87.4408 89.4947 87.4434 89.4973 87.4459C89.5117 87.4677 89.6093 87.6936 89.4969 87.6569L89.4835 87.6517C89.4219 87.6291 89.3605 87.604 89.3003 87.5801C89.3718 87.6692 89.437 87.7659 89.4947 87.8474C89.5563 87.9114 89.5939 87.9867 89.6091 88.0721C89.6064 88.1198 89.5802 88.1398 89.5325 88.1336C89.4597 88.1097 89.3881 88.0846 89.3165 88.0583L89.3368 88.0972C89.3875 88.1967 89.4595 88.3638 89.3316 88.308C89.2223 88.2741 89.117 88.2352 89.0115 88.1926C89.0026 88.2101 88.9852 88.2164 88.95 88.2001C88.6149 88.0809 88.291 87.9353 87.9809 87.7634C87.7085 87.5651 87.4335 87.3706 87.16 87.1735C86.9025 87.0192 86.654 86.8473 86.4168 86.654C84.8294 85.629 83.4396 84.3268 82.3371 82.8766C80.4932 84.473 76.8065 82.9479 74.526 81.6982C72.5088 80.5814 71.716 78.5162 71.511 76.2897C71.0848 73.2922 68.6345 72.2661 68.8049 65.689C68.8012 65.6903 68.7973 65.6903 68.7923 65.6903C68.7031 65.6639 68.6167 65.6288 68.5351 65.5836C68.451 65.5434 68.3719 65.4957 68.2977 65.438L68.206 65.3113V65.3113C68.1585 65.2849 68.1158 65.2573 68.0831 65.2297L68.0662 65.2515C68.0126 65.3162 68.0487 65.2189 68.0518 65.1996L67.8926 64.9832C67.5151 64.468 67.101 63.8899 66.7637 63.4276L66.7531 63.4464C66.7454 63.4606 66.7414 63.4708 66.745 63.4753C65.9422 62.3223 65.1873 60.9295 64.9775 59.5812C64.7299 58.5426 64.8266 57.4724 65.0427 56.5104C65.969 53.1415 69.0033 45.518 72.9875 42.2505ZM94.773 88.8405L94.7227 88.7957L94.7669 88.8511C94.7901 88.8797 94.8138 88.9055 94.8525 88.9317C94.85 88.9229 94.85 88.9141 94.8511 88.9041C94.8254 88.8845 94.7992 88.8632 94.773 88.8405ZM101.818 36.8254C95.9296 36.3193 90.138 37.6162 84.5191 39.186L84.1314 39.2973C80.9364 40.2087 77.558 41.0289 74.858 42.9796C71.0857 45.8681 69.1377 50.4632 67.4378 54.7058C65.9534 57.8579 66.7122 61.4123 68.9492 63.6133C69.1819 61.4261 69.5787 59.3029 70.1988 57.1967C70.3283 56.8677 70.2303 56.7599 70.5093 56.7169C70.9305 62.3928 68.8557 66.5863 72.9618 73.313C74.7434 76.487 72.6809 78.8094 77.7122 80.4796L77.8483 80.5316C78.8965 80.927 80.0412 81.2391 81.0679 81.0181L80.9759 80.8685C80.8821 80.7145 80.8536 80.6397 80.99 80.5738C80.9864 80.5663 80.9814 80.5588 80.9762 80.55C80.8659 80.3417 80.7592 80.1308 80.6574 79.9175C80.6161 79.9313 80.5747 79.9413 80.5318 79.9526C80.5596 80.0041 80.5632 80.0555 80.4855 80.0731C80.2089 80.168 79.9249 80.206 79.6341 80.1882L79.5717 80.1835C79.2432 80.1635 79.0362 80.1036 78.851 80.048C78.7896 80.038 78.7281 80.0279 78.6677 80.0154C78.0721 79.8834 77.4415 79.5475 77.0334 79.2147C72.3816 76.5733 72.8623 67.5818 78.5963 66.7319C78.7139 61.0706 81.4074 51.5195 85.8776 46.1249C89.9181 41.1627 100.949 39.012 108.623 39.7704C108.735 39.8074 108.847 39.8448 108.959 39.8826C110.143 39.9877 111.271 40.5151 112.456 40.76C111.605 40.1226 110.64 39.6981 109.646 39.3373C107.666 38.1262 105.395 37.4708 103.201 37.0086C102.747 36.897 102.286 36.8355 101.818 36.8254ZM78.3339 71.2797C78.6422 71.1123 78.6069 71.2739 78.6778 71.227C80.8954 71.0462 83.2866 72.9872 84.5263 74.6053C84.4283 74.707 84.1635 74.4058 84.117 74.3581C84.1108 74.3644 84.1032 74.3694 84.0957 74.3719L84.1302 74.4206C84.6326 75.1414 83.6366 74.2932 83.5434 74.1184C83.527 74.1272 83.5107 74.1322 83.4919 74.1284C83.5708 74.2059 83.812 74.4078 83.8534 74.5513L83.9173 74.6045C84.5202 75.1206 84.4702 75.5088 83.7858 74.776C83.8019 74.8099 83.8082 74.8412 83.7969 74.8663L83.8205 74.882C84.157 75.1171 84.4338 75.7726 83.7304 75.0997C83.8036 75.5912 83.0333 74.6413 83.0086 74.648C81.6757 73.602 79.7133 72.5847 78.0414 72.4481L77.9838 72.4415C77.677 72.402 77.532 72.311 77.6397 72.1105C77.2618 72.0206 77.3503 71.8347 77.5292 71.8407C77.2627 71.6655 77.5026 71.498 77.6572 71.5633C77.5509 71.2691 77.9773 71.4651 78.0163 71.424C78.2376 71.0828 78.2972 71.3674 78.3339 71.2797ZM73.6855 53.0392C74.7506 52.6492 77.8968 53.8168 77.6451 55.3631C77.4952 55.7181 77.0014 55.9216 76.6543 55.7211L76.2013 55.417C75.4129 54.8891 74.7019 54.4263 73.8554 53.966C73.3948 53.7375 73.1964 53.2523 73.6855 53.0392ZM79.7454 50.7413L79.3341 50.4736C77.1142 49.0212 73.9761 46.8205 79.5414 49.0974C80.1758 49.3694 81.0186 49.5303 81.3647 50.1341C81.9083 51.2471 80.4775 51.3219 79.7454 50.7413ZM79.9949 44.2245C79.8168 43.5487 82.0333 44.3417 82.6785 44.5508L82.7768 44.5879C83.4044 44.8217 84.1239 45.0386 84.4993 45.5801C84.9391 46.3283 84.0489 46.4833 83.4974 46.1453C82.3668 45.4066 81.1272 44.8493 79.9949 44.2245ZM85.6312 41.0765C84.3836 39.7145 87.7226 41.0192 88.2227 41.3814L88.237 41.3921C88.6102 41.6548 88.5345 42.2205 88.1839 42.3867C87.1863 42.4056 86.4522 41.5743 85.6312 41.0765ZM91.3085 39.5842C89.3251 38.1592 91.9377 38.837 92.8452 39.3955C93.4637 39.9408 92.8266 40.8613 91.3085 39.5842Z" fill="black"/>
<path fill-rule="evenodd" clip-rule="evenodd" d="M108.144 82.0692C107.219 82.3369 106.227 82.3609 105.284 82.0844C104.429 81.8335 103.551 81.2815 102.922 80.5511C102.363 79.9022 102.001 79.1137 102.015 78.272C102.017 78.1759 102.051 78.0956 102.104 78.0334C102.161 77.9663 102.241 77.9203 102.326 77.9003C102.414 77.8797 102.506 77.887 102.585 77.9228C102.656 77.9553 102.718 78.0103 102.756 78.0908C102.853 78.2178 102.949 78.3429 103.046 78.4646C103.823 79.4244 104.576 80.1417 105.745 80.3989C106.38 80.5386 107.013 80.4767 107.595 80.2636C108.217 80.0356 108.779 79.6347 109.22 79.1217C109.419 78.8898 109.655 78.7952 109.884 78.7936C110.145 78.7918 110.403 78.9128 110.597 79.1063C110.787 79.2965 110.915 79.555 110.927 79.8253C110.937 80.0626 110.86 80.3105 110.654 80.5316C109.975 81.2601 109.096 81.7937 108.144 82.0692ZM108.116 70.0479C109.064 70.6239 110.508 71.9671 109.488 73.3951C108.288 74.6543 106.56 73.2106 105.708 72.5577C104.918 72.0516 104.031 73.3531 104.764 73.944C110.918 78.4988 113.415 70.1985 108.595 69.3707C108.064 69.2794 107.867 69.8697 108.116 70.0479ZM99.2482 67.5133C98.9436 67.3185 98.5852 67.2517 98.188 67.4323C97.8776 67.5734 97.3332 68.0439 96.9543 68.6623C96.6951 69.0853 96.5113 69.5816 96.5496 70.0986C96.5585 70.2187 96.5141 70.3072 96.4441 70.3726C96.3888 70.4243 96.309 70.4623 96.2152 70.4742C96.1356 70.4843 96.0464 70.4752 95.974 70.4526C95.8361 70.4096 95.7632 70.3202 95.7357 70.2472C95.4704 69.5429 95.5847 68.757 95.882 68.0479C96.2832 67.091 97.0118 66.2895 97.4892 66.031C98.3061 65.5887 99.2698 65.5683 100.088 66.019C100.784 66.4025 101.22 67.0218 101.653 67.653C101.745 67.7872 101.836 67.9204 101.931 68.0513C102.12 68.3135 102.139 68.5736 102.065 68.7966C101.984 69.0436 101.777 69.2521 101.518 69.3612C101.279 69.462 101.001 69.4762 100.756 69.3726C100.548 69.2851 100.358 69.1145 100.237 68.8249C100.034 68.3373 99.6957 67.7994 99.2482 67.5133V67.5133ZM114.722 68.5981C114.513 68.7068 114.35 68.7396 114.118 68.6702C113.99 68.6318 113.864 68.5581 113.765 68.4591C113.667 68.361 113.596 68.239 113.568 68.1036C113.501 67.7695 113.318 67.4567 113.057 67.2529C112.835 67.0786 112.553 66.9863 112.242 67.0384C111.905 67.0945 111.585 67.3102 111.364 67.5646C111.29 67.6497 111.232 67.7464 111.174 67.8424C111.065 68.0219 110.959 68.1888 110.809 68.3206C110.753 68.3708 110.667 68.4056 110.584 68.4056C110.55 68.4056 110.516 68.4001 110.483 68.3899C110.148 68.0539 110.084 67.799 110.095 67.5461C110.106 67.281 110.211 67.0125 110.38 66.762C110.776 66.1745 111.529 65.6927 112.036 65.5836C112.732 65.4342 113.423 65.6136 113.976 66.0019C114.546 66.4015 114.968 67.0219 115.1 67.721C115.132 67.8894 115.118 68.0711 115.054 68.2287C114.991 68.3827 114.882 68.5146 114.722 68.5981ZM100.782 61.249C100.365 61.6555 99.8707 61.7185 99.371 61.7745C99.0933 61.8059 98.8716 61.8312 98.6535 61.8804C98.0539 62.0157 97.4612 62.2195 96.9205 62.513C96.3553 62.8198 95.7394 63.1898 95.2962 63.6638C95.1908 63.7766 95.0915 63.895 94.992 64.0136C94.9013 64.1218 94.814 64.2259 94.7219 64.3263C94.6161 64.4416 94.5157 64.5625 94.4158 64.683C94.3541 64.7847 94.3419 64.8098 94.3294 64.8358C94.3107 64.8749 94.2889 64.9187 94.2641 64.9657C94.23 65.0301 94.1901 65.1005 94.1483 65.1644C94.0788 65.2811 94.0415 65.3132 94.0093 65.3276C93.9558 65.3514 93.9051 65.3632 93.8559 65.3568C93.8097 65.3509 93.7663 65.3287 93.7234 65.2924C93.5091 65.1114 93.4459 64.8144 93.4523 64.4991C93.4622 64.0206 93.6387 63.4909 93.8014 63.1652C94.1798 62.4085 94.7046 61.6219 95.3356 61.0571C96.0557 60.4125 96.8434 59.9244 97.7483 59.5881C98.3105 59.3791 98.9616 59.1872 99.5742 59.2114C100.015 59.2289 100.436 59.3599 100.784 59.6871C100.997 59.888 101.1 60.1737 101.1 60.4593C101.1 60.7505 100.993 61.0434 100.782 61.249ZM115.571 64.9717C115.544 65.0152 115.507 65.0452 115.467 65.0632C115.424 65.0821 115.376 65.0875 115.33 65.0798C115.284 65.0721 115.241 65.0514 115.206 65.0197C115.173 64.9894 115.148 64.9491 115.137 64.8998C114.86 63.6831 114.322 62.7778 113.173 62.1941C112.608 61.9069 111.959 61.7244 111.344 61.579C111.165 61.5367 110.976 61.5093 110.786 61.4815C110.19 61.3945 109.59 61.2949 109.201 60.8133C108.967 60.5232 108.869 60.1522 108.924 59.8129C108.977 59.4934 109.163 59.2004 109.503 59.0249C110.348 58.5881 111.398 59.0167 112.252 59.3819C112.315 59.4089 112.377 59.4355 112.438 59.4612C113.272 59.8134 114.034 60.2783 114.659 60.9431C115.156 61.4705 115.616 62.2502 115.801 63.0524C115.955 63.7197 115.919 64.4009 115.571 64.9717Z" fill="black"/>
</svg>
