<svg width="330" height="415" viewBox="0 0 330 415" fill="none" xmlns="http://www.w3.org/2000/svg">
<path fill-rule="evenodd" clip-rule="evenodd" d="M201.307 186.01C201.2 186.532 201.039 187.098 200.871 187.605C201.708 188.398 202.893 189.46 203.743 190.228C202.902 185.116 205.461 180.397 207.027 175.561C206.437 174.816 204.379 174.053 204.446 173.226C204.604 170.164 204.839 166.747 205.176 162.913C206.32 150.942 207.458 138.457 204.759 126.449C204.574 125.144 204.295 123.771 202.516 123.741C197.262 144.319 201.519 165.038 201.403 185.747L201.556 185.881L201.307 186.01ZM193.44 354.616C189.123 354.617 185.154 353.845 181.312 352.282C180.203 351.898 178.826 351.421 178.634 350.649C178.318 348.535 178.537 346.457 178.768 344.258C179.134 340.486 179.098 337.553 180.132 333.491C181.239 329.718 182.183 326.77 181.103 322.868C181.016 321.707 181.939 320.526 182.549 319.44C183.412 317.854 183.85 316.204 184.535 314.578C183.188 314.346 181.79 314.029 180.497 313.635L180.28 314.404C180.232 314.573 180.101 314.659 179.889 314.659C179.759 314.659 179.424 314.597 179.375 314.322C179.578 311.352 179.872 308.396 180.181 305.378C183.385 276.307 188.239 252.342 196.388 228.441C198.346 222.843 200.345 217.016 200.36 210.934C199.247 210.699 198.007 210.565 196.873 210.719C188.791 208.876 190.389 192.052 190.711 187.017C190.141 186.849 189.503 186.61 189.03 186.291L188.838 186.383C180.814 166.783 184.109 134.378 185.945 112.593C187.149 104.762 185.455 90.6167 192.51 86.7471C198.207 84.7619 203.878 83.6461 209.831 82.3368C210.933 81.7141 212.294 81.3587 213.524 80.9556L212.888 80.0765C212.055 78.9209 212.166 76.6543 213.256 75.8579C213.926 75.8944 214.867 76.5567 215.508 76.8676C216.429 74.9936 217.281 73.0334 217.893 70.7817L218.113 70.8592C218.757 64.49 227.149 63.3783 231.88 65.5067C237.046 68.2971 234.355 74.6094 236.704 79.1662L237.555 78.0496C238.869 78.0257 241.65 79.7215 242.319 80.358C242.799 80.5779 242.452 82.0577 242.522 82.6529C249.451 84.1969 258.936 84.6208 261.138 92.2745C264.803 106.667 264.287 121.421 268.445 135.762C272.798 147.387 279.191 161.611 279.244 172.257C279.369 174.253 279.642 185.538 277.963 185.084L276.856 186.171C278.365 188.542 277.167 192.089 276.589 194.896C275.164 200.851 272.381 207.267 266.436 204.413C260.043 239.156 243.973 274.204 249.455 310.038C249.52 310.248 249.387 310.478 249.159 310.386L248.889 310.264C248.192 310.476 247.307 310.55 246.579 310.71C247.199 312.995 247.531 315.251 247.853 317.779C248.243 318.008 248.061 318.613 248.081 318.979C253.898 318.705 257.16 324.699 261.332 327.996C264.086 330.414 267.223 332.717 270.656 334.84C273.493 336.426 275.887 338.242 275.456 341.238C275.497 341.233 276.372 341.1 276.415 341.096C277.734 345.417 273.402 346.311 268.939 346.831C258.035 347.91 248.713 345.526 236.088 341.008C234.54 341.188 233.333 338.923 233.127 337.387C232.923 336.358 233.503 335.311 233.061 334.203C231.538 331.019 230.746 322.593 232.892 318.812C233.645 317.955 234.612 317.164 234.486 315.685C234.451 314.204 234.31 312.723 234.437 311.268C231.857 311.023 229.303 310.476 227.053 309.588C226.654 309.739 226.202 309.554 226.174 309.062C225.742 302.289 225.225 294.887 225.113 287.952C224.595 272.86 228.102 258.133 230.786 243.495C230.972 238.8 231.853 234.263 232.131 229.566C232.43 225.11 232.482 220.748 232.742 216.3L231.193 215.969C218.333 248.595 208.263 281.248 201.214 313.199C201.374 313.333 201.827 313.484 201.808 313.756C201.802 313.902 201.806 313.911 201.705 313.926C200.002 314.263 198.317 314.51 196.629 314.702C197.105 318.689 194.567 323.297 196.813 327.032C197.41 327.932 197.435 328.12 197.07 328.739C200.342 334.733 202.371 339.721 203.685 345.079L204.532 344.374C205.76 345.252 205.785 346.91 205.812 348.662C205.725 349.683 206.231 350.752 205.455 351.611C203.588 353.759 197.079 354.604 193.44 354.616V354.616Z" fill="white"/>
<path fill-rule="evenodd" clip-rule="evenodd" d="M276.768 188.986C275.485 193.233 274.307 199.523 271.038 202.649C269.984 203.476 268.698 203.114 267.49 202.909C268.318 197.968 268.926 192.984 269.454 188.003C272.027 187.483 274.508 186.584 276.812 185.343C277.435 186.372 277.045 187.936 276.768 188.986V188.986ZM266.866 192.684C262.522 231.752 242.402 269.203 248.046 309.145C241.278 310.282 234.394 310.755 227.544 310.168C228.369 297.83 225.703 284.322 227.62 271.6C228.845 259.673 232.037 248.025 233.136 236.085C233.625 229.485 234.234 222.593 232.642 216.11C232.63 216.077 232.616 216.044 232.602 216.011C233.692 215.016 234.723 213.928 235.631 212.764C236.406 211.757 234.719 210.414 233.859 211.279C235.045 208.196 236.185 205.098 237.29 201.987C220.197 235.933 209.249 275.471 200.03 312.991C193.83 314.38 187.447 314.347 181.129 314.18C182.86 285.941 188.608 258.118 196.406 230.933C198.15 224.648 200.303 218.255 199.919 211.653C201.954 211.965 204.738 210.849 205.835 209.135C206.834 209.899 208.058 208.962 208.584 208.072C209.799 205.738 209.128 202.887 208.423 200.495C210.905 200.879 214.013 198.614 212.315 196.083C209.691 193.818 206.696 191.889 204.124 189.502C203.904 185.026 205.666 180.849 207.267 176.65C215.354 182.259 223.283 188.294 231.776 193.246C233.236 193.392 234.415 192.305 235.511 191.511C238.639 189.227 241.796 186.973 244.878 184.627C245.216 184.75 245.604 184.719 245.892 184.53C247.86 186.604 249.941 188.52 251.888 190.605C253.058 191.669 253.902 193.33 255.535 193.737C256.298 193.875 256.784 193.564 257.274 193.043C260.244 189.95 263.439 187.078 266.517 184.091C266.76 184.389 267.271 184.523 267.646 184.286C267.607 187.09 267.2 189.897 266.866 192.684V192.684ZM246.362 318.669C243.523 319.476 243.073 323.84 239.729 323.415C237.564 322.966 235.818 321.12 235.264 319.045C235.43 318.941 235.542 318.76 235.525 318.498C235.383 316.369 235.239 314.241 235.097 312.112C238.859 312.317 242.637 312.025 246.374 311.518C246.238 312.529 246.184 313.548 246.155 314.578C246.208 315.887 245.818 317.467 246.362 318.669V318.669ZM233.819 317.712C233.912 317.58 233.997 317.443 234.069 317.296C234.081 317.466 234.092 317.635 234.102 317.803C234.013 317.75 233.918 317.721 233.819 317.712V317.712ZM252.802 321.156C254.733 322.45 256.236 324.293 257.88 325.903C261.376 329.328 265.252 332.377 269.403 334.999C271.564 336.321 276.131 338.32 274.322 341.424C272.974 343.378 269.438 342.467 268.881 343.563C261.19 343.875 253.666 341.805 246.355 339.686C242.644 338.492 238.761 337.796 235.163 336.279C231.714 333.306 231.703 326.768 232.178 322.576C232.366 321.584 232.646 317.523 234.119 318.034C234.121 318.44 234.163 318.986 234.609 319.101C234.616 319.133 234.622 319.166 234.63 319.197C234.545 319.17 234.433 319.231 234.474 319.331C235.583 322.582 239.241 326.242 242.811 323.964C244.398 322.865 245.092 320.739 246.983 320.05C248.965 319.327 251.135 320.039 252.802 321.156V321.156ZM276.101 341.216C276.15 341.24 276.202 341.251 276.255 341.252C276.406 341.634 276.331 343.187 276.303 343.454C275.836 345.791 272.097 346.179 270.115 346.533C263.149 347.613 256.064 346.858 249.269 345.135C245.952 344.326 242.653 343.391 239.433 342.264C236.573 341.408 233.034 339.984 233.39 336.413C234.983 338.531 240.083 339.158 242.641 340.033C250.682 342.437 258.84 345.023 267.326 345.106C268.611 345.051 270.388 345.405 271.352 344.451C273.397 344.164 275.519 343.049 276.101 341.216V341.216ZM195.767 318.188C195.109 320.235 194.352 322.337 194.331 324.503C190.497 322.26 185.687 324.438 182.509 326.893C182.731 325.36 181.771 323.916 182.032 322.41C183.003 320.137 184.304 317.832 183.842 315.263C188.097 315.978 192.419 315.934 196.689 315.495C196.354 316.382 196.065 317.284 195.767 318.188V318.188ZM197.234 330.644C197.99 332.103 198.52 334.038 199.969 334.959C200.778 337.902 201.687 340.817 202.39 343.787C202.669 345.2 203.092 346.663 202.883 348.118C202.551 348.208 202.318 348.279 202.134 348.514C195.105 349.988 187.378 350.22 180.881 346.796C178.701 342 180.412 336.384 181.154 331.417C181.199 329.79 182.303 329.22 182.435 327.669C185.92 325.695 191.347 323.107 194.652 326.647C195.111 327.652 195.42 329.038 196.599 329.419C196.819 329.825 197.029 330.234 197.234 330.644V330.644ZM202.994 348.123C202.993 348.125 202.992 348.127 202.988 348.131C202.978 348.13 202.978 348.126 202.994 348.123V348.123ZM205.18 349.016C205.163 348.715 205.01 348.415 204.76 348.237C204.878 347.128 204.655 345.981 204.416 344.898C205.597 346.163 205.093 348.166 205.288 349.743C205.272 350.371 205.582 351.171 204.839 351.495C202.522 353.072 199.712 353.808 196.943 354.125C190.902 354.806 184.621 353.712 179.223 350.948C178.49 349.969 178.744 347.455 178.659 346.191C179.157 350.253 189.224 351.376 192.647 351.411C194.552 351.423 205.16 351.035 205.18 349.016V349.016ZM198.797 209.114C197.993 209.035 197.194 209.09 196.399 209.203C191.691 206.054 190.948 193.141 190.209 187.689C193.578 188.536 197.147 188.308 200.417 187.193C200.479 187.787 201.168 188.093 201.588 187.692C203.805 191.578 207.124 194.689 210.547 197.47C210.507 197.34 210.479 197.578 210.529 197.488C210.093 198.471 208.492 197.961 207.735 198.646C207.249 199.003 207.147 199.627 207.456 200.043C206.637 202.271 207.939 204.99 206.713 207.104C206.438 207.418 206.079 207.645 205.842 207.998C204.211 206.898 202.724 209.225 201.072 209.327C201.083 209.327 201.095 209.327 201.107 209.326C200.853 209.354 200.445 209.34 200.221 209.309C199.747 209.237 199.275 209.161 198.797 209.114V209.114ZM201.832 131.271C202.178 129.051 202.581 126.843 203.105 124.657C203.737 124.765 203.878 126.189 203.958 126.608C206.662 138.648 205.491 151.039 204.333 163.191C204.052 166.449 203.82 169.714 203.639 172.981C203.405 174.483 205.161 174.992 206.098 175.815C204.795 179.945 202.546 183.94 202.812 188.338C202.462 188.022 202.116 187.703 201.772 187.381C201.859 187.105 201.934 186.829 201.997 186.55C202.425 186.331 202.561 185.725 202.194 185.406C202.335 167.398 198.901 149.236 201.832 131.271V131.271ZM235.476 97.262C236.126 96.1238 237.846 97.603 236.766 98.4283C236.013 99.028 234.971 98.0432 235.476 97.262V97.262ZM238.657 110.502C239.351 109.614 240.743 110.643 240.137 111.561C239.428 113.01 238.009 111.579 238.657 110.502V110.502ZM240.885 122.107C242.275 122.111 241.957 124.429 240.644 124.111C239.527 123.851 239.711 122.085 240.885 122.107V122.107ZM242.025 136.088C242.346 135.015 243.993 135.298 243.981 136.402C243.939 137.891 241.698 137.442 242.025 136.088V136.088ZM244.723 149.57C245.18 148.221 246.939 148.919 246.791 150.225C246.983 150.979 245.498 152.501 245.197 151.268C244.796 150.792 244.607 150.181 244.723 149.57V149.57ZM247.485 165.119C247.488 165.114 247.492 165.11 247.495 165.105C248.473 165.558 247.627 167.621 246.684 166.864C245.769 166.314 246.402 164.571 247.485 165.119V165.119ZM248.772 177.742C249.913 178.846 248.148 180.593 247.023 179.463C245.88 178.361 247.644 176.613 248.772 177.742V177.742ZM277.033 185.224C277.048 185.257 277.064 185.29 277.082 185.321C277.052 185.296 277.023 185.271 276.993 185.246C277.005 185.239 277.019 185.233 277.033 185.224V185.224ZM277.951 159.562C276.088 152.339 273.091 145.464 270.174 138.611C267.021 129.512 266.097 119.874 264.97 110.378C264.351 105.021 263.681 99.6703 262.427 94.4138C261.361 84.6148 251.249 83.5465 243.319 82.0276C243.33 81.1909 243.591 80.2391 242.739 79.704C241.956 78.9215 237.777 76.4897 236.952 77.5191C236.628 76.7433 236.469 75.8824 236.316 75.0544C236.213 74.7276 236.17 73.6005 235.809 73.6094C235.732 75.8156 234.781 79.0453 236.689 80.7022C235.544 82.4205 234.589 84.5024 233.079 85.8706C233.08 85.8694 233.081 85.8684 233.082 85.8672C233.007 85.9156 232.93 85.9596 232.851 86.0013C232.869 85.9867 232.76 86.0263 232.671 86.0545C232.466 86.0929 232.126 86.0191 231.917 85.9258H231.919C226.72 83.0179 221.633 79.9036 216.6 76.7136C217.32 75.6664 218.251 70.5331 217.358 69.8217C216.734 71.8468 216.084 73.8786 215.137 75.7842C214.316 75.3434 212.988 74.5506 212.296 75.5868C211.424 77.0265 211.175 79.1139 212.222 80.5453C207.723 82.2901 202.871 82.901 198.226 84.2645C196.202 84.7752 194.058 85.1554 192.159 86.0409C186.5 89.1311 186.495 96.7447 185.874 102.352C184.281 129.648 179.23 157.865 187.141 184.641C187.445 185.464 187.894 186.253 188.244 187.062C188.382 187.382 188.742 187.372 188.98 187.198C189.248 187.355 189.542 187.48 189.851 187.582C189.333 194.543 188.631 207.262 195.459 211.413C195.991 211.66 196.468 211.574 196.964 211.513C197.761 211.411 198.705 211.445 199.529 211.598C198.533 224.511 191.926 236.31 189.368 248.964C183.884 270.36 180.341 292.23 178.558 314.223C178.494 315.587 180.665 315.964 181.04 314.627C181.824 314.85 182.619 315.036 183.425 315.187C183.004 316.266 182.657 317.355 182.171 318.406C181.642 319.594 180.678 320.688 180.375 321.959C180.013 323.997 181.36 325.903 180.613 327.941C180.472 330.219 179.419 332.364 179.054 334.621C178.483 337.417 178.05 340.314 178.199 343.172C177.608 345.264 177.636 347.431 177.718 349.55C177.762 350.246 177.725 351.127 178.262 351.662C179.445 352.594 181.028 352.99 182.408 353.573C189.853 355.973 199.125 356.645 205.955 352.311C207.255 351.296 206.442 348.794 206.543 347.31C206.589 346.177 205.696 343.042 204.13 343.675C202.758 338.443 200.53 333.487 197.959 328.736C198.37 328.023 197.92 327.322 197.521 326.72C195.543 323.724 197.678 318.944 197.442 315.409C198.918 315.232 200.389 314.998 201.849 314.711C202.847 314.515 202.774 313.293 202.103 312.845C209.394 279.934 219.551 247.661 231.928 216.265C231.754 219.684 231.61 223.1 231.494 226.524C231.339 232.208 230.24 237.807 229.971 243.476C227.242 258.184 223.776 272.919 224.298 287.976C224.416 295.027 224.91 302.07 225.359 309.105C225.397 309.914 226.132 310.598 226.977 310.422C229.09 311.222 231.324 311.726 233.583 311.979C233.354 314.551 234.538 316.401 232.25 318.332C230.249 321.408 230.722 327.701 231.252 331.272C231.488 332.41 231.895 333.453 232.313 334.532C232.629 335.512 232.087 336.489 232.318 337.494C232.545 339.315 234.06 342.078 236.18 341.802C248.279 346.31 262.296 350.398 275.021 346.2C275.906 345.767 276.829 345.206 277.146 344.233C277.417 343.364 277.783 340.075 276.255 340.33C276.086 335.874 270.832 334.469 267.837 332.073C263.653 329.246 259.962 325.812 256.466 322.21C254.45 320.166 251.918 318.243 248.892 318.233C248.9 317.919 248.802 317.642 248.602 317.423L248.601 317.422C248.336 315.399 248.05 313.325 247.549 311.342C247.969 311.264 248.401 311.229 248.81 311.114C249.624 311.474 250.421 310.749 250.235 309.929C248.855 301.293 248.838 292.499 249.651 283.809C252.152 257.074 262.045 231.757 267.039 205.48C273.663 207.808 276.125 199.913 277.358 195.082C277.953 192.138 279.236 188.516 277.522 185.763C282.535 187.729 279.202 162.233 277.951 159.562V159.562Z" fill="black"/>
<path fill-rule="evenodd" clip-rule="evenodd" d="M228.913 28.7925C235.421 28.7925 244.947 33.0694 245.663 37.1842C246.508 42.0333 248.383 60.2674 247.362 66.2342C246.341 72.2011 242.361 76.61 233.558 76.61C224.756 76.61 218.185 71.8859 216.677 70.2639C215.168 68.6418 213.34 63.5942 213.34 63.5942C213.34 63.5942 208.521 62.7903 208.499 59.0094C208.476 55.2286 210.92 54.0602 210.92 54.0602C210.92 54.0602 209.601 38.3759 212.373 34.4913C215.144 30.6066 222.405 28.7925 228.913 28.7925Z" fill="white"/>
<path fill-rule="evenodd" clip-rule="evenodd" d="M248.562 48.7663C248.918 52.5778 249.053 56.4219 249.121 60.248C249.188 63.8733 248.864 67.6542 246.765 70.7539C244.93 73.4655 242.135 75.4338 239.023 76.4964C237.253 77.1021 235.292 77.3266 233.421 77.3819C232.455 77.4101 231.486 77.3694 230.526 77.2713C230.405 77.2589 230.283 77.2482 230.162 77.2376C229.348 77.1662 228.542 77.0954 227.949 76.4908C227.762 76.3001 227.765 75.9087 228.041 75.7846C228.567 75.5489 228.923 75.5241 229.5 75.6019C229.978 75.6661 230.457 75.717 230.938 75.7497C231.97 75.8207 233.008 75.823 234.04 75.7452C235.936 75.6019 237.875 75.075 239.597 74.2765C242.296 73.0222 244.615 70.967 245.866 68.2701C247.301 65.1822 247.229 61.6114 247.162 58.2863L247.159 58.1499C247.085 54.4615 246.946 50.7843 246.62 47.1082C246.497 45.7176 246.321 44.3344 246.145 42.9509C246.096 42.5613 246.046 42.1717 245.998 41.7819C245.882 40.8389 245.73 39.9004 245.543 38.9688C245.487 38.6874 245.421 38.4083 245.355 38.1296C245.305 37.9199 245.256 37.7103 245.211 37.5002C245.134 37.5124 245.056 37.5193 244.976 37.5226C244.497 37.5385 243.973 37.4234 243.617 37.0884C243.481 37.1798 243.308 37.2373 243.099 37.2475C241.825 37.3094 240.538 37.2818 239.254 37.2543C238.552 37.2392 237.852 37.2242 237.154 37.2238C235.174 37.2227 233.192 37.2238 231.21 37.2294C230.908 37.2303 230.606 37.2314 230.303 37.2326C228.625 37.2389 226.943 37.2452 225.267 37.2012C224.912 37.1919 224.554 37.1858 224.195 37.1797C222.694 37.1542 221.171 37.1283 219.703 36.8606C219.093 38.997 219.114 41.3443 220.388 43.2528C220.748 43.7908 220.455 44.4248 219.987 44.7609C219.507 45.1039 218.646 45.6299 217.909 45.6839C217.88 45.7471 217.852 45.8102 217.823 45.8731C217.779 45.9674 217.736 46.0614 217.695 46.1553C217.343 46.9441 217.026 47.7379 216.804 48.573C216.69 49.0034 216.591 49.441 216.509 49.8812C216.515 49.9583 216.522 50.0352 216.531 50.112C216.531 50.1189 216.532 50.1258 216.533 50.1335L216.533 50.1367C216.538 50.1684 216.543 50.2045 216.547 50.2248C216.557 50.279 216.568 50.3331 216.578 50.3873C216.61 50.5541 216.641 50.7209 216.675 50.8869C216.782 51.4227 216.864 51.963 216.923 52.5054C217.029 53.4982 217.019 54.7886 216.036 55.3762C215.51 55.691 214.879 55.6582 214.323 55.4472C214.013 55.3294 213.742 55.1711 213.462 55.0078C213.405 54.9743 213.347 54.9406 213.288 54.907C213.198 54.855 213.106 54.8072 213.014 54.7595C212.898 54.6996 212.783 54.6398 212.672 54.572C212.617 54.5382 212.564 54.4976 212.515 54.4547C212.142 54.5325 211.779 54.678 211.575 54.7773C211.028 55.0446 210.548 55.4315 210.14 55.8759C209.272 56.8223 209.012 58.1556 209.133 59.393C209.247 60.5446 209.706 61.8676 210.631 62.6336C211.034 62.9674 211.536 63.1626 212.066 63.157C212.328 63.1547 212.568 63.1006 212.821 63.0352C212.928 63.0074 213.047 62.9952 213.165 62.983C213.32 62.967 213.476 62.951 213.606 62.8998C213.946 62.7656 214.366 63.175 214.227 63.5112C214.196 63.5859 214.169 63.658 214.143 63.7276C214.081 63.8936 214.024 64.0455 213.932 64.1846C214.881 65.7096 215.921 67.1872 217.027 68.6051C217.728 69.5031 218.517 70.3007 219.309 71.1018C219.643 71.4398 219.978 71.7784 220.307 72.1255C220.797 72.6421 221.001 73.6595 220.115 73.8805C219.336 74.0766 218.73 73.3734 218.25 72.8155C218.185 72.7407 218.123 72.6685 218.063 72.6015C215.96 70.2474 214.37 67.5447 213.626 64.4936C213.291 64.7283 212.905 64.8557 212.5 64.911C211.692 65.0204 210.874 64.8636 210.166 64.4609C207.484 62.937 206.835 58.8188 208.091 56.238C208.394 55.6166 208.842 55.0619 209.387 54.6311C209.344 54.5502 209.327 54.4555 209.355 54.3536C209.403 54.1753 209.457 53.9991 209.513 53.8236C209.452 53.7969 209.407 53.7416 209.415 53.6595C209.458 53.23 209.5 52.8005 209.542 52.3711L209.564 52.1367C209.559 51.9039 209.552 51.6713 209.545 51.4385C209.528 50.9043 209.512 50.3696 209.518 49.8323C209.525 49.2605 209.545 48.6889 209.564 48.1173C209.587 47.46 209.61 46.8026 209.612 46.1449C209.62 44.0149 209.667 41.886 209.715 39.7571C209.763 37.5997 209.811 35.4423 209.818 33.2838C209.824 31.1868 209.829 29.0866 209.773 26.9908C209.772 26.976 209.772 26.9614 209.772 26.9469C209.771 26.9338 209.771 26.9207 209.771 26.9074C209.764 26.6502 209.747 26.3796 209.73 26.102C209.636 24.5689 209.529 22.819 210.94 21.9002C211.214 21.7221 211.555 21.7198 211.853 21.8349C212.711 21.2472 213.786 20.964 214.814 20.8004C216.329 20.5596 217.855 20.4153 219.382 20.2708C219.828 20.2286 220.275 20.1863 220.721 20.1417C221.75 20.039 222.834 19.9997 223.87 20.0222C224.409 20.0338 224.952 20.0147 225.495 19.9955C226.008 19.9774 226.521 19.9593 227.033 19.967C228.23 19.9861 229.436 20.0301 230.637 20.1271C230.665 20.1243 230.693 20.1218 230.721 20.1193C230.75 20.1167 230.778 20.1142 230.807 20.1113C232.626 19.9396 234.444 20.0304 236.262 20.1213C236.702 20.1433 237.142 20.1653 237.583 20.1835C239.735 20.2726 242.008 20.4915 243.941 21.5054C244.189 21.6356 244.4 21.7836 244.579 21.9485C244.831 21.9833 245.071 22.0536 245.287 22.1717C245.909 22.0479 246.604 22.3223 246.751 23.0328C246.965 24.0739 247.047 25.1239 246.918 26.1798C246.917 26.1931 246.915 26.2068 246.914 26.2208C246.912 26.2328 246.911 26.2451 246.909 26.2577C247.169 27.2372 247.152 28.307 246.936 29.2731C247.027 30.4938 247.079 31.7179 247.086 32.9401C247.087 33.125 247.09 33.3107 247.092 33.4968C247.102 34.1613 247.112 34.8307 247.049 35.4892C246.979 36.2303 246.669 36.8167 246.181 37.3796C246.089 37.4856 245.934 37.5032 245.805 37.4775C245.772 37.4708 245.742 37.4618 245.716 37.4511C245.957 37.9588 246.156 38.4917 246.351 39.0131C246.394 39.1288 246.437 39.2438 246.481 39.3579C246.859 40.3573 247.226 41.3736 247.486 42.4091C248.013 44.4968 248.36 46.6243 248.562 48.7663ZM212.037 58.215C211.928 58.1411 211.818 58.0666 211.7 58.0112C211.685 58.0043 211.057 57.8036 211.178 58.0687C211.219 58.1567 211.112 58.2548 211.035 58.177C210.817 57.9593 210.939 57.6976 211.146 57.5036C211.521 57.1528 212.08 57.2339 212.54 57.3175C213.179 57.4337 213.801 57.7089 214.339 58.0619C214.919 58.4421 215.636 58.9688 215.75 59.6896C215.855 60.3517 215.185 61.0815 214.496 60.6382C214.124 60.3979 213.863 60.0406 213.601 59.6821C213.414 59.4265 213.227 59.1703 212.998 58.9553C212.729 58.7026 212.438 58.4804 212.129 58.2773C212.099 58.2569 212.068 58.236 212.037 58.215Z" fill="black"/>
<path fill-rule="evenodd" clip-rule="evenodd" d="M236.197 68.4596C235.426 68.1502 234.739 67.6343 234.236 66.9751C234.061 66.746 234.016 66.504 234.053 66.2827C234.094 66.0339 234.243 65.8083 234.447 65.657C234.652 65.5053 234.908 65.4304 235.156 65.4686C235.371 65.5017 235.585 65.6176 235.754 65.858L235.79 65.906C236.088 66.3038 236.478 66.6303 236.921 66.8407C237.349 67.0434 237.827 67.1381 238.322 67.083C239.265 66.9783 239.915 66.4766 240.605 65.7953C240.691 65.7093 240.776 65.6206 240.862 65.5305C240.917 65.4488 240.992 65.3963 241.076 65.3687C241.169 65.3381 241.274 65.3398 241.37 65.3729C241.463 65.4048 241.546 65.4653 241.602 65.5458C241.655 65.6223 241.685 65.7168 241.675 65.8255C241.612 66.5315 241.237 67.1616 240.704 67.6563C240.113 68.2058 239.328 68.586 238.59 68.7193C237.776 68.8662 236.947 68.7609 236.197 68.4596V68.4596ZM238.974 57.568C239.839 58.0857 241.158 59.293 240.227 60.5765C239.131 61.7083 237.553 60.4106 236.775 59.8238C236.054 59.369 235.244 60.5387 235.913 61.0698C241.532 65.1638 243.812 57.7033 239.411 56.9592C238.927 56.8772 238.747 57.4078 238.974 57.568ZM228.904 52.8056C229 51.6374 230.808 51.3721 230.987 52.5281C231.149 53.5636 230.959 54.5148 230.485 55.4471C230.032 56.3377 228.894 55.9222 228.808 55.1112C228.692 54.024 228.845 53.5322 228.904 52.8056ZM242.666 52.2884C242.918 51.9636 243.282 51.7418 243.718 51.8671C245.08 52.2589 244.678 54.1621 244.2 55.0885C243.94 55.5916 243.1 55.7191 242.72 55.2762C242.101 54.5538 241.805 53.1113 242.592 52.3997C242.613 52.363 242.637 52.3259 242.666 52.2884ZM230.466 47.6941L230.681 47.657C231.347 47.5437 232.174 47.4348 232.645 47.9615C232.895 48.2408 232.981 48.7599 232.645 49.0272C232.055 49.4976 231.402 49.3153 230.694 49.3551C230.111 49.3881 229.551 49.483 228.989 49.6411C227.756 49.9877 226.752 50.6205 225.7 51.3153C225.562 51.4064 225.421 51.2326 225.487 51.1055C226.094 49.9343 227.272 48.9723 228.451 48.3859C229.081 48.0728 229.769 47.8132 230.466 47.6941ZM241.424 47.1694L241.589 47.2026C243.381 47.5713 245.71 48.3078 246.558 50.0403C246.591 50.2853 246.556 50.3378 246.529 50.3721L246.519 50.3835C246.497 50.4128 246.478 50.4532 246.37 50.4865C246.34 50.4795 246.31 50.4721 246.28 50.4642C245.891 50.3638 245.583 50.2256 245.285 50.0822L244.962 49.9255C244.587 49.7446 244.209 49.5703 243.808 49.4417C242.953 49.1671 242.073 48.9737 241.179 48.8705C240.986 48.8481 240.799 48.7838 240.652 48.6736C240.513 48.5689 240.406 48.4241 240.357 48.2315C240.294 47.9824 240.312 47.7937 240.448 47.5689C240.55 47.4001 240.697 47.2831 240.864 47.2159C241.035 47.1474 241.23 47.1313 241.424 47.1694Z" fill="black"/>
<path fill-rule="evenodd" clip-rule="evenodd" d="M56.7876 385.749C56.0957 382.996 57.1137 380.801 60.0367 379.18C60.2883 378.525 65.9376 376.401 70.4267 373.284C74.4595 370.483 77.3848 366.639 77.5075 366.426C77.5075 366.426 78.4143 364.35 78.5176 363.413C79.0134 358.918 78.7266 355.972 79.0328 354.575C76.9701 354.308 71.8992 222.473 72.7193 218.103C71.3761 217.813 69.9516 217.506 68.6711 216.761C68.5689 216.735 68.7369 216.443 68.732 216.388C65.5195 210.181 70.4477 189.075 73.5364 183.232C71.0836 183.169 67.8528 182.841 66.3342 180.825C65.6153 180.592 65.1621 180.186 64.8132 179.535C64.4115 178.914 64.0386 178.262 63.7029 177.595C62.0687 174.253 61.0605 170.543 61.6055 166.862C61.5016 166.829 60.9666 166.826 60.94 166.679C60.8876 165.774 61.0564 164.976 61.3326 164.122C64.139 154.494 67.5173 145.015 71.9828 135.951C74.2205 131.1 78.8502 129.329 83.6472 127.508C85.955 126.616 88.2637 125.586 90.6722 125.001C90.7026 124.835 90.5587 124.331 90.8744 124.372C91.2642 124.452 91.1873 125.069 91.3318 125.415C96.901 120.928 93.3693 118.616 96.7274 116.159C100.202 114.384 104.44 114.311 108.271 114.696C109.684 114.736 110.815 115.363 111.149 116.763C112.364 119.66 115.21 121.793 118.316 122.446C118.573 121.997 119.278 120.707 119.673 121.114C124.159 121.265 130.959 122.885 135.158 124.098C139.372 125.157 143.636 127.091 144.738 131.598C146.739 139.629 143.556 172.635 138.335 178.991L138.165 178.994C137.24 179.926 135.982 180.609 134.556 181.067C134.588 184.039 135.54 186.94 136.014 189.846C137.08 195.117 137.899 200.393 139.087 205.692C139.092 206.282 141.352 214.36 139.124 212.74C138.664 212.963 138.101 213.206 137.606 213.414C139.973 218.723 141.056 227.289 140.888 233.848C140.846 237.754 141.01 241.176 141.901 245.176C148.487 279.067 154.294 354.871 154.431 355.884C154.556 356.853 153.723 362.11 154.431 363.497C155.059 364.728 157.739 364.001 158.251 364.476C159.582 366.61 158.973 367.97 160.065 370.1C160.625 370.593 161.877 371.672 162.288 372.431C163.119 373.219 176.891 382.113 176.333 383.463C176.333 383.463 176.396 384.11 176.417 384.251C177.591 390.974 175.636 390.919 169.31 391.908C160.07 393.512 153.163 390.425 145.354 386.302C142.758 384.579 139.07 381.291 140.27 377.396C140.304 377.158 141.016 373.061 141.298 370.981C141.298 370.981 140.533 369.315 143.495 369.522C143.008 368.996 141.938 362.179 142.303 361.277C142.535 358.954 142.175 356.845 142.289 354.454C141.048 354.545 119.262 252.897 105.598 246.58C105.513 247.255 105.677 248.512 104.767 248.638C100.54 281.09 90.3782 353.791 89.9116 353.918C90.6119 357.624 90.5907 366.215 90.6038 369.894C90.7109 369.992 91.2029 370.425 91.2821 370.53C91.2986 370.503 91.6189 370.818 91.6353 370.826L91.6787 370.728C93.118 373.922 95.2159 377.212 93.3617 380.343C94.7378 380.244 94.5169 382.851 94.5785 384.05C93.7947 386.397 71.5127 392.729 66.5334 393.03C64.8975 393.311 57.2784 390.926 55.8122 390.583C53.9124 390.234 55.7761 386.758 56.7876 385.749Z" fill="white"/>
<path fill-rule="evenodd" clip-rule="evenodd" d="M110.221 115.974C109.5 115.952 109.362 116.845 109.855 117.216L109.876 117.23C110.296 117.524 110.493 117.786 110.721 118.254C111.833 121.151 114.97 122.812 118.037 122.197C116.972 124.153 116.256 126.046 115.19 127.969C110.279 137.925 94.1516 141.163 92.2228 127.504C95.1779 126.942 96.9292 120.402 95.033 118.45L94.9818 118.688C94.4352 121.25 94.0614 123.872 92.0883 125.804C92.0282 125.821 91.9708 125.826 91.9142 125.826C91.839 125.475 91.7523 125.129 91.6445 124.788C91.3819 123.958 90.0675 124.114 90.1044 125.012C86.1692 126.192 82.3875 127.864 78.6236 129.479C75.4943 130.822 72.9356 133.225 71.4779 136.268C67.391 144.592 64.2704 153.379 61.5495 162.218C61.3673 163.413 59.3329 167.852 60.9743 168.279C60.5716 171.936 61.6014 175.635 63.1923 178.919C63.9304 180.153 64.4515 181.864 65.9344 182.378C67.4741 184.282 70.2894 184.775 72.6334 184.91C69.4809 192.214 65.1975 210.817 68.0941 218.075C67.8371 219.265 71.1749 219.831 72.068 220.103C71.3482 224.336 71.5052 228.697 71.8156 232.961C74.7224 269.328 75.2741 305.895 72.2158 342.271C72.0359 344.539 71.8421 346.806 71.637 349.072L71.5129 350.431C71.3502 352.24 71.2119 354.042 71.2542 355.866C71.2678 356.498 71.8009 356.879 72.3339 356.911C74.1239 358.035 76.5281 358.045 78.5989 358.316C78.2332 360.28 78.0282 363.346 77.3881 364.999C76.0555 364.656 75.1967 365.879 76.5248 366.569C74.89 367.462 74.0489 369.171 72.7402 370.371C69.1454 368.934 68.4761 371.081 71.4136 371.57C70.6149 372.226 69.7671 372.832 68.8906 373.408L68.8283 373.399C67.792 373.245 65.8383 372.401 65.3477 373.518C65.1275 374.327 66.1417 374.584 66.8764 374.682C66.2245 375.087 65.5704 375.489 64.9161 375.891C64.3436 375.643 63.7758 375.333 63.192 375.134C61.7549 374.819 61.6309 376.655 63.5063 376.758C62.3315 377.612 60.7098 377.12 59.959 378.326C57.2113 379.418 55.9126 382.715 56.5539 385.35C55.5893 386.194 54.9119 387.46 54.8336 388.732C54.6477 390.094 55.7494 391.376 57.242 391.735C58.9231 392.285 60.6286 392.788 62.3294 393.26L62.5077 393.321C63.9095 393.791 65.4402 394.212 66.8981 394.13C75.5438 393.622 87.0728 390.127 93.9928 385.779C95.7187 384.502 96.0205 381.344 93.6451 380.334C94.7397 378.381 94.2167 376.962 93.7527 374.835C93.4306 373.448 92.9931 372.025 92.2012 370.741C92.1309 370.627 91.9619 370.661 91.9526 370.774C91.8489 372.225 91.9865 373.71 92.0963 375.171L92.1084 375.333C92.2068 376.682 92.4287 377.177 92.0572 378.453C91.1679 381.709 82.5944 383.335 79.2253 384.678C76.5805 385.484 73.8953 386.206 71.1725 386.841L70.9728 386.884C68.6742 387.382 66.3075 388.135 63.8865 387.744C62.631 386.845 60.7466 387.098 59.513 386.069C57.6522 384.092 59.1153 381.193 60.4191 379.396C61.6799 379.792 62.7576 378.727 63.6859 378.163L63.7202 378.143C64.668 377.553 65.6133 377.966 66.5626 377.377L66.777 377.417C70.2644 378.072 72.9645 378.818 67.4024 376.86C68.3186 376.296 69.237 375.728 70.1269 375.13C71.9536 375.347 73.9549 376.291 75.6527 376.377C74.5101 375.329 72.9514 374.749 71.4827 374.173C72.3378 373.534 73.1515 372.85 73.8793 372.098L74.5745 372.269C78.8459 373.313 80.5249 373.614 74.7746 371.069C75.9055 369.833 76.0892 368.003 77.3326 366.84C79.3323 367.252 81.1696 368.118 82.7982 369.236C83.4568 369.7 83.9529 370.28 84.4745 370.86C86.9462 373.99 90.7754 374.472 91.9452 370.413C91.9654 370.33 91.8328 370.278 91.7955 370.349L91.7912 370.358C91.2316 371.605 89.4264 372.616 87.9185 371.841L87.8729 371.817C86.3984 371.061 85.7134 369.518 84.5519 368.467C82.9843 367.074 81.0196 366.14 78.9923 365.439C79.4838 363.672 79.6496 360.454 79.5938 358.381C83.0072 358.54 86.4428 358.378 89.796 357.739C89.2588 361.594 89.6119 366.61 89.365 370.047C89.0081 371.201 91.1794 371.922 91.4103 370.773C91.5379 367.054 91.1682 361.689 90.5926 357.538L90.8334 357.481C91.0608 357.425 91.2996 357.358 91.4947 357.25C93.6465 357.489 93.0595 352.108 93.4208 350.595C95.8485 317.22 100.962 284.145 105.308 250.99C105.911 250.763 106.018 250.035 106.118 249.427C111.594 253.075 112.686 260.366 115.137 266.017C125.843 295.279 130.627 326.15 138.047 356.283L138.006 356.294C137.977 356.302 137.977 356.306 138.038 356.302L138.052 356.301V356.303C137.593 356.363 137.232 356.837 137.512 357.278C138.347 358.937 140.663 358.35 142.187 358.245C142.039 360.8 142.595 366.313 142.243 368.59C140.362 368.624 140.243 370.661 139.994 371.872L139.975 371.996C139.642 374.064 138.526 377.943 139.36 379.615C138.07 381.125 138.998 383.177 140.336 384.208C141.768 385.25 143.551 385.86 145.171 386.663C152.793 389.693 160.167 395.536 169.507 393.288L169.914 393.203C176.46 391.842 178.341 391.237 177.041 384.861C177.575 383.565 177.578 382.146 176.827 381C175.487 379.308 173.237 378.382 171.445 377.097C168.412 375.091 165.183 373.337 162.22 371.249C162.33 371.155 162.177 371.12 162.088 371.136C159.996 369.525 160.192 366.736 158.733 364.745C158.368 363.72 156.526 363.47 155.313 363.612C155.692 361.701 153.84 353 153.605 359.146L153.605 359.234C153.601 360.183 153.443 363.35 153.727 363.97C149.7 365.181 148.831 368.989 147.969 372.063L147.914 372.078C147.639 372.148 147.27 372.204 147.133 372.47C145.838 371.66 145.476 370.065 144.222 369.207C144.574 368.937 144.592 368.42 144.413 368.019C143.829 365.912 143.478 360.548 142.596 358.194C146.742 357.582 150.965 357.272 155.014 356.162C155.54 356.671 156.62 356.491 156.577 355.572C155.323 335.567 153.167 315.623 150.448 295.761C148.213 277.169 144.28 258.814 141.541 240.32L141.518 237.781C141.444 230.151 141.237 222.406 138.346 215.222C138.601 215.113 138.853 215 139.101 214.882C142.236 216.16 139.766 208.39 139.651 206.989C138.111 198.87 136.296 190.752 135.139 182.581C136.352 182.15 137.472 181.537 138.406 180.647C144.07 176.109 147.354 139.361 145.295 131.972C144.22 127.324 139.667 125.041 135.327 123.99L134.686 123.812C129.839 122.47 124.907 121.254 119.861 120.955C119.681 120.795 119.152 120.841 119.083 120.975C118.767 121.162 118.467 121.528 118.213 121.914C111.208 121.122 113.103 116.616 110.221 115.974ZM93.4633 380.629C94.444 382.82 93.1409 384.488 90.9562 385.409C83.3905 388.861 74.9442 391.635 66.2732 392.165C63.6274 391.535 61.0069 390.495 58.3259 389.851L58.2102 389.83C57.2665 389.66 56.8231 389.489 56.9041 388.524L56.8697 388.134C56.8092 387.441 56.7581 386.749 56.8072 386.056C57.632 387.997 60.1007 389.064 62.265 389.456C65.6965 391.059 69.5396 389.429 72.911 388.743C78.387 387.104 90.2343 384.529 93.4633 380.629ZM140.994 380.674L141.107 380.708C142.089 381.007 143.088 381.374 144.188 381.104C149.105 382.744 153.892 384.605 158.642 386.542C163.767 388.957 172.02 391.765 176.461 385.929C175.823 388.99 176.725 390.037 172.485 390.8C165.756 392.96 160.35 391.854 154.767 388.904C150.676 386.946 146.276 385.39 142.317 383.263L142.263 383.226C141.484 382.679 140.545 381.68 140.994 380.674ZM151.206 367.497C152.49 365.166 155.945 363.886 158.514 364.745C158.776 366.993 158.099 369.51 159.549 371.462C158.265 371.683 156.984 371.938 155.706 372.203L154.536 372.446C153.962 372.57 153.232 372.782 153.328 373.381C153.434 374.043 154.317 373.841 154.905 373.674L155.133 373.609C156.784 373.13 158.432 372.642 160.062 372.096C160.921 373.026 162.074 373.756 163.193 374.461L162.729 374.513C161.104 374.693 159.462 374.856 157.856 375.18C157.155 375.385 157.306 376.326 158.024 376.251C159.941 375.758 161.854 375.202 163.804 374.849C164.757 375.469 165.706 376.092 166.662 376.71C164.782 376.977 162.895 377.002 161.016 377.159C159.8 377.27 159.8 378.906 161.016 378.811C163.211 378.613 165.404 377.974 167.493 377.248L168.594 377.961C169.879 378.792 171.167 379.621 172.468 380.432C173.251 380.923 174.262 381.389 174.809 382.1C176.536 384.846 172.22 387.469 169.303 387.426C164.874 387.472 161.184 385.209 157.304 383.854C155.158 383.331 144.245 377.954 143.252 379.369C142.627 379.074 141.759 378.968 141.309 378.481C141.218 376.233 141.7 373.878 142.104 371.61C142.186 371.215 142.383 370.74 142.405 370.334C144.222 370.993 144.74 373.49 147.133 373.278C147.507 373.867 148.66 373.592 149.181 373.125C149.747 372.616 149.818 371.9 149.953 371.262L150.016 370.969C150.27 369.793 150.575 368.589 151.206 367.497ZM97.34 176.821L97.6324 176.893C100.61 177.627 103.725 178.157 106.785 177.96C107.314 179.93 107.038 184.614 109.189 185.363C109.924 185.636 111.03 185.414 111.367 184.676C115.818 184.598 120.299 184.207 124.75 183.946C128.1 183.687 131.576 183.697 134.801 182.696C134.41 184.633 134.275 186.534 134.494 188.514C135.246 196.961 137.723 205.19 138.553 213.6L138.591 214.001L138.615 213.987C138.615 214.003 138.616 214.019 138.618 214.034C138.376 214.103 138.134 214.175 137.893 214.249C137.807 214.206 137.69 214.248 137.629 214.329C119.904 219.754 101.091 222.111 82.6187 219.723C79.3836 219.325 76.1718 218.769 72.9827 218.109C73.0105 217.828 72.5753 217.754 72.499 218.02C71.7912 217.898 71.0836 217.765 70.3796 217.676C70.4645 217.44 70.4794 217.185 70.3922 216.955C69.0194 212.901 69.6466 208.279 70.0796 204.075C70.6319 197.62 72.0083 191.288 73.1202 184.92C78.384 184.685 83.6162 183.839 88.9054 183.945C89.4625 185.366 91.4048 186.56 92.9255 185.748C93.9992 185.177 94.3172 183.933 94.7481 182.904C95.6001 180.872 96.4701 178.846 97.34 176.821ZM119.643 121.148C125.171 122.755 130.834 123.903 136.311 125.686C140.863 126.802 143.97 129.613 144.162 134.406C144.538 144.675 143.394 154.995 141.667 165.114L141.577 165.571C140.619 170.448 139.76 175.41 137.951 180.058C135.31 181.266 132.312 181.611 129.422 181.75C125.206 181.962 120.99 182.179 116.777 182.45L113.474 182.661C112.515 182.722 111.183 182.56 110.463 183.294C110.399 183.397 110.269 183.384 110.17 183.448L110.151 183.462C110.046 183.533 109.94 183.703 109.788 183.67C109.542 183.595 109.447 183.112 109.39 182.881L109.384 182.86C109.063 181.624 108.831 180.363 108.535 179.121C107.859 176.677 107.569 174.094 106.542 171.755C108.011 170.832 109.395 169.777 110.582 168.525L112.013 168.029C115.436 166.847 118.898 165.702 122.466 164.993C122.552 165.764 123.676 166.205 124.095 165.398C124.79 163.343 124.919 161.112 125.398 158.994C126.485 152.675 127.778 146.379 128.53 140.01C126.456 145.651 125.381 152.575 123.796 158.672C123.723 158.63 123.621 158.654 123.618 158.754C118.006 156.665 111.775 156.75 106.237 158.967C104.85 159.514 103.441 160.006 102.061 160.571C101.589 160.833 100.65 160.817 100.492 161.389C100.323 161.001 100.095 160.637 99.7922 160.391C99.6978 160.2 98.6251 159.858 98.5203 160.237C92.2284 161.086 86.1108 163.78 79.6368 163.325C80.4029 160.573 80.3122 157.601 80.3636 154.758L80.348 154.438C80.2148 151.638 80.1183 148.172 79.1538 145.867C79.771 151.669 79.3228 157.48 78.5696 163.227C74.0033 162.647 76.1059 165.217 79.1473 165.121C85.285 165.556 90.9493 162.884 96.5979 160.938C99.6832 159.724 100.033 160.752 99.8954 163.637C99.8925 167.393 98.1641 170.821 96.5984 174.154L95.895 175.71C94.7259 178.3 93.5728 180.873 92.4369 183.495C87.4743 181.875 81.887 182.764 76.7459 183.059C72.8231 183.544 70.0062 183.371 66.6875 181.138C65.4905 178.888 63.9132 176.753 63.2964 174.214C62.5811 171.887 62.3429 169.45 62.1343 167.039L62.3223 166.364C64.741 157.707 67.4176 149.093 71.0753 140.847L71.2731 140.393C72.5132 137.537 73.7727 134.541 76.2815 132.54C80.4917 129.481 85.6988 128.124 90.1247 125.402L90.153 125.601C90.6021 128.724 91.378 131.961 93.4089 134.473C97.1615 139.008 104.247 139.135 109.049 136.19C114.045 133.472 117.042 128.411 118.5 123.121L118.517 123.062C118.654 122.591 119.034 121.163 119.643 121.148ZM106.076 172.041C106.079 173.704 106.413 175.343 106.638 176.985C104.041 176.48 101.452 176.128 98.8974 175.446C101.386 174.521 103.804 173.407 106.076 172.041ZM112.33 158.629C116.117 157.899 119.994 158.335 123.739 158.923C123.332 160.785 122.867 162.629 122.479 164.493C121.138 164.433 108.417 166.65 109.852 168.43C107.975 169.418 106.196 170.58 104.327 171.589C102.447 172.605 100.489 173.477 98.4701 174.186L98.5766 173.953C100.314 170.132 101.938 165.833 100.599 161.657C102.4 162.368 104.857 160.841 106.602 160.269C108.454 159.538 110.361 158.961 112.33 158.629ZM139.594 143.834C139.582 143.137 137.394 145.136 137.109 145.343L136.936 145.497C134.837 147.372 132.763 149.434 131.593 152.007C131.508 154.535 135.337 148.41 135.867 148.036C137.026 146.569 138.437 145.295 139.594 143.834ZM79.0588 149.785C79.6506 149.977 78.0353 148.002 77.4053 148.146C77.1547 148.11 76.9365 148.467 77.2148 148.59L77.353 148.65C77.9994 148.926 78.6603 149.162 79.0588 149.785Z" fill="black"/>
<path fill-rule="evenodd" clip-rule="evenodd" d="M115.026 67.0793C107.803 66.6913 101.404 64.6942 96.3199 69.1638C96.3199 69.1638 88.0952 63.1193 86.7229 65.4214C85.8034 66.964 87.0786 69.0348 86.7367 70.9383C84.5071 74.6787 84.6332 81.0098 84.5071 82.4935C84.1894 86.2331 82.1881 100.305 82.1881 103.647C82.1881 105.353 83.6171 109.82 84.5071 112.306C86.488 117.839 90.2692 120.66 96.4701 120.66C102.671 120.66 112.792 115.559 116.038 111.031C116.323 110.634 118.162 111.792 120.087 109.783C122.171 107.607 123.328 103.457 123.328 100.983C123.328 97.8442 125.389 95.6672 125.149 91.6489C124.614 82.6749 122.754 67.4945 115.026 67.0793Z" fill="white"/>
<path fill-rule="evenodd" clip-rule="evenodd" d="M115.833 56.6457C115.739 56.6401 115.643 56.6446 115.548 56.6537C115.444 56.6583 115.34 56.6683 115.235 56.6887C114.705 56.789 114.231 57.0653 113.865 57.4545C113.854 57.4646 113.846 57.476 113.837 57.4861C113.665 57.6135 113.506 57.758 113.363 57.9113C113.337 57.8876 113.313 57.8641 113.287 57.8404C113.211 57.7748 113.132 57.7128 113.05 57.6543C112.704 57.3628 112.299 57.151 111.863 57.0304L111.804 57.0146C111.792 57.0112 111.781 57.0089 111.769 57.0067C111.46 56.9053 111.134 56.8534 110.807 56.8544C110.415 56.842 110.021 56.9053 109.655 57.0541C109.22 57.2313 108.842 57.5109 108.524 57.8471C108.316 58.0141 108.134 58.1978 107.941 58.3998C107.543 58.8182 107.229 59.3077 107.031 59.847C107.003 59.9226 106.979 60.0003 106.958 60.0782C106.473 60.023 105.986 59.9835 105.499 59.9642C104.952 59.9316 104.405 59.9202 103.857 59.9384C102.348 59.9868 100.871 60.2486 99.4421 60.728C99.1556 60.8113 98.877 60.9174 98.6088 61.0482C98.1882 61.2129 97.7905 61.4227 97.4157 61.6765L97.0964 61.8628C96.936 61.9566 96.7756 62.0516 96.6202 62.1491C96.25 62.3827 95.8993 62.6443 95.5669 62.9263C95.2161 63.205 94.8849 63.5084 94.5697 63.8264C94.4841 63.9125 94.4014 63.9997 94.3199 64.0874C93.5934 64.4733 92.9479 64.9673 92.346 65.5566C91.8686 65.2863 91.3742 65.0413 90.8641 64.8235C90.338 64.5991 89.6697 64.3678 89.1184 64.2157C88.6233 64.0792 88.1339 63.9856 87.6376 63.9166C87.4118 63.8783 87.1848 63.8478 86.9567 63.8219L86.9659 63.8254V63.8254C86.8054 63.8084 86.6461 63.7937 86.4845 63.7802L86.4891 63.779V63.779C86.4203 63.7735 86.3504 63.7677 86.2816 63.7632L86.1143 63.7498V63.7498C86.0639 63.7453 85.9905 63.8614 85.9859 63.902L85.9802 63.9437V63.9437C85.9424 63.9856 85.908 64.0318 85.8839 64.06C85.8541 64.0576 85.8243 64.0555 85.7945 64.0543C85.7051 64.0465 85.6019 64.2031 85.5492 64.2629L85.5015 64.318C85.4472 64.3823 85.393 64.4563 85.3842 64.537C85.3257 65.0052 85.2707 65.4744 85.2203 65.9436C85.2008 66.2989 85.2203 66.6508 85.2799 66.9994C85.3246 67.3378 85.3704 67.6762 85.4163 68.0134C85.4896 68.2504 85.5618 68.4873 85.634 68.7241C85.6627 68.8144 85.6948 68.9034 85.7257 68.9925C85.909 69.5876 86.1239 70.167 86.3799 70.7283C86.1931 70.9316 86.019 71.1423 85.8571 71.3599C85.8183 71.399 85.7794 71.438 85.7429 71.4786C85.7326 71.4629 85.7177 71.4482 85.7017 71.4402C85.6466 71.4165 85.6065 71.4447 85.5721 71.4911C85.2111 71.8305 84.9486 72.2265 84.7859 72.6787L84.6845 72.9146C84.6677 72.954 84.651 72.9935 84.6346 73.0329C84.505 73.3759 84.4053 73.7278 84.3228 74.0842C84.249 74.3646 84.196 74.6488 84.1619 74.9361C83.9143 75.7542 83.7185 76.5912 83.5339 77.4169C83.5048 77.5468 83.5185 77.6628 83.5608 77.7616L83.4528 77.8651V77.8651L83.2684 78.0459C82.9585 78.35 82.6423 78.6697 82.4121 79.0315C82.1737 79.4071 81.9983 79.8086 81.8035 80.2069L81.7615 80.2915V80.2915L81.6757 80.4612C81.5829 80.6464 81.5384 80.7488 81.4562 80.9727C81.3198 81.3462 81.2464 81.7217 81.2121 82.1177C81.1616 82.694 81.1685 83.3223 81.4252 83.858C81.4264 83.8626 81.4287 83.8661 81.431 83.8693C81.5479 84.3872 81.8367 84.8676 82.2757 85.1744C82.3697 85.2614 82.4706 85.3392 82.5783 85.4011C82.8369 85.5505 83.0743 85.5639 83.3566 85.4948L83.3921 85.4857C83.4276 85.4767 83.4597 85.4688 83.4907 85.462C83.4448 85.4992 83.4219 85.5433 83.4907 85.5748C83.5571 85.6064 83.6167 85.6245 83.6729 85.6312C83.6488 85.6617 83.6465 85.6944 83.697 85.7215C83.807 85.779 83.8964 85.7971 83.9881 85.7812L83.9688 85.938C83.8185 87.1247 83.6839 87.3594 83.5663 88.634C83.4884 89.9389 83.3646 91.2406 83.1938 92.5368L83.1349 93.0077C82.9464 94.5004 82.7344 96.0041 82.4098 97.4727C82.2459 98.1145 82.1049 98.7608 81.9857 99.4116C81.8172 99.9068 81.6992 100.413 81.6338 100.93C81.5387 101.456 81.4734 101.986 81.4356 102.52C81.3037 102.862 81.2396 103.21 81.243 103.564C81.2258 104.04 81.2419 104.515 81.2934 104.987C81.3221 105.479 81.3909 105.966 81.4997 106.449C81.5972 107.111 81.7748 107.751 82.0293 108.371C82.2333 109.064 82.4832 109.743 82.7674 110.407C83.2087 111.436 83.7417 112.391 84.348 113.333C84.9165 114.216 85.5263 115.067 86.2232 115.858C87.1241 116.879 88.1511 117.816 89.2766 118.605C89.9185 119.072 90.5959 119.492 91.3042 119.851C92.1707 120.29 93.051 120.686 93.9897 120.954C94.5754 121.121 95.1714 121.236 95.7743 121.324C96.9583 121.496 98.1848 121.47 99.3756 121.268C100.144 121.167 100.899 120.991 101.613 120.739C102.2 120.532 102.759 120.294 103.319 120.025C103.606 119.889 103.884 119.731 104.149 119.554C104.597 119.268 105.015 118.946 105.405 118.589C105.532 118.482 105.656 118.373 105.777 118.258C105.836 118.207 105.803 118.131 105.736 118.114L105.715 118.111V118.111C105.742 118.087 105.769 118.064 105.795 118.039C105.801 118.034 105.806 118.029 105.81 118.023C105.823 118.012 105.837 118.001 105.848 117.989C105.893 117.951 105.848 117.865 105.809 117.845C105.794 117.837 105.775 117.836 105.753 117.838C105.758 117.834 105.761 117.83 105.766 117.827C105.77 117.824 105.771 117.814 105.77 117.805L105.787 117.792V117.792C105.846 117.741 105.816 117.667 105.747 117.648C105.714 117.638 105.658 117.643 105.601 117.655L105.579 117.66L105.618 117.624C105.687 117.565 105.665 117.5 105.58 117.48C105.517 117.483 105.454 117.492 105.392 117.507L105.346 117.519C105.323 117.525 105.301 117.531 105.278 117.538C105.317 117.503 105.356 117.469 105.394 117.434C105.432 117.402 105.392 117.308 105.358 117.289C105.311 117.263 105.219 117.299 105.176 117.329C105.072 117.341 104.935 117.386 104.884 117.429C104.746 117.56 104.602 117.685 104.457 117.807C104.368 117.834 104.285 117.87 104.221 117.924C104.056 118.08 103.884 118.226 103.708 118.368L103.575 118.459C103.553 118.474 103.53 118.488 103.508 118.503C103.255 118.648 103.003 118.792 102.752 118.938C101.832 119.245 100.912 119.552 99.9923 119.857L99.8708 119.893V119.893L98.9779 120.002V120.002C98.3911 120.063 97.8031 120.059 97.2162 119.993C96.7761 119.998 96.3394 119.955 95.9096 119.867C95.1795 119.746 94.4631 119.566 93.7662 119.316C92.9639 119.028 92.1994 118.649 91.4532 118.241C91.185 118.093 90.9214 117.936 90.6623 117.771C90.5787 117.712 90.495 117.652 90.4113 117.591C89.86 117.184 89.3328 116.75 88.825 116.291C88.5866 116.075 88.3574 115.851 88.1362 115.618C88.1041 115.584 88.0731 115.552 88.0422 115.518C87.8301 115.29 87.625 115.054 87.429 114.811L87.2421 114.603V114.603C86.4879 113.679 85.8174 112.686 85.2145 111.663C84.6162 110.648 84.1234 109.581 83.7314 108.477C83.6053 108.083 83.4953 107.684 83.4036 107.28C83.2339 106.795 83.1227 106.298 83.0712 105.79C83.054 105.691 83.0402 105.592 83.0265 105.493L83.0186 105.336C83.0174 105.31 83.0165 105.284 83.0161 105.258C82.9932 105.1 82.9737 104.942 82.9588 104.784C82.9497 104.625 82.9439 104.466 82.9428 104.307L82.9554 103.331V103.331C82.9588 103.301 82.9623 103.269 82.9646 103.238L82.9898 103.022C83.0448 102.578 83.0872 102.132 83.1422 101.688C83.1422 101.686 83.1422 101.682 83.1434 101.679C83.164 101.513 83.1858 101.346 83.211 101.179C83.2236 101.08 83.2397 100.981 83.2546 100.881L83.2832 100.708V100.708C83.3364 100.406 83.4009 100.106 83.4792 99.8094L83.5136 99.6824L83.713 98.6954L83.9377 97.7242C84.0832 97.0734 84.2047 96.418 84.301 95.757C84.4752 94.7036 84.6242 93.6488 84.7538 92.5897C84.7606 92.5389 84.7675 92.487 84.7732 92.4363C84.9051 91.4539 85.0002 90.468 85.0621 89.4787C85.1458 88.5043 85.1939 87.5273 85.2065 86.5495C85.2076 86.5054 85.1778 86.4694 85.1423 86.449L85.1455 86.261C85.1497 86.0947 85.1528 86.2942 85.1542 86.1046L85.1564 85.583C85.1563 85.5395 85.1559 85.5093 85.1549 85.5071C85.7674 85.5488 86.1792 85.5147 86.7705 85.484L86.8708 85.4789C87.4129 85.4542 87.9516 85.3956 88.4869 85.3075C88.4892 85.3347 88.5075 85.3537 88.5385 85.3594C88.5935 85.3616 88.6451 85.3616 88.6978 85.3629L88.6783 85.4361V85.4361C88.6772 85.4734 88.6943 85.497 88.731 85.5071L88.8839 85.5139C89.088 85.5223 89.2929 85.5263 89.4955 85.4992C89.6778 85.4757 89.8554 85.4338 90.0319 85.3842C90.1408 85.3661 90.252 85.3414 90.3655 85.3097C90.6566 85.2274 90.9455 85.1169 91.2377 85.029C91.5357 84.9668 91.8383 84.9467 92.1547 85.021C92.4894 85.0988 92.7725 85.2398 93.1232 85.1541C93.1931 85.1373 93.2607 85.1113 93.3284 85.0842L93.3909 85.0799C93.4016 85.0789 93.4124 85.0778 93.4235 85.0763C93.7891 85.0245 94.1147 84.7966 94.4631 84.6747C94.5848 84.6455 94.7055 84.6529 94.8234 84.7013L94.8528 84.7143L94.9686 84.7989C95.0152 84.853 95.0613 84.9076 95.1069 84.9624L95.1749 85.0447C95.2998 85.1969 95.4328 85.3334 95.5944 85.4327C95.7892 85.6098 96.0208 85.7136 96.297 85.7203C96.454 85.7248 96.6099 85.6921 96.7612 85.6449C97.332 85.8186 97.9429 85.8535 98.5126 85.6843C98.7384 85.6504 98.9596 85.5907 99.1716 85.497C99.2713 85.453 99.3711 85.4011 99.4673 85.3436C99.8696 85.5106 100.25 85.7327 100.639 85.9246L100.726 85.9678C101.123 86.1625 101.563 86.3523 102.012 86.3239C102.578 86.2877 103.134 86.2134 103.689 86.1196C103.693 86.1196 103.699 86.1185 103.704 86.1174L103.78 86.1049V86.1049L104.058 86.0569V86.0569L104.281 86.016V86.016L104.396 86.0591C105.314 86.4012 106.321 86.668 107.244 86.4287C107.647 86.3803 108.024 86.2471 108.364 86.0204C108.375 86.0125 108.387 86.0046 108.398 85.9956C108.452 85.9685 108.503 85.9381 108.547 85.9054L108.557 85.898V85.898L108.566 85.8907L108.57 85.8884C109.074 85.6607 109.362 85.1755 109.312 84.6319C109.343 84.4593 109.342 84.2901 109.307 84.1097C109.471 84.3002 109.639 84.4887 109.808 84.6758C110.429 85.4111 111.036 86.1611 111.599 86.9418L111.728 87.1225C112.038 87.5522 112.325 87.9967 112.591 88.4545C112.861 88.9068 113.137 89.3548 113.422 89.7969C113.793 90.2005 114.152 90.6137 114.498 91.0371L114.645 91.2192L115.143 91.8633C115.494 92.274 115.787 92.7229 116.017 93.2101C116.206 93.5565 116.38 93.9095 116.537 94.2716C116.588 94.3809 116.636 94.4914 116.683 94.602C116.845 95.034 116.981 95.474 117.088 95.9285C117.173 96.2574 117.235 96.5909 117.271 96.929L117.282 97.0419C117.296 97.1749 117.307 97.308 117.312 97.4411C117.279 97.4604 117.252 97.4794 117.231 97.4986L117.147 97.528V97.528L117.08 97.5478C116.974 97.58 116.792 97.6466 116.835 97.7287L117.057 98.1439V98.1439C117.034 98.1676 117.023 98.1923 117.038 98.2195C117.186 98.498 117.335 98.7766 117.484 99.0553C117.489 99.0655 117.497 99.0733 117.505 99.079C117.378 99.1364 117.254 99.1996 117.136 99.2684C116.905 99.4039 116.736 99.5605 116.579 99.7433C116.414 99.8404 116.258 99.9464 116.111 100.068C115.93 100.255 115.772 100.461 115.638 100.683C115.514 100.893 115.413 101.111 115.335 101.34C115.301 101.461 115.285 101.586 115.286 101.714C115.425 102.677 116.544 102.017 116.566 101.933C116.72 101.351 116.896 100.983 117.293 100.55L117.303 100.543V100.543C117.532 100.444 117.759 100.346 117.997 100.269C118.032 100.276 118.069 100.28 118.105 100.286C118.064 100.343 118.085 100.4 118.168 100.41C118.53 100.48 118.894 100.499 119.261 100.469L119.818 100.391V100.391C120.049 100.478 120.27 100.59 120.478 100.723L120.547 100.769L120.559 100.778C121.097 101.203 121.512 101.768 121.796 102.384C121.821 102.439 121.846 102.494 121.869 102.55L121.903 102.634L121.905 102.639C122.276 104.075 121.945 105.652 121.267 106.954C120.896 107.538 120.51 108.109 120.107 108.67L119.715 109.174V109.174C119.483 109.389 119.256 109.609 119.035 109.834C119.001 109.868 118.964 109.902 118.927 109.934C118.81 110.01 118.691 110.077 118.57 110.133C118.523 110.149 118.475 110.163 118.426 110.176C118.193 110.286 117.947 110.345 117.689 110.352C117.349 110.374 117.018 110.335 116.699 110.235L116.635 110.214L116.588 110.197C116.414 110.088 116.252 109.951 116.098 109.791C116.064 109.756 116 109.756 115.927 109.775C115.886 109.735 115.846 109.692 115.808 109.646C115.782 109.618 115.741 109.617 115.709 109.638C115.6 109.626 115.305 109.79 115.382 109.877C115.395 109.897 115.411 109.915 115.425 109.934C115.373 109.96 115.321 109.99 115.276 110.02C115.035 110.086 114.679 110.322 114.708 110.394L114.712 110.399C114.767 110.503 114.84 110.59 114.929 110.659L114.959 110.681L115.027 110.727C114.932 110.786 114.851 110.854 114.892 110.901C114.91 110.936 114.929 110.97 114.952 111.001C114.757 111.237 114.564 111.476 114.371 111.716C114.179 112.126 113.94 112.51 113.656 112.865C113.419 113.251 113.133 113.597 112.8 113.906C112.772 113.933 112.744 113.959 112.716 113.985C112.47 114.164 112.213 114.331 111.945 114.492L111.83 114.56C111.769 114.596 111.667 114.642 111.715 114.728C111.721 114.74 111.728 114.749 111.736 114.755C111.568 114.864 111.393 114.966 111.213 115.061L111.196 115.072C111.128 115.114 111.036 115.192 111.133 115.255C111.216 115.309 111.435 115.163 111.538 115.095C111.557 115.095 111.58 115.089 111.603 115.083C111.569 115.101 111.535 115.12 111.5 115.139L111.448 115.167C111.408 115.191 111.211 115.319 111.349 115.374C111.416 115.379 111.478 115.362 111.536 115.324C111.603 115.291 111.67 115.256 111.735 115.22C111.712 115.255 111.712 115.29 111.769 115.313C111.789 115.314 111.808 115.313 111.828 115.311C111.693 115.395 111.554 115.474 111.411 115.548L111.387 115.563C111.327 115.601 111.23 115.675 111.301 115.738C111.38 115.808 111.597 115.659 111.654 115.625L111.821 115.527V115.527C111.834 115.533 111.847 115.535 111.862 115.536C111.812 115.567 111.765 115.599 111.713 115.628L111.643 115.666C111.555 115.714 111.431 115.792 111.476 115.871C111.521 115.949 111.655 115.885 111.741 115.834L111.834 115.778C111.838 115.775 111.842 115.773 111.846 115.771L111.85 115.784C111.85 115.786 111.851 115.789 111.853 115.791C111.896 115.865 112.004 115.816 112.079 115.774L112.138 115.738C112.24 115.678 112.341 115.618 112.441 115.558L112.59 115.467H112.592C113.109 115.162 113.587 114.857 114.038 114.465C114.307 114.23 114.558 113.982 114.796 113.717C115.276 113.185 115.632 112.577 115.976 111.957C115.982 111.947 115.974 111.921 115.96 111.893C115.998 111.816 116.034 111.738 116.071 111.658C116.424 111.755 116.818 111.783 117.182 111.76C117.376 111.747 117.569 111.713 117.76 111.663C118.371 111.579 118.96 111.305 119.469 110.977C119.501 110.956 119.53 110.934 119.56 110.914C119.77 110.797 119.969 110.662 120.158 110.507C120.527 110.207 120.879 109.874 121.199 109.525C121.431 109.254 121.649 108.973 121.855 108.682C122.063 108.395 122.274 108.107 122.485 107.82C123.071 106.917 123.446 105.878 123.591 104.817C123.662 104.426 123.699 104.03 123.691 103.635C123.685 103.349 123.653 103.061 123.597 102.773C123.63 102.741 123.663 102.71 123.697 102.677C123.715 102.709 123.733 102.731 123.745 102.72L124.007 102.461C124.194 102.276 124.319 102.14 124.533 101.841C124.875 101.364 125.129 100.84 125.318 100.287C125.455 99.8923 125.545 99.4432 125.581 99.0091C125.592 98.9368 125.604 98.8635 125.613 98.789C125.686 98.2013 125.619 97.6385 125.528 97.0587C125.522 97.0205 125.503 96.9968 125.477 96.9843C125.47 96.9383 125.462 96.8912 125.454 96.8442C126.213 96.0532 126.76 95.1 126.715 93.9488C126.701 93.586 126.626 93.2284 126.481 92.8946L126.464 92.8569V92.8569C127.097 92.761 127.6 92.3229 127.978 91.7799C128.011 91.7538 128.044 91.7276 128.075 91.7014C128.75 91.1338 129.218 90.3301 129.539 89.4812C129.769 88.9883 129.921 88.4615 129.985 87.9151C129.99 87.8761 129.993 87.8374 129.996 87.7986C130.153 86.9347 130.193 86.0621 130.12 85.2025C130.278 84.6704 130.406 84.129 130.493 83.5749C130.535 83.3111 130.563 83.047 130.585 82.7831L130.587 82.7685L130.591 82.7211L130.601 82.6027C130.602 82.5831 130.603 82.5635 130.605 82.544C130.798 80.1278 130.249 77.7501 129.341 75.5122C129.262 75.3109 129.181 75.1102 129.096 74.911L129.007 74.703V74.703C128.096 73.2569 126.728 72.0873 125.569 70.8521C125.169 70.4259 125.816 69.7862 126.217 70.214C126.987 71.0347 127.813 71.8208 128.559 72.6644C128.691 72.6739 128.822 72.6774 128.954 72.6709C129.183 72.6595 129.406 72.6236 129.621 72.5659C130.159 72.4881 130.648 72.2749 131.093 71.9613C131.688 71.6885 132.195 71.174 132.246 70.5029C132.252 70.4352 132.251 70.3686 132.246 70.3022C132.301 69.9738 132.252 69.6299 132.112 69.3129C132.088 69.226 132.057 69.1403 132.018 69.0557C131.904 68.8041 131.718 68.5629 131.489 68.3992C131.484 68.3958 131.479 68.3937 131.475 68.3902C131.45 68.3655 131.428 68.3405 131.401 68.3181C131.362 68.283 131.321 68.2504 131.277 68.22C131.432 67.9694 131.572 67.7124 131.691 67.4382C131.821 67.1404 131.887 66.8382 131.924 66.5189C131.939 66.3925 131.944 66.2673 131.947 66.1422C131.954 66.0846 131.958 66.0259 131.963 65.9673C131.991 65.5206 131.939 65.0571 131.769 64.6397C131.756 64.6082 131.74 64.5765 131.726 64.5438C131.693 64.449 131.658 64.3544 131.614 64.2618C131.445 63.9065 131.204 63.6053 130.907 63.3583C130.747 63.1992 130.567 63.0583 130.371 62.9387C130.255 62.8676 130.123 62.8045 129.984 62.7526C129.737 62.624 129.419 62.5067 129.162 62.4978C129.131 62.4965 129.103 62.5 129.073 62.5C129.049 61.8525 128.964 61.1475 128.704 60.5609C128.553 60.1358 128.326 59.7579 127.984 59.486C127.786 59.2825 127.542 59.1173 127.238 59.0092L127.183 58.9908L127.163 58.9851C126.889 58.8543 126.593 58.8024 126.289 58.8037C125.935 58.7855 125.574 58.851 125.266 59.0111C125.201 59.0449 125.133 59.0867 125.067 59.1318C125.018 59.0348 124.963 58.9366 124.9 58.8386C124.679 58.49 124.412 58.1865 124.102 57.9102C124.066 57.8775 124.025 57.8482 123.987 57.8167C123.836 57.6825 123.677 57.5584 123.512 57.4456C123.156 57.2018 122.765 57.0203 122.354 56.9029C121.881 56.7306 121.381 56.6507 120.881 56.6675L120.777 56.6718V56.6718C120.754 56.6739 120.731 56.6751 120.71 56.6762C120.213 56.7079 119.724 56.8275 119.256 57.0078C118.771 57.1963 118.361 57.4816 117.979 57.8087C117.89 57.687 117.788 57.5718 117.663 57.4635C117.627 57.4332 117.59 57.406 117.554 57.3778C117.527 57.3507 117.498 57.3248 117.468 57.2988C117.332 57.1804 117.187 57.0777 117.029 56.9864C116.852 56.8838 116.66 56.8128 116.462 56.7688C116.26 56.701 116.048 56.6593 115.833 56.6457ZM118.188 103.146C118.168 103.145 117.106 103.537 116.577 103.79L116.551 103.803C115.941 104.101 115.648 104.315 115.1 104.697C115.063 104.723 115.026 104.763 115.026 104.801C115.026 105.358 115.163 106.039 115.639 105.737C115.708 105.694 115.777 105.651 115.847 105.609L115.952 105.547L115.955 105.548C115.954 105.548 115.953 105.547 115.952 105.546C116.988 104.924 118.083 104.437 119.238 104.088C119.317 104.06 118.731 103.189 118.57 103.238C118.662 103.202 118.203 103.147 118.188 103.146ZM107.301 78.547C107.99 78.6195 108.679 78.6909 109.368 78.7607C109.807 78.8104 110.247 78.8544 110.687 78.8916C111.349 78.9402 112.01 78.948 112.669 78.8589C112.903 78.8274 113.132 78.7822 113.359 78.7269C113.514 78.8386 113.674 78.9435 113.838 79.044L115.658 80.4144V80.4144C116.879 81.3586 118.073 82.359 119.148 83.4633C121.026 85.3926 122.555 87.6496 123.517 90.1498C123.604 90.2004 123.672 90.2887 123.694 90.4242C123.864 91.449 124.361 92.3836 124.54 93.4042C124.717 94.4095 124.482 95.264 123.84 96.0608C123.703 96.231 123.423 96.222 123.251 96.1071C123.211 96.1844 123.037 96.1812 122.976 95.8394C122.691 95.5354 122.447 95.2168 122.282 94.8222C122.16 94.5316 122.365 94.3302 122.613 94.2906C122.51 93.9251 122.393 93.5629 122.263 93.2046C121.875 92.1396 121.382 91.1223 120.762 90.1681C120.217 89.3287 119.585 88.5978 118.907 87.8646C118.899 87.8545 118.885 87.8512 118.87 87.8489L118.729 87.6954V87.6954C118.709 87.674 118.669 87.6762 118.625 87.6875C118.582 87.6435 118.541 87.5984 118.497 87.5544C118.455 87.5093 118.408 87.5228 118.382 87.5589C118.309 87.5431 118.178 87.6198 118.138 87.6448C118.069 87.6898 118.047 87.7405 118.105 87.8048C118.116 87.8162 118.126 87.8275 118.136 87.8375C118.057 87.8704 117.979 87.9143 117.919 87.9572C117.707 88.0034 117.409 88.1974 117.46 88.255C117.569 88.3666 117.674 88.4806 117.779 88.5967C117.687 88.66 117.627 88.7219 117.652 88.7491C118.099 89.2125 118.511 89.7033 118.889 90.2232C119.177 90.6112 119.437 91.015 119.67 91.4358C120.016 92.0314 120.31 92.6438 120.57 93.2733C120.606 93.3692 120.642 93.465 120.676 93.5609C121.057 94.6088 121.341 95.6961 121.461 96.8038L121.466 96.8785C121.489 97.2775 121.498 98.3459 121.539 98.6007C121.286 98.7236 121.022 98.8285 120.749 98.9144C120.697 98.929 120.644 98.9426 120.592 98.955C120.562 98.9426 120.531 98.9323 120.5 98.9233C120.248 98.8229 119.984 98.7507 119.715 98.7157C119.533 98.6921 119.353 98.6839 119.172 98.689L119.095 98.692C119.014 98.6943 118.935 98.6999 118.855 98.7079C118.86 98.6627 118.862 98.6188 118.865 98.5736C118.888 98.5589 118.905 98.5387 118.907 98.5116C118.96 98.004 118.962 97.4964 118.91 96.9888C118.876 96.7237 118.836 96.4598 118.792 96.1959C118.747 95.9793 118.696 95.7662 118.64 95.5529C118.491 94.9552 118.292 94.3719 118.052 93.8013C117.366 92.1735 116.384 90.706 115.396 89.2464C114.675 88.1806 113.993 87.0908 113.247 86.0429C112.612 85.1507 111.945 84.272 111.233 83.4373C110.522 82.6039 109.772 81.8018 108.961 81.0597C108.831 80.9411 108.699 80.8261 108.565 80.7123C107.797 80.0355 106.962 79.4793 106.093 78.9334C106.06 78.912 106.001 78.9357 105.951 78.9762L105.811 78.8914C105.788 78.8773 105.764 78.8634 105.74 78.8499C105.719 78.8364 105.695 78.8589 105.682 78.8781C105.622 78.8476 105.563 78.8184 105.503 78.7889C105.46 78.7544 105.415 78.7217 105.371 78.6877C106.015 78.6557 106.659 78.6084 107.301 78.547ZM99.2209 71.0274C99.7413 70.9248 100.264 70.9101 100.789 70.9868C101.009 71.0185 101.228 71.0566 101.445 71.1027C100.952 71.5257 100.555 72.067 100.298 72.69C100.02 73.3634 101.129 73.6536 101.403 72.9899C101.668 72.3497 102.168 71.8586 102.773 71.5642C102.904 71.636 103.03 71.7139 103.151 71.8C103.309 71.9264 103.458 72.0629 103.598 72.2129C103.903 72.539 104.183 72.9743 104.366 73.4051C104.437 73.6398 104.49 73.8811 104.523 74.1293C104.53 74.1857 104.537 74.2432 104.543 74.3008C104.656 75.4681 104.316 76.6038 103.733 77.6089L103.71 77.6092V77.6092C103.189 77.3313 102.644 77.0971 102.083 76.9064C101.634 76.6087 101.167 76.3334 100.687 76.0841C99.6659 75.554 98.5876 75.1454 97.4764 74.866L97.348 74.8343C97.0863 74.7685 96.8222 74.7105 96.557 74.6598L96.3978 74.6302H96.3955L96.4127 74.4621V74.4621C96.5021 73.8022 96.7646 73.1897 97.1039 72.6236C97.3583 72.1961 97.7423 71.7584 98.1687 71.4087L98.171 71.4075C98.3646 71.2992 98.5681 71.2096 98.7776 71.1356L98.8564 71.1086L99.2209 71.0274ZM113.193 70.0247C114.275 69.9242 115.357 69.9344 116.439 70.0212C117.146 70.0901 117.849 70.1859 118.548 70.3077C119.021 70.3878 119.485 70.5006 119.942 70.6406L119.681 71.1599C119.245 72.0247 118.798 72.8838 118.272 73.7007C118 74.1214 117.705 74.5219 117.384 74.9065C117.168 75.1817 116.929 75.4367 116.668 75.6712C116.599 75.7537 116.526 75.8315 116.451 75.907C116.213 76.1078 115.956 76.2837 115.676 76.4292C115.45 76.5907 115.215 76.7317 114.97 76.8553L114.878 76.9008L114.018 77.2256C113.972 77.2384 113.926 77.2511 113.879 77.2633L113.81 77.281L113.679 77.3079L113.581 77.2555C113.564 77.2469 113.548 77.2384 113.531 77.2301C113.504 77.2155 113.484 77.2437 113.478 77.2639C113.476 77.2719 113.479 77.2831 113.485 77.2944L113.36 77.2277V77.2277C113.145 77.3138 112.916 77.3826 112.671 77.4279C112.56 77.4484 112.449 77.464 112.337 77.4775L112.322 77.4873C112.32 77.489 112.317 77.4908 112.315 77.493H112.193V77.493C111.336 77.5744 110.467 77.4669 109.612 77.3156C108.401 77.1958 107.191 77.0637 105.981 76.9402C105.958 76.9381 105.949 76.9481 105.949 76.964L105.875 76.9572V76.9572C105.767 76.9458 105.641 77.1229 105.722 77.1873C105.657 77.2256 105.594 77.281 105.547 77.3238L105.519 77.3215C105.685 77.0011 105.814 76.6661 105.905 76.3177L106.022 75.7333V75.7333C106.054 75.5156 106.073 75.2833 106.076 75.0542C106.084 74.9493 106.09 74.8513 106.09 74.7655C106.09 74.6843 106.089 74.603 106.085 74.5219C106.313 74.4293 106.545 74.3482 106.781 74.2793C107.452 74.1982 108.121 74.1169 108.792 74.0368C109.194 74.0515 109.596 74.0797 109.997 74.1237C110.452 74.1631 110.906 74.2139 111.359 74.2748C111.401 74.2793 111.477 74.2229 111.523 74.1575L111.717 74.1836V74.1836C111.817 74.196 111.923 73.9973 111.79 73.9567C111.742 73.9379 111.694 73.9201 111.646 73.903L111.573 73.8778L111.615 73.8823C111.628 73.8835 111.646 73.88 111.665 73.8734C111.772 73.8868 111.878 73.9003 111.984 73.9127C112.117 73.9292 112.087 73.7556 111.993 73.7148L111.948 73.6984C112.027 73.6498 112.097 73.5168 111.999 73.4733L111.986 73.4683C111.94 73.4504 111.895 73.4356 111.85 73.4187C111.853 73.4041 111.853 73.3905 111.848 73.3782L112.038 73.4018V73.4018C112.055 73.404 111.973 73.2852 111.933 73.2617L111.926 73.2585L111.836 73.2314C111.822 73.1931 111.749 73.1085 111.723 73.1007C111.391 72.9979 111.082 72.9056 110.758 72.8344C110.742 72.8152 110.724 72.8005 110.703 72.796C110.502 72.7487 110.298 72.7114 110.094 72.68C110.08 72.6596 110.066 72.645 110.05 72.6438C109.545 72.5806 109.038 72.5659 108.529 72.5999C108.432 72.6088 108.334 72.6191 108.237 72.6314C108.05 72.6518 107.863 72.6777 107.677 72.7127C107.212 72.7912 106.758 72.9106 106.316 73.0717L106.214 73.1096C106.103 73.1503 105.993 73.1931 105.884 73.2394C105.829 73.0466 105.76 72.8569 105.679 72.6709C105.666 72.6347 105.652 72.5999 105.637 72.5649L105.748 72.4994V72.4994C105.772 72.5445 105.822 72.5795 105.854 72.5604C106.65 72.0314 107.493 71.5902 108.381 71.2383C108.879 71.0217 109.388 70.838 109.909 70.6845C110.169 70.6022 110.432 70.5278 110.695 70.4567C110.827 70.4296 110.959 70.4025 111.093 70.3799C111.782 70.1972 112.482 70.0789 113.193 70.0247ZM86.9438 71.8152C87.0405 71.9796 87.1411 72.1425 87.2478 72.3031C87.766 73.0836 88.3873 73.8159 89.0917 74.4545C88.908 74.454 88.7247 74.4609 88.5437 74.4776C88.2316 74.5066 87.9259 74.5576 87.6279 74.629C87.6037 74.6099 87.5767 74.6003 87.555 74.6155L87.4773 74.6684V74.6684C86.8381 74.8381 86.2379 75.105 85.6943 75.4626L85.704 75.392C85.7057 75.3802 85.7075 75.3684 85.7096 75.3566C85.7005 75.2179 85.6982 75.0791 85.7028 74.9414C85.8151 74.1282 86.0959 73.3792 86.4168 72.6213C86.4229 72.6066 86.4186 72.5876 86.4093 72.5682C86.5712 72.3078 86.7486 72.0561 86.9438 71.8152ZM86.7963 65.4214C87.0358 65.4642 87.2731 65.5195 87.5092 65.5883C87.9528 65.6538 88.3826 65.7689 88.7975 65.9323C89.3694 66.132 89.9242 66.3643 90.4766 66.6103C91.5495 67.0885 92.5558 67.6932 93.4716 68.4219C93.5301 68.4658 93.5862 68.511 93.6424 68.5561C93.8476 68.7308 94.047 68.9136 94.2361 69.1064C94.4344 69.3185 94.6339 69.5307 94.8321 69.7437C95.0751 69.9943 95.3548 70.2209 95.5749 70.4916C95.6196 70.5469 95.6585 70.6078 95.6941 70.6688L95.5646 70.7127V70.7127C95.4557 70.7488 95.474 70.9495 95.5817 70.9202C95.6184 70.9101 95.6528 70.8977 95.6872 70.8842C95.6723 70.9034 95.662 70.9226 95.6597 70.9394C95.6528 70.9935 95.6952 71.0681 95.7628 71.0489C95.7938 71.0409 95.8247 71.0296 95.8557 71.0172C95.8649 71.0522 95.8717 71.0872 95.8717 71.121C95.866 71.1233 95.8603 71.1255 95.8534 71.1268C95.7777 71.1527 95.6356 71.2688 95.615 71.3478C95.5989 71.4087 95.6517 71.4741 95.7193 71.456C95.7697 71.4425 95.819 71.4222 95.8671 71.3996C95.8351 71.4302 95.8098 71.4629 95.8075 71.4911C95.803 71.543 95.8488 71.6162 95.9118 71.5994C96.0288 71.5677 96.1227 71.5193 96.2007 71.4584C96.2213 71.4853 96.2511 71.5068 96.2752 71.5001L96.3199 71.4866V71.4866C96.3077 71.4978 96.2965 71.5096 96.2856 71.5212L96.2695 71.5383C95.9531 71.8745 95.6769 72.2467 95.4557 72.6473C95.4454 72.6359 95.4327 72.6257 95.4167 72.6133C95.3135 72.5276 95.2069 72.4441 95.1004 72.363L95.0681 72.3353V72.3353L95.035 72.3076L95.2746 72.3855L95.2693 72.3793C95.2523 72.358 95.1996 72.2869 95.1751 72.2632L95.1691 72.258C94.8402 71.9682 94.4814 71.7222 94.094 71.5215C93.843 71.3613 93.5794 71.2259 93.3031 71.1142C92.6441 70.8131 91.9724 70.5842 91.2824 70.3721C91.1793 70.3394 91.0761 70.3045 90.9729 70.2728C90.9431 70.2626 90.9374 70.275 90.942 70.2953L90.8881 70.2795V70.2795C90.7918 70.2491 90.6279 70.416 90.6933 70.4938C90.6538 70.5254 90.6152 70.5606 90.5813 70.5936L90.5569 70.6179L90.5294 70.61C90.4475 70.5852 90.3093 70.7108 90.2216 70.7998L90.1569 70.8672C90.1076 70.9191 90.0113 71.0262 90.1294 71.0681L90.2772 71.1176V71.1176C90.2726 71.1469 90.2852 71.1718 90.3311 71.1887C90.3827 71.2056 90.4331 71.2236 90.4835 71.2418C90.453 71.268 90.4229 71.2953 90.3934 71.323L90.3494 71.3646C90.2975 71.4168 90.1745 71.5317 90.2831 71.5824L90.2967 71.588L90.4377 71.6376C90.4193 71.6782 90.4239 71.7167 90.4858 71.7391C91.3088 72.0144 92.1123 72.3371 92.8974 72.7037C93.4854 73.0239 94.1066 73.2631 94.7611 73.4198C94.815 73.4368 94.9319 73.3568 94.98 73.2767L95.0777 73.305C95.094 73.3096 95.1103 73.3142 95.1267 73.3183L95.1428 73.3218V73.3218C95.0201 73.6433 94.9296 73.9917 94.8791 74.3289C94.8734 74.3594 94.8688 74.3911 94.8654 74.4216C94.737 74.4113 94.6098 74.4023 94.4814 74.3956C93.5931 74.3493 92.6945 74.3775 91.8039 74.4812C91.444 74.2703 91.0979 74.0391 90.7666 73.7888C90.6658 73.7119 90.566 73.633 90.4675 73.5529C89.876 73.0476 89.3408 72.4803 88.8663 71.8677C88.4273 71.3003 88.0456 70.6912 87.7247 70.0529C87.4404 69.4539 87.2054 68.8312 87.0278 68.1883C86.865 67.6006 86.8089 67.0287 86.7676 66.4207C86.7538 66.3215 86.7447 66.2223 86.7367 66.123L86.7376 66.0804V66.0804L86.7389 66.0598C86.7504 65.8467 86.7722 65.6334 86.7963 65.4214ZM95.1944 72.9754C95.2207 72.9844 95.2482 72.9934 95.2757 73.0013C95.2597 73.0363 95.2448 73.0702 95.2299 73.1051L95.2282 73.1044V73.1044L95.1198 73.0205V73.0205C95.1428 73.0104 95.1691 72.9947 95.1944 72.9754ZM86.9567 63.8219C86.7504 63.7464 86.5945 63.7317 86.4891 63.7791C86.645 63.7903 86.8008 63.805 86.9567 63.8219Z" fill="black"/>
<path fill-rule="evenodd" clip-rule="evenodd" d="M99.9057 106.102C97.9409 105.868 96.0364 106.46 94.1156 106.758C93.1015 106.915 92.0861 107.033 91.0598 107.077C90.8534 107.086 90.6468 107.091 90.4403 107.095C90.4211 106.916 90.3193 106.752 90.0988 106.653C89.6468 106.452 89.285 106.361 88.7887 106.38C88.3345 106.398 87.8786 106.444 87.4313 106.524C86.619 106.671 85.8031 107.003 85.2089 107.581C83.8338 108.918 84.0431 111.066 85.1056 112.522C87.3008 115.531 91.3073 115.671 94.7388 115.632L95.0554 115.627C98.1798 115.584 102.65 116.042 104.069 112.544C104.591 111.257 104.519 109.766 103.88 108.532C103.118 107.061 101.513 106.294 99.9057 106.102ZM90.1461 111.113L90.1741 111.114C91.6147 111.168 93.0549 111.207 94.4963 111.232C94.4531 111.596 94.4091 111.96 94.3588 112.324C94.3193 112.61 94.277 112.896 94.233 113.181C94.2143 113.302 94.1459 113.489 94.1653 113.609L94.1722 113.656V113.656C94.0982 113.689 94.0311 113.742 93.9811 113.819C93.9637 113.846 93.9512 113.873 93.9386 113.9C92.8196 113.908 91.6153 113.887 90.4746 113.687L90.4723 113.662V113.662C90.4516 113.519 90.391 113.422 90.3105 113.356C90.2303 112.899 90.2376 112.412 90.2066 111.958C90.1873 111.676 90.1664 111.394 90.1461 111.113ZM95.5971 111.251C96.6354 111.268 97.6741 111.282 98.7122 111.269L99.1835 111.262V111.262C99.0839 111.788 98.9756 112.311 98.8856 112.84C98.7917 113.391 99.2848 113.742 99.7115 113.728C99.6636 113.735 99.6158 113.743 99.5679 113.75C98.2346 113.936 96.8503 113.886 95.4972 113.885C95.57 113.467 95.5405 112.995 95.5514 112.646L95.5535 112.592C95.5742 112.145 95.5887 111.698 95.5971 111.251ZM102.65 111.155C102.614 111.428 102.544 111.695 102.439 111.944C101.996 112.996 100.979 113.487 99.9043 113.693C100.091 113.63 100.239 113.478 100.276 113.217C100.37 112.568 100.403 111.909 100.406 111.25C101.155 111.243 101.909 111.228 102.65 111.155ZM86.2388 110.93C86.7723 111.054 87.3921 110.997 87.9155 111.021C88.4058 111.042 88.8964 111.062 89.3867 111.081C89.3636 111.411 89.341 111.74 89.3166 112.069C89.285 112.495 89.282 112.944 89.1992 113.368C88.2124 113.037 87.3282 112.505 86.6649 111.655C86.4996 111.443 86.3516 111.195 86.2388 110.93ZM100.131 107.828C101.019 108.035 101.86 108.472 102.311 109.272C102.579 109.746 102.697 110.308 102.675 110.863C101.924 110.777 101.161 110.744 100.401 110.717C100.398 110.582 100.395 110.448 100.391 110.314L100.379 109.97C100.359 109.314 100.348 108.49 100.131 107.828ZM95.535 107.908L95.9259 107.865C97.0116 107.743 98.0968 107.615 99.1827 107.688C99.3398 107.699 99.4993 107.716 99.6592 107.739C99.4673 108.421 99.4834 109.221 99.4033 109.896C99.3723 110.156 99.3332 110.415 99.2898 110.673L99.1014 110.664V110.664C97.9363 110.602 96.7701 110.564 95.6041 110.518C95.6041 110.303 95.6029 110.087 95.5994 109.872L95.5951 109.656C95.5819 109.105 95.618 108.485 95.535 107.908ZM90.0826 107.82C91.2198 108.001 92.3951 108.04 93.5122 108.041C93.9584 108.041 94.4043 108.014 94.85 107.976C94.821 108.209 94.8059 108.445 94.784 108.676C94.74 109.141 94.6897 109.606 94.635 110.07L94.5863 110.476V110.476C93.1531 110.412 91.72 110.343 90.2871 110.271L90.0849 110.261V110.261L90.0283 109.48C89.9897 108.96 89.9472 108.439 89.8873 107.921L89.9322 107.905V107.905C89.9851 107.884 90.0352 107.854 90.0826 107.82ZM89.5888 108.014C89.5261 108.75 89.4915 109.489 89.4454 110.227L88.5008 110.177C88.3433 110.169 88.1859 110.16 88.0285 110.151C87.4164 110.116 86.6299 109.934 86.0247 110.104C85.9785 109.563 86.1358 109.035 86.6323 108.671C87.5039 108.033 88.6138 108.26 89.5888 108.014ZM92.8161 101.434C91.4095 100.642 87.8803 99.8314 87.6568 102.323C87.554 103.469 88.42 104.419 89.4312 104.843L89.4692 104.858C90.4177 105.242 92.0988 105.675 92.9196 104.843C93.6027 104.151 92.6966 102.909 91.8478 103.476C91.4115 103.768 90.4933 103.553 90.0065 103.414L89.9761 103.405C89.4508 103.254 88.7505 102.767 88.9677 102.131C89.1599 101.568 89.9778 101.465 90.49 101.447C91.2546 101.42 91.9987 101.594 92.7564 101.651C92.8764 101.66 92.9134 101.489 92.8161 101.434ZM86.9895 97.4286C85.0804 97.3407 83.8928 99.392 84.3318 101.073C84.4077 101.363 84.7373 101.647 85.0555 101.615L85.1357 101.608C85.1764 101.604 85.2173 101.599 85.2549 101.588C85.5571 101.506 85.8279 101.197 85.8059 100.876L85.8001 100.783C85.7555 99.9889 85.843 99.0741 86.8018 98.8818C87.615 98.7187 88.069 99.489 88.0787 100.198C88.0805 100.324 88.2242 100.412 88.3374 100.344C88.9252 99.9921 89.027 99.2917 88.8025 98.6886C88.5179 97.9244 87.8056 97.4662 86.9895 97.4286ZM101.157 97.8686C99.7673 97.4124 98.2685 98.1412 97.5958 99.35C97.3598 99.4172 97.1241 99.5962 97.1569 99.8703C97.2043 100.265 97.2755 100.513 97.5534 100.812C97.9879 101.28 98.8018 101.041 98.9825 100.465L98.9901 100.439C99.1953 99.6947 100.028 99.2035 100.786 99.4641C101.672 99.7684 101.647 100.689 102.268 101.226C102.341 101.289 102.429 101.299 102.516 101.257C103.176 100.943 103.058 99.9985 102.822 99.4578C102.514 98.7482 101.914 98.1171 101.157 97.8686ZM103.049 93.7168C101.923 92.5864 98.9873 91.4925 98.2172 93.58C98.0705 93.9776 98.3828 94.5137 98.8035 94.5962C99.4923 94.7311 100.103 94.4368 100.788 94.4896C101.342 94.5326 101.919 94.7147 102.362 95.0525C103.589 95.9878 103.859 97.5698 104.714 98.7602C104.755 98.8182 104.836 98.7938 104.844 98.7255C105.038 96.9923 104.282 94.9549 103.049 93.7168ZM88.3666 92.604C87.6195 92.3443 86.7735 92.3665 86.0226 92.5969C85.2661 92.829 84.5716 93.2698 84.0366 93.8458C83.7938 94.1072 83.5692 94.3958 83.389 94.7029C83.2933 94.8657 83.1926 95.2019 83.0839 95.4021C82.4954 95.7365 82.2438 96.4985 82.7707 97.0406L82.7945 97.0643L82.8649 97.1331C83.1482 97.409 83.5752 97.5286 83.9618 97.4184C84.827 97.172 84.9321 96.5015 85.2316 95.7897C85.4294 95.3196 85.7683 94.9036 86.1793 94.598C87.1504 93.8761 88.7428 93.6461 89.912 93.9863C89.9743 94.0045 90.0474 93.9264 90.003 93.8698C89.7815 93.5873 89.6538 93.3555 89.3572 93.1277C89.0561 92.8965 88.7275 92.7294 88.3666 92.604Z" fill="black"/>
</svg>
